<?xml version="1.0" standalone="no"?>
<!DOCTYPE svg PUBLIC "-//W3C//DTD SVG 20010904//EN"
 "http://www.w3.org/TR/2001/REC-SVG-20010904/DTD/svg10.dtd">
<svg version="1.0" xmlns="http://www.w3.org/2000/svg"
 width="400.000000pt" height="400.000000pt" viewBox="0 0 400.000000 400.000000"
 preserveAspectRatio="xMidYMid meet">
<metadata>
Created by potrace 1.16, written by Peter Selinger 2001-2019
</metadata>
<g transform="translate(0.000000,400.000000) scale(0.100000,-0.100000)"
fill="#000000" stroke="none">
<path d="M3100 3289 c0 -5 5 -7 10 -4 6 3 10 8 10 11 0 2 -4 4 -10 4 -5 0 -10
-5 -10 -11z"/>
<path d="M3033 3210 c-17 -15 -36 -37 -42 -49 -19 -34 28 -22 56 16 36 47 27
70 -14 33z"/>
<path d="M3280 3180 c0 -5 4 -10 9 -10 6 0 13 5 16 10 3 6 -1 10 -9 10 -9 0
-16 -4 -16 -10z"/>
<path d="M2246 3141 c-4 -7 -5 -15 -2 -18 9 -9 19 4 14 18 -4 11 -6 11 -12 0z"/>
<path d="M2415 3131 c-6 -11 9 -23 19 -14 9 9 7 23 -3 23 -6 0 -12 -4 -16 -9z"/>
<path d="M2725 3110 c-3 -5 -2 -10 4 -10 5 0 13 5 16 10 3 6 2 10 -4 10 -5 0
-13 -4 -16 -10z"/>
<path d="M3257 3104 c6 -15 23 -19 23 -5 0 5 -7 11 -14 14 -10 4 -13 1 -9 -9z"/>
<path d="M2772 3098 c-19 -19 -14 -33 13 -33 14 0 25 6 25 13 0 6 -5 12 -11
12 -5 0 -7 5 -4 10 9 14 -8 13 -23 -2z"/>
<path d="M2710 3070 c-6 -11 -16 -20 -23 -20 -7 0 -6 4 3 10 17 11 16 11 -23
16 -23 2 -27 0 -23 -13 5 -12 2 -14 -14 -9 -11 3 -29 9 -40 12 -15 5 -20 2
-20 -11 0 -13 -8 -16 -37 -13 -35 3 -38 1 -38 -22 0 -22 -5 -25 -35 -26 -19 0
-43 -4 -52 -8 -10 -5 -25 -6 -33 -2 -22 8 -65 -11 -65 -29 0 -9 -5 -13 -10
-10 -6 3 -26 0 -46 -7 -29 -10 -37 -10 -43 1 -10 16 -81 7 -81 -11 0 -6 11 -8
25 -5 16 3 24 0 22 -7 -5 -15 -29 -15 -47 0 -19 16 -70 29 -70 18 0 -15 17
-36 26 -34 5 1 10 -3 12 -9 7 -22 -25 -10 -38 13 -14 26 -40 25 -40 -3 0 -14
2 -14 10 -1 5 8 13 11 17 6 4 -5 2 -11 -4 -13 -7 -3 -13 -11 -13 -18 0 -8 -5
-17 -12 -21 -8 -5 -9 -2 -5 9 10 26 -2 45 -24 40 -10 -3 -19 -1 -19 5 0 6 -11
9 -25 7 -14 -1 -25 2 -25 6 0 5 7 9 15 9 8 0 15 5 15 10 0 6 -5 10 -11 10 -6
0 -9 8 -7 18 4 13 -1 18 -16 20 -11 0 -16 -2 -10 -6 20 -13 24 -41 6 -46 -21
-6 -54 -2 -69 7 -6 4 -14 3 -18 -3 -3 -5 -1 -10 6 -10 8 0 5 -8 -7 -19 -10
-10 -21 -18 -24 -17 -3 0 -26 -7 -50 -18 -92 -38 -106 -44 -133 -50 -19 -5
-26 -3 -22 4 3 5 2 10 -4 10 -5 0 -15 -8 -20 -17 -6 -10 -11 -13 -11 -6 0 11
-52 -1 -150 -35 -25 -9 -51 -15 -59 -13 -8 1 -12 -3 -8 -12 8 -22 -3 -28 -20
-12 -8 8 -20 15 -26 15 -8 0 -8 -3 1 -9 10 -6 9 -10 -7 -14 -12 -3 -21 0 -21
6 0 8 -3 8 -9 -1 -4 -7 -18 -14 -29 -15 -12 -1 -22 -4 -22 -8 0 -3 -11 -11
-25 -17 -37 -17 -32 5 6 26 17 9 38 22 47 29 15 10 14 12 -8 11 -14 -1 -31 -6
-37 -11 -7 -5 -13 -6 -13 -3 0 4 -8 2 -18 -3 -13 -7 -22 -7 -30 1 -13 13 -67
-6 -92 -32 -24 -26 -55 -84 -39 -74 8 5 19 9 24 9 29 3 71 19 82 32 8 10 17
12 28 6 13 -7 2 -16 -50 -42 -70 -33 -127 -50 -124 -35 5 33 -50 93 -59 64 -3
-7 -13 -21 -24 -32 -25 -25 -17 -44 21 -53 17 -4 29 -11 25 -16 -3 -5 4 -9 15
-9 14 0 19 -5 15 -15 -4 -8 -10 -12 -15 -9 -5 3 -9 1 -9 -4 0 -5 -25 -20 -56
-32 -31 -13 -58 -29 -61 -37 -3 -7 -13 -13 -23 -13 -10 0 -23 -7 -30 -15 -6
-8 -15 -14 -18 -13 -38 4 -67 -28 -38 -44 8 -5 12 -18 10 -30 -2 -13 -2 -17 2
-10 6 14 24 17 24 4 0 -5 -12 -14 -26 -21 -22 -10 -30 -9 -45 5 -22 19 -38 12
-21 -9 9 -11 6 -16 -14 -25 -14 -7 -34 -12 -44 -12 -11 0 -20 -4 -20 -10 0 -5
-9 -10 -20 -10 -13 0 -22 -9 -26 -25 -3 -14 -9 -25 -13 -25 -3 0 -13 -4 -21
-10 -12 -7 -10 -12 10 -30 13 -11 26 -17 29 -12 3 4 17 2 31 -5 19 -10 21 -13
8 -14 -10 -1 -21 -2 -25 -4 -5 -1 -21 -5 -37 -10 -19 -5 -31 -4 -35 4 -6 9
-12 7 -22 -5 -8 -10 -9 -15 -2 -11 6 4 14 3 18 -2 3 -6 -14 -16 -37 -22 -49
-14 -68 -26 -68 -43 0 -8 2 -8 8 0 4 6 23 14 42 17 19 3 47 9 62 12 22 6 28 4
28 -9 0 -14 4 -15 21 -6 11 7 24 9 27 5 9 -9 -19 -25 -45 -25 -13 0 -23 -4
-23 -10 0 -5 -14 -7 -31 -5 -22 3 -32 -1 -35 -13 -14 -44 -28 -54 -78 -53 -17
0 -17 -1 -1 -13 16 -12 16 -15 2 -37 -21 -33 -30 -69 -18 -69 12 0 37 25 44
42 3 9 10 7 22 -7 16 -20 16 -20 12 3 -4 14 0 22 9 22 21 0 17 30 -3 30 -14 1
-11 6 11 25 31 24 52 24 42 -1 -3 -8 -1 -14 4 -14 12 0 14 -30 3 -30 -5 0 -19
-9 -33 -20 l-25 -21 29 7 c24 6 28 4 23 -9 -6 -17 19 -32 28 -17 12 20 21 9
17 -20 -4 -30 -51 -68 -66 -53 -3 4 -6 -1 -6 -10 0 -20 26 -23 34 -4 3 6 5 3
5 -8 -1 -11 -1 -27 0 -35 1 -13 2 -13 11 0 5 8 12 11 15 8 4 -4 -2 -14 -14
-24 -11 -10 -18 -21 -15 -25 3 -5 -4 -14 -16 -21 -11 -7 -20 -21 -20 -30 0
-10 -4 -18 -10 -18 -5 0 -10 5 -10 10 0 17 -26 11 -44 -9 -17 -19 -17 -19 2
-14 14 3 21 -1 25 -16 3 -12 1 -24 -4 -27 -15 -9 -10 -22 11 -29 12 -4 27 -2
34 4 10 9 15 8 20 -5 10 -26 7 -32 -21 -39 l-28 -8 25 -7 c14 -4 24 -13 22
-20 -2 -8 5 -11 23 -8 14 3 28 1 31 -4 3 -5 12 -7 19 -4 8 3 16 0 18 -7 3 -9
9 -8 22 3 18 14 18 13 0 -12 -11 -15 -24 -28 -28 -28 -5 0 -5 -5 -2 -10 4 -6
1 -18 -6 -26 -6 -8 -9 -17 -5 -21 3 -3 6 0 6 8 1 9 5 7 12 -5 8 -15 8 -21 0
-24 -19 -6 -14 -18 10 -19 11 -1 24 -6 27 -10 7 -10 32 -10 47 0 7 4 15 0 18
-9 5 -13 -1 -15 -40 -10 -31 3 -44 1 -41 -7 4 -14 57 -29 57 -16 0 5 5 9 12 9
6 0 4 -7 -5 -18 -18 -19 -22 -41 -9 -43 28 -3 46 -9 52 -20 4 -6 13 -8 19 -5
6 4 11 0 11 -9 0 -11 -5 -15 -14 -12 -9 4 -17 -2 -21 -15 -7 -22 10 -47 22
-33 5 4 2 10 -4 12 -7 3 -13 10 -13 16 0 8 3 8 12 -1 7 -7 17 -8 29 -1 15 8
17 6 12 -7 -4 -11 -3 -15 5 -10 6 3 13 2 17 -4 3 -5 -3 -10 -14 -10 -12 0 -21
6 -21 13 0 8 -4 7 -10 -3 -13 -20 -13 -33 0 -25 6 4 18 1 27 -7 14 -11 16 -11
8 2 -7 12 -6 13 6 4 8 -6 24 -10 37 -8 22 4 22 3 7 -12 -18 -19 -38 -64 -31
-71 2 -3 15 3 29 12 17 11 27 13 32 5 3 -6 11 -7 17 -4 6 4 5 10 -3 15 -11 7
-11 9 2 9 9 0 21 -12 27 -26 12 -26 32 -25 32 2 0 10 9 14 30 12 30 -2 38 -12
20 -23 -6 -4 -7 -11 -4 -17 4 -6 7 -23 6 -38 0 -19 5 -30 18 -33 26 -7 32 2
15 20 -18 18 -19 32 -2 35 13 1 29 5 37 8 19 7 40 7 40 -1 0 -5 7 -9 15 -9 8
0 15 -4 15 -10 0 -5 -5 -10 -12 -10 -6 0 -9 -2 -6 -6 3 -3 2 -20 -2 -39 -5
-20 -4 -33 1 -29 5 3 9 11 9 19 0 7 7 16 16 19 8 3 12 11 8 17 -4 7 -3 9 4 5
6 -3 13 -2 16 3 10 16 48 0 41 -17 -5 -13 -2 -13 14 2 10 10 25 18 33 20 7 1
19 5 26 9 7 5 21 5 32 2 14 -4 20 -2 20 8 0 10 7 13 21 10 11 -3 18 -11 15
-18 -2 -7 0 -17 6 -23 12 -12 1 -35 -13 -27 -5 4 -9 0 -9 -9 0 -8 6 -17 13
-19 7 -3 4 -6 -7 -6 -14 -1 -17 -7 -14 -26 4 -21 3 -23 -13 -14 -11 5 -19 15
-19 21 0 6 -9 -1 -21 -16 -23 -29 -19 -56 6 -56 9 0 14 4 10 9 -3 5 -1 12 5
16 5 3 10 1 10 -5 0 -6 13 -2 30 10 16 12 29 26 27 32 -1 6 4 13 12 16 8 2 11
0 8 -5 -3 -5 1 -10 9 -10 10 0 14 7 11 17 -2 10 2 17 9 17 8 0 14 -11 14 -24
0 -12 5 -23 11 -23 5 0 7 -5 3 -12 -5 -8 -2 -9 11 -5 9 4 24 2 31 -4 10 -8 14
-8 14 0 0 6 8 11 18 10 10 0 12 -3 5 -6 -13 -5 -18 -33 -7 -33 3 0 19 9 35 21
16 11 34 17 41 13 43 -27 102 7 100 56 0 3 7 11 15 19 13 12 14 11 8 -10 -8
-24 -8 -24 14 -5 14 13 21 15 21 6 0 -10 3 -10 16 0 12 11 15 11 12 0 -4 -16
21 -20 40 -7 6 5 12 6 12 1 0 -4 7 1 16 12 12 15 15 15 10 2 -6 -20 17 -31 33
-15 6 6 11 7 11 2 0 -4 10 0 22 11 19 16 20 16 9 1 -19 -24 -8 -32 14 -10 10
10 25 18 34 18 9 0 15 6 13 13 -1 6 4 11 10 10 7 -2 12 4 12 14 -1 9 7 19 17
21 22 6 25 -3 7 -22 -11 -10 -9 -11 6 -5 13 5 17 4 12 -4 -4 -7 -2 -12 4 -12
7 0 10 7 7 15 -4 8 -2 17 3 20 4 3 10 0 12 -6 3 -9 9 -9 26 0 18 9 21 9 16 -3
-3 -8 -15 -16 -27 -18 -19 -3 -18 -5 12 -20 23 -12 30 -13 21 -4 -9 11 -7 16
10 21 12 4 25 18 31 32 11 31 35 25 31 -8 -2 -19 3 -25 20 -26 17 -2 19 0 8 7
-20 13 -11 18 40 24 49 6 123 34 239 91 40 20 87 39 102 42 18 3 29 12 29 22
0 13 2 13 9 2 6 -10 13 -10 29 -2 11 6 27 8 35 5 8 -3 18 -1 22 5 6 11 -12 15
-47 12 -13 -2 -16 2 -11 15 5 14 2 16 -21 10 -15 -4 -32 -4 -38 0 -13 8 78 44
112 44 15 0 32 6 40 13 12 10 12 9 1 -5 -8 -11 -9 -18 -3 -18 6 0 14 5 17 10
4 6 11 8 16 5 5 -4 9 1 9 9 0 10 9 16 24 16 13 0 29 7 36 15 8 10 17 12 22 7
15 -15 45 -2 57 24 6 13 17 24 25 24 15 0 29 27 20 41 -3 5 0 17 5 26 9 14 10
10 7 -20 -3 -33 -1 -36 13 -25 9 7 21 19 27 27 7 9 33 15 70 16 71 2 124 21
124 43 0 15 2 15 10 2 7 -12 11 -10 18 10 19 51 21 54 17 22 -3 -32 -2 -33 23
-26 15 4 34 7 43 8 17 0 18 18 5 48 -5 10 -12 15 -17 12 -5 -3 -7 -10 -4 -15
10 -15 -5 -10 -23 8 -15 15 -15 16 -1 11 9 -4 21 -2 27 4 18 18 62 19 62 2 0
-8 5 -14 10 -14 6 0 10 7 10 15 0 8 9 15 19 15 14 0 19 6 18 20 -1 21 -13 27
-19 11 -4 -13 -42 -18 -43 -6 0 6 -6 19 -12 30 -10 19 -9 21 19 23 35 3 48 9
48 23 0 6 -8 6 -20 -1 -17 -9 -20 -8 -20 9 0 14 5 19 15 15 24 -9 17 9 -11 29
-18 13 -29 16 -37 8 -8 -6 -18 -6 -27 -1 -12 7 -11 13 8 33 12 13 22 26 22 30
0 4 -17 -11 -38 -33 -21 -22 -48 -42 -61 -45 -13 -2 -30 -12 -37 -22 -13 -17
-14 -17 -7 2 9 28 24 46 33 40 4 -3 13 2 20 10 7 8 16 12 21 9 5 -3 9 2 9 11
0 9 5 13 11 10 6 -4 13 2 16 14 3 12 12 21 19 21 8 0 14 5 14 10 0 16 22 12
36 -7 10 -15 15 -16 26 -5 11 11 10 15 -2 22 -13 9 -13 11 0 20 8 5 20 10 26
10 6 0 24 7 40 15 36 17 172 47 184 40 5 -3 10 -1 12 5 1 5 22 11 45 13 53 3
63 13 23 20 -17 4 -30 13 -30 22 0 9 -9 15 -22 15 -72 1 -101 -2 -124 -10 -14
-6 -38 -10 -54 -10 -16 0 -31 -4 -34 -9 -3 -5 -16 -7 -27 -4 -21 6 -21 7 -4
19 10 7 21 11 26 9 4 -3 10 -1 14 5 3 5 19 10 36 10 16 0 29 5 29 10 0 6 9 10
20 10 11 0 20 4 20 9 0 5 9 13 21 16 11 4 26 20 33 37 10 23 14 26 19 14 4 -9
2 -16 -3 -16 -6 0 -10 -5 -10 -10 0 -6 23 1 50 15 28 14 50 30 50 36 0 5 5 7
10 4 6 -3 10 -1 10 4 0 14 -6 14 -30 1 -12 -6 -21 -7 -25 -1 -3 6 4 15 15 21
11 6 20 15 20 21 0 6 -4 7 -10 4 -5 -3 -10 -1 -10 6 0 6 8 9 19 6 14 -3 17 0
14 14 -4 14 -9 16 -23 9 -24 -13 -30 -13 -30 0 0 5 3 9 8 9 18 -3 21 3 12 25
-10 28 9 53 27 35 7 -7 14 -5 23 6 8 10 9 15 1 15 -6 0 -11 5 -11 11 0 5 5 7
10 4 6 -3 10 -2 10 3 0 5 7 9 15 9 9 0 11 -4 6 -11 -14 -17 -8 -67 7 -61 6 2
12 0 12 -5 0 -6 -4 -10 -10 -10 -5 0 -10 -4 -10 -10 0 -18 22 -10 27 9 3 11
11 17 19 14 14 -5 64 39 64 57 0 6 -3 9 -8 6 -4 -2 -15 8 -23 23 -13 22 -13
28 -3 28 7 0 11 -4 8 -9 -3 -4 0 -8 6 -8 6 0 8 -5 4 -12 -5 -7 -2 -9 7 -6 15
6 42 -16 32 -26 -4 -3 -1 -6 5 -6 7 0 12 8 12 19 0 14 6 17 25 13 19 -3 25 0
25 12 0 10 -4 15 -9 11 -5 -3 -16 2 -24 10 -9 8 -22 12 -30 9 -8 -3 -18 0 -22
6 -4 6 -1 11 6 9 32 -4 50 2 44 14 -4 6 0 4 8 -5 19 -23 26 -23 24 2 -1 18 -7
20 -49 18 -26 -2 -48 -7 -48 -12 0 -5 -2 -7 -5 -4 -9 9 7 38 21 38 8 0 14 8
14 18 0 13 -8 17 -37 15 -21 -1 -48 -4 -60 -8 -29 -9 -46 24 -39 75 l5 38 -24
-24 c-13 -13 -22 -30 -20 -37 3 -6 1 -19 -5 -27 -7 -12 -12 -12 -22 -2 -9 9
-9 12 4 12 11 0 15 8 14 25 0 14 -7 25 -15 25 -7 0 -11 -6 -8 -15 4 -8 2 -17
-4 -21 -6 -3 -8 -13 -4 -22 6 -17 -10 -32 -37 -32 -12 0 -15 5 -11 16 3 8 11
13 18 11 6 -3 12 0 12 6 0 7 2 17 3 22 1 6 2 16 1 23 -2 21 -21 3 -21 -19 0
-16 -2 -18 -14 -7 -10 9 -11 15 -2 21 8 5 7 10 -3 16 -12 8 -13 12 -1 25 19
24 8 27 -19 5 -18 -15 -22 -26 -18 -48 7 -34 -1 -45 -20 -29 -7 6 -17 7 -21 3
-4 -4 -1 -10 6 -12 21 -8 13 -20 -18 -26 -27 -6 -36 -20 -31 -50 1 -5 -4 -5
-10 -2 -6 4 -8 16 -6 27 4 16 3 17 -9 7 -11 -9 -14 -7 -14 14 0 20 -4 24 -20
20 -19 -5 -20 -6 -3 -19 14 -11 15 -15 5 -22 -19 -13 12 -42 43 -42 24 0 39
-12 28 -23 -3 -4 -19 1 -35 9 -16 8 -32 12 -37 10 -5 -3 -11 4 -14 15 -3 12
-10 18 -16 14 -6 -3 -11 1 -11 9 0 8 7 16 15 18 13 2 12 5 -4 15 -17 11 -19
10 -15 -1 3 -8 1 -17 -5 -21 -6 -3 -11 -1 -11 4 0 6 -8 11 -17 11 -14 0 -14 3
4 19 13 13 29 18 44 15 21 -5 22 -4 7 6 -10 6 -18 21 -18 33 1 21 2 21 14 4
13 -17 14 -16 19 3 3 11 19 25 36 31 17 6 31 16 31 22 0 19 54 45 75 37 13 -5
25 0 37 14 16 19 17 19 18 3 0 -10 -4 -16 -9 -13 -5 3 -12 -1 -15 -10 -9 -23
-1 -28 15 -11 7 8 21 12 30 10 11 -3 19 3 23 15 5 15 13 18 28 14 l22 -5 -22
-10 c-12 -6 -22 -14 -22 -19 0 -5 10 -3 21 4 12 7 35 21 53 30 l31 17 -34 -2
c-28 -2 -34 2 -36 20 -1 15 3 19 13 15 12 -4 14 0 10 16 -4 14 -2 20 4 16 7
-5 9 2 6 20 -3 14 -2 26 2 26 4 0 7 7 6 16 0 9 5 19 13 22 9 3 11 0 6 -8 -5
-9 -4 -11 4 -6 6 4 9 12 6 17 -7 10 -44 12 -96 3 -32 -5 -37 -10 -34 -31 1
-14 9 -29 16 -34 10 -7 7 -8 -10 -7 -13 2 -26 -2 -28 -9 -3 -7 5 -10 21 -9 18
2 24 -1 23 -15 -1 -13 -5 -15 -13 -8 -8 6 -14 5 -18 -6 -3 -9 -2 -13 3 -10 5
3 12 2 15 -3 2 -4 -5 -9 -16 -9 -15 -2 -19 3 -15 18 3 10 0 22 -7 27 -6 4 -17
20 -24 35 -13 31 -16 59 -4 41 4 -6 13 -4 25 8 17 18 17 19 -10 15 -17 -2 -33
-13 -40 -28 -7 -13 -13 -18 -13 -11 0 15 -36 16 -46 0 -4 -6 -3 -8 4 -4 6 3
13 2 16 -3 4 -5 18 -8 31 -5 22 4 25 1 25 -25 0 -16 -6 -31 -15 -35 -8 -3 -14
-2 -12 2 2 7 -6 12 -22 12 -5 0 -11 -13 -14 -30 -4 -16 -12 -30 -19 -30 -9 0
-9 3 0 12 7 7 12 22 12 35 0 12 8 27 18 32 16 10 16 10 0 11 -25 0 -32 -3 -34
-15 0 -5 -2 -16 -2 -22 -4 -30 -27 -10 -30 23 -1 21 -10 43 -20 50 -15 12 -15
13 8 12 35 -1 83 20 75 33 -4 6 0 9 10 7 10 -2 20 3 23 11 3 8 0 11 -6 7 -6
-3 -13 -2 -17 3 -4 7 -15 7 -33 1 l-27 -10 23 20 c23 19 22 47 -1 33 -7 -4 -6
0 2 10 16 20 12 21 -23 7 -14 -5 -26 -6 -26 -1 0 4 -7 8 -15 8 -8 0 -12 -4 -9
-8 2 -4 -2 -10 -8 -13 -7 -4 -3 -4 10 -2 18 3 22 1 18 -11 -3 -8 -6 -17 -6
-19 0 -2 -7 -4 -15 -4 -8 0 -15 6 -15 13 0 8 -4 7 -10 -3 -8 -12 -10 -11 -10
7 0 12 5 34 10 49 8 19 8 30 0 38 -7 7 -10 3 -10 -12 0 -17 -6 -22 -24 -22
-28 0 -42 -26 -19 -34 8 -3 19 -4 24 0 12 7 11 -27 -2 -46 -8 -12 -9 -11 -7 5
2 14 -3 21 -19 23 -26 4 -27 9 -13 47 5 14 14 24 19 20 5 -3 12 -1 16 5 6 9
-8 14 -28 11 -5 -1 -6 3 -2 9 3 5 -1 10 -10 10 -10 0 -13 -5 -9 -12 4 -7 3 -8
-4 -4 -7 4 -22 0 -34 -10 -14 -10 -16 -14 -6 -11 18 6 35 -9 36 -33 0 -8 4
-26 8 -39 5 -17 4 -22 -4 -17 -7 4 -12 13 -12 21 0 7 -8 16 -17 20 -17 7 -16
8 2 15 19 8 19 8 1 15 -13 6 -23 2 -35 -14 -16 -21 -17 -21 -17 -2 0 11 4 17
8 15 4 -3 8 0 8 5 0 6 -5 11 -12 11 -14 0 -74 -19 -105 -33 -16 -7 -27 -6 -37
3 -12 9 -23 9 -47 1 -40 -14 -60 -14 -36 0 19 11 24 40 5 35 -44 -14 -69 -16
-63 -6 10 16 -27 41 -41 29 -8 -6 -13 -3 -17 12 -3 12 -10 18 -16 14 -15 -9
-14 -35 2 -35 6 -1 1 -10 -13 -21 -14 -12 -40 -34 -57 -50 -37 -33 -47 -35
-94 -15 -40 16 -53 12 -94 -26 -34 -32 -42 -34 -42 -13 0 8 5 15 10 15 5 0 4
6 -2 13 -6 8 -8 17 -4 20 3 4 -1 7 -10 7 -24 0 -21 15 3 17 11 1 20 -3 20 -10
0 -7 4 -6 13 2 10 11 10 14 0 18 -7 3 -13 12 -13 20 0 12 -3 13 -14 4 -8 -6
-20 -10 -27 -9 -7 2 -18 -7 -24 -19 -11 -26 -25 -29 -43 -11 -9 9 -12 9 -12 0
0 -16 -30 -16 -30 1 0 6 -7 3 -16 -8 -8 -11 -20 -19 -25 -17 -6 1 -17 -4 -25
-13 -9 -8 -22 -15 -29 -15 -8 0 -19 -8 -24 -17 -7 -12 -10 -13 -11 -5 0 19 39
50 73 57 19 5 27 12 23 21 -4 10 2 14 18 14 25 0 51 22 39 33 -3 4 1 7 10 7 9
0 19 -5 22 -11 5 -6 12 -4 21 8 12 16 15 16 24 3 8 -12 10 -11 10 7 0 12 8 24
18 27 10 3 24 15 32 25 13 20 14 20 25 -2 11 -23 45 -36 45 -18 0 6 -7 11 -15
11 -9 0 -15 9 -15 21 0 19 2 20 17 8 10 -9 14 -9 10 -2 -5 7 3 18 20 27 l28
15 -27 -2 c-16 -1 -28 -5 -28 -10 0 -4 -4 -6 -9 -3 -5 3 -27 0 -49 -8 -30 -11
-43 -12 -52 -3 -10 10 -12 7 -7 -10 3 -13 1 -26 -4 -29 -5 -3 -9 0 -9 6 0 7
-8 9 -19 5 -23 -7 -33 5 -20 25 7 12 9 11 10 -5 0 -11 3 -14 6 -7 2 6 8 10 13
7 5 -3 11 3 15 14 3 11 13 22 22 25 12 5 14 1 10 -16 -6 -23 -6 -23 9 -3 8 11
26 21 40 22 27 2 58 22 49 31 -3 3 0 11 6 19 8 9 8 13 1 13 -6 0 -16 -9 -22
-20z m-175 -70 c-3 -5 -10 -10 -16 -10 -5 0 -9 5 -9 10 0 6 7 10 16 10 8 0 12
-4 9 -10z m-39 -65 c-8 -9 -13 -22 -10 -30 4 -8 1 -15 -5 -15 -6 0 -11 14 -11
30 0 20 5 30 15 30 8 0 16 8 16 18 1 16 2 16 6 0 2 -10 -2 -25 -11 -33z m-56
-15 c0 -5 -9 -10 -20 -10 -11 0 -20 5 -20 10 0 6 9 10 20 10 11 0 20 -4 20
-10z m-559 -24 c-9 -11 -9 -15 1 -18 8 -3 6 -7 -5 -11 -13 -5 -17 -1 -17 17 0
14 6 26 13 29 18 6 21 -1 8 -17z m49 -6 c0 -5 -7 -10 -15 -10 -8 0 -15 5 -15
10 0 6 7 10 15 10 8 0 15 -4 15 -10z m430 -12 c-30 -28 -70 -35 -70 -12 0 9 6
14 13 11 7 -3 24 1 38 9 37 20 46 17 19 -8z m-381 -22 c-12 -27 -29 -30 -37
-8 -2 7 4 12 12 12 9 0 19 7 23 15 3 9 7 14 10 12 2 -3 -2 -16 -8 -31z m1145
-28 c-10 -13 -20 -24 -20 -26 -1 -2 -5 1 -8 7 -7 11 20 41 36 41 6 0 3 -10 -8
-22z m-914 -2 c0 -8 -7 -16 -15 -20 -17 -6 -18 -4 -9 18 8 20 24 21 24 2z
m1097 -2 c-3 -4 -2 -14 3 -23 6 -13 4 -17 -8 -18 -10 -1 -22 -3 -27 -5 -6 -2
-11 2 -12 7 -2 6 3 10 10 10 6 0 15 8 19 18 4 9 11 17 14 17 4 0 4 -3 1 -6z
m-937 -14 c0 -5 -7 -10 -16 -10 -8 0 -12 5 -9 10 3 6 10 10 16 10 5 0 9 -4 9
-10z m224 -1 c7 6 17 6 26 0 13 -8 13 -11 -2 -19 -11 -7 -15 -17 -11 -28 6
-16 6 -16 -11 1 -9 9 -24 17 -32 17 -17 0 -18 12 -2 28 9 9 14 9 16 2 3 -7 8
-8 16 -1z m-234 -23 c0 -3 -4 -8 -10 -11 -5 -3 -10 -1 -10 4 0 6 5 11 10 11 6
0 10 -2 10 -4z m100 0 c0 -3 -4 -8 -10 -11 -5 -3 -10 -1 -10 4 0 6 5 11 10 11
6 0 10 -2 10 -4z m80 -6 c0 -5 -4 -10 -10 -10 -5 0 -10 5 -10 10 0 6 5 10 10
10 6 0 10 -4 10 -10z m-1076 -16 c3 -8 2 -12 -4 -9 -6 3 -10 10 -10 16 0 14 7
11 14 -7z m456 12 c0 -3 -4 -8 -10 -11 -5 -3 -10 -1 -10 4 0 6 5 11 10 11 6 0
10 -2 10 -4z m1553 -16 c-3 -11 -9 -20 -14 -20 -10 0 -12 24 -2 33 13 13 21 7
16 -13z m-1583 0 c0 -5 -4 -10 -10 -10 -5 0 -10 5 -10 10 0 6 5 10 10 10 6 0
10 -4 10 -10z m390 0 c0 -5 -5 -10 -11 -10 -5 0 -7 5 -4 10 3 6 8 10 11 10 2
0 4 -4 4 -10z m-40 -15 c-7 -8 -17 -15 -22 -15 -11 0 14 29 26 30 5 0 3 -7 -4
-15z m240 7 c0 -5 -7 -9 -15 -9 -8 0 -12 4 -9 9 3 4 9 8 15 8 5 0 9 -4 9 -8z
m-1366 -23 c-30 -12 -37 -10 -24 5 6 8 19 12 27 9 14 -6 14 -8 -3 -14z m2326
11 c0 -5 -4 -10 -10 -10 -5 0 -10 5 -10 10 0 6 5 10 10 10 6 0 10 -4 10 -10z
m330 -27 c0 -14 -2 -15 -9 -4 -5 8 -14 10 -21 6 -9 -5 -11 -4 -6 3 11 18 36
14 36 -5z m-1620 -3 c0 -5 -4 -10 -10 -10 -5 0 -10 5 -10 10 0 6 5 10 10 10 6
0 10 -4 10 -10z m90 -10 c0 -5 -2 -10 -4 -10 -3 0 -8 5 -11 10 -3 6 -1 10 4
10 6 0 11 -4 11 -10z m1187 -6 c-3 -3 -12 -4 -19 -1 -8 3 -5 6 6 6 11 1 17 -2
13 -5z m20 -26 c-3 -8 -6 -5 -6 6 -1 11 2 17 5 13 3 -3 4 -12 1 -19z m63 -15
c0 -2 -5 -1 -11 3 -6 3 -16 0 -21 -7 -8 -11 -9 -11 -5 2 3 9 0 22 -6 29 -7 7
0 5 16 -5 15 -9 27 -19 27 -22z m-1310 3 c0 -2 -7 -9 -15 -16 -13 -11 -14 -10
-9 4 5 14 24 23 24 12z m1208 -33 c14 -12 14 -13 0 -13 -16 0 -29 21 -27 43 0
7 3 5 6 -3 3 -8 12 -21 21 -27z m-2488 3 c0 -8 -4 -18 -10 -21 -5 -3 -10 -4
-10 -1 0 2 -3 11 -6 20 -4 11 -1 16 10 16 9 0 16 -6 16 -14z m2712 -18 c-7 -7
-8 -16 -3 -22 6 -7 0 -12 -20 -13 -15 -1 -31 2 -34 8 -4 5 -3 9 2 8 20 -3 34
2 28 11 -3 6 1 10 9 10 9 0 16 5 16 12 0 6 3 8 7 5 4 -4 1 -13 -5 -19z m-326
-15 c-10 -10 -19 5 -10 18 6 11 8 11 12 0 2 -7 1 -15 -2 -18z m94 0 c0 -5 -4
-15 -10 -23 -11 -18 -25 -7 -17 15 6 15 27 21 27 8z m300 -28 c0 -8 -4 -15
-10 -15 -5 0 -10 7 -10 15 0 8 5 15 10 15 6 0 10 -7 10 -15z m-170 -5 c0 -5
-2 -10 -4 -10 -3 0 -8 5 -11 10 -3 6 -1 10 4 10 6 0 11 -4 11 -10z m-40 -4 c0
-3 -4 -8 -10 -11 -5 -3 -10 -1 -10 4 0 6 5 11 10 11 6 0 10 -2 10 -4z m-2605
-76 c-3 -5 -12 -10 -18 -10 -7 0 -6 4 3 10 19 12 23 12 15 0z m2531 -45 c-11
-8 -24 -15 -30 -15 -5 0 -1 7 10 15 10 8 24 14 29 14 6 0 1 -6 -9 -14z m-2611
-15 c3 -5 -1 -10 -10 -10 -9 0 -13 5 -10 10 3 6 8 10 10 10 2 0 7 -4 10 -10z
m-35 -10 c0 -5 -4 -10 -10 -10 -5 0 -10 5 -10 10 0 6 5 10 10 10 6 0 10 -4 10
-10z m30 -52 c27 -29 27 -68 0 -68 -21 0 -32 16 -35 53 -3 42 6 46 35 15z
m3060 -12 c0 -2 -7 -9 -15 -16 -13 -11 -14 -10 -9 4 5 14 24 23 24 12z m-250
-47 c0 -6 -6 -9 -12 -7 -7 3 -18 0 -25 -6 -32 -28 -43 -36 -50 -36 -13 1 61
59 75 60 6 0 12 -5 12 -11z m-134 -25 c-9 -8 -16 -20 -16 -25 0 -5 -5 -9 -10
-9 -6 0 -3 11 6 25 9 14 21 25 26 25 5 0 2 -7 -6 -16z m-2766 -14 c0 -5 -5
-10 -11 -10 -5 0 -7 5 -4 10 3 6 8 10 11 10 2 0 4 -4 4 -10z m2986 1 c-3 -5
-15 -7 -26 -4 -28 7 -25 13 6 13 14 0 23 -4 20 -9z m-3095 -44 c-7 -7 -14 -7
-24 1 -8 7 -17 9 -20 6 -3 -4 -5 2 -4 13 1 18 3 18 30 5 20 -10 25 -18 18 -25z
m3274 2 c-4 -6 -13 -8 -20 -5 -7 2 -16 -2 -19 -10 -9 -24 -24 -15 -18 11 2 14
7 24 9 21 3 -3 12 2 21 10 14 14 16 14 24 0 5 -9 6 -21 3 -27z m-3215 27 c0
-3 -4 -8 -10 -11 -5 -3 -10 -1 -10 4 0 6 5 11 10 11 6 0 10 -2 10 -4z m3040
-25 c-6 -12 -8 -26 -5 -31 3 -6 2 -10 -3 -10 -6 0 -13 7 -16 16 -3 8 -11 12
-17 8 -8 -4 -9 -3 -5 4 4 6 13 9 20 6 9 -3 17 3 21 16 4 12 9 19 12 17 2 -3 0
-15 -7 -26z m-97 -12 c-5 -5 -23 -12 -39 -15 -33 -6 -30 -1 11 20 30 16 46 13
28 -5z m41 -103 c6 -26 5 -28 -8 -17 -8 7 -20 9 -27 5 -7 -4 -10 -2 -7 7 3 8
11 13 17 12 6 -2 11 5 11 14 0 22 6 14 14 -21z m-94 4 c0 -5 -2 -10 -4 -10 -3
0 -8 5 -11 10 -3 6 -1 10 4 10 6 0 11 -4 11 -10z m117 -12 c-3 -8 -6 -5 -6 6
-1 11 2 17 5 13 3 -3 4 -12 1 -19z m-96 -11 c-10 -9 -11 -8 -5 6 3 10 9 15 12
12 3 -3 0 -11 -7 -18z m39 -11 c0 -2 -7 -6 -15 -10 -8 -3 -15 -1 -15 4 0 6 7
10 15 10 8 0 15 -2 15 -4z m-30 -96 c0 -5 -5 -10 -11 -10 -5 0 -7 5 -4 10 3 6
8 10 11 10 2 0 4 -4 4 -10z m-3040 -4 c0 -9 -40 -13 -46 -5 -3 5 6 9 20 9 14
0 26 -2 26 -4z m13 -42 c8 -9 -11 -44 -23 -44 -6 0 -10 11 -10 25 0 23 18 34
33 19z m2994 -76 c-3 -8 -6 -5 -6 6 -1 11 2 17 5 13 3 -3 4 -12 1 -19z m153 6
c0 -2 -7 -4 -15 -4 -8 0 -15 4 -15 10 0 5 7 7 15 4 8 -4 15 -8 15 -10z m-3220
-208 c0 -3 -4 -8 -10 -11 -5 -3 -10 -1 -10 4 0 6 5 11 10 11 6 0 10 -2 10 -4z
m122 -48 c-7 -7 -12 -8 -12 -2 0 14 12 26 19 19 2 -3 -1 -11 -7 -17z m2722 -6
c3 -5 -1 -9 -9 -9 -8 0 -12 4 -9 9 3 4 7 8 9 8 2 0 6 -4 9 -8z m-137 -44 c-3
-8 -6 -5 -6 6 -1 11 2 17 5 13 3 -3 4 -12 1 -19z m118 2 c3 -5 1 -10 -4 -10
-6 0 -11 5 -11 10 0 6 2 10 4 10 3 0 8 -4 11 -10z m35 -45 c0 -9 -6 -12 -17
-8 -11 4 -13 8 -5 11 7 2 9 9 6 14 -4 7 -2 8 4 4 7 -4 12 -14 12 -21z m-220
-65 c0 -5 -8 -10 -17 -10 -15 0 -16 2 -3 10 19 12 20 12 20 0z m-2480 -10 c0
-5 -10 -10 -22 -9 -22 0 -22 1 -3 9 11 5 21 9 23 9 1 1 2 -3 2 -9z m2307 -6
c2 -5 -7 -10 -19 -11 -13 0 -17 1 -10 4 6 3 9 9 6 15 -4 6 -1 9 6 6 8 -2 15
-9 17 -14z m114 -27 c-10 -9 -11 -8 -5 6 3 10 9 15 12 12 3 -3 0 -11 -7 -18z
m-213 -27 c-7 -10 -14 -17 -17 -15 -4 4 18 35 25 35 2 0 -1 -9 -8 -20z m282 0
c0 -5 -4 -10 -10 -10 -5 0 -10 5 -10 10 0 6 5 10 10 10 6 0 10 -4 10 -10z
m-2452 -142 c-2 -6 -15 -13 -29 -15 -18 -2 -20 -1 -9 6 8 5 18 7 22 5 4 -3 8
0 8 5 0 6 3 11 6 11 3 0 4 -5 2 -12z m1918 -33 c-7 -19 -35 -19 -42 0 -4 8
-11 12 -18 9 -6 -3 0 3 13 14 21 17 27 18 39 6 8 -8 11 -21 8 -29z m34 35 c0
-5 -5 -10 -11 -10 -5 0 -7 5 -4 10 3 6 8 10 11 10 2 0 4 -4 4 -10z m138 -10
c-7 -10 -14 -18 -15 -16 -6 6 9 36 18 36 5 0 4 -9 -3 -20z m-78 6 c0 -2 -7 -7
-16 -10 -8 -3 -12 -2 -9 4 6 10 25 14 25 6z m30 -31 c0 -7 -30 -13 -34 -7 -3
4 4 9 15 9 10 1 19 0 19 -2z m-186 -20 c-4 -8 -7 -15 -9 -15 -2 0 -5 7 -9 15
-3 9 0 15 9 15 9 0 12 -6 9 -15z m-1794 -25 c0 -5 -5 -10 -11 -10 -5 0 -7 5
-4 10 3 6 8 10 11 10 2 0 4 -4 4 -10z m1785 -20 c-3 -5 -11 -10 -16 -10 -6 0
-7 5 -4 10 3 6 11 10 16 10 6 0 7 -4 4 -10z m22 -12 c-3 -8 -6 -5 -6 6 -1 11
2 17 5 13 3 -3 4 -12 1 -19z m-181 -39 c3 -6 0 -15 -7 -20 -14 -8 -32 9 -23
23 7 11 22 10 30 -3z m-161 -79 c-4 -6 -15 0 -26 15 -11 13 -17 30 -14 35 4 6
15 0 26 -15 11 -13 17 -30 14 -35z m105 40 c0 -11 -4 -20 -10 -20 -5 0 -10 9
-10 20 0 11 5 20 10 20 6 0 10 -9 10 -20z m-51 -32 c5 -15 3 -27 -6 -37 -22
-21 -35 0 -21 32 16 33 17 33 27 5z m-1279 -38 c0 -5 -7 -10 -16 -10 -8 0 -12
5 -9 10 3 6 10 10 16 10 5 0 9 -4 9 -10z m895 -10 c3 -5 -1 -10 -9 -10 -9 0
-13 -6 -10 -14 3 -7 -1 -16 -9 -19 -9 -3 -17 2 -20 14 -3 10 -1 16 4 13 5 -3
12 2 15 10 7 18 20 21 29 6z m-478 -35 c-7 -17 -27 -21 -27 -4 0 5 5 7 10 4 6
-3 10 2 10 11 0 10 3 15 6 11 4 -3 4 -13 1 -22z m356 10 c-3 -9 -8 -14 -10
-11 -3 3 -2 9 2 15 9 16 15 13 8 -4z m-128 -29 c0 -22 -14 -29 -33 -18 -17 12
-4 44 17 40 9 -2 16 -12 16 -22z m-235 -26 c0 -5 -5 -10 -11 -10 -5 0 -7 5 -4
10 3 6 8 10 11 10 2 0 4 -4 4 -10z m160 -30 c0 -5 -4 -10 -10 -10 -5 0 -10 5
-10 10 0 6 5 10 10 10 6 0 10 -4 10 -10z m60 -50 c-8 -5 -18 -6 -24 -3 -5 4
-1 10 10 13 24 9 34 2 14 -10z"/>
<path d="M1597 924 c-8 -8 1 -24 14 -24 5 0 9 7 9 15 0 15 -12 20 -23 9z"/>
<path d="M2253 3055 c-3 -9 -3 -18 0 -21 7 -8 47 15 47 26 0 16 -40 11 -47 -5z"/>
<path d="M2310 3045 c0 -18 5 -25 19 -25 23 0 22 28 -2 42 -14 7 -17 4 -17
-17z"/>
<path d="M3290 3060 c0 -5 5 -10 10 -10 6 0 10 5 10 10 0 6 -4 10 -10 10 -5 0
-10 -4 -10 -10z"/>
<path d="M2414 3045 c-17 -13 -17 -14 -2 -15 9 0 20 5 23 11 11 17 0 20 -21 4z"/>
<path d="M2830 3051 c-14 -4 -25 -13 -25 -21 0 -24 22 -21 39 5 9 14 15 25 14
24 -2 -1 -14 -4 -28 -8z"/>
<path d="M2450 3035 c-14 -16 -3 -20 19 -6 8 5 9 11 3 15 -5 3 -15 -1 -22 -9z"/>
<path d="M2190 3030 c0 -5 5 -10 10 -10 6 0 10 5 10 10 0 6 -4 10 -10 10 -5 0
-10 -4 -10 -10z"/>
<path d="M3050 3014 c0 -9 7 -14 17 -12 25 5 28 28 4 28 -12 0 -21 -6 -21 -16z"/>
<path d="M3230 3020 c0 -5 5 -10 10 -10 6 0 10 5 10 10 0 6 -4 10 -10 10 -5 0
-10 -4 -10 -10z"/>
<path d="M2170 3014 c0 -13 18 -39 24 -34 2 3 -2 14 -10 24 -8 11 -14 16 -14
10z"/>
<path d="M2240 3012 c0 -7 -7 -12 -15 -12 -8 0 -15 -4 -15 -10 0 -16 27 -11
34 6 4 9 4 19 1 22 -3 3 -5 0 -5 -6z"/>
<path d="M3613 3007 c-36 -12 -43 -23 -15 -23 10 0 26 8 37 18 10 10 17 17 14
17 -2 -1 -19 -7 -36 -12z"/>
<path d="M2316 3002 c-3 -4 4 -9 15 -9 23 -2 25 3 4 10 -8 4 -16 3 -19 -1z"/>
<path d="M2376 2998 c3 -5 10 -6 15 -3 13 9 11 12 -6 12 -8 0 -12 -4 -9 -9z"/>
<path d="M2970 3000 c0 -5 7 -10 16 -10 8 0 12 5 9 10 -3 6 -10 10 -16 10 -5
0 -9 -4 -9 -10z"/>
<path d="M2100 2985 c-10 -12 -10 -15 3 -15 8 0 20 7 27 15 10 12 10 15 -3 15
-8 0 -20 -7 -27 -15z"/>
<path d="M2270 2988 c0 -18 18 -34 28 -24 3 4 -2 14 -11 23 -16 16 -17 16 -17
1z"/>
<path d="M2860 2990 c0 -5 5 -10 10 -10 6 0 10 -6 10 -14 0 -18 27 -28 36 -14
4 7 2 14 -4 16 -7 2 -19 10 -26 18 -17 16 -26 18 -26 4z"/>
<path d="M1375 2980 c-3 -5 -1 -10 4 -10 6 0 11 5 11 10 0 6 -2 10 -4 10 -3 0
-8 -4 -11 -10z"/>
<path d="M1870 2970 c0 -5 5 -10 10 -10 6 0 10 5 10 10 0 6 -4 10 -10 10 -5 0
-10 -4 -10 -10z"/>
<path d="M2138 2964 c-16 -8 -28 -16 -28 -18 0 -9 40 7 51 20 14 17 11 17 -23
-2z"/>
<path d="M3511 2971 c-8 -6 -9 -11 -3 -15 6 -3 14 -1 17 5 9 14 2 20 -14 10z"/>
<path d="M3540 2969 c0 -5 5 -7 10 -4 6 3 10 8 10 11 0 2 -4 4 -10 4 -5 0 -10
-5 -10 -11z"/>
<path d="M1246 2951 c-3 -5 1 -11 9 -15 8 -3 15 -1 15 4 0 13 -18 22 -24 11z"/>
<path d="M1300 2950 c19 -13 30 -13 30 0 0 6 -10 10 -22 10 -19 0 -20 -2 -8
-10z"/>
<path d="M3445 2940 c-3 -5 -12 -7 -19 -4 -8 3 -17 1 -20 -4 -8 -14 20 -23 41
-14 10 4 19 13 21 20 2 14 -14 16 -23 2z"/>
<path d="M2655 2930 c-3 -5 -1 -10 4 -10 6 0 11 5 11 10 0 6 -2 10 -4 10 -3 0
-8 -4 -11 -10z"/>
<path d="M1226 2914 c-4 -9 -4 -19 -1 -22 2 -3 7 3 11 12 4 9 4 19 1 22 -2 3
-7 -3 -11 -12z"/>
<path d="M3050 2916 c0 -9 5 -16 10 -16 6 0 10 4 10 9 0 6 -4 13 -10 16 -5 3
-10 -1 -10 -9z"/>
<path d="M3538 2923 c7 -3 16 -2 19 1 4 3 -2 6 -13 5 -11 0 -14 -3 -6 -6z"/>
<path d="M2740 2900 c-13 -8 -13 -10 2 -10 9 0 20 5 23 10 8 13 -5 13 -25 0z"/>
<path d="M3110 2894 l-25 -15 25 7 c14 3 32 10 40 15 13 7 13 8 0 8 -8 0 -26
-6 -40 -15z"/>
<path d="M3466 2895 c4 -8 8 -15 10 -15 2 0 4 7 4 15 0 8 -4 15 -10 15 -5 0
-7 -7 -4 -15z"/>
<path d="M1240 2875 c0 -8 5 -15 10 -15 6 0 10 7 10 15 0 8 -4 15 -10 15 -5 0
-10 -7 -10 -15z"/>
<path d="M1620 2880 c0 -5 5 -10 11 -10 5 0 7 5 4 10 -3 6 -8 10 -11 10 -2 0
-4 -4 -4 -10z"/>
<path d="M885 2860 c3 -5 8 -10 11 -10 2 0 4 5 4 10 0 6 -5 10 -11 10 -5 0 -7
-4 -4 -10z"/>
<path d="M2800 2860 c0 -5 4 -10 9 -10 6 0 13 5 16 10 3 6 -1 10 -9 10 -9 0
-16 -4 -16 -10z"/>
<path d="M1145 2850 c-3 -5 -1 -10 4 -10 6 0 11 5 11 10 0 6 -2 10 -4 10 -3 0
-8 -4 -11 -10z"/>
<path d="M3580 2841 c0 -10 19 -25 25 -20 1 2 -3 10 -11 17 -8 7 -14 8 -14 3z"/>
<path d="M1015 2820 c-2 -3 7 -7 21 -8 13 -1 24 2 24 7 0 10 -39 11 -45 1z"/>
<path d="M1220 2815 c-8 -9 -5 -14 10 -18 11 -3 18 -1 15 3 -3 5 3 10 12 12
15 3 14 5 -4 10 -13 3 -27 1 -33 -7z"/>
<path d="M3673 2823 c-13 -2 -23 -11 -23 -19 0 -11 4 -12 18 -5 51 30 51 33 5
24z"/>
<path d="M3615 2800 c3 -5 10 -10 16 -10 5 0 9 5 9 10 0 6 -7 10 -16 10 -8 0
-12 -4 -9 -10z"/>
<path d="M984 2789 c-5 -8 -3 -9 6 -4 10 6 12 1 7 -21 -3 -16 -4 -23 -1 -16 5
10 9 10 20 1 9 -7 14 -8 14 -1 0 6 6 12 14 14 12 3 12 5 0 16 -12 11 -14 10
-14 -3 0 -8 -5 -15 -11 -15 -5 0 -8 4 -5 9 3 5 -1 14 -8 20 -11 9 -16 9 -22 0z"/>
<path d="M1140 2784 c0 -9 7 -14 17 -12 25 5 28 28 4 28 -12 0 -21 -6 -21 -16z"/>
<path d="M1365 2790 c3 -5 8 -10 11 -10 2 0 4 5 4 10 0 6 -5 10 -11 10 -5 0
-7 -4 -4 -10z"/>
<path d="M916 2745 c-11 -8 -15 -15 -9 -15 6 0 16 7 23 15 16 19 11 19 -14 0z"/>
<path d="M956 2734 c-9 -22 3 -32 14 -14 12 19 12 30 1 30 -5 0 -12 -7 -15
-16z"/>
<path d="M3965 2721 c-12 -12 -66 -22 -117 -23 -26 0 -38 -5 -38 -15 0 -8 4
-12 9 -9 5 3 12 -1 15 -10 9 -24 7 -31 -5 -14 -8 12 -9 9 -4 -10 6 -23 5 -24
-8 -7 -14 17 -15 16 -20 -3 -4 -16 0 -20 18 -20 16 0 25 7 29 25 3 13 15 29
26 35 17 9 20 8 20 -10 0 -14 -4 -19 -12 -14 -7 4 -8 3 -4 -4 4 -7 1 -12 -9
-12 -9 0 -13 -5 -10 -10 9 -15 45 7 46 28 0 10 3 12 6 5 2 -7 9 -13 14 -13 6
0 5 9 -1 21 -15 27 -4 38 13 15 12 -16 16 -17 38 -5 13 8 26 15 27 16 7 3 -9
43 -17 43 -4 0 -11 -4 -16 -9z"/>
<path d="M3653 2705 c-3 -9 -3 -18 0 -21 9 -9 27 6 27 22 0 19 -19 18 -27 -1z"/>
<path d="M800 2700 c0 -5 5 -10 11 -10 5 0 7 5 4 10 -3 6 -8 10 -11 10 -2 0
-4 -4 -4 -10z"/>
<path d="M839 2598 c-1 -7 -3 -24 -5 -38 -5 -40 3 -55 21 -40 14 12 14 15 0
30 -14 15 -14 18 0 30 8 7 12 16 9 21 -8 13 -24 11 -25 -3z"/>
<path d="M740 2580 c0 -5 5 -10 11 -10 5 0 7 5 4 10 -3 6 -8 10 -11 10 -2 0
-4 -4 -4 -10z"/>
<path d="M811 2574 c0 -11 3 -14 6 -6 3 7 2 16 -1 19 -3 4 -6 -2 -5 -13z"/>
<path d="M890 2550 c19 -13 30 -13 30 0 0 6 -10 10 -22 10 -19 0 -20 -2 -8
-10z"/>
<path d="M716 2539 c3 -5 11 -9 18 -9 6 0 17 -5 24 -12 15 -15 42 -19 42 -7 0
5 -7 9 -15 9 -9 0 -18 6 -20 13 -3 6 -16 13 -30 13 -14 1 -22 -2 -19 -7z"/>
<path d="M3567 2509 c-19 -22 -15 -41 4 -22 6 6 19 9 28 6 13 -3 12 -2 -2 7
-9 6 -15 15 -12 21 11 16 0 10 -18 -12z"/>
<path d="M3615 2520 c3 -5 8 -10 11 -10 2 0 4 5 4 10 0 6 -5 10 -11 10 -5 0
-7 -4 -4 -10z"/>
<path d="M3724 2509 c-5 -8 9 -13 29 -10 4 0 7 -7 7 -16 0 -12 3 -14 11 -6 6
6 9 16 5 21 -8 14 -45 22 -52 11z"/>
<path d="M3490 2447 c0 -8 7 -18 16 -21 9 -4 14 -13 10 -21 -3 -8 -1 -15 4
-15 6 0 10 7 10 16 0 13 3 14 14 5 11 -9 15 -8 20 5 9 25 8 27 -19 20 -17 -4
-24 -2 -21 6 1 7 1 9 -2 5 -2 -4 -10 -3 -18 4 -11 9 -14 8 -14 -4z"/>
<path d="M3805 2443 c3 -8 5 -21 5 -29 0 -8 8 -13 18 -11 40 6 59 37 22 37
-11 0 -20 4 -20 8 0 5 -7 9 -15 9 -10 0 -14 -6 -10 -14z"/>
<path d="M555 2380 c3 -5 8 -10 11 -10 2 0 4 5 4 10 0 6 -5 10 -11 10 -5 0 -7
-4 -4 -10z"/>
<path d="M607 2378 c-3 -9 3 -14 14 -14 11 0 18 5 16 10 -5 16 -24 18 -30 4z"/>
<path d="M361 2364 c0 -11 3 -14 6 -6 3 7 2 16 -1 19 -3 4 -6 -2 -5 -13z"/>
<path d="M428 2312 c-10 -2 -15 -9 -11 -18 6 -15 31 -18 50 -6 16 10 -15 30
-39 24z"/>
<path d="M500 2248 c0 -19 2 -20 10 -8 13 19 13 30 0 30 -5 0 -10 -10 -10 -22z"/>
<path d="M305 2249 c-10 -15 1 -23 20 -15 9 3 13 10 10 16 -8 13 -22 13 -30
-1z"/>
<path d="M445 2230 c-10 -11 -15 -23 -11 -28 4 -4 13 1 20 10 7 10 16 15 19
11 4 -3 7 1 7 10 0 23 -13 21 -35 -3z"/>
<path d="M395 2219 c-4 -6 -4 -13 -1 -16 3 -4 6 -1 6 6 0 7 5 9 10 6 6 -3 10
-1 10 4 0 14 -17 14 -25 0z"/>
<path d="M420 2180 c0 -5 7 -10 16 -10 8 0 12 5 9 10 -3 6 -10 10 -16 10 -5 0
-9 -4 -9 -10z"/>
<path d="M3755 2180 c-3 -5 1 -10 9 -10 9 0 16 5 16 10 0 6 -4 10 -9 10 -6 0
-13 -4 -16 -10z"/>
<path d="M363 2146 c0 -7 9 -13 19 -13 10 -1 18 2 18 6 0 5 -8 11 -18 13 -10
3 -19 0 -19 -6z"/>
<path d="M3769 2151 c8 -5 11 -16 8 -24 -4 -11 -1 -14 8 -10 17 6 2 43 -18 43
-8 0 -7 -3 2 -9z"/>
<path d="M410 2120 c0 -5 5 -10 10 -10 6 0 10 5 10 10 0 6 -4 10 -10 10 -5 0
-10 -4 -10 -10z"/>
<path d="M380 2109 c0 -5 5 -7 10 -4 6 3 10 8 10 11 0 2 -4 4 -10 4 -5 0 -10
-5 -10 -11z"/>
<path d="M3827 2005 c3 -8 9 -12 14 -9 12 7 11 11 -5 17 -10 4 -13 1 -9 -8z"/>
<path d="M3792 1958 c5 -15 28 -18 29 -3 0 6 -7 12 -17 13 -10 3 -15 -1 -12
-10z"/>
<path d="M3850 1960 c-12 -8 -11 -10 8 -10 12 0 22 5 22 10 0 13 -11 13 -30 0z"/>
<path d="M220 1951 c0 -5 5 -13 10 -16 6 -3 10 -2 10 4 0 5 -4 13 -10 16 -5 3
-10 2 -10 -4z"/>
<path d="M115 1830 c3 -5 8 -10 11 -10 2 0 4 5 4 10 0 6 -5 10 -11 10 -5 0 -7
-4 -4 -10z"/>
<path d="M465 1830 c-3 -5 -12 -7 -20 -4 -8 3 -20 2 -26 -2 -9 -5 -6 -10 9
-15 27 -10 52 -2 52 17 0 16 -6 18 -15 4z"/>
<path d="M307 1809 c-5 -20 -5 -20 14 -3 23 20 23 24 5 24 -7 0 -16 -9 -19
-21z"/>
<path d="M393 1770 c-23 -9 -32 -30 -14 -30 10 0 41 28 41 36 0 5 1 5 -27 -6z"/>
<path d="M310 1741 c0 -6 -9 -20 -19 -30 -15 -15 -17 -21 -6 -25 16 -6 49 51
34 60 -5 3 -9 0 -9 -5z"/>
<path d="M440 1724 c0 -8 -4 -13 -9 -10 -5 3 -11 -6 -14 -19 -5 -31 3 -37 26
-20 18 13 18 13 0 18 -16 4 -16 6 4 12 13 4 19 12 16 21 -7 19 -23 18 -23 -2z"/>
<path d="M3523 1723 c-18 -3 -20 -7 -11 -17 7 -7 21 -11 32 -8 14 4 17 1 12
-9 -4 -8 0 -5 8 5 9 11 16 25 16 30 0 6 -5 4 -10 -4 -6 -10 -10 -11 -10 -2 0
6 -3 11 -7 11 -5 -1 -18 -4 -30 -6z"/>
<path d="M330 1699 c-12 -7 -11 -10 8 -15 12 -4 22 -13 22 -20 0 -8 9 -14 20
-14 11 0 20 5 20 11 0 6 -7 9 -15 5 -9 -3 -15 0 -15 8 0 21 -24 36 -40 25z"/>
<path d="M390 1699 c0 -5 5 -7 10 -4 6 3 10 8 10 11 0 2 -4 4 -10 4 -5 0 -10
-5 -10 -11z"/>
<path d="M3448 1696 c-16 -8 -28 -12 -29 -8 0 4 -4 -3 -9 -15 -12 -31 2 -78
26 -80 10 -2 13 0 7 3 -21 9 -15 24 10 21 18 -2 22 3 22 27 0 20 6 31 20 37
18 7 18 8 2 8 -10 1 -15 6 -12 11 9 14 -5 12 -37 -4z m22 -58 c0 -5 -7 -8 -15
-8 -15 0 -20 21 -8 33 7 7 23 -11 23 -25z"/>
<path d="M325 1660 c3 -5 10 -10 16 -10 5 0 9 5 9 10 0 6 -7 10 -16 10 -8 0
-12 -4 -9 -10z"/>
<path d="M3637 1613 c3 -7 0 -13 -7 -13 -7 0 -10 -8 -7 -20 4 -15 -1 -22 -19
-26 -14 -4 -23 -8 -21 -11 3 -2 17 -1 31 3 18 4 25 11 22 21 -3 8 1 24 9 37
13 19 13 23 1 23 -8 0 -12 -6 -9 -14z"/>
<path d="M150 1611 c0 -5 5 -13 10 -16 6 -3 10 -2 10 4 0 5 -4 13 -10 16 -5 3
-10 2 -10 -4z"/>
<path d="M3500 1594 c0 -7 8 -11 20 -9 11 2 23 -3 28 -10 6 -12 10 -11 20 5 7
11 9 20 5 21 -5 0 -23 2 -40 3 -22 3 -33 -1 -33 -10z"/>
<path d="M3730 1590 c-6 -11 -8 -20 -6 -20 3 0 10 9 16 20 6 11 8 20 6 20 -3
0 -10 -9 -16 -20z"/>
<path d="M3757 1596 c-4 -10 -1 -13 8 -9 8 3 12 9 9 14 -7 12 -11 11 -17 -5z"/>
<path d="M3695 1580 c-16 -17 -16 -20 -3 -15 9 4 19 13 22 21 7 19 2 18 -19
-6z"/>
<path d="M239 1563 c-8 -9 -7 -14 4 -19 19 -7 37 2 37 20 0 17 -27 16 -41 -1z"/>
<path d="M3495 1560 c3 -5 16 -10 28 -10 18 0 19 2 7 10 -20 13 -43 13 -35 0z"/>
<path d="M3650 1559 c0 -5 5 -7 10 -4 6 3 10 8 10 11 0 2 -4 4 -10 4 -5 0 -10
-5 -10 -11z"/>
<path d="M3375 1550 c-3 -5 1 -10 10 -10 9 0 13 5 10 10 -3 6 -8 10 -10 10 -2
0 -7 -4 -10 -10z"/>
<path d="M467 1424 c-3 -5 -5 -26 -4 -46 1 -32 3 -34 14 -20 7 9 12 24 13 32
0 20 -16 44 -23 34z"/>
<path d="M493 1353 c-15 -5 -17 -23 -4 -23 5 0 11 7 15 15 3 8 4 15 3 14 -1 0
-8 -3 -14 -6z"/>
<path d="M3280 1329 c0 -5 5 -7 10 -4 6 3 10 8 10 11 0 2 -4 4 -10 4 -5 0 -10
-5 -10 -11z"/>
<path d="M467 1249 c7 -7 15 -10 18 -7 3 3 -2 9 -12 12 -14 6 -15 5 -6 -5z"/>
<path d="M546 1206 c5 -13 4 -17 -4 -12 -7 4 -12 2 -12 -3 0 -14 17 -14 26 0
3 6 1 16 -5 22 -9 9 -10 7 -5 -7z"/>
<path d="M2930 1185 c-7 -9 -8 -15 -2 -15 5 0 12 7 16 15 3 8 4 15 2 15 -2 0
-9 -7 -16 -15z"/>
<path d="M647 1164 c-4 -4 -7 -14 -7 -23 0 -11 3 -12 11 -4 6 6 10 16 7 23 -2
6 -7 8 -11 4z"/>
<path d="M2685 1160 c-3 -5 -2 -10 4 -10 5 0 13 5 16 10 3 6 2 10 -4 10 -5 0
-13 -4 -16 -10z"/>
<path d="M555 1120 c-8 -13 15 -24 27 -12 6 6 4 11 -6 15 -8 3 -18 2 -21 -3z"/>
<path d="M1261 920 c0 -8 4 -24 9 -35 l9 -20 0 20 c0 11 -4 27 -9 35 -9 13
-10 13 -9 0z"/>
<path d="M1182 909 c2 -6 8 -10 13 -10 5 0 11 4 13 10 2 6 -4 11 -13 11 -9 0
-15 -5 -13 -11z"/>
<path d="M1015 900 c-3 -5 -1 -10 4 -10 6 0 11 5 11 10 0 6 -2 10 -4 10 -3 0
-8 -4 -11 -10z"/>
<path d="M1975 890 c-3 -6 1 -7 9 -4 18 7 21 14 7 14 -6 0 -13 -4 -16 -10z"/>
<path d="M915 790 c3 -5 8 -10 11 -10 2 0 4 5 4 10 0 6 -5 10 -11 10 -5 0 -7
-4 -4 -10z"/>
<path d="M1170 785 c0 -8 2 -15 4 -15 2 0 6 7 10 15 3 8 1 15 -4 15 -6 0 -10
-7 -10 -15z"/>
</g>
</svg>
