<?xml version="1.0" standalone="no"?>
<!DOCTYPE svg PUBLIC "-//W3C//DTD SVG 20010904//EN"
 "http://www.w3.org/TR/2001/REC-SVG-20010904/DTD/svg10.dtd">
<svg version="1.0" xmlns="http://www.w3.org/2000/svg"
 width="400.000000pt" height="400.000000pt" viewBox="0 0 400.000000 400.000000"
 preserveAspectRatio="xMidYMid meet">
<metadata>
Created by potrace 1.16, written by Peter Selinger 2001-2019
</metadata>
<g transform="translate(0.000000,400.000000) scale(0.100000,-0.100000)"
fill="#000000" stroke="none">
<path d="M1585 3382 c-22 -4 -97 -7 -167 -7 -76 0 -130 -4 -132 -10 -3 -6 -8
-4 -14 4 -7 9 -12 10 -16 2 -4 -6 -12 -9 -17 -6 -13 9 -11 -9 4 -25 6 -7 -1
-4 -17 8 -36 27 -51 18 -16 -9 18 -14 20 -17 6 -13 -14 5 -17 3 -14 -7 3 -8
15 -13 27 -12 18 2 19 1 9 -11 -7 -7 -19 -11 -25 -9 -7 3 -21 2 -30 -2 -17 -7
-16 -8 2 -16 18 -8 18 -8 -5 -7 -48 2 -60 -1 -54 -17 5 -11 2 -13 -9 -9 -9 3
-24 0 -34 -6 -16 -10 -16 -11 0 -6 10 3 22 -2 29 -13 7 -11 18 -17 27 -13 9 3
12 1 8 -4 -9 -10 -89 -15 -130 -7 -25 4 -28 9 -26 36 2 18 7 38 12 45 7 9 3
12 -12 12 -17 0 -21 -4 -16 -19 3 -11 1 -22 -4 -25 -6 -4 -8 -13 -4 -21 4 -12
-4 -15 -39 -15 -79 0 -81 -4 -79 -188 l2 -162 -26 -10 c-22 -8 -24 -13 -15
-30 6 -11 8 -20 4 -20 -3 0 -1 -6 5 -13 6 -8 8 -17 4 -21 -9 -8 -11 -38 -17
-212 -5 -137 6 -208 35 -224 16 -9 17 -31 5 -165 -12 -135 -13 -139 -46 -152
-17 -6 -28 -8 -26 -4 3 4 -17 8 -44 9 l-48 2 -2 -48 c-1 -26 -3 -83 -6 -127
-2 -44 -4 -87 -5 -95 0 -8 0 -28 0 -45 0 -16 0 -41 0 -55 -1 -50 10 -103 22
-110 7 -5 75 -8 151 -7 81 0 143 -4 148 -9 7 -7 6 -20 -4 -39 -8 -16 -12 -33
-8 -39 4 -7 8 -5 10 6 2 9 10 19 18 22 11 4 11 0 -2 -20 -10 -15 -23 -23 -31
-19 -20 7 -77 -46 -60 -57 8 -5 4 -8 -10 -8 -12 0 -28 -7 -37 -15 -19 -19 -30
-19 -23 0 4 8 1 17 -5 21 -6 4 -8 3 -5 -3 4 -6 0 -13 -8 -17 -10 -3 -16 1 -17
12 0 9 -2 23 -2 30 -1 8 -9 18 -18 23 -13 7 -20 4 -29 -13 -11 -21 -11 -22 5
-9 15 12 16 12 10 -5 -4 -10 -11 -23 -15 -29 -4 -5 -7 -13 -7 -18 -1 -4 -6
-33 -13 -65 -7 -31 -13 -64 -13 -72 -1 -8 -9 -15 -18 -15 -25 0 -50 -29 -54
-62 -15 -112 -16 -153 -3 -153 11 0 11 -2 -1 -10 -11 -7 -15 -32 -16 -99 -1
-49 -5 -94 -8 -99 -3 -5 4 -12 16 -15 18 -5 19 -8 8 -22 -7 -8 -10 -18 -8 -21
6 -5 153 -8 173 -4 6 1 12 2 15 0 16 -6 80 -4 80 3 0 5 21 7 48 6 26 -2 57 2
68 8 12 7 23 10 26 8 8 -8 98 -12 98 -5 0 4 26 8 58 8 31 1 80 2 108 3 81 2
89 -3 92 -63 2 -29 5 -55 8 -57 8 -8 201 -8 289 0 50 5 135 11 190 13 55 3
107 7 115 9 17 6 11 6 162 9 107 2 118 4 127 22 8 17 10 18 10 4 1 -17 41 -47
41 -30 0 12 44 10 53 -2 6 -7 7 -5 4 5 -3 9 -1 22 3 29 5 8 3 28 -5 47 -10 23
-11 41 -5 58 10 26 65 60 75 46 3 -6 18 -6 35 -1 22 6 34 5 44 -5 12 -12 15
-12 20 0 4 11 18 13 63 9 91 -8 103 -12 96 -32 -6 -15 -5 -16 12 -2 17 14 17
14 4 -8 -13 -20 -15 -21 -26 -6 -7 9 -10 21 -6 27 3 5 0 8 -7 5 -16 -5 -23
-38 -9 -38 6 0 8 -3 5 -8 -2 -4 7 -12 20 -19 13 -6 22 -7 18 -2 -8 14 6 30 19
22 25 -16 48 -13 46 4 -4 42 0 46 34 38 38 -8 47 -9 67 -4 8 2 14 -2 12 -9 -1
-8 2 -11 9 -6 20 12 79 22 79 13 0 -4 13 -3 30 2 23 8 31 19 36 46 7 36 39 58
69 47 31 -12 40 90 16 185 -5 20 -10 59 -10 86 -3 107 -10 166 -19 178 -15 17
2 42 22 34 9 -4 25 -3 37 1 17 7 21 19 25 80 2 39 0 135 -6 214 -6 79 -11 152
-11 163 0 11 -7 27 -15 36 -17 19 -23 55 -27 184 -5 133 -4 136 72 151 35 7
68 11 72 8 5 -2 17 4 27 14 20 20 44 137 38 182 -11 72 -26 169 -32 198 -4 21
-3 32 5 32 21 0 50 63 56 125 6 50 2 85 -21 176 -15 63 -36 127 -47 142 -10
15 -16 35 -13 43 9 24 -3 37 -21 23 -12 -10 -16 -10 -23 2 -8 12 -14 11 -39
-4 -17 -10 -32 -13 -35 -8 -4 5 -1 11 5 13 6 2 -11 3 -38 3 -26 0 -47 -5 -46
-11 1 -5 -7 -10 -17 -10 -10 0 -16 4 -14 8 3 4 0 8 -5 8 -6 0 -11 -5 -11 -12
0 -6 -9 -3 -20 7 -19 17 -20 17 -20 0 0 -13 -3 -15 -13 -6 -8 6 -17 8 -20 4
-4 -3 -7 -4 -7 -2 0 2 -4 30 -10 63 -6 41 -6 65 2 79 8 16 7 23 -8 34 -10 7
-14 13 -8 13 5 0 2 5 -6 10 -10 6 -11 10 -2 10 6 0 12 4 12 8 0 4 -29 6 -65 4
-41 -3 -70 0 -79 7 -8 7 -16 8 -18 3 -1 -6 -35 -12 -75 -14 -48 -3 -77 -10
-88 -21 -20 -21 -26 -21 -19 -2 7 17 3 18 -184 16 -67 0 -127 -3 -132 -6 -5
-3 -11 -1 -14 4 -4 5 -19 8 -34 7 -15 -2 -35 0 -44 5 -11 6 -19 5 -23 -2 -4
-6 -17 -8 -29 -5 -13 3 -37 1 -54 -4 -23 -6 -32 -5 -32 3 0 8 -3 8 -9 -1 -4
-8 -12 -13 -17 -12 -5 1 -10 -4 -13 -11 -2 -6 1 -9 6 -6 5 3 10 -4 10 -16 2
-17 0 -19 -7 -7 -7 11 -10 11 -10 2 0 -7 10 -16 22 -21 l23 -8 -25 -8 c-30 -9
-176 -14 -189 -6 -5 4 -11 32 -13 63 l-3 56 -35 0 c-19 -1 -71 2 -115 5 -44 3
-98 2 -120 -1z m-263 -74 c-11 -11 -32 -3 -32 12 0 4 9 6 21 3 13 -4 17 -9 11
-15z m-552 -1342 c0 -23 -16 -27 -31 -9 -10 12 -10 14 -1 9 6 -4 12 -2 12 3 0
6 5 11 10 11 6 0 10 -6 10 -14z m33 -18 c-12 -14 -19 -16 -22 -7 -2 7 1 15 8
17 6 2 9 8 6 13 -4 5 1 6 10 3 14 -6 14 -8 -2 -26z m25 -17 c-7 -12 -16 -21
-21 -21 -4 0 0 11 9 25 20 30 31 26 12 -4z m210 -437 c-11 -11 -18 -12 -22 -5
-4 6 0 11 8 11 9 0 16 5 16 12 0 6 3 8 7 4 4 -3 0 -14 -9 -22z m1756 -705 c-3
-5 -10 -7 -15 -3 -5 3 -7 10 -3 15 3 5 10 7 15 3 5 -3 7 -10 3 -15z m-494 -89
c0 -5 -7 -10 -16 -10 -8 0 -12 5 -9 10 3 6 10 10 16 10 5 0 9 -4 9 -10z"/>
<path d="M830 1400 c0 -5 5 -10 10 -10 6 0 10 5 10 10 0 6 -4 10 -10 10 -5 0
-10 -4 -10 -10z"/>
<path d="M655 1180 c-3 -5 -1 -10 4 -10 6 0 11 5 11 10 0 6 -2 10 -4 10 -3 0
-8 -4 -11 -10z"/>
<path d="M2590 799 c0 -11 5 -17 10 -14 6 3 10 13 10 21 0 8 -4 14 -10 14 -5
0 -10 -9 -10 -21z"/>
<path d="M2823 785 c0 -8 2 -13 5 -10 2 2 13 -6 23 -18 10 -12 18 -17 19 -11
0 5 -6 16 -12 23 -11 10 -9 11 7 5 14 -5 17 -4 10 3 -19 20 -52 25 -52 8z"/>
<path d="M2900 766 c0 -2 7 -7 16 -10 8 -3 12 -2 9 4 -6 10 -25 14 -25 6z"/>
</g>
</svg>
