<?xml version="1.0" standalone="no"?>
<!DOCTYPE svg PUBLIC "-//W3C//DTD SVG 20010904//EN"
 "http://www.w3.org/TR/2001/REC-SVG-20010904/DTD/svg10.dtd">
<svg version="1.0" xmlns="http://www.w3.org/2000/svg"
 width="400.000000pt" height="400.000000pt" viewBox="0 0 400.000000 400.000000"
 preserveAspectRatio="xMidYMid meet">
<metadata>
Created by potrace 1.16, written by Peter Selinger 2001-2019
</metadata>
<g transform="translate(0.000000,400.000000) scale(0.100000,-0.100000)"
fill="#000000" stroke="none">
<path d="M1620 3990 c0 -5 11 -10 24 -10 14 0 28 5 31 10 4 6 -7 10 -24 10
-17 0 -31 -4 -31 -10z"/>
<path d="M1766 3875 c-7 -20 3 -45 19 -45 16 0 29 35 20 50 -9 15 -32 12 -39
-5z"/>
<path d="M2101 3796 c-21 -25 -10 -61 18 -61 31 0 50 28 35 53 -15 23 -38 26
-53 8z"/>
<path d="M590 3714 c0 -3 28 -49 61 -102 34 -53 86 -137 116 -187 30 -49 75
-121 100 -158 49 -76 55 -120 17 -125 -31 -4 -57 -36 -50 -60 8 -24 52 -55 66
-47 6 3 10 14 10 23 1 15 47 59 54 50 20 -22 76 -121 76 -134 0 -10 10 -28 22
-41 18 -19 20 -27 10 -48 -6 -13 -23 -27 -36 -31 -21 -5 -24 -11 -20 -32 6
-36 -28 -92 -57 -92 -14 0 -19 -5 -16 -15 4 -8 2 -17 -4 -21 -6 -3 -8 -12 -5
-20 8 -20 -4 -44 -20 -44 -17 0 -18 -12 -3 -27 17 -17 2 -62 -26 -75 -30 -14
-43 -58 -19 -71 13 -7 14 -11 3 -17 -10 -7 -10 -14 -1 -34 6 -14 9 -33 6 -41
-4 -8 -1 -15 6 -15 8 0 11 -9 7 -26 -3 -18 0 -27 12 -31 9 -3 23 -8 31 -11 8
-3 35 -7 58 -8 48 -3 79 -21 63 -37 -5 -5 -17 -5 -29 2 -30 16 -52 3 -52 -30
0 -39 34 -58 61 -33 15 14 21 14 34 4 8 -7 15 -18 15 -25 0 -7 9 -15 20 -18
27 -7 26 -27 -2 -27 -12 0 -29 -7 -39 -16 -16 -14 -19 -14 -39 6 -13 13 -34
22 -49 22 -14 0 -31 4 -38 10 -18 14 -23 -5 -12 -47 6 -21 8 -53 4 -71 -3 -19
-1 -52 5 -75 10 -35 9 -44 -4 -58 -13 -12 -20 -13 -34 -5 -13 8 -23 8 -39 -4
-32 -20 -58 -9 -42 19 6 12 20 24 30 26 20 6 22 11 19 58 -3 38 -24 81 -45 89
-48 18 -113 -5 -145 -51 -21 -30 -24 -32 -40 -18 -22 20 -37 19 -49 -3 -14
-26 5 -52 38 -52 16 0 34 -7 42 -16 11 -13 10 -21 -6 -50 -23 -43 -14 -53 21
-25 20 16 30 18 40 10 21 -17 17 -76 -5 -95 -11 -10 -16 -24 -14 -35 4 -15 0
-19 -18 -19 -29 -1 -95 -53 -85 -68 3 -6 20 -13 37 -17 23 -5 30 -12 28 -28
-1 -12 1 -35 6 -50 6 -23 12 -28 31 -24 13 2 45 -6 71 -19 27 -13 54 -24 61
-24 20 0 14 -30 -17 -80 -25 -41 -27 -48 -15 -65 28 -38 7 -127 -36 -153 -12
-7 -26 -26 -32 -43 -5 -16 -16 -29 -24 -29 -24 0 -39 -46 -26 -75 9 -19 19
-25 44 -25 38 -1 68 -20 68 -43 0 -22 21 -67 32 -67 4 0 8 -7 8 -15 0 -8 7
-15 15 -15 8 0 15 -4 15 -8 0 -15 75 -11 108 6 17 9 32 20 32 24 0 5 9 8 20 8
17 0 19 3 11 18 -7 13 -6 23 1 30 15 15 38 15 38 1 0 -8 5 -8 15 1 12 10 16 8
23 -11 l9 -24 8 24 c5 16 12 21 26 18 10 -3 22 -1 25 4 3 5 19 9 35 9 35 0 48
-23 30 -53 -11 -16 -11 -19 1 -15 7 3 38 -16 68 -43 44 -39 56 -45 63 -33 12
20 53 36 105 40 24 2 50 8 57 14 9 8 15 8 20 0 3 -5 12 -10 19 -10 10 0 13 15
10 58 -2 31 -4 68 -5 82 0 14 -6 31 -11 38 -6 7 -8 15 -4 19 3 3 28 -17 56
-45 46 -48 50 -55 50 -100 0 -45 3 -51 29 -62 37 -15 62 -2 84 42 11 23 13 37
5 51 -20 38 15 65 42 32 17 -21 30 -19 30 4 0 30 28 33 63 8 18 -12 38 -23 46
-22 7 0 17 -10 22 -22 7 -19 5 -23 -10 -23 -10 0 -22 7 -25 17 -6 14 -11 12
-36 -12 -17 -16 -30 -34 -30 -41 0 -6 -6 -16 -13 -22 -18 -16 -20 -131 -2
-159 8 -12 12 -28 9 -36 -3 -8 2 -19 10 -26 11 -9 21 -8 48 9 39 24 58 26 58
5 0 -8 6 -15 14 -15 18 0 39 26 32 39 -4 5 -2 12 4 16 13 8 50 -13 50 -28 0
-8 11 -12 28 -12 15 1 32 -3 39 -8 7 -5 17 -6 23 -2 12 8 67 -42 57 -52 -4 -3
-2 -12 4 -19 8 -9 5 -18 -10 -33 -26 -26 -28 -51 -3 -28 14 13 21 14 30 5 8
-8 7 -14 -5 -23 -16 -12 -10 -40 7 -30 4 3 13 -2 20 -10 9 -11 23 -13 50 -9
23 4 40 2 44 -5 4 -6 18 -11 31 -11 13 0 27 -4 30 -10 3 -5 15 -10 25 -10 10
0 31 -5 47 -12 28 -11 37 -14 61 -16 6 -1 12 -11 12 -22 0 -11 6 -20 14 -20
18 0 27 -25 19 -47 -7 -17 -5 -17 20 0 26 17 29 17 56 1 27 -16 31 -16 62 3
32 18 34 22 35 79 2 79 1 77 27 59 35 -22 80 -10 96 26 17 39 -2 91 -39 108
-16 6 -31 23 -34 37 -8 29 -29 27 -34 -2 -2 -10 -9 -23 -16 -29 -7 -5 -16 -21
-19 -35 -12 -44 -22 -53 -45 -41 -11 6 -40 11 -64 11 -47 0 -61 7 -71 32 -4
11 2 24 18 37 14 10 25 24 25 29 0 17 20 25 34 13 18 -15 79 -7 84 10 2 8 11
19 19 26 24 19 25 108 2 129 -23 21 -24 32 -2 56 9 10 12 18 6 18 -5 0 -18 -9
-28 -20 -12 -13 -31 -20 -55 -20 -24 0 -43 -7 -55 -20 -12 -14 -22 -17 -30
-10 -15 13 -25 3 -25 -27 0 -27 -18 -31 -27 -6 -4 10 2 23 15 34 12 9 22 24
22 32 0 9 11 24 25 35 16 13 23 26 19 36 -4 11 -1 16 10 16 21 0 20 9 -3 34
-10 12 -22 35 -25 52 -7 29 -5 32 22 36 17 2 38 -2 48 -9 44 -32 104 -8 128
52 10 23 31 57 47 75 20 22 28 38 24 51 -6 19 3 24 33 20 17 -3 83 56 100 88
18 34 22 119 6 149 -20 39 -62 81 -88 88 -25 6 -41 29 -27 38 4 3 9 20 10 38
2 18 3 40 4 48 0 8 -2 27 -6 42 -6 21 -3 32 13 45 11 10 20 27 20 38 0 40 12
61 41 74 24 10 36 11 55 2 33 -15 31 -16 44 23 6 19 21 38 36 45 21 9 29 8 54
-11 27 -20 30 -20 54 -5 24 16 26 16 53 -7 26 -22 36 -24 91 -19 35 3 65 10
68 14 9 15 34 10 34 -7 0 -8 15 -30 34 -47 19 -18 36 -44 38 -57 3 -24 4 -24
25 12 15 26 31 38 55 43 38 8 60 23 52 36 -10 16 29 68 55 74 37 9 54 25 69
67 16 46 3 78 -33 78 -22 0 -76 -37 -101 -70 -10 -12 -15 -12 -28 -1 -12 10
-23 10 -50 1 -19 -6 -46 -8 -60 -4 -19 5 -26 2 -26 -9 0 -18 -32 -77 -42 -77
-4 0 -10 5 -13 10 -9 15 -61 12 -75 -5 -16 -20 -30 -19 -59 4 -13 10 -32 16
-42 14 -10 -3 -26 2 -34 11 -9 9 -29 16 -43 16 -17 0 -32 8 -40 20 -7 12 -24
25 -37 30 -14 5 -25 14 -25 20 0 11 7 14 54 25 25 5 28 3 24 -13 -3 -10 3 -30
14 -43 20 -24 20 -24 15 -1 -4 18 -1 22 19 22 27 0 64 32 64 55 0 10 10 15 33
15 40 0 57 15 57 51 0 33 -32 59 -62 51 -18 -4 -20 -2 -12 29 10 45 7 118 -8
146 -8 17 -17 21 -34 17 -17 -4 -26 -1 -30 10 -3 9 -17 16 -31 16 -14 0 -38 9
-54 21 l-29 20 -29 -23 c-16 -13 -36 -39 -45 -58 -21 -46 -44 -75 -52 -67 -4
4 -2 13 4 20 16 19 -9 53 -33 44 -17 -7 -17 -18 1 -61 5 -14 4 -17 -4 -12 -7
4 -26 -6 -44 -24 -27 -25 -38 -29 -63 -24 -37 8 -41 12 -28 25 7 7 9 27 6 48
-5 36 -5 36 11 14 31 -42 82 -21 65 26 -8 20 -14 22 -39 17 -28 -5 -30 -3 -30
24 0 23 -7 33 -29 45 -42 21 -45 31 -21 70 15 24 21 52 23 96 1 40 6 63 15 66
18 8 42 69 47 124 4 41 1 52 -20 75 -14 15 -25 30 -25 33 0 4 16 22 35 41 19
19 35 40 35 47 0 7 12 37 27 67 22 46 24 57 14 70 -8 9 -19 16 -26 16 -7 0
-47 -33 -88 -73 -61 -59 -76 -79 -79 -107 -2 -30 -7 -35 -30 -38 -23 -3 -28
-8 -28 -32 0 -21 -8 -34 -27 -47 -16 -9 -30 -18 -32 -19 -2 -2 10 -14 25 -28
24 -20 27 -28 18 -43 -6 -10 -23 -24 -38 -31 -15 -8 -30 -20 -33 -28 -3 -8
-11 -14 -19 -14 -14 0 -18 12 -15 38 2 15 -11 16 -27 0 -9 -9 -15 -9 -24 1
-11 10 -4 21 33 56 26 24 49 51 52 60 4 8 13 18 22 20 50 16 51 17 18 31 -37
16 -40 29 -18 81 11 27 12 38 4 44 -6 4 -23 29 -38 55 -18 35 -32 49 -47 49
-11 0 -28 6 -37 14 -10 7 -17 10 -17 5 0 -4 -5 -3 -11 3 -6 6 -17 9 -24 6 -8
-2 -23 0 -34 7 -18 9 -21 8 -21 -8 0 -13 -9 -21 -27 -25 -22 -4 -35 2 -61 26
-29 28 -32 37 -30 79 2 54 -5 66 -26 48 -12 -10 -21 -8 -45 9 -16 12 -38 21
-50 21 -11 0 -41 14 -66 32 -41 29 -47 31 -71 18 -22 -13 -27 -12 -34 1 -13
22 -137 18 -174 -6 -22 -15 -29 -16 -36 -5 -10 16 -76 40 -112 40 -60 0 -87
-73 -52 -141 19 -37 6 -59 -36 -59 -20 0 -29 -6 -33 -21 -5 -17 -11 -20 -28
-16 -29 8 -49 -9 -49 -39 0 -16 -6 -24 -18 -24 -13 0 -18 -8 -17 -27 0 -30
-31 -45 -46 -21 -6 9 -13 10 -24 3 -22 -14 -15 -31 12 -27 28 3 38 -14 20 -33
-9 -8 -18 -20 -20 -27 -4 -10 -9 -8 -20 5 -18 21 -40 22 -58 1 -12 -15 -15
-14 -31 6 -10 13 -24 20 -33 16 -17 -6 -20 -22 -5 -31 15 -10 12 -35 -5 -35
-8 0 -15 -7 -15 -16 0 -22 -24 -12 -28 12 -5 23 -61 84 -79 84 -21 0 -15 -33
12 -64 19 -22 22 -32 14 -43 -18 -21 -41 -16 -37 9 2 16 -5 26 -23 35 -26 13
-80 91 -287 423 -198 316 -202 321 -202 304z m1470 -399 c0 -8 -4 -15 -9 -15
-13 0 -22 16 -14 24 11 11 23 6 23 -9z m-325 -46 c0 -8 -8 -13 -20 -11 -28 5
-32 12 -15 22 19 12 35 7 35 -11z m1085 -1060 c0 -5 -6 -9 -14 -9 -15 0 -28
24 -19 34 7 7 33 -13 33 -25z m60 22 c0 -17 -12 -41 -21 -41 -10 0 -12 33 -2
43 9 10 23 9 23 -2z m420 -10 c0 -17 -12 -41 -21 -41 -10 0 -12 33 -2 43 9 10
23 9 23 -2z m-2494 -398 c-1 -21 -4 -37 -8 -35 -4 1 -15 5 -23 8 -15 6 -21 45
-8 57 3 4 14 7 23 7 13 0 17 -9 16 -37z m537 -489 c11 -14 16 -32 12 -43 -3
-11 -1 -22 5 -26 16 -10 12 -25 -7 -25 -9 0 -13 -3 -9 -7 4 -4 16 -8 28 -8 26
0 67 -70 50 -87 -15 -15 -43 -2 -49 22 -7 25 -12 25 -29 3 -16 -23 -24 -14
-27 28 -1 19 -6 40 -11 47 -4 7 -3 19 3 26 7 8 9 31 6 55 -6 47 2 51 28 15z
m687 -404 c0 -5 -4 -10 -10 -10 -5 0 -10 5 -10 10 0 6 5 10 10 10 6 0 10 -4
10 -10z"/>
<path d="M1870 3690 c0 -5 5 -10 10 -10 6 0 10 5 10 10 0 6 -4 10 -10 10 -5 0
-10 -4 -10 -10z"/>
<path d="M2485 3650 c-4 -7 -3 -16 3 -22 14 -14 45 -2 40 15 -6 16 -34 21 -43
7z"/>
<path d="M2040 3622 c0 -10 41 -24 49 -17 6 7 0 11 -26 19 -13 4 -23 3 -23 -2z"/>
<path d="M2742 3604 c4 -21 22 -23 26 -1 2 10 -3 17 -13 17 -10 0 -15 -6 -13
-16z"/>
<path d="M2463 3525 c-21 -13 -30 -26 -27 -37 3 -9 -1 -26 -8 -38 -11 -19 -10
-24 10 -37 14 -10 22 -26 22 -45 0 -46 28 -48 66 -4 28 32 34 35 41 21 8 -13
16 -15 43 -8 43 11 57 33 44 70 -7 22 -16 29 -44 31 -19 2 -40 12 -47 22 -7
10 -26 25 -41 32 -24 12 -31 11 -59 -7z"/>
<path d="M1926 3521 c-22 -25 -8 -56 29 -63 22 -5 25 -2 25 26 0 29 -15 56
-30 56 -4 0 -15 -9 -24 -19z"/>
<path d="M1524 3446 c-10 -26 0 -51 21 -51 16 0 20 7 20 30 0 33 -30 49 -41
21z"/>
<path d="M2660 3231 c0 -11 4 -22 9 -25 12 -8 34 21 26 34 -11 17 -35 11 -35
-9z"/>
<path d="M640 3220 c0 -5 5 -10 11 -10 5 0 7 5 4 10 -3 6 -8 10 -11 10 -2 0
-4 -4 -4 -10z"/>
<path d="M509 3190 c-9 -5 -22 -23 -29 -39 -11 -26 -9 -34 10 -61 28 -39 62
-39 101 -1 35 36 36 54 4 86 -25 26 -58 31 -86 15z"/>
<path d="M1307 3176 c-7 -19 1 -46 14 -46 18 0 22 31 7 47 -14 13 -16 13 -21
-1z"/>
<path d="M1230 3151 c0 -25 6 -27 13 -6 4 8 2 17 -3 20 -6 4 -10 -3 -10 -14z"/>
<path d="M1160 3119 c0 -5 5 -7 10 -4 6 3 10 8 10 11 0 2 -4 4 -10 4 -5 0 -10
-5 -10 -11z"/>
<path d="M612 2961 c4 -13 18 -16 19 -4 0 4 -5 9 -11 12 -7 2 -11 -2 -8 -8z"/>
<path d="M748 2733 c6 -2 18 -2 25 0 6 3 1 5 -13 5 -14 0 -19 -2 -12 -5z"/>
<path d="M440 2713 c-84 -4 -112 -11 -107 -26 2 -8 43 -11 133 -12 71 0 137
-4 148 -9 15 -8 17 -6 12 12 -7 19 -3 21 51 25 46 2 41 4 -28 5 -48 1 -99 4
-115 5 -16 2 -58 2 -94 0z"/>
<path d="M892 2696 c2 -16 9 -31 16 -34 17 -5 15 20 -3 44 -15 18 -15 18 -13
-10z"/>
<path d="M753 2693 c9 -2 25 -2 35 0 9 3 1 5 -18 5 -19 0 -27 -2 -17 -5z"/>
<path d="M2907 2674 c-14 -14 -7 -35 11 -32 9 2 17 10 17 17 0 16 -18 25 -28
15z"/>
<path d="M3246 2581 c-4 -5 -2 -12 3 -15 5 -4 12 -2 15 3 4 5 2 12 -3 15 -5 4
-12 2 -15 -3z"/>
<path d="M3375 2570 c-25 -28 -25 -88 0 -106 37 -27 95 13 95 66 0 56 -59 80
-95 40z"/>
<path d="M3220 2540 c0 -5 5 -10 10 -10 6 0 10 5 10 10 0 6 -4 10 -10 10 -5 0
-10 -4 -10 -10z"/>
<path d="M3067 2514 c-8 -8 1 -24 14 -24 5 0 9 7 9 15 0 15 -12 20 -23 9z"/>
<path d="M2976 2491 c-4 -5 -2 -12 3 -15 5 -4 12 -2 15 3 4 5 2 12 -3 15 -5 4
-12 2 -15 -3z"/>
<path d="M788 2463 c7 -3 16 -2 19 1 4 3 -2 6 -13 5 -11 0 -14 -3 -6 -6z"/>
<path d="M3965 2424 c-16 -17 -25 -39 -25 -58 0 -36 24 -76 46 -76 11 0 14 17
14 80 0 44 -2 80 -5 80 -3 0 -17 -12 -30 -26z"/>
<path d="M3802 2389 c2 -6 8 -10 13 -10 5 0 11 4 13 10 2 6 -4 11 -13 11 -9 0
-15 -5 -13 -11z"/>
<path d="M782 2305 c-11 -13 -9 -15 13 -15 16 0 25 5 23 12 -6 18 -21 19 -36
3z"/>
<path d="M838 2283 c7 -3 16 -2 19 1 4 3 -2 6 -13 5 -11 0 -14 -3 -6 -6z"/>
<path d="M820 2180 c0 -5 5 -10 10 -10 6 0 10 5 10 10 0 6 -4 10 -10 10 -5 0
-10 -4 -10 -10z"/>
<path d="M826 2132 c-3 -6 -1 -14 5 -17 15 -10 25 3 12 16 -7 7 -13 7 -17 1z"/>
<path d="M447 2048 c-12 -45 35 -64 68 -28 15 16 15 22 5 35 -20 24 -67 19
-73 -7z"/>
<path d="M3360 2050 c0 -5 5 -10 10 -10 6 0 10 5 10 10 0 6 -4 10 -10 10 -5 0
-10 -4 -10 -10z"/>
<path d="M3265 2031 c-6 -11 9 -23 19 -14 9 9 7 23 -3 23 -6 0 -12 -4 -16 -9z"/>
<path d="M3909 2015 c-19 -19 -13 -84 8 -92 25 -10 35 12 28 61 -8 50 -13 54
-36 31z"/>
<path d="M3390 2004 c0 -8 5 -12 10 -9 6 4 8 11 5 16 -9 14 -15 11 -15 -7z"/>
<path d="M893 1923 c-14 -5 -18 -33 -5 -33 10 0 32 22 32 32 0 9 -8 9 -27 1z"/>
<path d="M3792 1912 c-47 -7 -55 -89 -10 -113 16 -9 30 -8 60 2 82 27 89 103
11 110 -21 2 -48 3 -61 1z"/>
<path d="M3100 1845 c0 -10 7 -15 18 -13 21 4 19 22 -2 26 -10 2 -16 -3 -16
-13z"/>
<path d="M306 1843 c-11 -11 -6 -23 9 -23 8 0 15 4 15 9 0 13 -16 22 -24 14z"/>
<path d="M570 1810 c0 -5 5 -10 10 -10 6 0 10 5 10 10 0 6 -4 10 -10 10 -5 0
-10 -4 -10 -10z"/>
<path d="M680 1810 c0 -5 5 -10 10 -10 6 0 10 5 10 10 0 6 -4 10 -10 10 -5 0
-10 -4 -10 -10z"/>
<path d="M3440 1810 c0 -5 5 -10 10 -10 6 0 10 5 10 10 0 6 -4 10 -10 10 -5 0
-10 -4 -10 -10z"/>
<path d="M472 1758 c-19 -19 -14 -46 13 -64 21 -14 30 -14 55 -4 32 13 37 29
20 61 -12 22 -68 27 -88 7z"/>
<path d="M480 1653 c-8 -3 -29 -11 -47 -19 -36 -16 -69 -18 -78 -4 -3 6 -11
10 -16 10 -15 0 -59 -47 -59 -64 0 -24 38 -30 68 -9 32 22 88 25 103 7 6 -8
27 -14 45 -14 32 0 34 2 34 33 0 37 -26 67 -50 60z"/>
<path d="M3210 1615 c-8 -9 -8 -15 -2 -15 12 0 26 19 19 26 -2 2 -10 -2 -17
-11z"/>
<path d="M136 1545 c-15 -23 -15 -28 -1 -53 24 -44 41 -62 59 -62 9 0 19 -7
23 -16 6 -15 7 -15 18 -1 6 9 23 21 38 26 27 11 28 25 4 83 -21 51 -113 65
-141 23z"/>
<path d="M366 1545 c-6 -17 16 -31 33 -21 13 9 2 36 -14 36 -7 0 -16 -7 -19
-15z"/>
<path d="M475 1414 c-6 -40 -4 -50 11 -61 25 -18 47 -16 72 7 41 38 21 87 -39
96 l-36 6 -8 -48z"/>
<path d="M3090 1425 c-8 -9 -8 -15 -2 -15 18 0 42 12 42 21 0 14 -26 10 -40
-6z"/>
<path d="M690 1315 c-7 -9 -10 -18 -7 -22 8 -7 37 15 37 28 0 14 -16 11 -30
-6z"/>
<path d="M2995 1220 c-4 -6 -18 -16 -32 -21 -20 -7 -24 -14 -19 -33 5 -19 0
-29 -19 -43 -54 -39 -46 -130 14 -166 39 -23 68 -21 107 5 59 41 47 129 -24
171 -34 20 -35 22 -14 25 19 3 23 9 20 35 -3 32 -21 46 -33 27z"/>
<path d="M562 1008 c-17 -17 -15 -47 4 -55 23 -9 51 23 38 44 -14 22 -27 26
-42 11z"/>
<path d="M2655 1010 c-19 -7 -19 -7 2 -18 16 -9 24 -9 29 -1 10 16 -8 28 -31
19z"/>
<path d="M2705 899 c-10 -15 3 -25 16 -12 7 7 7 13 1 17 -6 3 -14 1 -17 -5z"/>
<path d="M633 858 c-12 -6 -29 -28 -37 -48 -8 -21 -24 -41 -35 -45 -11 -3 -23
-15 -26 -26 -17 -52 37 -88 78 -52 12 11 35 20 52 21 41 3 66 32 72 83 5 43 4
44 -36 62 -23 9 -42 17 -44 16 -1 0 -12 -5 -24 -11z"/>
<path d="M1164 819 c-8 -14 5 -29 27 -29 10 0 19 6 19 14 0 16 -37 28 -46 15z"/>
<path d="M194 776 c-10 -26 4 -48 28 -44 17 2 23 10 23 28 0 18 -6 26 -23 28
-13 2 -25 -3 -28 -12z"/>
<path d="M815 761 c-3 -5 -1 -12 5 -16 5 -3 10 1 10 9 0 18 -6 21 -15 7z"/>
<path d="M2876 751 c-3 -5 3 -29 14 -53 l20 -43 -5 40 c-2 22 -5 46 -5 53 0
14 -16 16 -24 3z"/>
<path d="M1080 670 c0 -11 5 -20 10 -20 6 0 10 9 10 20 0 11 -4 20 -10 20 -5
0 -10 -9 -10 -20z"/>
<path d="M1714 675 c-8 -20 4 -35 26 -35 10 0 20 -8 23 -17 4 -17 4 -17 12 0
13 31 -3 67 -31 67 -13 0 -27 -7 -30 -15z"/>
<path d="M2951 638 c-12 -31 4 -58 35 -58 29 0 47 35 32 63 -13 25 -57 22 -67
-5z"/>
<path d="M2100 640 c0 -6 -9 -24 -21 -39 -17 -23 -19 -32 -10 -50 12 -22 46
-27 71 -11 13 8 13 13 -2 41 -10 17 -18 37 -18 44 0 8 -4 17 -10 20 -5 3 -10
1 -10 -5z"/>
<path d="M1702 598 c2 -12 10 -23 18 -23 22 0 19 39 -3 43 -15 3 -18 -1 -15
-20z"/>
<path d="M1370 600 c0 -5 5 -10 10 -10 6 0 10 5 10 10 0 6 -4 10 -10 10 -5 0
-10 -4 -10 -10z"/>
<path d="M1320 590 c0 -5 5 -10 10 -10 6 0 10 5 10 10 0 6 -4 10 -10 10 -5 0
-10 -4 -10 -10z"/>
<path d="M397 583 c-14 -4 -17 -13 -15 -41 2 -30 7 -38 26 -40 30 -4 54 16 50
41 -4 24 -37 45 -61 40z"/>
<path d="M944 545 c-27 -27 -26 -49 5 -92 19 -27 29 -28 58 -5 34 25 40 75 14
101 -28 28 -46 27 -77 -4z"/>
<path d="M1910 549 c0 -5 5 -7 10 -4 6 3 10 8 10 11 0 2 -4 4 -10 4 -5 0 -10
-5 -10 -11z"/>
<path d="M2670 550 c0 -5 5 -10 11 -10 5 0 7 5 4 10 -3 6 -8 10 -11 10 -2 0
-4 -4 -4 -10z"/>
<path d="M552 478 c2 -12 10 -23 18 -23 22 0 19 39 -3 43 -15 3 -18 -1 -15
-20z"/>
<path d="M308 449 c-10 -5 -18 -16 -18 -24 0 -8 -9 -19 -20 -25 -11 -6 -20
-17 -20 -25 0 -8 -9 -20 -20 -27 -11 -7 -20 -18 -20 -24 0 -7 -11 -19 -25 -28
-28 -18 -33 -47 -11 -65 17 -15 44 -5 51 20 4 10 15 24 26 29 10 6 19 19 19
28 0 10 8 25 18 34 59 58 65 66 58 92 -7 28 -12 30 -38 15z"/>
<path d="M3006 411 c-4 -7 -5 -15 -2 -18 9 -9 19 4 14 18 -4 11 -6 11 -12 0z"/>
<path d="M2102 358 c-15 -15 -16 -54 -2 -63 6 -3 10 -21 10 -38 0 -46 25 -77
60 -77 16 0 35 7 42 15 32 38 74 75 86 75 9 0 11 7 7 23 -20 65 -57 83 -103
51 -22 -15 -25 -15 -46 5 -26 24 -37 26 -54 9z"/>
<path d="M2450 342 c0 -4 5 -13 11 -19 8 -8 8 -17 -1 -33 -8 -16 -8 -25 0 -35
8 -10 8 -15 0 -20 -6 -4 -15 -18 -20 -31 -5 -13 -17 -24 -25 -24 -9 0 -14 -4
-10 -10 3 -5 12 -7 20 -3 16 5 20 -10 16 -56 -3 -33 26 -62 55 -55 17 4 26 1
30 -10 10 -25 22 -19 29 15 4 17 13 33 21 36 9 3 12 13 9 24 -4 11 1 21 13 28
11 6 25 25 31 42 9 25 7 35 -7 55 -9 13 -25 24 -34 24 -11 0 -18 8 -18 18 0
29 -35 55 -64 48 -14 -3 -28 -2 -31 4 -7 12 -25 13 -25 2z"/>
<path d="M1220 222 c0 -10 6 -26 13 -37 18 -23 30 -6 21 30 -7 29 -34 34 -34
7z"/>
<path d="M2696 212 c-2 -4 -1 -14 4 -21 11 -19 41 -6 34 14 -6 16 -29 20 -38
7z"/>
<path d="M2248 163 c-27 -31 -30 -58 -8 -86 23 -29 40 -27 78 6 27 25 28 58 4
80 -24 22 -55 22 -74 0z"/>
<path d="M2360 155 c0 -9 5 -15 11 -13 6 2 11 8 11 13 0 5 -5 11 -11 13 -6 2
-11 -4 -11 -13z"/>
<path d="M2839 126 c-10 -20 -9 -30 5 -51 20 -30 24 -30 58 -2 25 20 26 25 15
47 -18 36 -63 40 -78 6z"/>
</g>
</svg>
