<svg xmlns="http://www.w3.org/2000/svg" viewBox="0 0 2295.09 693.07"><path d="M2182.86 381.07l3.8 14.4c10.92-3.22 21.64-5.57 31.68-9.6 7.26-2.93 13.38-10.85 20.46-11.5 6.86-.62 18.27 3.4 20.66 8.6 4.93 10.73-4.5 15.54-14.1 15.58-18.83.1-37.72-.17-56.42-2-4.18-.4-7.66-7.94-11.47-12.2zm69.65-3.05l-1-1.14-1.14 1 1.6 1.17c.16-.32.36-.67.55-1.05zM112.6 394.15l40.7 4.34c-26.1-15.28-29.84-15.8-40.7-4.34zM610.82 69.3a4.49 4.49 0 0 1-.65.4c-.3-2.62-.23-7.4-.9-7.5-12.92-2-19 4-18.77 16.9l-.4-.38L609.8 69zM71.4 206.9l-4.92-8.32-3.66.9 4 28.8 2.88-.9q.75-10.05 1.5-20.1zm173.52 171l10.43 2.37-7.2-15.95-3 13.64zm-83 185.92l-10.77-13.73-5 6.66 15.73 7.06zm1734.37-36.5l-7.68-4 .63.54-9.5 4.32 2 4.35 14.46-5.22zM185 561.88q3.34 4.85 6.68 9.7l3.5-5-10.57-4.28zm245.4 15.63l-12.38-8-2.23 6.5 14.2.98zM245.2 378l2.75 20.6-.65-.77q2-3.78 4-7.56l-.6.36-5.82-12.73a1.67 1.67 0 0 1 .33.1zm1819.2 103.86h-4.47l.33-.58q1.17 5.94 2.33 11.9l.13-.06c16.18-2.32-2.34-8.2 1.22-11.83zm41.83 11.93l-5.32 3.46.93 1.7 5.7-2.8zm-43.64-.64l1.86 12.78 3.28-.37-5-12.48zm156.92-273.9c-.08.2 2.15 1.8 2.44 1.58a22 22 0 0 0 3.2-3.52l-3.4-1.87a23.81 23.81 0 0 0-2.23 3.81zm-719.8-87.9l3.6-8.58-4.3-.52 1.28 9.58zm746.6 92.54l6.38-5 .34.35-7.3-3.1 1 7.24zM430 577l6.22-6.3-2.83-1.38-3 8.2zm-76.36.77l-7 .66 1 4 5.72-5.1zm45-4.2l-7.26 2.22.9 2.37 5.95-5.07zm-113.4-214.72l3.77-5.1-1.66-1.23-3.78 5.12zm-251 126.82l-.9-1.33c-.72-2.07-.07-.2.57 1.72zm2186.27-64.93a4.89 4.89 0 0 0-1.16.95l1.3 1.36.7-1.44c-.27-.3-.7-.93-.82-.87zM302.27 88l-1.85.22h2s-.14-.22-.15-.22zM2147.6 483c-.1 0-.33.7-.5 1.06l2.52 1.1.6-1.4a27.1 27.1 0 0 0-2.62-.78zM353.65 577.78l.6-1.55c1.78-1.7.38-.36-1 1 .08.08.4.55.4.55zM275.5 396.33c.1.06.56-.48.85-.74l-2.17-2-.76 1.2a20.78 20.78 0 0 0 2.08 1.54zm-24.76-5.7l-.1 8 .65-.77.05-7.56zm192.64 181.9l8.82.48-.1-.77H443zm1752.16-190.24a23 23 0 0 0-.33-2.74c-.33.2-.93.4-.93.62a24.2 24.2 0 0 0 .26 2.77c.4-.24 1-.45 1-.65zm-149.18 118.25l1.82-1.8-2.5-1.06c0 1 0 2-.05 3zM1713.2 546c-.76.34-1.07 1.67-1.58 2.57.76.14 1.7.63 2.22.33a11.14 11.14 0 0 0 2.3-2.3c-1-.3-2.2-.98-2.94-.6zm554.3-331.64a10.68 10.68 0 0 0-2.39 2.48c1.24.34 2.53 1 3.7.86.54-.08.85-1.8 1.27-2.82-.9-.27-2-.88-2.57-.57zM816.2 90.38l1.56-1.8-1.27 1.18zm587.54 540.15l-.44 3.16h.67l-.64-3.34zm177.57-70.86l.93 1.7.54-1.23zM161.9 563.8c1.6.2 3.22.4 0 0 3-.8 1.5-.4 0 0zm893.2 89.55c-.25-.06-.7.64-1 1a14.13 14.13 0 0 0 2.47 1.08c.27.07.73-.6 1.15-1a16.94 16.94 0 0 0-2.62-1.08zM301.18 573l1.84.17a4.41 4.41 0 0 0-.34-1.44c-.12-.2-.7-.1-1.1-.13zm788.45-530.06c-.3.32-1 .78-.9.94a7.12 7.12 0 0 0 1.09 1.46l.47-1.22zM2203.45 375.1l2.3 3.16-1.74-2.78zm-366.33 160.06l-.13 1 1.22-.45zM71.4 206.9l1.34 1.8.35-2.45-2 1.1zm2060.7 277l-.26 3.5c.15-1.2.33-2.37.5-3.55zm55.77-116.28l-.32 2.9a9 9 0 0 0 1-.43c-.25-.88-.58-1.74-.9-2.6zm-1781 213.53a51.28 51.28 0 0 1 .82 1.21l2-1.4-1.47-.6zm1725.5-97.3l-4.23-.77 2.26.6a11.89 11.89 0 0 0 1.67.27 1.34 1.34 0 0 1 .29-.08zm76-60l1.36.32a3.92 3.92 0 0 0 .22-1.44c0-.2-.7-.3-1.1-.43-.14.54-.3 1.05-.47 1.57zm-1765 148.65q-1.58 2.22-3.16 4.4l2.44 1.28q.16-3 .34-6zm1603-72c-.32-.24-.67-.44-1-.65.08.3.17.57.25.85a5.06 5.06 0 0 0 .78-.22zm43.4-6.17l-.84-.8.74 1zm0-.1v-7.2a1.92 1.92 0 0 0-.14-.15v7.63a.82.82 0 0 0 .16-.31zM185 561.88l-1.3-.17.9.6zm218.66 8.9l.63-1.1-1.78.5 1.1.6zm-5 2.8l5-2.8-5.37 2.3zm-23.82 1.07l1 .13-.37-1zm77.24-2.44h-.83l1 .82a6.32 6.32 0 0 0-.19-.82zm-69 12.18l-1-.13.37 1.13zm1491.72-61.06L1871 527l.6.45 3.6-3.6zM680.8 73.8a7.74 7.74 0 0 1-.62.88l1.18-.6zM231.6 176.65l-2.27.12.75 1.13 1-.9zm-.05 0a2.85 2.85 0 0 1-.51-.59v.9zm80.13-64.23c-.35.13-.7.23-1.06.34h1.4a4.6 4.6 0 0 0-.35-.3zm1468.42 5.2h4.12l-.32.34-1.76-2.54-1.67 2.6zM1434 146h3.55l.24-.56h-4.07zM236.6 407.93h4.4l-.2-.47c-1.3 0-2.6-.12-3.9-.2zm14-9.33l-.64-2.82-1.95 2.82-.65-.77h4zm1952.85-23.48a3.73 3.73 0 0 1-.52.61l1-.26zM816.23 90.33a7.91 7.91 0 0 1 .86.56l-.6-1.13-.26.57zm1386.12 348q-.84-3-1.66-5.9l-.45.45 2.1 5.36a.26.26 0 0 1 0 .12zm-1.66-5.9l-2.63-1.12 2.18 1.56zM84.9 232.45a.74.74 0 0 0-.33.05s.42-.02.33-.05zm4.36-5.1l-4.64 5.14s.36 0 .28-.05l4.32-4.6a2 2 0 0 1 .04-.48zm2157.46-4a4.73 4.73 0 0 0-.76-.21l.35.75.4-.57zm6.3-4.1l1.2-2.46-1.53 2.1zm-2061.6-4.4l-.75-.24.38.8a9.61 9.61 0 0 0 .15-1 3.7 3.7 0 0 0 .22.4zm51 123.73a4.08 4.08 0 0 1 .7.54l-.4-1.1zm1793.2-231.55h4.1l-.42.42-2.4-2.5c-.3.8-.63 1.6-1 2.42zm-122.47 3.67h4l-.33.3-1.57-2.5-1.86 2.53zm-164.54 402.76l-.1-.1h4.25c4.48-.8 8.93-1.72 13.42-2.36l31-4.2-8.37-10.68-28 5.57 1 3.3-13-6.06-7.1 10.75zm4.25-.1h-4.34s.1.1.1.07c1.4-.05 2.78-.06 4.16-.08zM186.66 480l-1.1.3.38 1.32 1-.34zm-11.27 3.58l1 .15-.33-1zm1959.82-74l.45 1-.22-.75zm-386.68 103.8h0zM1236 655c-23.25 1.77-40-9.26-51.72-30.37l-5.92 3.27c0 6.65 1.25 13.62-.32 19.88-1.92 7.65-5.65 15.06-9.92 21.73-.92 1.43-9.4.7-11.14-1.56-5.82-7.58-10.17-16.3-16.6-27.13-2.93 4.06-4.6 8.73-7.8 10.35-8.68 4.4-19.15 11.85-26.77 9.87s-13.33-13.44-18.14-21.76c-5.24-9.08-8.46-19.33-12.56-29.08l-5.67 1.67-4.55 25-43.5-8.64a11 11 0 0 1-1.14-.57l-.4.75 1.77-.7c-1.57 4-2.82 8.18-4.8 12-1.87 3.58-4.5 6.77-8 11.9l-7.2-25.46 5.35 1.84.14-1.56-5.5-.23-7.58 6.63c-13.7 12.58-22.8 10.27-28.73-7.2a68.74 68.74 0 0 0-3.48-7.91l-22.87 28.6-4.1-3.3c5-9 25.4-11.15 12.95-28.06l3.22-2.25c-.37-.34-1-1.06-1.1-1-1.14.62-2.2 1.4-3.3 2.12-5.2 5.5-11.8 10.26-15.36 16.68-9.38 16.9-18.86 31.9-42.13 28.86-3.5-.46-8.06 5.4-11.8 8.72-4.26 3.8-7.48 9.2-12.3 11.83-28.5 15.5-39.4 2.77-46.14-22.15-1.4-5.2-1.43-10.76-6.25-16.87l-11.9 34.25 9.13 5.2c-2.75 4-4.7 10.23-8.4 11.5-12.32 4.3-21-2.74-21.46-16.13-.24-6.8 0-13.6 0-21.93l-18.2 2c1.42 13 11.16 28-6.43 32.32-17.1 4.2-19.67-11.64-21.5-23.75-1.77-11.62-4.46-19.3-18.15-22.3-17.88-3.93-15.45-21.24-15.9-34.25-.54-15.56-7.87-23.33-23.6-22.1-28.66 2.26-57.42 5.72-86.08 5.14-39.1-.8-78.13-4.7-117.15-7.8-5.16-.4-10.06-4-15-7.63 9.8.05 15.1-20.66 27.63-5.1a5.8 5.8 0 0 0-1-.37l.9-.27c-.2.3-.4.63-.58.94 6.5-2.26 12.9-6.2 19.48-6.47 21.33-.83 42.72-.3 65.66-.3L565 527l-155.7-2.64 1.67-3.25-3.3 1.63c-52.78 4.32-105.53 11.67-158.34 12.1-54.32.46-109.43 2.93-162.76-12.44-11.7-3.37-23.1-7.82-34.55-12S34 498.3 34.25 485.66l-.33.4c8.56-16.42 21.45-17.57 37.25-11.43 8.3 3.23 17.3 4.65 26 6.9.74 1 1.5 1.9 2.24 2.87l1.27-2-3.84-.4-44.32-21.2c-6.78-3.1-14.2-4.78-21-7.72-15.3-6.58-17.18-18.36-11.52-33.7-4.2-2.6-9.1-4.66-12.7-8.12-3.2-3.08-4.9-7.7-7.26-11.64 5-2 10.72-6.67 14.94-5.58 21.53 5.55 42.3 14.74 64.08 18.54 26.26 4.6 53.23 5.42 80 6.83 3.33.17 7-6.05 8.9-10.4 9.25-3.9 15.38 20.87 29.75 3.46l3.47 3.7 4 1.26-2.1-3.12-3.5-3.66c10.18.06 20 12.07 30.53 1l1.48 3.9a13.2 13.2 0 0 0 1.65-1.66 28.75 28.75 0 0 0-2.59-2.83l6.34-3.76-.3.63h4.4l-.22-.5c12.33-.18 24.7-1 37-.34 11.8.64 12.05-3.74 7.62-12.57-2.52-4.68-3.52-10.13-5.52-16.7l10.74.92 3.4-19.26 3.1.28 3.68 14.87c9.86-24.9 7.16-28.42-17.7-29.95-13.57-.83-27-4.34-40.45-6.65l-.33.6q-2.07-5.53-4.13-11.08l-4.47 10.56h-16.9l-11.25-24.3h13.94V330L239 312.73c-13.36-.73-23.23-11.75-34.48.12-20.17-4.5-40.15-8-59.46 3.82-3.32 2-9.2 2.93-12.5 1.38-21.27-10-42.56-20.08-63-31.62-10.8-6.1-20-15.54-11.65-29.78 8.17-13.87 19.46-9.1 31.33-4.85 11.6 4.15 24 6.17 36 9.13l.6.45c3 .3 1 .1-.94-.1.08-.58.44-1.46.2-1.68q-17.86-16.2-35.83-32.25l-.07.4L81.8 211l28.22 6.28c5.33 1.3 10.84 2.4 15.76 4.7 9.15 4.26 17.58 10.25 26.95 13.84 13.93 5.33 34.85-6.57 38.7-20.94l-.27-.52 11.1 4.7.36.66-.72-.28c9.12-8.65 16.18-5.26 19.8.07 9.25-2.2 16.55-4.16 24-5.6 6.1-1.2 12.35-1.73 18.53-2.56-2.92-5.2-6.3-10.2-8.58-15.67-1.72-4.12-2-8.83-3-13.3l-.67.67 1-.08c-2.75-12.75 4.14-19.83 15.13-22.68s12.83 0 23.73 25.82l5.55-5.38a4.75 4.75 0 0 0 .27.77L297 181l.95.2c-5.8-15.52-13-30.8-5-47.9 1.23-2.65 1.2-7.58-.47-9.62-13.8-16.86-6-27.17 9.95-35.4l-.15-.24c.37 6.44.55 12.9 1.18 19.3.34 3.42 1.48 6.76 2.26 10.13l6.32-4.65-.36-.34 18.42 10.24c6.46-8.94 13.84-18.16 20.1-28.1 5.34-8.5 9.25-17.4 22-15.95 13.1 1.48 29.7-4.1 30.43 18.1.06 2 2.35 3.9 3.8 6.16 10.5-10.6 19.2-25.5 31.77-30.26 11-4.18 26.35 3 39.78 5.24l.45 5.75c4.56-5 8.74-10.5 13.75-15 9.55-8.65 17.05-14 32.53-4.92 13.23 7.75 24.1 12.12 28 28.8 2.44 10.36 10.78 6.78 17.62.34 5.84-5.5 13.33-9.2 20.1-13.7l-.42-.38 4.24 23.16c12.48-23.48 31.74-21.12 50.4-20.37a107.93 107.93 0 0 0-4-2.24l-.36 1.6 4.2.26 12.12 1.6-.64 2.54c6.35-1 12.93-1.23 18.94-3.23 2.72-.9 4.3-5.24 6.4-8l-.6-.3L708 97.64l14.36-19.12 23.52 21c17.66-14.58 21.66-14 38.5 3.6 2.3 2.42 10.7 3.46 11.17 2.55 11-21.64 17 1.14 25.2 2.72 2.13.4 3.92 2.6 5.83 3.93-1.7 0-3.4.1-5.08.15l1.28 3.88 3.4-4.45 4.15-20.18c13.64 7.55 26.4-.78 38.76-10.3-.62.6-1.15 1.2-1.67 1.78.25-.12.6-.18.73-.38a8.76 8.76 0 0 0 .65-1.3c1-2.2 1.92-4.37 2.83-6.54-.1.6-.12 1.2-.15 1.8l-.33-1.6c3-4.07 5.94-8.26 9.18-12.18a24.4 24.4 0 0 1 9.05-7.29q3.7-7 7.36-14a6.32 6.32 0 0 1-.47-.68l.1 1.2q1.13-11.5 2.24-23l7.7 1.1q-.7 9.83-1.42 19.66l-1.9 3 2.73-2.1c5.1-6.73 9.3-14.54 15.6-19.86 5-4.26 13.12-8.17 18.94-7.12 3.94.7 7.85 10 9 15.94 1.58 8.4-.08 17.36.9 25.94.55 4.76 3.65 9.23 5.6 13.84l4.94-1.75 1.93-24.18-1.17.5.7-.43c9.9-6.92 18.25-3 19.9 9.58.64 4.83.54 9.76 2.33 14.6 9.74-14.87 4.54-29.84 1.2-45-.73-3.32 1.93-7.38 3-11.1l6.44 1.1L991.7 0c19.1 8.5 15.68 21.86 12 35.3q4.84 5 9.67 9.92l3-3.5-12.8-6.4c8.34-2.27 24 4.9 18.9-15-.45-1.76 4.86-6.6 8-7.2 2.8-.55 8 2 9.26 4.58 2.4 5.07 5.18 12 3.57 16.6-7.5 21.6 5.05 37.4 15.8 57.86l18.4-27.55c1.3-1.84 4.56-2.27 5.93-4.1 3.9-5.15 7.1-10.8 10.9-16 5-6.93 9.1-16.62 15.9-19.33 4-1.6 13.4 7.1 18.67 12.76 4.12 4.4 5.62 11.25 7 14.16l19.27 8.2-.08.15q9.5 17.65 19 35.35l.82 9.77a6.57 6.57 0 0 1 .62-.68l-1.2.43-.72-10 17.16-8.14 4.94 14a1.59 1.59 0 0 0-.11-.41c-.1.3-.23.62-.35.94l12.77-7.9.18-.77 6.5 14.38 9.46-6.68-.44-.42q11 27.56 22.06 55c10.65-6.4-10.34-29.07 14.1-30l2.4 4.87q4 8.4 8 16.82c5.6-2.76 12.4-4.3 16.6-8.5 13.8-13.75 22.66-14.8 40-2.3l-7.18 21.55c9.78-6.24 17.06-11.7 25.08-15.6 3.25-1.6 10-1.52 12 .67 13.8 15.25 31 5.52 47 8.68l-1.23-19.78 15.35 21.13 4.6-20.93L1434 146l-.28-.55q.72 2.78 1.43 5.57l1.86-.77.1 1.37-2.1-.62 2.76-5.57-.24.56 62.75-14.18-.6-.5c7.7-1.47 16-1.6 23-4.72 11.8-5.26 22.55-11 34.08.33 2.16 2.12 6.32 3 9.58 3l97.17.6c3 0 5.82-3.43 9-4.54 19.1-6.74 38.3-10.62 57.47-.16-.27-.22-.54-.4-.8-.6.15.34.3.67.47 1l50.87-8.2-.37-.43h4.12l-.3.34h3.52l-.28-.35h4.1l-.3.4q36.22.63 72.43 1.23a6.85 6.85 0 0 1 .84-.46l-1.34.06 12.1-1-.33-.37h4.08l-.32.42 35-6.88-.3-.34h4l-.33.3 42-3.57-.28-.43h4.1l-.3.42 56.33 1.25a5.51 5.51 0 0 1 .31-.76l-1 .6 17.94-1.2-.34-.3h4.1l-.42.42c16.82-3.25 33.55-5.83 49.33 7l7.9-8.26 3.4 10 8.38-11.94c6 20.9 19.78 27.5 37.87 28.14 3.4.12 6.53 4.17 10 6 3.9 2.1 8.06 3.74 12.1 5.58 3.25-8.7 9-8.4 10.73-.65.7 3.14-7.83 11.46-12.86 12.12-8.17 1.08-16.9-3.08-25.44-3.3-4.74-.12-9.57 3.3-14.33 5.12a7.52 7.52 0 0 0 .4-.92l-.88.42 5.94 19.5 113.75 18.6 2.06 3.68c-5.83 2.4-11.8 7.1-17.46 6.77-13.6-.8-26.1-1.83-37.22 9-3.14 3-11 1.13-16.72 1.57l-30.9 2.45-3.3-1.64 1.88 3c20.92 2.2 41.93 3.74 62.7 6.9 7.78 1.18 15.18 5.73 22.4 9.4 11.76 6 22 17.36 37.3 9.13 1.75-.94 4.57-.18 6.8.2 8.62 1.5 22-3 22 11.35-.05 12.4-11.46 13.7-21.74 14.6l-69.52 6.88c1.33 11.35 6.46 14.72 17.17 15.37 8.55.5 16.8 5.86 25.2 9.07l-.32 7.12c-6.75 3.32-13.16 8.16-20.3 9.68-20.83 4.46-42 7.33-62.9 11.4-5.92 1.15-11.46 4.3-17.17 6.53l.3 4.55h17.36c23.72.45 26 2.9 24.7 25.8l-.22-.13L2169 376a37.37 37.37 0 0 0 1.85 6.84c5.27 11.67 3.2 18.9-10.62 22-4.78 1.06-8.6 6.44-12.77 9.87l.3.1-.85-.34 15.64 5.9a7.79 7.79 0 0 1 .56-.85l-1.16.62 1.2-9 31.44 8.88-11.6 14.47 19.36 3.87v-.06l-28.85 2.64c5.94 17.36-7.42 18.82-19.5 20.7l-70.3 10.05 6.1 15.34-.13-.15-25.7-5.63.46.6H2060l.33-.58c-47.7-3.46-87 24.5-130.73 36.06-10.7 2.84-22.73 5.15-33.36 10h.08l-7.68-4 .63.54-14.42-.58.42.52-6.42-3.56q1.43 3.6 2.83 7.16l-.6-.44-7.37 5.73-2.16-11.08-109.26 17.27c-1.47-.7-6.78-5.48-11.07-4.7-4 .73-6.83 7.4-11.45 13l-5.4-8.85-85.37 8.6c-21.76 2-43.57 3.7-65.4 4.63-14.38.62-24.5 7.47-33.7 17.72-15.94 17.8-34.35 26.67-58.45 15.16-2.87-1.37-9 2.18-12.7 4.74-10.93 7.5-20.68 17.17-32.4 23-6.2 3-15.52-.17-23.42-.64l-17.68-1.3-1 4.8 15.38 11-5.92 4.45-.4-.2c-10.75 3.17-12.3 1.47-13.75-9.2-.25-1.85 1.46-17.63-11.5-8.78-.66.45-7-7.44-10.36-11.05l-22.1 26.47c-.53-1.16 1 2.25 4.07 8.85l-16.4-3.46 6.47-5.25-3-3.23-5 6.83-6.77.84v-14.78l-6.93 1.93 7.32 12.54c-4.15.54-9.67 3.05-12.22 1.3-13.13-9.1-23.77-13.53-37.33 1.45-4.94 5.44-18.94 2.67-29.07 3.68l-5.54 28.78-3.82.15-3.4-7.1.23.16 2.52-2.63-2.48-1.5v.12a1.8 1.8 0 0 1 2-1.88 7.83 7.83 0 0 1-.57-.81zm678.35-516.17l-2.08.42c0-.48.07-1 .1-1.44a18.22 18.22 0 0 1 2.37.66l-.2-.66c-.1.36-.15.7-.22 1.04zm-493.58 390a24.52 24.52 0 0 1 .47-.88l-1 .7-5.4-3.63q.35-3.18.7-6.36l-2.68.42c.8 1.87 1.6 3.73 2.5 5.48l5.38 4.28zm-419.1-477.55l-2 .38c.72-.37 1.44-.73 2.12-1l-.9.9.33-1.33.46 1.04zm8.5 565.2l-.3.83 1-.75a7.01 7.01 0 0 0-.71-.08zM2128.26 287l3.58-4.05-2.85-.72c-.17 1.66-.35 3.32-.6 4.9l-6.6.77-2.67-.6 1.5-2.24 1.16 2.75zM651.68 91.9l-1.44.4-.17 1.48-1.68-5.46-1.3 1q1.57 2 3.15 3.93l.47 7.12-.75.77c-.1-.3-.2-.6-.28-.9l.6.65 1.26-1.08s1.56.57 1.6.53l1.7 2.26.57-1.7h-2.88l-1-8.8 6.94.25c-1.54 11.57 5.13 10.2 12.4 7.85l4 13.17.22 1.2-.6-.85q-1.34-7.22-2.7-14.43l-13.7-7zm505.8 554.1l.66.34-1 .07-2.23-7.2-4.24 3.82q3.4 1.47 6.8 2.97zm-861.1-332.55l-6.63-1.24v3.13l7.5-.77 5.65-2.06-1.1-2.25zM1509.53 556.5h-11.76l1.56 5.76 9.7-6 .5-3.22-1.24-.13 1.25 3.6zM358.83 312.9l-17.95 1 .5 4.16 18.72-3.7 1.17.24 1.16-.26 30.53.88-.23-.76v1.1q-14.5-1.33-29-2.67zm-97.66.78l10.15-8.28-4.64-3.4-5.88 11.72-.36.43zm313.7-180.25l6.44 1.12c0-.9-.1-1.8-.14-2.7l-6.3 1.74 7.26-15.14-6.12-1.22-1.13 16.2zM499.5 509.6l1.17 2.5 1.13-1.58-2.67-.55-18.6-4.8-.66 4.44zm799.08-360.17l-16.08 4.4 8.1 5.24 2.13 3 1.2-2.6 4.94-10.57c-.17-.2-.33-.43-.5-.65l.2 1.18zm562.66 357l-13.14-12c.62 5.65.18 11 1.46 11.5 3.33 1.16 7.4.14 11.2 0h18c-12.87-8.14-12.87-8.14-17.5.46zm274-96.84l-4.64 8.7 3.6 2.3 8.25-10.6-7-.17zm-673.5-238.5l.6.1-1-.5-22.46-4.7-.64 5.2 23.5-.12zm-84.84 4.47c5.9-.64 11.84-1.1 17.66-2.2.55-.1.72-6 .47-6-6.93-1.32-13.94-2.22-22.3-3.38l3.78 12c0 .25.1.5.16.74a30.14 30.14 0 0 1 .22-1.16zm672.64 274.3l-43 2.68c3.55 4.4 4.63 6.86 5.67 6.84 11.06-.23 22.16-.53 33.14-1.76 1.57-.17 2.57-5.36 3.87-8.16l1.35-.34zM1020.87 93q2.86-20.2 5.72-40.38l-5.12-.38c-8.08 13.6-9.45 27.28-.26 41.14l-1.78 1.14c.38 0 1 .12 1.1-.05a4.87 4.87 0 0 0 .33-1.47zm780.8 398.87l1.18 1.95c0-.38.15-1 0-1.12a5.12 5.12 0 0 0-1.5-.52l-26.33-5.77 1.3-6.37-2.9.18 2.17 6.55c-13-4.54-19.58 4.4-26.5 12.63l-14.1 5.06 7.1 4.7-16.8 3c-1.12-11.27-8.36-10.38-16.34-8.34-21.08 5.4-42.14 9.9-61.06-3.78l-15.13 18.22.77-.06c-3.43-.54-7.1-2.16-10.23-1.44-12.9 3-25.7 6.43-38.36 10.33-3.12 1-5.52 4.28-8.26 6.52 17.25-8.7 36.8 15.57 52.84-2.65l12.52 7.63 5.57-17.77 2.7 18.44.68-.25-1.12-.12c3.54-1.4 7-3.2 10.63-4.12l56.7-14.08-.78-4.84-7.64-2.7-.1.74 15-.07c1.88 1.87 3.55 5.05 5.68 5.4a264.28 264.28 0 0 0 29.15 3.34c27.25 1.37 55.08 10.4 82.65-6l-5.46-21-27.87 21.64 2.68-18.87-12.16 7.5q1.66-7 3.33-13.97zM915.47 605l.42-.83-.25.5c-12.46 11-18.18 24.85-17.06 42.73 7.36-3.64 13.7-8.28 17.86-14.42 5.28-7.82 8.77-16.85 13.1-25.4l-.44.4q-1.37-3.75-2.72-7.5l6.72-2.5-2.1-3.9-4.27 6.72-11.26 4.22zm932.2-136.7l23.66-8.6c1.76 6.83 3.12 14.9 3.94 14.84 13.4-.88 22.24-7.35 24-22.72-20.5 1.82-41.6-7.8-55.56 6.25l4.37 10.63-11.58-2 6.57 12.72zM211.88 488.07l-2.83-8 18.83-1.92-.27-3.66h-70.83c12.75 18.77-13.2 4.48-10.17 18.1h83.7l-17.32-3.5a45.4 45.4 0 0 0 3-4.86c.12-.26-1.25-1.23-1.93-1.87zM319 504c0 1.42 0 2.84-.08 4.25h148.9c-6-3.67-12.9-4.7-19.82-5.48-3-.33-8.15.92-8.73-.28-6.28-13-16.72-6.45-25.72-5.88-5.06.3-10 1.9-15.1 2.25L319 504zm1523.4-341c1.8-19.3-21.53-23.32-57.4-9.9 18.53 3.6 39.98-9.44 57.42 9.94zM461.73 474.2l-1.13-7.94-52.88 5 .38 6zM1753.4 157.1v-6.8h-60.27c.66 1.92 1.45 6.46 2.34 6.48 19.32.4 38.62.3 57.93.3zm-1537 286.67l.2-4.37-89.15-5-.18 4.44zm105.84-270.7l31.17-20.5-1.42-3.27-33.67 8.86 3.88 14.9zM400 347.82l-29.9-3.53 10.28 16.57zM159.13 254.5H136c10.05 18.14 16.46 2.03 23.13 0zm206.5 90.92c-12.77-1.14-23.38-2.52-27.65 12.5zm427-213.2l-3.15.36 1.83 25.4 5-.5zm58.3 510.92l5.72 2.55q3.3-7.42 6.6-14.86a57.5 57.5 0 0 0-5.48-2.27c-2.47 4.75-4.62 9.68-6.83 14.58zm-187.24-81.08l2.25 6.2 12.62-4.4-2.3-6.35zm113.88 59.75l6.15-1.2-4.15-18.5-4.42.9q1.22 9.4 2.42 18.82zM854 609.55l5.1 4 9.5-10.65-4.5-4.23zm-508.8-359.8l-.06-1.85-18.37-2.24-.34 4.1zm1525.12-96.52l-.92-4.05-17.93 1.18.33 4.33zm-805.5-59.72c-3.72 5.77-6 8.66-7.5 11.9-.63 1.35.3 3.44.87 7.9 3.9-4.37 6.65-6.4 7.82-9.12.84-1.96-.43-4.83-1.2-10.68zm-526.58-6.8l-4.43 1.5q1.74 6.32 3.47 12.6l5.57-1.83q-2.3-6.14-4.6-12.3zM1340 180.25l5.42.2v-13.1l-3.38-.3zm-61.84 418.15l-4.25-.54q-1.28 7.14-2.56 14.28l3 .67zM270.35 222.7c-3.26-2-4.88-3.83-6.43-3.76-1.8.08-3.52 1.82-5.27 2.83 1.64 1.58 3.05 3.85 5 4.48 1.24.4 3.26-1.63 6.7-3.55zm47.06 95.6l3.92-3.5c-1.5-1.32-2.87-2.92-4.6-3.8-.45-.23-3.1 2.2-2.9 2.7.62 1.58 2.1 2.83 3.58 4.6zm1462.05-157.8l.3-5.2-9.6.54v3.33zm143.9 296.76l-3.68 2.4q2.94 5.08 5.9 10.15l3-1.64q-2.57-5.46-5.2-10.9zm-68.16 9c4.3 4.94 6 7.47 6.43 7.27a43.85 43.85 0 0 0 6.65-4.38zM761 132.86l-1.65-.17q-.7 6-1.4 11.9l3.05.25zm667 443.48l1.83-3.3-8.46-3.46-1.27 3zm-386.16 10.9c2.8-2.64 5-3.92 4.9-4.76-.4-2.17-1.86-4.14-2.9-6.2-.62 2.98-1.16 5.96-2.07 10.95zm-81-502.06h-2v12.48l2-.1zM194.28 230.92l-2 .08v10.55l2.64-.13zm1107.48-55.3l2.5-2-4.6-7-2.38 1.47zm242.5-7.25c-2.4-1.35-3.6-2.4-4.94-2.63-.84-.14-1.9 1-2.85 1.48.9 1.1 1.66 2.82 2.8 3.12s2.52-.9 5-1.97zm-115.4-3.3l-2.87.82 2.12 7.42 2.88-.82zM983 615.85c-2.2 2.87-3.74 4-3.7 5 .06 1.28 1.47 2.5 2.3 3.72 1.35-1.25 3.24-2.3 3.83-3.83.36-.9-1.25-2.63-2.43-4.9zm641-455.78c2.73 1.76 3.78 2.9 4.38 2.7 1.2-.4 2.13-1.53 3.18-2.35zM731.15 612.54l2.85-.46-1.13-7-2.77.44zm132-13.7c1.6-2.18 3.13-3.52 3.53-5.14.2-.85-1.6-2.2-2.5-3.3-1.37 1.25-3.07 2.32-3.94 3.86-.24.55 1.4 2.23 2.95 4.6zm764.68-128.73l-.26-2.37-7 1.26.16 1.1zm487.56-56.6l-1.4-2.5-8.33 3.68 1.7 3.4zm-375.3 82.23l2.16-4.55-9.18-2.87-.94 2.25zm-1204 11.1v2h10.54v-2zm1373.53-48.43v1l4.1.24a6.85 6.85 0 0 0 .15-1zm-305.83 32.8l-.26-2.26-7 .76.28 2.4zM585 91c-.53-.83-.94-2.15-1.58-2.27s-1.73.7-2.6 1.14l1.93 3zM211 245l-2.9-3.77-2.85 2.4a15.7 15.7 0 0 0 3.06 2.89c.4.18 1.6-.94 2.7-1.58zm1017.5 375.66l1.44-.08v-5.4l-1.94.1.5 5.37zm713.36-481.77l2-1.92c-.6-.92-1.16-2.57-1.8-2.6-1.4-.07-2.8.7-4.22 1.12zm-435.7-1.4c-1 1.75-2.24 2.92-2.24 4.1 0 .8 2.22 2.46 2.53 2.27a16.66 16.66 0 0 0 3.16-3.27zM651.1 561.3l-.68 2.8a21.9 21.9 0 0 0 2.43 0 2 2 0 0 0 0-1.33 10.34 10.34 0 0 0-1.75-1.48zm762.63-389.8c.85.63 1.6 1.58 2.48 1.7s1.77-.63 2.67-1c-.9-.8-1.66-1.95-2.7-2.3-.58-.18-1.6 1-2.45 1.58zm-552.4-43.1l.47 1.06.35-1.1zm-549.18-4.95c-.3.43-.8.83-.85 1.3s.37.93.58 1.4c.3-.42.8-.82.85-1.26s-.37-.9-.58-1.43zM300 388.32l-1.45-.5-.08 2a5.53 5.53 0 0 0 1.46-.45c.2-.1.07-.68.07-1.05zm-100.78-154.2v1.5h5.37v-1.5zM2055.6 118.7c-.67.57-1.82 1.08-1.86 1.66-.05.92.64 1.9 1 2.83.65-.53 1.8-1 1.84-1.6.1-.9-.57-1.86-.98-2.88zM270 239.9l2.2-3.45-2.9-1.44.7 4.9zm113.7-.38l-2.17-1.6c-.4 1-1.15 1.93-1.06 2.83.06.6 1.3 1.1 2 1.65.36-.95.76-1.9 1.18-2.88zM2043 122.63a4 4 0 0 0-1.22-.32c-.14 0-.24.62-.35 1a3.17 3.17 0 0 0 1.18.23c.16-.08.25-.6.4-.9zm-152.64 378l-1.53-.44 1 1.6zm267.4-214.88l-1.6 1.93c.9.37 1.8 1.05 2.68 1 .57 0 1.08-1.12 1.62-1.73zm-1197.43 315l-1.12-.16.4 1.55zm1154.5-461.47c-.48.3-1.4.7-1.36.93a22.28 22.28 0 0 0 1 3.09c.43-.37 1.26-.8 1.23-1.1a15.53 15.53 0 0 0-.87-2.92zM1378.5 602c.82.64 1.54 1.6 2.4 1.74s1.8-.6 2.7-1c-.9-.8-1.67-1.93-2.72-2.3-.53-.12-1.55 1.04-2.38 1.57zM286.92 499.7v1.76H292v-1.52zm1065.37 91.17l-.4-1-.44 1zm798.06-308h-1.55v5.3h1.55zm-645.45-132c-.5-.46-1-1.23-1.3-1.16a14.94 14.94 0 0 0-2.71 1.16 14.57 14.57 0 0 0 2.76 1.07c.35.06.82-.72 1.25-1.1zm-789.6-39.74l-2.14.12.53 5.38 1.6-.08zm1184.5 371.54c-.53-.92-1-1.8-1.54-2.66-.6.8-1.63 1.54-1.7 2.38s.86 1.67 1.35 2.52zm-497.88-317.3a4.11 4.11 0 0 0 1.41.35c.18 0 .3-.7.44-1.06a4.22 4.22 0 0 0-1.4-.34c-.18.02-.3.67-.45 1.05zm-397.13-81l1 .68.16-1zm953.5 385.16c-.4-.42-.8-1.16-1.2-1.18s-.87.7-1.3 1.07c.4.42.78 1.16 1.2 1.18s.86-.7 1.3-1.1zM1086.9 88l-1.1-1.24c-.4.37-1.13.72-1.15 1.1s.65.82 1 1.23zm915.57 389.57l1.3-1.1c-.38-.42-.74-1.15-1.15-1.18s-.86.65-1.3 1zm-132.9 3.1l.74-1.15-1.18-.14zM110.64 487c-.36-.4-.7-1.13-1.1-1.16s-.84.63-1.26 1c.37.4.7 1.12 1.1 1.15s.84-.7 1.26-1zm23.92.12l-1-.68-.14 1.05zM668.8 87l-.6 1.14 2.25.06c-.17-.4-.26-.9-.56-1.13s-.72-.07-1.1-.07zm73.92 574.25l-.54.76.86.1zm84.7-104.28l-.8-.56-.13.88zm322.3-493.7c-.3-.34-.6-.93-.94-1s-.7.53-1 .83c.3.34.6.92.94.94s.65-.47 1-.77zm234.7 521.8l-1.08-1.3c-.42.38-1.14.73-1.17 1.14s.64.85 1 1.27c.42-.37.86-.74 1.25-1.12zm-8.2 4.12l.56-.87-.9-.1zm-3.45 7l.55-.85-.9-.1zM1013.32 49l-1-1.06-1 1 1.47 1.08zM527.05 508c-.36-.4-.7-1.1-1.1-1.13s-.83.62-1.25 1c.37.4.7 1.1 1.1 1.13s.83-.66 1.25-1zm1384.1 13.14l-.57 1.1h2.2c-.17-.38-.26-.87-.55-1.1s-.7 0-1.07-.02zM1013.24 634c-.3-.34-.57-.93-.9-1s-.7.5-1.06.77c.3.35.57.93.9 1s.7-.52 1.06-.77zM638 545.17l-1.28 1.12c.4.42.77 1.14 1.17 1.16s.85-.67 1.27-1.05zm11.2 4.66c-.33-.35-.64-1-1-1s-.72.57-1.07.9l1.5 1.08c.16-.3.4-.64.53-.97zM882.2 73l-.6 1.1 2.24.1c-.17-.38-.25-.88-.54-1.1s-.72-.08-1.1-.08zM654.72 552.68l-.54 1 2 .1c-.15-.34-.22-.77-.47-1s-.66-.1-1-.1zm1450.74-398.15c-.38-.43-.74-1.16-1.15-1.2s-.87.66-1.3 1c.38.42.75 1.15 1.16 1.18s.83-.62 1.3-1zm-1456.05-.07l-1.1-1.23c-.4.37-1.1.7-1.14 1.1s.64.8 1 1.22zm812-3.6l-1.14-1.3c-.42.4-1.15.77-1.17 1.18s.68.86 1.05 1.3zm-970.6-35.75l-.68 1.06 1.08.14zm1362.5 28.9l-1.1-1.25c-.4.38-1.12.74-1.14 1.14s.65.83 1 1.25zm-8.9-.28l.77.53.13-.8zM1309.66 178l-.57 1 1 .1zm91.68-6.32l-.77-.5-.1.86zM499 112.25c-.44-.4-.87-1.07-1.3-1.07s-.85.7-1.28 1.07c.4.42.8 1.14 1.2 1.15s.84-.68 1.37-1.15zm748.92 52.67l-1.06-1.26c-.4.37-1.12.7-1.15 1.1s.63.83 1 1.25zm559.92-7l-1.08-1.23c-.4.36-1.12.7-1.14 1.1s.64.82 1 1.23zm-497.4-24.63l-.78-.53-.1.86zm422.56-3.03l.57-.74-.8-.17zM459.4 125c-.4.36-1.13.7-1.16 1.1s.63.85 1 1.27c.4-.36 1.13-.7 1.16-1.1s-.64-.85-1-1.27zm1611-5.6c-.4-.42-.76-1.16-1.17-1.18s-.86.66-1.3 1c.38.42.75 1.15 1.17 1.17s.9-.62 1.27-1zm-174.8-.4c-.4-.34-.8-1-1.23-1s-.82.67-1.23 1l1.75 1.23.7-1.2zm-420.37 24.67c-.32-.34-.63-1-1-1s-.7.56-1 .87l1.47 1.06zm-830.37-.9c-.4.36-1.1.7-1.13 1.08s.63.8 1 1.2c.4-.36 1.1-.7 1.13-1.08s-.66-.8-1.02-1.2zm1249.28-1.2l1.22-1.08c-.36-.4-.7-1.1-1.1-1.14s-.8.64-1.2 1zm-1031.2-4.66l-1.1-1.25c-.4.37-1.1.73-1.13 1.13s.64.83 1 1.24zm1252-4.63l-1.22 1.1c.38.4.74 1.1 1.14 1.1s.8-.65 1.22-1zm-13.07 1.2l-1.1-1.24-1.23 1.1c.36.4.72 1.12 1.1 1.14s.78-.65 1.2-1zM2091.4 417c-.4-.42-.75-1.15-1.16-1.17s-.84.67-1.27 1c.4.42.75 1.14 1.16 1.17s.88-.66 1.27-1zM315.83 401.58c-.43.4-1.18.76-1.2 1.18s.67.87 1.05 1.3c.42-.4 1.17-.76 1.2-1.18s-.67-.9-1.04-1.3zm15.07-47.34l-1-1.28c-.42.36-1.12.7-1.16 1.08s.6.84 1 1.27zm72.26-5.08c-.44.35-.87.7-1.3 1.07.37.42.7 1.15 1.1 1.18s.86-.63 1.3-1zm1533.06 116.1l-.58.86.92.12zm232.15-16.83l-1.1-1.27c-.42.38-1.15.73-1.17 1.13s.65.85 1 1.27zm-1873.5-4.68l-1.25 1.08c.38.4.73 1.1 1.13 1.13s.82-.64 1.24-1l-1.12-1.2zM282.05 445c-.37-.4-.72-1.12-1.12-1.15s-.84.63-1.26 1c.37.4.72 1.12 1.1 1.15s.84-.66 1.27-1zm-7.1-.06c-.37-.4-.72-1.1-1.1-1.13s-.82.64-1.23 1c.37.4.72 1.12 1.1 1.14s.8-.66 1.28-1.03zM837.4 99l.52-.76-.86-.1zM211.17 225.5l1.13-1-1.08-1.1-1.14 1.58zm-115.9-2.28c-.42.4-1.16.76-1.18 1.17s.67.86 1 1.3c.42-.4 1.16-.76 1.18-1.18s-.62-.86-1-1.3zm225.15-37.44l-1.06-1.2c-.4.37-1.08.72-1.1 1.1s.63.8 1 1.2zm927.45-3.34l-1.1-1.22c-.4.36-1.1.7-1.13 1.1s.64.8 1 1.22zm-896.1-77c-.32-.37-.63-1-1-1s-.75.55-1.12.87c.32.36.63 1 1 1s.75-.53 1.12-.84zM2185.9 284c-.36-.4-.7-1.13-1.1-1.15s-.83.63-1.25 1c.37.4.7 1.12 1.1 1.15s.83-.66 1.25-1z"/></svg>