<svg xmlns="http://www.w3.org/2000/svg" viewBox="0 0 2452.4 797.63"><path d="M389.8 554.92l-5.2-12.56-6.95 8.07c-3.52-2.24-6-4.5-8.82-5.45-5-1.67-21.38 2-31.36 4.82-3.2.9-7.4-2.24-14.64-4.74 6.06-2.7 9-5.1 12.14-5.25q26.07-1.3 52.17-1.57c2.62 0 5.26 2.17 7.9 3.33l-5.24 13.35zm822.54 198.85s-.6.42-.62.44c-3.75-1.05-7.46-2.72-11.26-3.05-4.63-.4-9.67 1.58-14 .33-8.36-2.43-14 .82-19.07 7.15l-.35-.3 50.66 3.23-.2.45.94-2.32 2.13 2.3-.18-.44 7.92-5.7-.28.57 3-3.2-.25.4c-6.62-8.4-13-3.4-19.48.34zM2412.47 516.6l-4.1-5.88-6 14.95.33.56-2 1.92-1.13-1.9.28-.46-2.56 6.35-.32-.38 3.16 3.35-.4-.34 21.17-.18-.26.46.92-1.95 2.15 1.86-.33-.4h5.4l-.3.43 3.15-.06-.3-.4 21-5.94h-28.52l-1.2-10.72-11.2 11.2q-1.95-1.7-3.92-3.4l5.4-8.9zm-733.66 262.6c-5.12 7.2-1.74 14.7 4.1 15.55 9.57 1.4 19.67-1.2 29.55-2.12l.46.4q-1.46-7.37-2.93-14.72l.28.44-8.55-5 1.4 16.1-7.44-8.38-3.43 12.8-3.62-15.6.37.3-1.65 12.62-.4.7s0-1 .06-1l-8.48-12.47zM221 577l-4.35-15.4v20.28H255l-11.62-11.33c-4.76 14.83-15.78.24-22.38 6.44zm201-79.72l.4 7.24-16.4-4.1c9.08 13 21.62 8.16 33 8.66 1.72.07 3.63-5 4.93-7l-21.6-5.05s-.32.2-.32.22zM266.64 581h48.26c-12.76-9.33-30.07 6.24-37.1-9.34zm920.05 138.48c-5 14.37-9.52-2.9-15.48.3l-7.36 8.3c8.16 1.63 15.68 3.48 23.3 4.42 2.2.27 4.7-2.08 7-3.23-2.42-3.33 1.4-12.5-7.8-9.48zm472 71.65a45.64 45.64 0 0 1-.47-2.16l-8.1-3.93-.6 10.9h25.8l-7.63-8.52.44-.56-2.3 3.58-.65-3.6.18.45-7.43-3.6v5.56c.3.66.56 1.3.82 1.9zM608.64 539.36c-1.48-.72-.84-.4-.15 0 .85-3 1.65-6 3.4-12.8l-11.57 6.08-.28.17-4.05 12.6 10.48 2.85-.34-.26 6.68-1q-2.22-3.87-4.42-7.74c-.66-.26-1.28-.58.24.1zm-347.93-2.64l-6.93 7.28 12.53 11.2c2.73-9.18 8.2-17.52-5.4-18.42zm184.22 12.16c2.07-.23 5-2.45 5.56-4.4s-.88-5.58-2.5-6.65c-4.9-3.24-19 5.43-20.86 11.26 6.45 0 12.17.4 17.8-.2zm-222.58-263.4h3.2l-.06-.26 10-6-21.38-7.46-2.38 8.66 10.74 4.7zm280.9 259.42l-2.7-15.42-3.4.74 2.95 9.12-10.38 2.43 10.5 11.7 3.26-8.94s-.17.3-.2.37zM211.6 577.5h-19.93l.73 5.26 19.73-1.63c-.14-1.2-.35-2.42-.53-3.63zm2145.57-2.9L2335.3 572c7.34 15.55 14.75 6.8 21.87 2.58zM1710 778.34q1.47 7.36 2.93 14.72l-.46-.4c5.2-1.27 15.9 15 15.08-5.37v.36c-1.5.8-3 1.67-4.5 2.54l.4-.45-2.08 2.26-1-2.33.32.52c-1.65-3.8-3-7.77-5.15-11.24-.55-.9-3.45-.15-5.27-.16zM671.6 98.4l-12.47-4.43v25.16q6.25-10.52 12.5-21s-.01.23-.02.27zM303.3 541.6l-9.43-1 .08-.27h-3.12l.08.28-6.8 1.75.3-.28c4.47 2.75 8.82 5.86 13.58 7.8.6.25 3.4-5.6 5.18-8.63zm835.16 211.5h-20.65l-.24 3.12 20.4 1.1.5-4.2zm813.1-713.7l-18.9-1.62-.43 5.3 18.72 1.14.62-4.82zm-820.1 691l16.53-6.46-1.1-3.4-17 5.23zm-899.5-188.32c13.3 5.22 13.3 5.22 17.63-8.43zm1938.68-362.65c-1.62-1.34-3.2-3.73-4.87-3.82-5.25-.28-10.55.3-15.74.55 4.87 8.25 5.93 8.4 20.75 2.94zm-1968.9 363.4l11.13 4.17 1.6-4.57-11.66-4.2zM1866 752.33l24.2 3.7-5.43-6.63.22-.27-19.1 3.25a.34.34 0 0 0 .11-.05zM303.2 541.28l14.3 5.78c-3.1-11.8-8.38-10.92-14.2-5.47 0 0-.13-.37-.1-.3zM157.87 274.4l-4.62 6.4 2.43 3.4 13.92-9.44-11.6-.93zm283.46-112.14l-9.57-14.78-3.36 2v8zM413.66 548.9l12.1-6.82-2.3-4.9-12 5.75zm-42.6-43l-13.9-3.9-.42 5.9 14.35-2.3zM199.88 275.25c-3.44 2.2-12.2-7.27-10.8 5.57l-.22-.34 8.1 2.82 3.25-8.25zm250-127.52c-1.9 14.66-1.9 14.66 3.9 15.4l4.1-10.94-.22.35-7.73-4.62zm713.9 601.2l-11.25 7.24 1.82 3.13 12.2-6.33zm-53.4 1.33l-9.68 4.55 1.8 4.34 9.5-4.3-1.6-4.58zM2169.44 37.8c-2.34 0-4.68-.06-7 .15a11.25 11.25 0 0 0-.07 3.28 54.31 54.31 0 0 0 6.4.79zM320.93 578.25a55.16 55.16 0 0 0 6.56 2.89c.3.1 1.2-2 1.84-3l-6.9-3.2c-.5 1.05-1 2.2-1.5 3.3zm210.7-391c1.13-3.17 2.43-6.3 3.25-9.56.15-.6-2.22-2.66-2.4-2.53-2.32 1.84-4.5 3.84-6.65 5.84zM214 679.3l-9.87 1.77.8 3.82 9.63-2.1-.56-3.5zm169.46-175.57l-3.1 3.28.4-.36 14.1 1.36s-.17-.2-.18-.17c-1.3-10-6.82-5.2-11.4-3.7zm-132.33-223.8l-.52-7.14-7 4.7.33-.44c.18 8.8 3.88 5.53 7.5 2.5zM418.8 155.6l-8.8-1.1-.16.34 4 10.13 3.32-1.74 1.58-7.83zm129.47 381.32l4.4 9.2c0 .08 1.44-.63 3.17-1.4l-2.57-9.2zM475.13 543l3 3.2-.3-.33 9.46-3.84-1.43-4.3-10.37 5.5zm1261.13 241.56v-3.27l.13.4-8.83 5.94c0 .07 0-.36 0-.3l3.88 6.44 5.17-9.7zM477.63 178.4l6.63 4.4 1.33-5.8-7.6 1.75zm18.73-5.32v11.63l5.36-1.4q-2.85-4.95-5.72-9.9zm-72.6 29.26l8.9-4.83-.93-2.33-9.14 3.3zM524.24 538.2l4.35 10 2.5-1.17q-1.55-5-3.08-10zm1851.33 85.28l7 1.32 1-3.3-9.78-6.67 2.1 9zm-406.42-585.6l7.43 5.63 1.47-3-9.28-2.9zm-342.48 747.8l-6.28 6.95 4.7 2.33 1.5-9.1zM571.9 545c.56-2 1.2-4 1.6-6.06 0-.24-1.3-.77-2-1.17l-2.8 5.58zM2207.5 35.3l-6.42 2.6 4.47 4.77 4.32-4.82zM1240 3.2c-2 .66-4 1.26-6 2.1a10.14 10.14 0 0 0 .3 2.41l6.48-1c-.3-1.2-.56-2.35-.78-3.5zm-97.4 750.13l-2.15 9.62 2 .6q1.45-4.68 2.9-9.36zm-738.1-214.7c-1.28.32-2.2 2.24-3.28 3.46 1.18 1.07 2.37 3 3.56 3s2.4-1.87 4.58-3.77c-2.34-1.32-3.8-2.96-4.86-2.7zm889.94 248.88l-8.56 1 .44 3.17 8.75-1.18zM250.08 561.68l.68 6.85 2.08-.37-1.1-6.73zM1638.9 790.43l-12.24-4.74s-.08.17-.08.2c1.84 1.4 3.5 3.32 5.55 4.06s4.3.2 6.5.25zM468.36 544.74l-7-3.27.1.2 2 9.1 5.1-6.32zm1675-311.17l9.33-5.9c-7-3.6-11.48-4.6-9.12 5.78zM2278 383.1c-.74 0-2.13 1.62-2.06 2.4.1 1.12 1.26 2.12 2 3.18l4.27-3.6c-1.84-.94-3-1.98-4.2-1.97zM131.65 277.16l-5.88-1 .35.3-4.53 5.54 1 1.4 9.22-6.8zm136.13 3.22l-5-4.7.5 5.73 4.22-1.42zm1849.27-115.82l9.9 1.77.45-3-10.3-1.87-.07 3.1zM2147.6 39.6c.68.42 1.5 1.3 2 1.15a12.31 12.31 0 0 0 2.93-1.92l-2.85-2.72zM368.08 565l2.07 5.36 1.83-1q-1.4-2.46-2.77-4.92zM1172.63 2.62l-4.86 6.06L1170 11l5.45-5.37zm-583 547v-11.3l-4.07 1q2.18 5.14 4.37 10.27zm-49.4-2.4c.5-1.2 1.7-3.06 1.38-3.46a23.76 23.76 0 0 0-4.43-3.42l.68 6.92zM1520.4 1.34h-6.52v2.4h6.53l-.01-2.4zm-417.57 18.3h-11.35l.46 3.48 10.6-3.7zM645.3 86.85h-8c0 .56.1 1.1.16 1.67h8c-.1-.52-.13-1.1-.16-1.67zm448.07 663.65c-.85-.14-2.83 1.5-2.73 2 .3 1.55 1.34 3 2.1 4.4l4.7-3.17c-1.95-1.63-2.9-3.04-4.06-3.23zM1960.7 41.25c-.1-1-1.33-2-2.08-2.94-.85.93-2.16 1.74-2.38 2.8-.16.76 1.14 1.87 2.18 3.4 1.07-1.44 2.36-2.43 2.28-3.26zm381.42 420.48l-3 3.24.13-.34a59 59 0 0 0 6.65-.07c.26 0 .33-2.08.5-3.2l-4.5.82zM280.3 543.06l-3.93 6.26 4 1q-.18-3.78-.38-7.56zM1737.46 790.5l4.2-12.36.24.4-2.6 2.8-3 3.25.34-.48 1 6.63zM332.17 323.62l-3.12-6.7-1.15.43q1 3.67 2 7.37zM1986.3 66.85l-2.82-8.94-3.36 2.85 6.5 5.76zM251.5 279.53l6.27 2.8.64-2.9-7.27.48zm94 289.42l-.8-4.94c-.32.17-.92.4-.9.5.24 1.55.56 3.08.85 4.62zM175.88 276.4l1.14 5.5 2-.32q-.27-3-.56-6h0l-3 1.27zm-144.5 156c-.33-2.32-.6-4.64-.87-7l-3.25 1.1q2.2 2.9 4.4 5.83a1.78 1.78 0 0 0-.28.01zM294 565.1c-.58.47-1.57.87-1.65 1.42s.67 1.34 1.05 2l1.8-1.4-1.2-2.02zm1903.2-386.85l4.5-4.08-1.2-1.53-4.75 3.7zm-1753.87 2.48l2.83-4.6-2.72-1.57-1.82 5.2zm63.48-4.2c-.63.13-1.1 1.2-1.64 1.85.84.75 1.9 2.28 2.48 2.1 1-.3 1.65-1.7 3.08-3.38-1.85-.3-2.94-.76-3.92-.57zm-28.8 2.2l-5.4 5.82 2.95 2 2.13-8.2zm1127.85 612a12.72 12.72 0 0 0 2 2.51c.4-.63 1.3-1.52 1.15-1.84a17.59 17.59 0 0 0-2.28-3c-.47 1.1-1.1 1.96-.9 2.37zM371 225.15q.57-5.43 1.13-10.86h-2.84q.82 5.44 1.67 10.9zm-143 315.6l-5.07-3.2.34-.2q1.42 4.3 2.84 8.6l1.56-5.52zM97.6 250.1c-.07-.56-1-1-1.6-1.45-.4.65-1.2 1.35-1.12 1.93s1 1 1.6 1.45c.4-.65 1.2-1.35 1.1-1.93zm-9.85-.7a21 21 0 0 0 .26 2.22c.37-.1 1-.2 1-.3a18.48 18.48 0 0 0-.26-2.21 4.87 4.87 0 0 0-1 .28zm559.87-136.5q2.63-4.84 5.23-9.7l-2.73-1.15q-1.1 5.53-2.2 11.08zm-245 50l-2.67.5c.27.83.35 1.9.9 2.4.37.33 1.4-.18 2.17-.33zm1879.18-35.6q.4 2.65.83 5.33l2.28-.55-1.33-5.2zM466 174.9a19.3 19.3 0 0 0-2.76 2.46c.7.54 1.52 1.62 2.07 1.48.95-.24 1.74-1.23 2.7-2-.86-.85-1.77-2.06-2-1.94zM1253.16 789c.07-.16-.6-.94-.76-.88a10.93 10.93 0 0 0-1.79 1.06l1.4 1.82a13.2 13.2 0 0 0 1.16-2zm504.13-4.62l-1.78 7.84 2.2.12-.82-8.32zm-515.46 5c0 .7.86 1.37 1.34 2l1.92-2.72-2.1-1.5c-.44.83-1.2 1.52-1.17 2.2zm-169.08-768.5l4.06.6c0-.4.1-.77.16-1.15l-4-.68c-.1.37-.17.83-.22 1.24zm124.47 14.43l.86 5.72 3.28-.93-2.36-5.37zM142.13 277.55l.27-3.85-.16.55q-3.12 2.08-6.26 4.15l.92 1.76 5.18-2.65zM449.94 148c-2.2 1.56-4.4 3-6.6 4.5l2.3 2.93 4.23-7.72a1.34 1.34 0 0 1 .07.29zM1185.8 36.46c-.88.1-1.62 1.34-2.42 2.07.9.74 1.8 2 2.76 2.08s1.76-1.2 3.34-2.4c-1.77-.9-2.8-1.88-3.68-1.76zM1748.7 790.5V785h-.83v5.3zm-1575.5-513l-3.63 5.06 1.5.8 1.73-6.22zm191.62-53.76q-.6-3.74-1.22-7.5l-2.85 2.15 4.4 5s-.33.3-.33.3zm-8.1-15l-2 9.7 1.56.28v-9.63zm1433.5 577.4a5.71 5.71 0 0 0-1.51-.74c-.25 0-.84.52-.82.76a7.7 7.7 0 0 0 .55 1.74zm392.3-748.44l4.95 1.9.35-2.67-5.6 1zm-1997.67 238l-.32 6.43 4.3-1.66s.22.34.2.32l-4.42-5.06zm22.6 2.15l-4.62 4 2.5 2 1.83-6.37zm34.08 0l-4.6 2.15 1.3 1.8q1.46-2.22 2.93-4.44s.35.47.35.5zM380.35 507l3.1-3.3-.17.4-6-.9 3.5 3.4zm-121.4 71c-.43-.06-1.55 1.28-1.43 1.67a11 11 0 0 0 1.73 2.74l3.15-2.68c-1.58-.8-2.48-1.54-3.4-1.68zm1640.78 173.53c-.57.13-1 1.15-1.43 1.78.65.45 1.4 1.35 1.92 1.2s1-1.23 1.5-1.9c-.73-.42-1.44-1.2-2-1.08zM395.56 573q-.36-4.62-.7-9.24l-1 .15 1.57 9zm-133.45-5.4c0-.66-.83-1.26-1.3-1.9l-.54 3.82c.9-.94 1.86-1.53 1.83-1.97zm88.4-1.2c.67.18 1.58.73 1.95.45a3.07 3.07 0 0 0 .9-2.13c0-.44-.7-.9-1.37-1.7l-1.48 3.33zM2267.14 76.87a10.22 10.22 0 0 0-2.13-1.64c-.24.72-.8 1.52-.64 2.14s1 .9 1.63 1.37c.43-.68 1.26-1.74 1.14-1.87zM478.16 546.2l-3-3.2.4.22q-.54 3.2-1.07 6.4l3.4-3.75zm-175.24 21.12c-.05-.23-1.1-.23-1.7-.33 0 .4-.1.9.06 1.2a19.28 19.28 0 0 0 1.48 2 11.36 11.36 0 0 0 .17-2.87zM2366.1 574c-.67-.36-1.84.3-2.78.5.3 1.12.3 2.68 1 3.24s2-.2 3.76-.47c-.86-1.53-1.2-2.86-1.98-3.28zm-2003.52-5.35q-1.54-3-3.07-5.95l-1.4 1.25 4.83 4.42s-.35.3-.36.28zM1320.5 788c-.65-.1-1.4.5-2.1.8l1.5 2.55c.57-.52 1.13-1.05 1.7-1.6-.37-.6-.67-1.66-1.1-1.75zM347.94 156.88h0c-.2-1.72-.1-.88 0 0zm32.8-5.14l-3.93 3.43 1.76 1.38q1.05-2.6 2.08-5.2zM2172.3 267.1q2.65-1.66 5.3-3.36l-1.18-1.4-4 4.52a1.34 1.34 0 0 0-.12.23zm-409.22 520.75l.26 4 1.2-.08V788zM331.78 151.7l3.5-2.3-1.22-1.92-2.06 4.06zM646.3 104c.15-.67-.46-1.53-.74-2.3-.86.6-2.18 1-2.47 1.85s.52 2 1.18 4.13c1.06-1.86 1.82-2.68 2.03-3.68zm1732.42 468.93l.94 5.54c.74-.22 2.1-.43 2.1-.68a37.77 37.77 0 0 0-.35-4.73zM568.2 531.25a12.5 12.5 0 0 0 1.93.11c.12 0 .37-.9.23-1.05a11.09 11.09 0 0 0-1.66-1.39zM1530.68 9.88l-.88-7.07-1.65.53 2.6 6.56zm-950.54 520.4c-.55-.37-1.2-1.12-1.64-1s-1 1-1.43 1.55l1.82 1.22zM2227 176.4l.54-.68-.9.4zm-1849.6 389c-.23 0-.8.86-.75.92a18.68 18.68 0 0 0 1.57 1.64l1.17-1.9a8.3 8.3 0 0 0-2.04-.62zm1966.03-60.9c-.24.3.38 1.36.62 2.08l3-1.23-1.45-1.87c-.8.33-1.74.45-2.17 1.02zm-172.66-325.4l5.5-1.1-1.7-3.64-3.93 5.08zM376.7 198.33c.33.26.76.8 1 .72a11.36 11.36 0 0 0 1.92-1.13l-1.6-1.34c-.48.58-.9 1.17-1.3 1.75zm10.36-.75l-2.26-1c-.3.75-1 1.72-.8 2.2s1.33.74 2.06 1.08l1-2.3zm1228.8 592.55c-.53-.27-1.34.1-2 .2.38.62.64 1.5 1.18 1.78s1.33-.07 2.08-.15c-.44-.67-.72-1.56-1.26-1.84zm-19.5-.27a7.86 7.86 0 0 0-.42 1.93c0 .25.77.76 1 .66a7 7 0 0 0 1.49-1.2zm-263.5-1.5c-.6 0-1.24.55-1.86.87.43.6.8 1.57 1.3 1.67s1.2-.65 1.82-1c-.44-.6-.82-1.5-1.27-1.54zM414.32 572.85l-1-7-.35.06 1.14 6.75zm24.4-8.46a14.76 14.76 0 0 0-1.57 1.38c-.07.08.37.67.57 1l1.62-1.33zM222.3 678.67a7.52 7.52 0 0 0-1.18 2c.5.3 1.3 1 1.47.82a7.55 7.55 0 0 0 1.26-1.94c-.54-.35-1.4-1.03-1.55-.88zM65.34 460.84c-.42-.3-1.33.2-2 .32l1.1 2.94 2-1.05c-.45-.8-.56-1.8-1.1-2.2zm7.4.6c-.4-.1-1.67 1.24-1.57 1.6a13.26 13.26 0 0 0 1.73 3l2.94-2.62c-1.34-.9-2.15-1.75-3.1-2zm5.84 1c0 .4 1.5 1.06 1.77.84a6.19 6.19 0 0 0 1.07-2.2l-2.12-1a6.08 6.08 0 0 0-.72 2.37zM2158.5 295.35c-.18.65.4 1.54.67 2.32.7-.44 1.64-.73 2-1.38.2-.35-.5-1.33-.8-2-.64.32-1.73.54-1.87 1.06zM387.82 573.14l-.6-6.18h-.3q.35 3 .7 6.06a1.29 1.29 0 0 0 .21.12zm230-509.92c-.22-.1-.64.2-1 .34.13.36.17.9.4 1s.65-.2 1-.34c-.08-.33-.12-.88-.36-1zM2259.68 439.1a8.16 8.16 0 0 0-1.9 2.16c-.14.38.86 1.26 1.34 1.9l1.5-1.47zM183.44 578.44c-.07-.12-.95 0-1 .17a12.38 12.38 0 0 0-.19 2l1.94-.27a13.25 13.25 0 0 0-.75-1.9zm1576.8 203l2.84-3.28-1-.8-1.58 4.47s-.27-.33-.26-.33zm-543.2 6.8c-.16.37.8 1.26 1.24 1.9.6-.5 1.57-.92 1.68-1.52s-.65-1.38-1-2.1c-.7.6-1.62 1.03-1.92 1.75zm-1031.3-103.6l1 1.67 1.08-1.6-1-.4zM2188.9 179.3l-.33-4.35a2.51 2.51 0 0 0-.9-.09c-.26 1.45-.47 2.9-.68 4.36zM283.87 504.8a3.08 3.08 0 0 0-1.07.48h2.1c-.34-.18-.7-.5-1.03-.48zM2226.6 176.1l-.7.56c-1.38.4-.18.05 1-.28zM142.13 277.55q1.94 4.47 3.88 8.93l.57.1-4.5-9.05zm395.44-91.33a3.46 3.46 0 0 0-.82-.4c-.34.67-.63 1.36-.93 2.06l1 .44c.27-.7.55-1.4.75-2.1zm1780.8 241.93l1.6 2.67.75-.9-2.68-1.4zm-1981 77l1.55-.52c-.23-.3-.42-.72-.7-.82s-.67.15-1 .24zm72.07-307.83c0-.14-.66-.7-.78-.63a11.8 11.8 0 0 0-1.4 1.26l1.42 1.32a13.32 13.32 0 0 0 .77-1.94zm-97.3 307.33a11.45 11.45 0 0 0 1.11 1.74c.07.1.7-.35 1.06-.55l-1.08-1.78zm201.3 39.5l1.84-.18-1.75.08zm76.16 5.42c-1 .13-2 .26-.42 0-1.55.12-.46 0 .68 0 .04.04-.26 0-.26 0zM268.52 567.8l.33-.73-.57-.18zm51.16 31.42l3.37-.07-.25.47-1.8-3.7-1 3.73zm64.74-427.16c-.1.26.16.7.27 1.07.33-.14.8-.2.95-.44s-.16-.65-.26-1c-.38.12-.87.14-.96.37zm336.92-5.27l-3.32 4.76 3 1.06v-5.54zM348.56 228.6l3.43-1-3.34-2.72.13-.4.06 4.47zm107 341.95l.86-4.64-.9-.15v4.73s.04.1.05.06zm1911.92 66.74c.36.18.86.6 1.05.5a8.52 8.52 0 0 0 1.37-1.38l-1-.8zm11.7-161.76c-.25.24-.3.73-.44 1.1l1.73-.07-.27-1.18c-.35.03-.8-.06-1.02.14zm48.05 98.57c-.2.32-.57.68-.52.95a8.38 8.38 0 0 0 .71 1.67l.53-.94zM561.6 538.4a13.38 13.38 0 0 0-1.61 2.32c-.07.16 1 .9 1.55 1.36l1.3-1.72zM172.82 277.08c1-.24 2.05-.47 3.06-.68l-.38.43c-.67-1-1.32-2.1-2.73-4.4l.45 5c0 .04-.4-.33-.4-.35zM2420 572.62c-.26.75-.9 1.67-.68 2.2s1.27.72 1.95 1.06l.77-2zm-25.25 2.46c.15.63 1.24 1 1.93 1.5l-.4-4.3c-.84 1.38-1.7 2.23-1.57 2.82zm16.48-.24a5.47 5.47 0 0 0-.07 1.29c.37-.28.88-.48 1.06-.86s-.2-.78-.3-1.18c-.27.26-.62.46-.72.75zM260.68 505.16c.1-.13-.15-.58-.25-.88a2.51 2.51 0 0 0-.86.45c-.1.1.14.53.23.8.3-.12.7-.15.88-.38zM17.32 428.44c-.08.26.34.68.54 1 .48-.35 1.4-.74 1.36-1a5.18 5.18 0 0 0-1-1.81 9.09 9.09 0 0 0-.9 1.81zm297-222.9c.2-.33.65-.83.57-1a12.2 12.2 0 0 0-1.31-1.58l-.54 1.06zm-3.56 357c-.16.28-.43.55-.46.84a2.93 2.93 0 0 0 .29 1l.47-.85zM508.88 539l-5.64 5.94c0-.06.2-.37.25-.42l5.15-5.08zm1822.7 40.8a17.08 17.08 0 0 0 .61-2c0-.06-.8-.52-1-.4a8.93 8.93 0 0 0-1.46 1.37zM397.86 209.5l-6 2.4 1 2 4.92-4.5zM42 461.93c-.22-.24-.7-.22-1.08-.3l.14 1.9 1.07-.47c-.03-.38.06-.9-.13-1.12zm13.65 1c.24.3.62.87.68.83a16.08 16.08 0 0 0 1.67-1.17c-.23-.3-.45-.63-.68-.95zm293.13-238.45l-.36-.9c-.4-1.8-.07-.3.24 1.24-.01.04.12-.35.12-.35zM1181.63 714l4.74 5.86.32-.32-4.7-5.44zM1470.8 19q-1.45-2.53-2.9-5.1l-1.62 1.53 4.88 3.24s-.35.32-.37.32zm310.44 764.26l-1.08 3.9 1.55-4.12zm-9.55.75l.17.9c.1 1 0 0-.13-1.15zM370.8 159c-.36.13-.87.14-1 .4a7 7 0 0 0-.56 1.64l2.13-.2c-.22-.64-.36-1.25-.57-1.84zm974.28 628.53c-.3-.14-.65-.46-.86-.37s-.32.56-.47.87l.88.43zm665.62-728.3l-.27 5.17 1.82.12.33-5.17zm-92.67 2l5.26 3 .3-.4-5.68-2.94zm78.82 663.08c-.24.23-.2.78-.3 1.2l1.88-.12-.5-1.18c-.38 0-.9-.13-1.1.1zm-272.7 58.43l-3.46 7.47-.32-.52 3.08.07-.4.45q.7-3.82 1.37-7.65zm0 0l-.14-2.8-1.15.18c.5.82 1 1.63 1.56 2.44zM362.36 158.54a1.73 1.73 0 0 0 .08 1.13 9.64 9.64 0 0 0 1.6-.11l-.38-2.4a8.23 8.23 0 0 0-1.3 1.38zm305.77-48.8c-.43 2.23-.92 4.4-1.4 6.6l3.14-.26-2-6.4a.86.86 0 0 1 .27.06zm997.05 677.15h3l-.44.56-.4-3.55-1.94 3.43zM1915 729.65l-.6-.5c-1.2-2.24-.54-1 .12.23zm-809-.62l.15-3.35-1.78.77 1.92 2.86zm367.82-726.7c1-.6 2-1.18.37-.2 1.75.26.53.08-.7-.1zM176.87 692.4c.1.23.5.3.8.44.1-.3.4-.66.3-.85s-.5-.3-.8-.46c-.1.3-.4.67-.3.87zm241.85-537.07c.1-1.6.24-3.1.4-4.6l-1 .08.7 4.82a1.07 1.07 0 0 0-.08-.29zM1461.18 4l.88.3v-1zm12.3-2l-.88.84 1.2-.52-.3-.32zm26.66 3.73l1.33-.42c-.18-.36-.28-.85-.56-1.06s-.63.15-1 .25zM1559.77 8l3.06-3.27.58.5-6.35-4.34.53.18q1.2 3.27 2.36 6.55zm716.44 126.14c-.3-.1-.7.13-1.07.22l.64 1.34.87-.62c-.14-.3-.22-.82-.44-.9zm-2030.57.46c-.26-.2-.72-.1-1.1-.14l.33 1.67 1-.5c-.1-.32-.04-.84-.24-1zm1068.54 656.62c.24-.37.76-.86.67-1.1a11.84 11.84 0 0 0-1.15-2c-.48.55-1 1.1-1.43 1.67zM1092.6 13.44l-.32-.75-.4.57zm836.85 711.4c0 .3.2.64.34 1 .2-.25.54-.48.58-.76s-.2-.63-.33-.95c-.2.2-.55.44-.6.7zm474.94-150.15a3.22 3.22 0 0 0-.11-1.21 6.17 6.17 0 0 0-1.23.83c-.07.07.33.65.52 1 .3-.2.73-.3.82-.62zM628.58 87.13l.63 1.48c.12-.35.25-.7.38-1zm-299.5 481.1l-.38-2.13-1.37 1.7 1.83 1.05zm-1.74-267.66l-.28 2.65a4.66 4.66 0 0 0 .32-.93 5.22 5.22 0 0 0-.06-1.29 1.42 1.42 0 0 1 .02-.43zm122 298.9l-1.32-1.3 1 1.6zm184.8-488.54a4 4 0 0 0-.23 1.23l1.45-.35-.4-1.17c-.3.1-.72.1-.83.3zm1655.65 1.57l-2 .78 1.88-.44zm-1642.16.43l.35 1c-.3 2.45-.1.92 0-.67zm-324.23 208l-2.06-.46 2.37.9zm-86.8 273.5c0 .1.44.2.68.3a3.3 3.3 0 0 0 .2-1c0-.13-.4-.22-.6-.33a3.87 3.87 0 0 0-.27 1.03zm2043.26-479l-1.16 7.54.06.3 1.06-7.65c0-.04.07-.3.04-.23zM1269.53 790l-.27-.87-.44.78zM284.4 542l-4.44.7.34.33 3.74-.7zm1354.5 248.43l3.4-1.7-.36-.25-3.3 1.72a3 3 0 0 0 .25.23zM1234.2 788c0 .32.37.68.57 1 .24-.32.65-.65.66-1s-.36-.74-.57-1.1c-.23.35-.63.7-.66 1.1zM508.88 539l.84 2.06.53-2c-.55.15-1.1.3-1.63.4zM1215 33.32v-6.07l.3.23-3.2.1.4-.38q1.38 2.93 2.78 5.84zM2127.3 38l-.44.93h.86zM461.37 541.5a95.28 95.28 0 0 1-2.82.64l2.9-.46a1.5 1.5 0 0 0-.09-.18zm1721.17-503.8l-1 .1c-1-.35-.17-.06.67.18zM481.5 530l1 .2-.36-1.2zm-94.76 0l.95.18-.3-1.14zM1505.9 1.84c-.25.28-.66.55-.7.86s.3.7.47 1l.73-.83zm231.67 788.87l2 .28a1.67 1.67 0 0 1 .43.24l-2.56-.74a2.26 2.26 0 0 0 .13.22zm633.3-277.93l1-2.22-1.28 1.9zM260.7 536.72l.52-1.8c-.18.28-.47.54-.5.84a3.34 3.34 0 0 0 .22 1zm326.1-4.28l1.2-.7-.85-.3c-.15.33-.23.67-.34 1zm1055.5 256.3l-.77 1.7h1l-.58-2zm-339.47 2c0 .07.45.2.7.3a3.63 3.63 0 0 0 .25-1c0-.1-.42-.2-.65-.3a4 4 0 0 0-.29 1.01zM403.25 493l-.37-1-.52.9zm-116.32 75.3l-.3-2.7-1.64 1.27 2.08 2zM1955 52.5c-.13.12-.26.24-.38.37zm-.38.37l.53.52c.28 1.74.07.42-.14-.9zm183.3 1.23l-1.43.2 1.67.3zM606.1 548l.45 2.4c0-.7 0-1.4-.08-2.1zm-300.57 5.34a11.63 11.63 0 0 0-.87 1.95c-.06.22.42.6.65.9l.9-1.92zm-21-313.92l-.4-2.34.4 2.45v-.1zM147.7 272.78l.9-.15-1.1-.1zm52.18 2.47l.58-1.63-1.93.47 1.65 1zm7.6 2.6v-1c.52-1 .1-.17-.32.7.03-.02.32.3.32.3zm36.15-.37l-1.86-2.15-.2 2.52-.37-.5 2.78-.3s-.33.44-.34.44zm-96.1-4.95l.3 1c0 1.35 0 .35-.06-.72zM2141.2 164.87a4.55 4.55 0 0 0-.28-1.23c-.3.1-.88.24-.88.34a5.55 5.55 0 0 0 .33 1.24c.3-.1.83-.22.83-.35zM421.37 175.23l-.35 1h.72zm10.53-.7c-.23.27-.7.7-.66.77a6.84 6.84 0 0 0 .95 1.14l.32-1zm-50.6-12a12 12 0 0 0-2 .67c.23.3.5.87.7.85a11.54 11.54 0 0 0 2-.61c-.25-.34-.52-.93-.7-.9zM522 179.2l-.3-.9-.47.82zm1692.2-4.06c.3 1 .6 1.94.15.47-.22 1.47-.06.36.1-.74zM516.33 185.78c-.27-.28-.73-.84-.8-.8a9.14 9.14 0 0 0-1.21 1.2l1.06.33zm-215.66 17.36l-.7-.2.2.93zm86.65 5.44l-.22 2.1.65-1zM106.87 277l-.52.73.84-.86zm2271.2 329l-.18.7.8-.2zm25.43-64.88a5.8 5.8 0 0 1-.07-.74l-.23 1a4.23 4.23 0 0 0 .3-.23zM1781.7 783l-.4.78.65-.26a4.09 4.09 0 0 1-.75-.24 3.77 3.77 0 0 1 .5-.28zm-10 .73l5.27-2.22.26-.47-5.56 2.94a2.13 2.13 0 0 1 .05-.23zm-14.8.25l3.34-2.5.3.37-3.25-1.57.42.3-.42 3.77zm512.27-143.44a4.52 4.52 0 0 0-.57.34l.85.18s-.24-.48-.26-.5zm-16.3 2a2.63 2.63 0 0 1 .35-.52l-.73.24zm-17.45-.45l2.44 3.13.18.2-2.2-3.62zM579.56 547.87l.1-.78-.75.3zm-66.12-3.7a9 9 0 0 0 .2.93c0 .28 0-.4-.12-1.05 0 0-.1.1-.08.12zM2248.22 674.6a2.21 2.21 0 0 1-.43-.38l.18.8zm33.2-34.66a5.91 5.91 0 0 1 .41-.61l-.9.42zM1736.25 781.3h3l-.4.43v-3.26l.32-.48-2.8 3.7zm21.07-1a2.23 2.23 0 0 1-.44.36l.83-.1zm19.67 1.2l-.92-.8.27.88c.3-.16.58-.32.9-.5zM468.57 544.45c-.13-.2-.22-.4-.32-.6 0 .3.07.6.1.9a1.94 1.94 0 0 0 .21-.29zm-191.92 147.2l4.15-3s-.23-.33-.22-.33l-3.73 2.74zm323.67-159l-.9-.3.63.5a2.53 2.53 0 0 0 .27-.23zm-170.22-.86l.3.38zm.3.38l.4-.35h-.7zm-32.4-3.83l.3.1zm-107.1 12.23h3l.08-.27h-3.12zm-62.9.17l.22-1.1-.55.76zm100 58.8h2.73l.16-.4h-3.13zm2103.73-64.6l-3.15.06.3-.43 1.38 2.16 1.18-2.18zm-7.94 0l-3.07.1.26-.46c.48.66 1 1.3 1.45 2l1-2zM2238 645.42l.7.08-.88-.28zM222.9 537.57a3 3 0 0 0 .36-.25 3 3 0 0 0-.36.25zm1619.37 189.1l.47-.3zM194.5 636.88l-.42-.75.2 1s.23-.24.2-.25zm48.66-1.88l.4.53s-.55-.72-.57-.78.16.25.16.25zm229.27-63.57l3.1.07.12-.34-3.32-.1zm-143.4-3.24h-.65l.76.64a5.22 5.22 0 0 0-.11-.61zm-42.15 0h-.68l.82.6a5.94 5.94 0 0 0-.14-.52zm-1.33 67.34l3.13-.06-.27.4-1.34-2.23-1.25 2.24zm1540.83 93.6l-.53.22zm16.35-2.8c-.13-.2-.27-.36-.4-.53l-.06.86a4.48 4.48 0 0 0 .47-.33zm441.88-135.8l-3.5-2.58-.26.23 4.06 2.78zm-488.5 122.7c0 .06.36.7.36.7l-.4-1.1s-.02.35.03.4zM321.6 634.1l-.85-.6 1 .86a.8.8 0 0 0-.15-.25zm24.74-.85l2.7.07.23-.4h-3.15zm2026.1-55l-.64-.1.23.7zM1181.6 714l-.72-.1 1.1.2a3 3 0 0 0-.38-.09zm-826.2-81.37a2.47 2.47 0 0 1-.42-.37l.2.8zm2024.47.76l-.37.37zm-1212.4 125.26a6.89 6.89 0 0 0-.61.84c0 .1.2.36.3.55l-.06-1.7zm-890.8-67a3.88 3.88 0 0 1 .47.32l-.28-.87zm943.8 70h-2.7l-.2.45h3.07zm16 .43h-3.22l.35.62 2.57-.07zm443.4 12.12l-.84-.3a2.21 2.21 0 0 1 .73.46c-.02.01.15-.24.15-.24zm9.07 1.46l-.53-.18.15.48zm-10.14 3.63l1-5c.05-.06-.12.2-.06.1l-1.28 4.58zm10.14-3.63v3.42l-.38-.32c.3-.33.9-.73.84-1a8.87 8.87 0 0 0-.87-1.85zm49.92 2.9h3l-.23-.37-2.48-.15zm-632.68-49.2l.63-.6-.92.34s.33.2.33.18zm-603.2-164.52l.88.34-.63-.58a2.83 2.83 0 0 0-.25.24zm-11.33-.53l-.82.3 1 .32-.63-.8zm1334.8 164.8a4.12 4.12 0 0 0-.23-.47l-.32.72s.53-.22.55-.25zm88.5.53a3.88 3.88 0 0 1 .4-.49l-.87.23zm439.52-97.42c-.1.43-.32.8-.4 1.22 0 .14.3.35.48.52l-.46-2.06zm25.42 1.16c-.26-.14-.53-.26-.8-.38l.42.77zm-95.27-42.87a6 6 0 0 0 .19.61l-.43-.3.58.15s-.3-.43-.34-.45zm-399.8 158.9l.73.26-.52-.53s-.22.27-.2.27zM380.73 151.74v-1a3.81 3.81 0 0 0-.17.54 3 3 0 0 1 .17.46zm8.42-.56l-.36-.17zm264.42-32.8l-.68-.08.27.73zm1636.6 1.7l-.13-.57-.25.75zm-1593-.1a.84.84 0 0 0-.26.23l.67.1zm1593 .1l-.94.1.57.07zm-11.4 3.15l-.77-.24.48.8.2-.87c.01.02.07.32.07.32zM616.87 166.4a6 6 0 0 1 .48-.52l-.93.27zm11.25-1.64l1.2 1.92.53-1.17-2-.43zm-183.52 4.37l.72.1-.27-.85zm247.9 3.1c-.94-.14-1.88-.3-.23 0-1.4-.94-.6-.4.2.15zm1521.66 2.94l.86.32-.6-.6a3.33 3.33 0 0 0-.25.28zM348.58 201.38l-.63-.77.3.63zm0 0l.7.16-1-.3a2.68 2.68 0 0 0 .32.12zm7.7 7.73a4.63 4.63 0 0 0 .48.4v-.77c-.02-.01-.44.33-.46.36zm-24.36-57.57l-5.48.07s.2.17.23.15l5.1-.05s.24-.18.18-.18zm57.18-.38a2.68 2.68 0 0 0-.33-.14 2.68 2.68 0 0 0 .35.13zm12.45 3.54l.47-.3zm8.46-.2l-.2-.74.05 1.1a3 3 0 0 0 .14-.37zm-8-.1a2.31 2.31 0 0 0-.29-.43c-.07.25-.13.5-.2.75a5.71 5.71 0 0 0 .52-.33zm55.62-1.82l2.32 3.65.44-.4-2.57-3.55zM2091.3 13.32l.72.3c-.1-.3-.2-.57-.3-.85l-.8.47zm-51.76 1.9l-.36.34zM1923.07 36.1l3.17-.56a1.39 1.39 0 0 1 .1.21l-3.33.1zm45.7 1.53l-.48.65.85-.4s-.38-.28-.37-.26zM1557.1.92a5.77 5.77 0 0 1-.4.68l.9-.52s-.53-.18-.5-.16zm-18.47 8l.18-1.92-.52 1.47zm24.2-4.1V8.1l-.15-.43.73-2.38zm-24.23 4.02a3.73 3.73 0 0 1 .6-.05l-.92-.28zm24.08-1.18h-2.73l-.18.4 3.06.05zM910.75 12.5l-.87-.24 1.1.8zm1180.6.83c-.14-.1-.33-.22-.52-.34l.1.23zm-1180.6-.84a4.34 4.34 0 0 0-.56.33l.82.24s-.24-.56-.26-.57zm217.46 4h2.73l.23-.44H1128zm298-.58l-.58.15a3.57 3.57 0 0 0 .28.27zm190.25-1.4l-.1.83.8-.3zm423.07.68l-.2.7.4-.48a3.63 3.63 0 0 1-.58.16l.42-.35zm250.23 97.25l-.28-.7.2 1.08a2.87 2.87 0 0 0 .12-.34zM2137.88 54.1a4 4 0 0 0-.55.25l.82.24a4 4 0 0 0-.27-.49zm115.2 13.32l-.94.23 1.07-.22zm0 0l3.57 4.4a1.29 1.29 0 0 0-.16-.18l-3.3-4.22zM36 431.14l-4.24 1.13a2 2 0 0 1-.36.08l4.86-.93-.26-.28zm2230.56 3.38l-.42-4.66s-.16-.22-.16-.2l.63 5.13zm-47.07 2.37l4.43-2.95-.2-.2-4.08 2.57zm47.07-2.37l4.3 1.44.1-.4-4.33-.8c-.02.03-.07-.24-.07-.24zm-47.06 2.34a6.1 6.1 0 0 1 .71.39l-.58-.94c-.01 0-.15.58-.14.55zm51.35-.9l1.9 3.67.33.3-2.15-4.33c0-.03-.1.4-.1.4zm2.23 4c.1.06.2.14.3.2l-.6-.5s.32.25.3.23zM35.7 409.3a1.26 1.26 0 0 1 .29.14l-.5-.48zm382.93 83.9l.8-.44-.83.14zm0 0l3.3 4.05a3.13 3.13 0 0 1 .36-.19l-3.73-4.15c.04-.01.07.3.1.28zm52.48 2.2a4.09 4.09 0 0 1-.33-.54l.06.94.3-.4zm-269.52 9.18l-.32-.33zm2155.72-.76l.63-.25-.35-.12zm-2155.75.73l.4-.34h-.68zm198.54 2.8h-.33zm-29.07-1.66l-.6.7.6-.47s.08-.28.06-.25zm29 1.65l-5.42.5s.18.17.2.15l4.94-.6a1.84 1.84 0 0 0 .36-.05zm2012.36 9.28l.8-.37-1-.25.64.77zm-1780.32 9.3l1 .18-.64-.42a3.65 3.65 0 0 0-.29.23zm1767.45.34h3.15l-.33-.55-2.54.1zM398 528.37l.78.6-.5-.53s-.28-.1-.28-.06zM2166.7 267c1.88 0 3.74.07 5.6.1 0 0 .16-.23.15-.25h-5.92c0-.02.16.16.17.16zm-2024.46 7.25l-.3-.9-.34 1.1.77-.72-.14.5zm15.8-.4a6.05 6.05 0 0 1-.63-.4l.47.94zm-50.87 3l.2-.22-.5.32a1.68 1.68 0 0 1 .29-.1zm18.62-.65l-.57.37.9-.1s-.35-.3-.34-.28zm5.87 1l-.26-.84-.32 1c.24-.22.48-.43.73-.7zm53.22-1.45l-6.36-.13 6 .24a1.51 1.51 0 0 1 .36-.16zm90.34 1.5h2.8l.16-.4H275zm64.6-64.3l1.85.5c0-.4.07-.8.1-1.2l-1.6.37zm0 0a3.1 3.1 0 0 1 .41.59l-.08-.9zm1811.6 9.45l-.67-.07.26.78zm-7.85 11.05c.3-.3.55-.5.8-.7-.16 0-.37 0-.46.1a6.1 6.1 0 0 0-.59.82 1.17 1.17 0 0 0 .29-.29zm27.2 21.6l-4.08-1.8s-.1 0-.08.06l4.36 2.15zm.17.36a1 1 0 0 1 .34 0l-.5-.38s.24.34.24.3zm-1830.5 61.07a2.64 2.64 0 0 0 .46-.42h-.8s.32.4.35.42zm1840.82 3.7l-.18-1.9-.23 1.56zm0 0a3.2 3.2 0 0 1 .54-.32h-.92zm-1857.87.74a4.4 4.4 0 0 0-.36.52l.7-.06s-.34-.47-.37-.48zm16.6 2.84l.1-.74-.74.27zm1791.2 28.66l.4-.28-.75-.06zm-.34-.34l-.22 2.22.57-1.87zm74.14 16.7l-.26.32zm3.23 3.47q-1.62-1.73-3.22-3.46s-.27.32-.27.3l3.2 3.4zm1.83.1l2.65-.06.4-.2-3.1.06zm3-.27l-.1 3.2-.33-.2c.34-.25 1-.6 1-.74a15 15 0 0 0-.93-2.05zm-2066.5-85.5a4.79 4.79 0 0 1 .21-.64l-.76.56zm78.92-1.3l-3-.08-.1.3h3.2zM715.05 128.5l-2.44-.4-.44.48 3-.05zM2428.53 535l3.15-.06zM1687 791.36l-.06 1 .4-.7-.35-.3zM383.46 503.72l-3.1 3.28zM1900.38 99.34a14.1 14.1 0 0 0-1.75-1.13c-.1 0-.48.57-.73.88l1.65 1.1zm-15.3-1.15c-.28 0-.6.5-.9.77.27.3.52.85.8.87s.6-.5.9-.77c-.27-.3-.52-.85-.8-.87zm-1112.37 78l-.06-1.22-.8.8 1.13.15zM519.85 416.72c-.56.56-1.13 1.1-1.7 1.63l1.43.42-.1-2.44zm-31.13.2l-5.67 5.95h3zm292.5-244.37h10.17l-.74-4.33-9.44 4.36zm-242.5 104.1l-3 6.13 3-.06v-6.07zm176.4-148.14l-5.64-5.93v3.1l2.7 2.87zm1193 573.56a5.2 5.2 0 0 1 .26.85c0 .42 0 .84.1 1.33l45.34-2.92 49.63-4.72c14.25-1 28.55-1.28 42.83-1.6 21.06-.46 42.14-1.38 63.18-.8 33.55.92 67.07 3.26 100.62 4.34 34.62 1.12 69-8.32 103.74-3.54 2.1.28 4.56-2.36 6.84-3.63l-.16.4h3.24l-.2-.37 25.75-10.45 1.74 10 13.38-3.78 1-4.5-23.67-5.68.4.55-1 2.18-2.15-2.18.35-.54-17.6 6.14-11.27-8-2.63 7.4c-11.74-2.13-22.45-16.22-30.35-2.94l-22.82-2.92c-2.22-.33-4.33-1.4-6.5-2.14l-.27.45-32.27-.36.1.14-2.1 2-1-2 .17-.27-13 3.52.17-.38-3.18-.07.13.4-35.95 4.23h.93l-.8.18c-.78-.94-1.63-2.78-2.33-2.72-21.25 1.8-42.5 4-63.86 2.47-19.2-1.34-38.92-.3-57.48-4.75-19.83-4.74-39.3-4.36-59.07-4.1l.34-.65a2.84 2.84 0 0 1 .18.39c-.64-.6-1.25-1.78-1.9-1.8l-94.38-2.88c-4-.13-8-.9-12.05-1.38l.26-4.15c12.8-.66 25.64-.78 38.37-2.1l80.4-9.33-.4.74.6-.27a3.18 3.18 0 0 1-.69-.18q20.4-.32 40.8-.56l2.58-1.86-.8-.2a1.34 1.34 0 0 0 .41 0c.2.76.4 1.55.58 2.35-1-.17-1.9-.34-2.9-.57 9.62 1.32 19.26 2.9 29 3.84 1.15.12 2.6-3.1 3.9-4.78h3.03c8.27 9.14 15.7-.3 23.53-1.2l-.06.67a1.87 1.87 0 0 1-.34-.29c1.67 1.94 4.22 5.9 4.83 5.6 12.76-6.6 26.67-4.8 40-6.76 5.35-.8 10.57-2.65 15.86-4l6.4-.92c0-.84.06-1.68.1-2.52h-1l1.24 2.34-7.1.7c4.38 3.23 8.55 12.26 13.5.55l.2.3V641l-.2.5 1.07-3.82 2 3.88-.34-.47 5.54.1-.33.28h3l-.28-.26 4.57 5.43 4.3-6h-1.76c.17-.08.4-.27.5-.2a9.92 9.92 0 0 1 .9.59c.9.6 1.8 1.22 2.67 1.84l-.46-.25c9.24-1.05 18.48-2.22 27.74-2.88.6 0 1.44 3.92 2.17 6l-.13-.2 15-7.22-.3.35 3.12.05-.3-.4 4.47 3.5-.38.26c6-8.57 11.8-5.3 17.48.48l-.4-.3 8.48-8.06 8.23 6.38.26.5 12-1.12-.5-.2c2.15-.74 4.28-2 6.45-2.1 4.22-.12 11.4 2.08 12.2.46 4.58-9.38 8.63-1.3 12.8-.47l-1.6-2.2c.3.2.72.34.9.64a9.55 9.55 0 0 1 .48 1.38l35.13.06c2.08-6.75 2.08-6.75 7.1-5.34l-.33-.3 21.48-8.43.35.43-26.5-10.36 14.74-7.15H2341l.54 13.26.77-.06a1.52 1.52 0 0 0-.34.33c-2.37-3.23-4.53-6.73-7.24-9.65-2.4-2.6-5.3-6.27-8.2-6.5-16.53-1.28-33.15-1.23-49.68-2.6-6-.5-11.84-3.66-19.77-6.26l24.07-7-.25.22c1-1.72 1.85-4.83 3-4.93 9.23-.86 18.53-1 27.78-1.7 5-.37 10-1.34 18-2.44-4.2-4.28-5.56-6.7-6.57-6.53-25.75 4-51.6-2.44-77.36 1a7.6 7.6 0 0 1-4.89-1.24c-9.38-6.37-19.53-3.88-29.56-3.33-6.7.37-13.4.17-20.08.64-3.6.25-7.16 1.38-10.73 2.12l.8-.34a3 3 0 0 0-.41.2q-44.16-2.26-88.24-4.62c2.2-3.07 4.53-4.68 6.93-4.82l83.86-4.68c27.97-1.1 56-2.3 84-1.85 19.9.32 39.4.66 58.94-5.06 11.1-3.25 23.08-3.2 34.66-4.56l42.55-4.9-.33.3-3.43-6.68.4.34-3.16-3.35.32.38-11.4-10.72 4.5-8.8-11.74-2.35-1.93 14.58-6.3-12.3.33.33-13.5-9 .26-.34c-9.24 8.36-18.06 8.3-22.4 1.76l-20.53 1.4-8.1-17.82 49.23-7.57c2.76-.47 5.2-3 7.8-4.58l-1.72-2.6-46.53-3.9 23.8-5.47-.13.34 3-3.24-.26.46c-14-3.9-27.9-9.88-42.15-11.23-24.52-2.3-49.27-1.83-73.93-2.3-12.75-.24-25.5 0-38.25 0v-3.53l4.22-3.06-.13.32h3.17l-.12-.36c8.18 2.1 15.2 2.2 19.67-7.82 1.5-3.34 6.58-4.87 10-7.23l-.4-1.1.4.72-.44 7.37-.22-.2 42.27-4.1s.15.26.16.22c8.68 1.1 20.1-7.36 24 6 2.44-1.38 5-3.66 7.95-4.34 6.67-1.54 13.5-2.3 20.25-3.37l-.33.37c7.32-20.58 6.75-22.34-14.18-23.17-30.13-1.2-60.3-.85-90.46-1.7-16.6-.47-33.2-2-49.8-3.1 0-.73.1-1.45.14-2.18l106.44-9.07.85-4.36c-3.45-1.8-6.77-4.8-10.37-5.23-15.94-2-32-3.17-48-4.66l.33.2-3-3.15.06.2a3.57 3.57 0 0 0-2.12.15l.3-.26-6.5 5.4c-3-3.65-6-10.5-9.14-10.58-24.58-.56-49.1-7.32-73.75-1.5a2.65 2.65 0 0 1 .45-.22l6.5-10.7-12-10.5 38.67-2.17 6.92-18.5 4.3 1.25-2.25 16.8c4.1 0 6.88-2 8.12-4.82 1.4-3.2 1.44-7.07 2.08-10.65l-.93.43a7.07 7.07 0 0 0 .44-.63l4.16-4.45c-1.2-1-2.32-2.65-3.65-2.9-7.8-1.42-15.24 1.83-23.67.38-11.86-2.06-12.23.38-13.14-12.08l19.8-7.42-.22-3.3-31.3-7.23c7.7-7.13 14-13.4 20.8-19 2.88-2.4 6.72-3.54 10.12-5.25l-.9-.1c.22-.05.45-.1.67-.17l13 2.75-.16-.2.07-13.62h.1a4.68 4.68 0 0 0-.79 1.41l.32.34c-8.58-2-17.1-4.5-25.8-6-13.38-2.38-26.86-4.13-40.3-6.14l-.06-4.18c10-1.3 20-2.3 30-4.12 2.76-.5 5.12-3.52 7.67-5.38-2.3-2.85-4.14-7.35-6.95-8.2-5.4-1.62-11.36-1.16-17.3-1.58 1.9-5.63 3.82-10.23 4.85-15 .37-1.7-1.43-3.93-2.24-5.92l-1.6 1.66-1.83-.63 2 .6c-2.36-19.25 11.38-15.37 21.26-16.5 10.54-1.2 10.57-.9 9.75-10.7-17.23-.44-17.23-.44-41.2-16l27.36-4.08c.86-.15 1.28-3.1 1.9-4.76l.36.25h-14.52c6.08 1.15 9.74-15 17.28-2.9l-.24-.38c10.33-.6 22.07-4.77 30.64-.93 11.2 5 16 1.32 21.1-8.1 4.24 13.44 8.45 13.57 20.45 4.9 11 .77 19.47 4.1 24.77 1.07 7.25-4.14 12.6-4.5 20.37-2.92 4.66.94 11-4.73 15.66-8.65 1.1-.9-1.44-6.75-2.3-10.32l.74.2c-.15-.16-.3-.33-.43-.5v.83l12.36-5.16-.07.26 1.27-8.3c-3.27.34-6.45 1.5-9.16.76-4.4-1.2-8.35-4.33-12.76-5.46-9.53-2.43-19.23-4.12-28.85-6.1l.7 2.28c-.13-.66-.25-1.32-.42-2l4.5-8.3-.93.2a7 7 0 0 0 .63-.48q11.88-4.5 23.77-9l-2-7.5.13.17-9.27 3.66.16-.44-3.3.08.17.36-19.35-6.2-17.22 6.8 4.5-10.77-11.28 2.1.93-.6-.64.64-5.53-8.78c-10.48 13-26.24-7.88-35.86 7.9l6.8 6.8 1-.18c1.3.33.32.08-.7-.1-11.06 5.7-12.77-4.78-17.73-15.34l-2.54 17.67-5.13-6.18c-.15.4-.3.8-.43 1.2l.75-.83c-4.83-13.5-6.54.72-9.8 1.25l.75.23a5.81 5.81 0 0 0-.59 0l-6.7.67c-.23-3.9-.26-10.47-.67-10.5-7.85-.52-15.82-.9-23.58.16-2.94.4-5.44 4.5-9.6 8.2l-11.15-10-2.06 6.77 1.35 4.76-1.42-.7-.16 1 1.56-.25q-.53-2.57-1-5.15l-15.3-7.6-20.75 11.9c4.3-14.3-5.33-11.44-13.35-12.67l-.48 11.5 5.07-2.8.58 1.83-5.64.82a4.1 4.1 0 0 0 0-1.31c-.13-.33-.63-.8-.86-.73l-20.52 5.65-17.8-16.42 3.5 20.15-2.14.6-5.07-10.25.3-.33-12 8.56 1.38-14.43-3-2.24-12.63 13.78-1.74-9.32-22.55-2-4.36 12.4-1-16.86-7.5 7.7.3-.4-4.12 7.93-1.56-10.87.13.38-6.12-4.6-5.1 6.9.06.87a2.4 2.4 0 0 0-.32-.43l-3.12-7 .3.33c-3.62 1.87-10.25 5.63-10.42 5.33-6-10.8-13.9-1.28-19.4-.6-7.4.9-12.84 1.4-18.67-3.73-1.1-1-4.36.86-6.63 1.4-3.83-1-7.6-2.46-11.5-3s-8.06-.12-15-.12v-5.3c6.44.4 13 .1 19.25 1.47 2.76.6 4.87 4.57 7.27 7l-3.93-6.3 1.56-3.9 19.3 5.6 2-7.4 54.4-3.23c1.65-.14 2.88-5.83 4.3-9l.1.24-3.33.1.06.25c-15.76-1.13-32.26.47-47.1-4.08-18-5.52-35.3-10.22-54.26-9.24-22.3 1.14-44.68.25-67-.15l-90.2-2c-11.84-.08-23.7 1.8-35.53 2.8l.33-1-.74.24a12 12 0 0 1 .92.52l-27-9c-.3-.1-1.3 2.38-2 3.66l-.45.74.16-1c-6.27-1.32-13.22-7-17.7 3.15a32 32 0 0 0-3.85-4c-1.55-1.16-3.48-2.77-5.12-2.62l-43.22 4.5v.8a1.65 1.65 0 0 0-.28-.36l.63-9.15-15.43 7-.6-2.57-20.44 4.45-.36.68s.16-.5.14-.5l-3.8-8.56-9.32 4.3c-3.36 1.47-6.76 2.84-10.13 4.25l.35-.32c-2.44 0-4.88.1-7.3 0l-37.92-2.27.3-.4-13.2.76-15.28.7.88-.2s-.65.34-.66.36l-65.12-3-99.54-1.45c-5-.1-9.86-2.6-15.8-4.28-7.78 19.18-11.32-11.7-18-3.8a17.7 17.7 0 0 1-5 7.74c-.25.25-1.44-.58-2-.83l-2.4-11.5-3.14-.43-5.13 16.58-26.43-10.36-.3 1.54 4.87 3.56-2.55 4-17.45-12.57-8.88 13.78.23-.44H1128l.2.43-12.65-10.88-3.25 8.1 2.86.5-1.07 1.6-1.54-2.4-9.68 1.94v4.25l-.32-.26c12 1.54 23.9 3.63 35.92 4.44 9.62.64 19.36-.86 29-.36 15.06.78 30.08 2.45 45.12 3.74l-.4.38 3.2-.1-.3-.23v6.07l.34-.28-.42 3.48.66.06a1.07 1.07 0 0 0-.31.24c-15.2-7.4-9.44 5.6-10.46 12.65-2.54 1.07-5.3 3.17-8.15 3.3l-76.33 2.53c-31.64.37-63.3-.08-94.94-.1h-96L829.62 54c-32.88.18-65.75 1.5-98.63 2.42l-98.94 3c-2.36.1-4.65 2.4-10.2 5.5 63.82 14.93 125.16 7.95 185.8 10.93v4.4l-157.38 4.4v4.32l48.9 3.3 6.26 29-.17-1.18c.52-2 .17-.65-.14.78-.26 1.66-.56 3.26-.87 4.86h3l2.6-2.9c3.9-2.2 8.26-8.76 10.93 1.25l6.48-.57c0 .68-.07 1.36-.1 2l-6.14-1.5-5.93 4.4-2.44-.4-3.17.1-1.15 2-1.08-2-2.65-2.82-11.28 5.12-2.95-2.9q3.43-3.8 6.88-7.6l.37.3c4.4-17.46 1.72-23.25-11-23.73q.5 4.53 1 9l-2.38.7-4.23-10-9.37 2v-.18q-1.78 5.77-3.56 11.53h-.2l15.3 20.45c-7.7-1.73-12.87-4.82-16.22-3.32-19.96 8.94-40.64 1.32-60.96 3.96-21.4 2.73-43.44-.67-65.2-.7-28.4 0-56.8 1.33-85.16.77l-132.4-4.17c-21.16-.4-42.38 1.3-63.55 2.47-2.38.13-4.64 2.9-6.95 4.46l5.14 2.8-1 .14s.63-.37.63-.4c18.85 2.1 37.7 5.72 56.54 5.7 8.8 0 11.95 1.5 12.57 10a1.73 1.73 0 0 0-.21-.17c1.5-7.43 4.8-11 12.88-9.67a137.13 137.13 0 0 0 27.31 1.62l153.63-6c10.08-.35 20.23 1.32 30.34 2.06-2 3.5-4.48 5.6-7 5.72-24.23 1.26-48.5 3.3-72.7 2.57-8-.24-8.83 3.2-10.88 8.28l.42-.4-1.07 9.84h33l4 7.46-.35.33c2.14-2.17 4.22-6.16 6.42-6.24 17.93-.62 35.88-.2 53.8-.72 18.43-.56 36.83-1.92 55.26-2.67 1.77-.08 3.6 1.7 5.4 2.62l-.47-.27 11.7-1.4-.24.32c2.5-.25 5.2-1.2 7.52-.6 8.38 2.14 16.64 4.8 25 7.28l.7-3.4-.8 3.36 32.22.62v-.13l15.77-5.9.2-.17c1.07 1.42 2.35 4.2 3.12 4 3.35-.67 6.55-2.2 9.8-3.42l-.4.3 3.36-3.8c-.4 7.67 7.1 7.32 10.2 11.45l2.4-11.83 3.1.2 1.62 11.85 6.5-3.82.44 2.88-14.12.72c-2.37 1.3-4.73 3.7-7.1 3.72-23.52.17-47-.2-70.55-.13-23.16.08-46.38 1.6-69.44.16-7.64-.47-15 9.45-22.4.43l-1.26 1.65 1.55-1.3c-3.92 2.57-8.7 4.34-11.6 7.85-7.46 8.94-17.78 9.94-24.4 3.35-22 8.23-44.07 3.64-65.3 9.13l20.74 1.73c-13 10.05-31.4 3.06-37.1 21.2l3.2-.67.14 1.24c-1-.3-2.07-.6-3.16-.84l-1.94-20.3 10.7-4.3-1.36-4.2-15.42 5.66c4.4 13.1-6.1 7.56-10.63 9.4l.9 7.4c-3.2 1.66-9.7-12.95-8.6 2.62l4.32 5.73.53-.54a3.24 3.24 0 0 0-.2.33 4.93 4.93 0 0 1 0 .76l.73.06.85 3.34-1.16.07.34-3.5c-8.3 4.33-4.87-2.9-5.4-6.27l-16.36-6 2.6 13.1-1 1.53h.94l-.4-1.87q-4.68-7.9-9.4-15.8v-.1q-3.87 9.28-7.75 18.56l-.74-.36.87.16q-3.92-5.83-7.85-11.65l-.1.92c.07 1.1 0 .13-.07-.85l-5-8.14-2.8 24.42-3-.3-.32-7v.08l-6.16-1.54.33-.32c-1.1 3.12-1.53 6.92-3.5 9.18s-5.57 3.1-9.1 4.9l-4-8.88.3.36c-2.68 3.84-5.26 10.9-8 11-18.73.66-37.5-.16-56.28-.5v.1c-19-.24-38-1.12-57-.48-12 .4-24 3-36 4.7l-1.68 1c.65-.23 1.3-.46 2-.66-1.07-.73-2.18-2.17-3.24-2.12l-68.3 3.47c-6 .38-12 2.3-18 3.53q.3 2.72.64 5.43l107.3 3 94.15 2.2c10.4.26 13.48 6.13 11.66 13.95l-38 3.64.16-.4H275l.2.4-6.92-5.48-.5 8.67-.3-.4c6.92 1.6 13.8 3.46 20.8 4.7 6.1 1.08 15.38-1 17.86 2.6 5.95 8.57 11.48.57 17 2.2l4.1 11.46.06-.36 11.7-5.36 6.75 10.13c9-1.27 16.75-2.8 24.52-3.1 1.82-.07 3.78 4.13 5.68 6.37l-.46.32c6.2-2.1 12.27-5 18.6-5.95 3.2-.47 6.84 2.64 10.3 4.14l-7.87 7.6q1.35 2.24 2.72 4.45l-2.1.74-.34-5.17c.28-4.28-.7-5.7-5.55-6-.9-.06-2 3.22-3 5l5.47 5.72-3.72 2.04-1.27-8.23-7 6.5-.43-4-16.43 2.4-1.87-4.4-4.77 7-2.6-6.9-3.05 2.55-1.16 5.5-11-5.4-.32-.4 6.76 15.3c-26.55 1.3-50.05 3.1-73.57 3.43-39 .55-78-.7-117 .44-22.07.66-44 4.67-66.08 7.06l-77.33 8.2c3.32 6.85 4.17 11.28 5.94 11.75a102.24 102.24 0 0 0 21.4 3.36c29.67 1.3 59.35 2.92 89 3 30.4.06 60.8-2.4 91.2-2.27l185.43 2.34 191.74-.07q104.4-.06 208.78.07c2 0 4.1 2.4 6.13 3.66l3.06.64q4.7-1.65 9.38-3.33l.53 2.23-10.3.74-.75 7.14-3.42-.76q.93-3.48 1.87-7c-10.5-5.28-17.65 9.92-28.5 5-7.33-3.3-15.47-5.7-20.25 5.12-.35.8-2.32 1.12-3.55 1.13-19.7.12-39.48 1.1-59.14 0-34.3-2-68.53-6.16-102.85-7.52-17.72-.7-35.55 3.28-53.38 4.14l-100.48 3.56-120.1 1.4c-5.75.12-11.44 3.66-17.17 5.62l.12-.88a4.94 4.94 0 0 1 .37.56q-9-2.4-18.1-4.84l.38 1a7 7 0 0 0-.59-.49 13.09 13.09 0 0 0 .62-2.2c0-.26-.6-.87-.88-.85-12.94.86-25.87 2.52-38.8 2.52-27.4 0-54.77-1-82.16-1.27-23.35-.22-46.73-.58-70 .33-11.32.45-22.54 3.67-33.8 5.63l-.24-.46a2.74 2.74 0 0 1 .59.06l-11.5.65.83-.26a4.07 4.07 0 0 0-.33.48c-12.07.25-24.2.05-36.26.92-5.95.42-11.78 2.83-17.66 4.34 2.6 4.47 5.13 5.73 7.8 6.45l27.93 7.22-.22-.38c22 .34 44.42-1.5 64 13-6.07.72-13.15-3.28-17.3-1.06-12.38 6.65-24.7 3.23-37.13 3.6-3 .08-5.86 4.53-8.78 7l-.28-.3c22.9 1.84 45.9 4.4 69 5.42l109.56 3.16c25.1.48 50.22 0 75.33.2l62.13.87c16.78-.14 33.57-2.25 50.32-1.9 20.8.42 41.58 3.37 62.38 3.6 28.62.33 57.26-1.16 85.9-1.18 6.26 0 12.52 2.9 18.77 4.45l2.2-.15a40.39 40.39 0 0 0-1.95-.17c-4.82 1.16-9.6 2.58-14.45 3.4-9.15 1.53-18.35 2.72-27.53 4.05v.87a4.12 4.12 0 0 0-.24-.52c-.85-1.4-1.67-4.06-2.5-4.06-14.12 0-28 3.7-42.27 2.87-8.54-.5-17.23 2.62-25.9 3.2-6.55.44-13.2-.28-19.77-1-16-1.68-31.83 1.5-48.17-.34-26.17-2.93-52.87-.3-79.34-.25-23 0-46-.78-68.92-.3-27.56.58-55.1 2.14-82.66 3.27l-71.64 2.9-.7 5.3 16 2.54-2.23-1.65.9-.87 1.08 2.77 7.48.47c-.43-1-.87-1.94-1.3-2.9L110 467c5.34.3 10.7.34 16 .92 5 .56 10 1.67 15.07 2.53l1-1.93.78 1.38-1.95.3 17.7-.86c.7-.23 1.43-.48 2.15-.67a6.53 6.53 0 0 1 .27.81c-.86-.13-1.73-.27-2.63-.45 6.37 6 7.85 6 11.67.18l-.9.5a5.92 5.92 0 0 0 .42-.68l24.22 4.75-.32-.46 2-2 1.06 2-.4.55c9.84-.26 19.7-.92 29.54-.7l62.1 2c1.22 0 2.5-2.1 3.74-3.24l-.86.26a3.48 3.48 0 0 0 .38-.48l5 1.1-.1.33h3.23l-.12-.33h31.38l-.17.36h3.13l-.18-.4 31.44-2.8-.16.26h3.18l-.16-.4c6.3.57 12.6 1.63 18.92 1.63l151.43-.28 111.68.8h112.55c-5.57 6.05-8.47 12-11.85 12.33-9.8.93-19.9-1.54-29.7-.6-20.22 2-40 8.4-60.8 4.65-8-1.44-16.7 1.5-25.1 2.45l.83-.07a4.1 4.1 0 0 0-.48.37c-5-1.24-10-3.62-15-3.6l-79.38 1.3c-9.84.16-19.7 0-29.83 0l-2.32 8-1.75-.5 1.88.44c-2.54-2.2-5.27-6.42-7.68-6.22-10 .83-19.86 3-29.78 4.68l-.3.43c-2.4 1.06-5.4 3.7-7.07 2.95-13.82-6.2-13.74-6.38-16.74 13.58l194.74 8.23c-3.48 1.54 1 20.12-9.68 5.35l.32-.23c-8.16.7-15.3 3.8-14.7 13.82.5 8.2 6.76 7.7 12.55 5.9l-2.8-7.86 2.8-.43q0 4.1 0 8.23a9.15 9.15 0 0 0-1.75 1.23 1.69 1.69 0 0 0 .19 1.24c5.6.9 11.16 2.22 16.77 2.4 11.23.37 22.48.1 33.72.1v6.75l-78.3 2.82c-5.63.34-11 4.9-16.54 7.5l1.8-.77-1.76.8c-1.56-1.65-3-4.6-4.7-4.72-5.43-.36-11.27 1.7-16.3.24-6.8-2-9.78-.22-10.8 6.75l.8.15c-.2 0-.4.06-.6.1-2.7-5-17.75-7.56-22.17-5.2-9 4.83-18.55 8.3-27.82.05l.26-.23c-3.8-6.32-8.48 12-12.08-.48l.5.2-16.06 7.23.12-.34-3.32-.1.1.36-9.9-9c6.5 16.35-2.82 8.2-7 8.12v-.1a15.22 15.22 0 0 1 .4 2.4c0 .23-.8.75-.85.7l-9.95-9.77 2.84 13.3-17.74-10.55c-.27 13.3-8.26 9.37-15.9 6.3l-.2-.2-6.3 6.22-4-15.93c-.77 13-.77 13-8.3 10l-.1-.08-7.64.27-.2-.08c-12 8.1-20.9 6.52-25-4.4l.35-.3c-7.56 17.2-16.9 9.67-26.2 3.2l-2.6 9.7 44.16 2.38 86.8 2.88c.83 0 1.55 3.4 2.3 5.2l-.35.37 1.93-2.53 6.47 1.16 18.54-.1-2-.44 1.8.74 4.88-2.1c-.5 7.55-.5 7.55-21 11.84q-.94-5.13-1.9-10.28l-6.85-1 1.12 9.18-10.3.37c-3.43.2-7.08.52-10.63.78l.3-.3c-3.38-.8-6.76-2.37-10.12-2.3-13.95.3-27.9 1.44-41.84 1.53-8.5 0-17-1.75-25.52-1.82-8.7-.08-17.4.94-26.1 1.48l-1.7.6 1.7-.7-15.13 1.26.16-.4h-3.13l.24.44-5.15.07.25-.47-3.37.07.3.44c-18.47-2.53-37-2.64-55.57-1.7v1.14l-.15-.8-.84-7.73c-6.13 10.26-12.2 11.74-16 6.4h-62.2l1.7 3.1-31 18.93c5 1.48 8 3.1 11.1 3.18l140.2 3.1c35.93.26 71.88-1.57 107.83-1.57l137.35 1.48q39.93.63 79.83 2.34c3.28.14 6.44 3.5 10.78 6l-30.56 8.7v-.7a3 3 0 0 1 .46.34c-3.6 0-7.17-.13-10.74-.2l-.7-.1s.9.38.92.4l-18.9-2.1c-22.28-2-44.53-4.94-66.84-5.68-35.63-1.16-71.3-.85-106.95-1.16l.08-.3h-3.13l.12.3-41.85.7c-1.88 0-3.78 1.28-5.62 1.14-1.35-.1-2.6-1.53-3.9-2.36l-.25.47-6.1.25.23-.4h-3.15l.2.3-24.66.9.08.2-7-1.23.14-.42-1.24 3.2-1.8-3.18.14.4-23.57 3.18.27-.4-3.13.06.27.36-32-.92-10.84-.38.18.32-27.72.54c-7 .25-13.95.86-20.92 1.32l-.23.26-9.7-.75.9.15a3.73 3.73 0 0 0-.56.2c-16.8 1.8-34.6-3.08-53.55 8.38 7.3 4 11.7 8.27 16.3 8.55q46.65 2.85 93.38 4.14c20.4.54 40.82-.3 61.24-.27l84.62.53c8.8.14 17.6 1.62 26.4 2.5a229.74 229.74 0 0 1-51.2 9.56l-121 6.5c-4.53.26-8.93 3-13.4 4.65l.57 4.44 25.2 1.8 1-4.66 1.17 4 15.3-4.53-.83.1a3.59 3.59 0 0 0 .4-.38l10.26 6.6s-.24-.32-.23-.32c14.74-.12 29.3 1.4 44 2.83 33.7 3.25 67.74 3.93 101.63 3.83 39.42-.12 78.83-2.4 118.25-3.35l73.24-.86c20.85-.83 41.64-3.2 62.45-4.9a4.23 4.23 0 0 0-.3-.3l23.22 1.8-1.86 1.3 1.6-.94c2.85-.1 5.64-.13 8.43-.16l-.82.1a6 6 0 0 0 .51-.37c2.6 1.23 5.18 3.45 7.84 3.58 16.8.76 33.6 1.1 50.42 1.5l51.06 1c13.14.53 26.24 2 39.37 2.88 5.47.36 11 .26 16.45.37h-.72a1.29 1.29 0 0 0 .3-.27c5.36 1 10.74 2.85 16.12 2.86 19.37.06 38.76-1.36 58.1-.62 24.22.92 48.37 3.64 72.58 5 3.2.18 6.58-3.13 7.3-3.5 7.67 2.75 13.45 6.36 19.38 6.67 17 .9 34.1.42 51.18.64 5.52.07 11 .8 16.54 1 4.8.15 9.62-.07 14.43-.13l-1.45-.62c.25 0 .63-.15.73 0a4 4 0 0 1 .41 1c5.12-.2 10.25-.23 15.35-.66 6.78-.57 11.1 1.22 9.75 9.8-.48 3-.56 6.1-1.15 13.07l10.14-20.73c10.7-.74 22-2 33.26-2.14 7.6-.07 15.2 1.5 22.82 2.34l1.15 8c12.3-15.22 26.76-12.43 43.3-8.77 11.66 2.58 24.74-3.1 37.24-3.57 17.22-.65 34.5-.1 51.75.38 9.64.27 19.26 1.46 28.9 2.23l30.87 2.48c-14 10-24.53 8.2-30.5-2.9-8 10.72-17.24 14-29.17 6.7-1.55-1-5.6 3.83-8.27 3.57-6.73-.68-13.32-2.72-17.7-3.7-5.1-.33-10.26-.9-10.3-.63-1.7 11.93-8 1.3-11.85 2.43-4.12 1.22-9.13-1-14.24-1.75l2.22 7.76-8.6-7.6-25.4 3.16c-3 .42-6 1.37-8.93 2.08l1-.13-.74-.24a2.09 2.09 0 0 1-1.65.68 1 1 0 0 1 .25 0c-2-1.4-3.94-3.74-6.13-4-3.44-.47-7 .44-10.77.58l-11.13.88-1.27-7.85-10.2 8.73-13.67-4.56-1.32 18.1c81.76 5.5 163.18-2.07 244.2 8-1.57 2.52-3.32 4.52-5.1 4.53l-84.54.12c-27.5 0-55-.8-82.45.47-12.5.58-24.84 5.3-37.25 8.13l.24-.4-3 3.2.28-.57 5.25 6.78-.35-.63h3.22l-.3.56c2.45-.76 4.93-2.3 7.34-2.17l113.92 6.14c19.9.74 39.9-1.23 59.86-1s40.08 2.53 60.1 2.1c18-.37 35.87-1.33 53.86-.43 13.26.67 26.6-.35 39.9-.45l34.8.1 32.76-.12 39.65-1.42 88.74-.22c16.84-.24 33.67-1.65 50.5-2.54l-.3-1.38c0 .22.06.92.08 1.65 12.95.86 24.9-7.92 38.43-4.28 2.72.73 6.73-4 10.14-6.16h0c-.32-1.27-.54-3.62-1-3.66-17.73-1.73-35.46-3.8-53.24-4.64-19-.9-38.07-.62-57.1-.9l-54.33-.85c-18.65-.15-37.3 0-56 0l-.06-3.6 121-10.3-3.12-9.26 9.32 4.6-3.47-10.4c9.14 1.42 9.14 1.42 3.2 10.1a3.55 3.55 0 0 0-.38 2.05l-.13-.4 24.38 3.84-11.12-15.75h12.15v-.35l34.55 1.16c1.42-.5 5.8-3 10.38-3.5l67.62-5.9zM386.48 286.57l.6 2.26 1-.23-.73.42c-.34-.8-.58-1.62-.86-2.45zm-14 2.58l-.73-.75 1.1-.1c.1-.4.2-.8.3-1.2l-.6.9zm304.88 45l.86-.2c-.13.15-.27.3-.4.43zm80.44-29.92l.27.47a8.57 8.57 0 0 0-1.33 0l1 .23c.03-.25.04-.5.04-.73zM435.83 226v1.6l.86-.5-.42.64c-.1-.54-.27-1.14-.44-1.76zm345.07-17l-1.1.28.82 1.6.8-.3-1-.33c.2.26.43.5.65.77a18.28 18.28 0 0 0-.19-1.95zm-174.77 69.4l-5.52 2.48-4.7-.88c-.9-.45-1.73-1-.94-.48l.44.88 5.3.48 5.9-2.65.4 2.88 1.76-.9.86.47-.57-.15-2.9-2.14zm-82.4-5.94l-7.42-2.12.42-1.13 6.9 3.15 6-.07q.86-1.43 1.68-2.85c2.4 2.45 4.73 5.1 7.07 7.73l8.55-9.77 2.55 2.5-11 12.48-.83 2.42-1.65-2.45q-2.25-6.77-4.5-13.53l-1.92 3.56zm30.68-4.64l1.35.4-.87-.44.65-.18a11.26 11.26 0 0 1-1.13.23zM2347 517.3l1.16.9-.72-.18.48.48c0-.27-.08-.54-.1-.8zM620.4 493.2l.28.42a3.33 3.33 0 0 1-.55.32zM150.34 420.3l.82.27-.37-.13a.89.89 0 0 1-.45-.14zm240.57-9.2l.13.34 1.8 1.16-1.47-1.5a3.49 3.49 0 0 0-.46-.01zM2183.34 68.68l.37.88.38 3.15c-.5.3-1 .54-1.84.92l2.3-.46-.46-4zM2063.6 70l-.6-.3.9.23a5.8 5.8 0 0 0 .59-.74l.8.4 1.32 1.14c-.26-.1-.66-.1-.75-.3a4.64 4.64 0 0 1-.23-1.2 19.11 19.11 0 0 0-2.02.78zM730.47 107.27l-.5.67.64.33 3 3.5.56.22-.17-.58-3.1-3.47c-.14-.24-.3-.45-.44-.66zm15.32-4.38c.64-1.27 1.35-2.6 2.05-3.9l-2.63-2.68c1.07-.93 2.17-1.82 3.27-2.7h-4.07v-.12h4l2.68-.6 2.36 3.33.84-.3-.92-.4.46.86-3.1-3.33-5.5 3 2.85 3.24-2 3.32zm52.56-8.4l-.27-1.07 1.88.64a5.25 5.25 0 0 1 .17 1.16c0 .16-.33.3-.5.45l.6-1.78c-.57.16-1.22.38-1.87.6zm-64.5.5l.5.57c-.17-.35-.32-.76-.47-1.17v1.57zM942 161.12l.6.47a11 11 0 0 0-1.51.31l1.33.12zm-161.8-37l.22-2.15c0 1.1.1 2.2.14 3.3l-3 .2V123l2.63 1.14zm1256.1-3.94l-.3-.5a6.49 6.49 0 0 0 .9-.15l-.64-.2zm-1103.15 28.4l.7.14-.38.14zm54.92-4.9l-1.38-.8c.1.33.2.67.3 1l.9-.18-.8.33c.32-.1.64-.2.96-.34zM1991 634.44l-11 5.43.67-.44-.45.66q5.64-2.9 11.32-5.8l.2 2.57 1.56-.77.84.44-.5-.2c-.94-.6-1.8-1.24-2.66-1.9zm-1147.64 49l-.28 1.2 1-.36c-.2.2-.37.38-.55.58a35.57 35.57 0 0 1-.2-1.44zM816 684.82c-1.52-.6-.6-.23.3.13a5.31 5.31 0 0 0 1-.68l-1.56-.46.55 1c-1.1.07-2.1.2-.3.01zM592 596.4l.56.35a9.56 9.56 0 0 0-1.1-.1l1 .65zm320.3 74.47l-.5-.74V669c0 .07-.12.7-.23 1.35-.15.1.64.52.64.52zm1296.38-127.5l-.9.93v-1.24l-2-.37 1.1-1.27.62 1.94zM955.77 668.1c-.23.2-.45.4-.7.6-.07.06-.2 0-.33 0l.68-.47a.72.72 0 0 1 .35-.12zM528.3 203.14c.1-.15.5-.1.76-.14l-1.3.9c0 .86-.07 1.73-.1 2.6l-1.4-.67 1.8-1.58a3.53 3.53 0 0 1 .22-1.1zm385.17-54.23l-6.3 3.38-.25-.84.82.66c1.9-1 3.82-2.1 5.75-3.16v6.5c-.52 0-1 .06-1.54.08.1.37.2.73.32 1.1l1.18-1.1zm7.4 11.4c-.8.66-1.63 1.3-2.4 2 0 0 .32.8.6.9s.78-.13 1.17-.22l.8-.28-.44.53c.14-.94.2-1.94.27-2.94zM2004.93 649c-1.47-.77-.4-.2.67.36l-.55.42.18-.8c-1.08.03-2.23.03-.3.03zM762.65 163.24l1.2 3-5-2.4h-6.15c4.5 6.83 4.5 6.83 28.17-2.33l-8.12 14.75.27-.28c-14.83 6.48-19.73 3.86-20.63-11.06-.17-.28-.35-.55-.53-.83l.3.58a5.89 5.89 0 0 1 .71-.13l-.1-.76h6l5.3 2.5zm58.47 523.7l-.4-2.4h3.14c.9 0 1.77 0 2.63-.07l.76.27h-.58l-3.08-.48zM2206.26 434.2c0-.38 0 .7.13 1.77l-.76-.66v1.53l.65-.8zm78.52 56.45l.6.52 2.15-6.8c-.1-.26-.17-.52-.25-.77l.47.4-2.8 7.54zM732.2 118.76l2.38-.36q0 3.2.1 6.4l5.5-3.86c3.75-.37 7.54-1.06 11.26-.77 4.45.34 8.84 1.5 13.26 2.3l5.08 3.5-1.6 1.7-3.12-5.6c-8.65 7.34-17 8.17-24.8-1.4l-1.2 8.75-6.44-3.23a4.83 4.83 0 0 1 .81-.87 6.29 6.29 0 0 1 1.21-.46q-.06-3.28-.1-6.55zm-55.26-4.57l-2 .32 1.48 2.22.58-.43c1.32-.4.42-.12-.48.15.06-.67.24-1.45.42-2.26zM315.07 284.65l.8.37-.68.07.27-.5c-1.36.15-2.8.28-.38.06zm442 3.94l.5.33h-.34l-5.17-5c0 .28.08.56.13.84l-.67-.85zm-379.8 4.94a7.08 7.08 0 0 0 1.16.14l-.88-.47zm97.72 11.3l-2.33 6.34-1.87-.6 1.3-6.9-7.24 4.33-10.43 14.32 1.37-16.16.6-.62-.23.94 4.78.67-1-4.88.92-.13v4.7c1.5.62 2.95 1.08 4.4 1.54-2.65-9.57 4.27-3.53 6.77-4.7l3.24 1.5 3.4-.92 1.42 2.65-1 .1c0-1-.07-2-.1-3-1.3.18-2.66.5-3.98.82zM2142.73 121.2l-1.54 1-1-2.76-.88.3.46-.13a33 33 0 0 1 2.96 1.59zM876.24 96.48l-17.14-2.6-3.4 2.17-12-2.38.57-1.92L855.6 96l3.87-1.7 16.66 2.14 6.2-.26c.17-1.2.33-2.4 0 0 1.23-2.08.6-1 0 .07zm-87.78-2l-.8-.35c-.1 2.58-.1 5.22-.13 7.85l.94-.6-.55.77-2.74-2.15c.07.3.13.6.2.9l-.4-.46 3-6.3zm6.76 71.87c.67 7.62-3.63 10.83-9.77 11.4-1.25.12-2.8-3.36-4.22-5.18h0l6.4-11.64 7.6 5.46 8.77.1 1.58-5.55 30.34 1.3 4.9 1.43-1.78 3-2.74-4.84c-10.52 3.64-21.1 8.58-31.22-1.1L804 166.5zm-103.7-57.07c0 .55.05 1.1.07 1.64l-4.47-.73c.32 2.14.74 4.38 1.17 6.62l-1.86.08.8-6.58zM1442 714.88l-1.65-1 .7.56-.52.1c1.15.24 2.33.57 1.48.34zm791.66-294.62l.37-.55 3.94-.5-.14 1.2-4.2-1.07zM109.8 416.62l-.57.37-3.3 2.46-.73-2.8 4.37.68zm2073.42 5.22l-2.2.15.87-6.4-.82.7.33-.78 1.82 6.33zM831.5 370.53l2.73-1.25 1.94 6.52.62.07-.45.25zM484 421.47l-.44 2c-7.92-.7-15.9-1-23.7-2.4-2.18-.4-3.8-4.26-5.66-6.53l-1.72-1.7 1.38 2.05 5.33-.78 1.5-2.16.62 1.62-2.47.18q9.3.45 18.7 1l-1.54-4.57 2-.2-.74 5c3.82.08 9.34-9.4 11.18 2.24l9.1 3.87c-.43-1.15-.95-2.38-1.46-3.6l-1.42-1.58 1.43-.26-.33 2.13 7.53 4.75-4.2 5.15-1.74-6.8-11.66 2.62zm176.6 98.13c0 .3 0 .62-.07.93l-5.22-.9-5.5 4.63-1.32-2.94 6.88-1.73zm-99.23-249.8c0 .28-.1.56-.14.83l-.33-.5 2.28 11.63-.66.42.25-.78c-12.33-2.18-.66-7.77-1.4-11.6zM2115.94 71l.84 1.9.52 1.14c-3.52-.58-7.18-1.3-10.83-2l1.48-3.9 9.55 6.17zm87.44 474.06l-10.33-4 .93.26-.65.23c3.87-5.37 7.3-8 10.05 3.55zm49.93 46l.43.48c-1.83 7-4.68 10.64-11.56 2.6l11.33-2.16c-.07-.26-.13-.57-.2-.87zm-1690.26-174l-.57.33-3.85 4.66q-2.36-3.7-4.7-7.38l.3-.33-.57.47 8.57 2.8zM644.3 141.9l-1 .26-11.55 2.63v-5.05l11.77 2.7zM376.1 417.35l1.85-4.54 8.06 6.58v.56L386 419l-9.9-1.65zm419.33-266.23l-3.38-3.22 4.54-2.5 14.88-1.4-.82 6.68-14.37-5.6q-.42 3.03-.85 6.03zm994-97.66l2.38-5.45 12.47 8.9.9-.6-.45.74-15.3-3.58zM2180 90.07l1.34 2.1 5.08 7.34-1.26 2.9-14.68-4.1c-4.27 1.2-8.48 3.2-12.75 3.36-14.38.57-28.82-.13-43.17.88-10.17.72-20.2 4.62-30.34 5-24.48.83-49 .4-73.48.47h-89.62c-15.27-.2-30.52-1.82-45.78-2.8l-1-3.74c4.6-2.2 9.16-6.16 13.82-6.3l165-4.23 78.26-1.54 1.26-2.12 1.35 2.12 9.6 2.23.35-.33c7.83 2.86 16 8.62 23.22-6.1l3.07 13.6 8.62-6.63c.3-.7.7-1.4 1.12-2.1zm43.83 6.27l-.53 3.36-5.44-2.87q-12.4 2.28-24.8 4.62l-.27-4.24h25.32zM622 443.65l15.83-1.65c-.2 3.44.08 4.78-.36 5.15-2.67 2.22-5.5 4.22-8.53 6.5l-7-10.28v7.1h-14.82l.93-9.8a3.45 3.45 0 0 0-.26.28c4.8.82 9.5 1.75 14.2 2.7zm-201.45-27l12-8.5 3.1 12 10.93-6.25c-2.73 9.9-2.73 9.9-10.7 5.94-5.5.9-12.3 7.65-15.33-3.16zm340.72 66.1l-.9-5.3 13-5q1.53 5.07 3 10.13h6c-3.8-8.28 2.4-10.1 7.2-10.16 10.54-.13 21.1 1.2 31.65 1.92l-.53.24c4.68.53 9.36 1.43 14.05 1.5 6.3.1 13.95 6.77 18.36-3.75l-.9.56.6-.6 12.5 4-5.3 8.7-.42-.56.76.15c-.36-.8-.7-2.42-1-2.4l-36.75.67h-40.33l-5.62-.1-15.36.04zM424.9 318l-.58-3.36h-17.9l8.28-12.6c2.8 7.6 16.44-5.24 15.56 9.33l10.58-12.6 3.64 1.56q-.68 8.3-1.34 16.6l-2.92.33-4-6.26-4.8 10.36-.85-10.4-5.68 7.05zm124.27 98.36l.1 3.85H509.2c2.56-8.24 2.56-8.24 10.63-3.48l-.35-.37zm345.2 36.2q-24.78 1.24-49.55 2.54l.82-.26-.65.46c-20.8-3.57-41.4-3.3-62.63-1.37-23.56 2.16-47.6-2.37-71.46-2.77-18.84-.3-37.72 1.23-56.58 1.95l.23.54-.2-.83-9.48-5.9c3.23-1.43 6.46-4.08 9.7-4.1h132.87l84.73.54c20.43.3 40.87 1.12 61.28 2.16 2.33.12 4.52 3.2 6.78 4.9 7.17-8.37 15-5.08 22.9-.17h-22.94q-22.9 1.17-45.8 2.3zM543.43 657.65c46.36-4.66 92.46-1.68 138.72 1.7 37 2.7 74.1 2.87 111.15 3.9l87.3 2c2.74.1 5.4 3.24 10.5 6.5-140.67 7.7-277.87 1.17-415-10.8 22.44-1.02 45-1.06 67.34-3.3zm270.42-577.4c-.58 0-1.16-3-2-5.34h140.82v5.54c-46.26 0-92.54.02-138.82-.2zm1238.64 513.5l-.1 3.3h-40.7l.1-3.3zM759.2 143c0 1.77-.07 3.55-.1 5.32h-28.3l.33-7.12zm-200.86.83l-.17-3.3H589v3.3zM1444.2 743c0-1.1.07-2.17.1-3.25h28.53l-1 3.25zM762.85 149.22l-.28-5.36c8.27-4.38 17.06-.27 25.63.12l-.15 5.24zm-256.5 450.1l-2.62-2c1.9-2.76 3.57-7.54 5.78-7.86 4.9-.7 10.07.86 15.13 1.5-1.08 2.72-2 7.64-3.28 7.73-3.57.28-7.27-1.43-12.62-2.78.26-.32-1.1 1.55-2.4 3.42zm74.1-391.42l-22.8-2 .84-4.44c6.92 3.16 17.14-5.45 21.96 6.44zm1501.2-85.64l-.12-2.77h21.88l.28 3.8zM711.2 331.65c0 .66 0 1.33.07 2H690.4l.36-2zM486.82 207.83q-.3-3-.65-6.06l19.2-1.7.34 4.16zm48.87-1.5l.4-4.72 14.83.8-.56 5.83zm1623 240.75v-.95l20-1.88v2.83zm-634.3 293.3l-.32 4.4-19.53-1.5.52-4.33zM683 141.16v3.56h-16.87c0-1.18.1-2.37.16-3.56zm884.6 602.32l-.3-2.87 15.7-1.35v4.22zM894 476.1l.65 3.83-18.2 3.57-.68-4.1zM612.1 139.52l.3 4-14.82 2.18v-5.28zm-30.1 312l-4.23-4.53 7.13-6.62 3.43 3.42q-3.15 3.86-6.33 7.73zm128.78-311.6l2.2 5.36-12.76 4.46-1.22-3.5zM416.45 420.1l-4.25-.42 2-13.2 2.8.2zm1005.48 294a38 38 0 0 1 1.09-3.69l8 3.22-1.14 3.6c-2.65-.96-5.35-1.9-7.95-3.1zm323.07 2.57l-.24 4-9.16-.5.25-4.26zM511.87 259.23l1.72 1.83-7.86 10.62-2.67-2zm1125.56 479.2l.24 3-11.28 1.8.13-5.32zm662.47-256h3.15v8.73l-3.8-.14.65-8.6zM842.8 147.83l-.2 3.8-12-.58.64-4.1zm-248 301.7l-1.93-4.48 7.85-3.48 1.65 3.78zm-81.1-240.7l-1.57-6 9.65-2.13 1.1 4zM1770.6 52.9c.32-1 .64-2 1-2.95l10.86 2.7-2 4.52zm337 545.2l-.5-3.12 14.08-2 .36 2.16zm-577.03 145.3l.27-3.6 12.17.75-.4 3.95zm59.17.15l-.17-3.24 10.3-.8.2 4.05zm29.57-3.44v2.58h-11.83c0-.86.07-1.72.1-2.58zm-71 3.2l.4-3.32 11.1 1.52-.33 2.87zm-61.1-.68l.3-3.3 8.64.68-.33 4zM726.58 143l-2.35 5.55-6-4 1.64-3zm-112.22 0l.85-3.48 9.73 3.37-1.06 2.5zM2165 538.43l-.36 3.3-7.28-1 .24-2.3zm82.12 9.05c-1.2-.34-1.9-2.52-2.83-3.9 1.33-.8 2.74-2.34 4-2.2s2.24 2 3.95 3.7c-2.34 1.17-3.98 2.72-5.13 2.38zM323.6 276.84l-2.9.4v-8.9l3.8.3-.9 8.2zM795 331.7l.22 2H787l-.1-2zM543 598.55l-2.66.47-1.72-8.77 4.38-.38zm311.6-438.12l.37 1.27-8.4 2.37-.5-3.64zm1198.83-41.34l-.37 2.36-6.23-1 .4-2.56zm-1263.08-1.43l1.48-.64 2.53 6.9-1.55.64zM476.94 271.6l.2-1.68 8.3.46-.72 2.94zm572.87-126.94l-.2-2.23 7.47-.9.17 3.12zM2088.67 598.8c-1.35 0-2.65-1.6-4-2.5 1-1.2 1.9-3 3.13-3.4s2.7 1 5.53 2.17c-2.33 2.02-3.55 3.77-4.66 3.73zM695.33 140.23l.37 4.42-8.34.52-.36-3.9zm981-90.3l-.35 2.07-7.2-.57.47-3.54zm626.24 373.8c-1 .78-2 1.9-3.1 2.2-.5.13-2.08-1.62-1.94-2.15.28-1.07 1.4-1.9 2.5-3.24zm-1583.9-86.87c-.88.1-2-2.1-3-3.26 1.28-.93 2.46-2.22 3.88-2.65.65-.2 1.75 1.3 3.25 2.5-1.68 1.5-2.8 3.25-4.13 3.4zm12.34-1.42c-.93-.4-1.45-1.92-2.15-2.95 1.1-.6 2.36-1.84 3.25-1.6s1.54 2 2.65 3.55c-1.6.48-2.9 1.36-3.75 1zM641.45 632c4.26-2 5.7-3.3 7.06-3.23s2.55 1.5 6.6 4.14zm438.46-485.6c-.48-.57-1-1.14-1.45-1.72l4.84-4.78 1.74 2.2zM587.73 280.46c-.68-1.42-1.7-2.78-1.9-4.26-.12-.95 1-2.08 2.3-4.4l-.4 8.65zm-30.3 316.62l-1.6-1.72 3.92-5.07 2.42 2.37zM2123 126.35l-1.72 1.3-3.95-5.77 1.8-1.35zm-53.6 468.8c-.32 1.1-2.1 2.16-3.37 2.33-.6.08-2.2-2.05-2-2.9.25-1.33 1.6-2.44 3.38-4.85 1.02 2.76 2.26 4.35 1.94 5.43zm61.43-277.1l-2.8.12v-7.82l3.25.05-.5 7.65zm150.8 227h-9.67l.58-2.45zm-143.84 52.4l-.43-2.67 6.17-.75.38 1.85zM570.92 277.2c.42-.1 2 1.95 1.78 2.4a16.62 16.62 0 0 1-2.77 3.61l-2.93-3.6c1.56-1.04 2.66-2.08 3.92-2.42zM438.82 662l.44-2.57 7.07 1.57-.34 2.05zm-11.6 0l-6.4 2.8-.33-3.45zM833 93.27l-.24 2.66-6.14-1 .23-2.13zM600 204.44l-1 2q-2.53-1.7-5.08-3.38l.33-1.5zm1649.24 217.64l-1.55-.22v-7l3 .27-1.45 6.95zm-75.65 121a17.94 17.94 0 0 1-2.54-3.85c-.18-.47 1.6-2.4 1.83-2.28a25.63 25.63 0 0 1 3.83 3.08zm-24-142l-.52-2.1 5.75-.83v1.18zm-133.35 238.3l-.68-2.14 5.34-1.8.58 1.86zM462.16 661.6l-.36 1.17-4.54-1.46.52-1.6zm1618.4-66.18a18.7 18.7 0 0 1-1 2.33c-1.66-.56-3.26-1.3-4.87-2l.73-2zM573.18 273l3.85-.93-.35 2.23zm1648.36 320.73c0 .57 0 1.14.05 1.7l-7.57.35v-2.06zM1867.65 665c-.2.8-.4 2.24-.6 2.25a45.06 45.06 0 0 1-5-.33v-2.74zm133.67-23.72l-1.43-1.6 4-4.6 2 2.26zM131.7 419.6l-2.3-1 2.43-6.22 1.84.72-1.97 6.5zm1944.2 147.74l-1.67-3.2 5.58-1.17.56 1.56zM772.23 331.1c.2 0 .17 2 .25 3h-4.42l-.26-2.95a26.31 26.31 0 0 1 4.43-.05zM1476 742.17c0-.84.07-1.68.1-2.52h8.05l-.56 3.77zm594.6-622.55a7.65 7.65 0 0 1-.45 2.55 27.66 27.66 0 0 1-4.22-.53l.6-3a29.74 29.74 0 0 1 4.06.98zm-310.37-65c-.84 0-1.62-1.46-2.42-2.27.82-.77 1.6-2.13 2.45-2.17s1.9 1.14 3.43 2.2c-1.55 1.1-2.53 2.3-3.46 2.27zM550.52 594c0 1.13-.92 2.3-1.44 3.44-1.14-1-2.56-1.73-3.26-3-.28-.5 1.06-2 2.8-5.07.94 2.18 1.87 3.38 1.9 4.63zm1497.07 42.74a20.49 20.49 0 0 1-1.89 3c-.57-.6-1.65-1.23-1.6-1.77a10.23 10.23 0 0 1 1.32-3.09c1.02.86 2.25 1.67 2.17 1.84zM493.1 263c-.1.8-.33 1.6-.5 2.38-.2-.17-.57-.37-.56-.52.08-.8.25-1.58.4-2.37.25.15.7.35.68.5zm1710.16 159.18c-.66.1-1.4-.52-2.12-.84.32-.7.53-1.8 1-2s1.32.52 2 .85c-.28.72-.5 1.93-.88 2zm-1625.9-2.8c-.24.12-.66-.2-1-.3l.92-1.65.9 1c-.24.3-.46.8-.8.96zm500.32 247.06a14.71 14.71 0 0 1-2.33 3.1c-.37.3-1.5-.47-2.3-.76 0-.66.06-1.3.08-2zm-180.22 4.78l-2.4-2.34c.46-.52 1.08-1.57 1.33-1.47a13.56 13.56 0 0 1 2.68 1.7zm66.8-598a16.6 16.6 0 0 1 2.69 2c.14.14-.8 2-1.1 1.92a12.33 12.33 0 0 1-3.12-1.28c.7-1.14 1.1-1.85 1.52-2.62zM400.7 418.9l.82-1.8 5.23 2.22-1.36 2.9zm317.46-322.6l1.56.22-.4 5.7-2-.26zM945.5 214.1l1.85-2.38 1.62 1.6-1.6 1.65zM741.16 334.4a24.29 24.29 0 0 1 2-3.85c.2-.25 1.5.5 3.46 1.18zm16.7-4a13.07 13.07 0 0 1 2.5 2.1c.18.23-.86 2-1 1.94a16.55 16.55 0 0 1-2.88-1.54zm-182.6 267.65l-1.16-2.86c.68-.13 1.56-.6 2-.3s.66 1.36 1 2.08zm1652.5-50.58c-.34-.65-1-1.33-.94-1.94a2.53 2.53 0 0 1 1.19-1.89c.5-.16 1.28.6 2.2 1.08zM2137.6 332.2l1.52-1 2.7 4.45-1.58 1.07zM492.48 302.3c-.65.1-1.4-.6-2.1-.93a11.55 11.55 0 0 1 2.17-2c.23-.13 1 .88 1.62 1.4-.6.55-1.1 1.44-1.7 1.52zm73 290.62c0-.67.66-1.3 1-1.95.44.64 1.27 1.3 1.24 1.9s-.84 1.3-1.38 2c-.27-.67-.85-1.33-.8-1.95zm-51.06-304.5a5.4 5.4 0 0 1-2.2-2.43c-.2-.48.62-1.45 1-2.2l3.44 2.52c-.98.93-1.98 2.26-2.24 2.1zM535.13 598l-2.2 1.2q-1-2.8-2-5.58l1.56-.83zM1741.3 50.32c.76 0 1.53 1.13 2.3 1.76-.8.92-1.5 2.17-2.5 2.63-.45.2-1.53-1.2-2.85-2.34 1.36-.98 2.2-2.04 3.04-2.05zM2322.57 614v1.17h-6.74V614zM577.78 280a13 13 0 0 1-1.68-2.67c.75-.07 1.64-.44 2.2-.14s.93 1.28 1.38 2c-.7.26-1.7 1-1.9.8zM160.66 417.53c-.15-.34-.5-.85-.4-1a9.63 9.63 0 0 1 1.33-1.38l.55.86c-.47.53-.97 1-1.47 1.52zm166.55-.2c-.27.7-.5 1.9-.83 1.95a6.21 6.21 0 0 1-2.36-.67l.92-2.23zm17.67 1.45c0-.5 0-1 .05-1.5l4.32.26v1.25zM118 421.1a9.2 9.2 0 0 1-1.76 1.07c-.24.1-1-.53-.94-.6a17.53 17.53 0 0 1 1-2zm464.76 174a6.93 6.93 0 0 1-1.57.06 1.78 1.78 0 0 1-.1-1.15 14.79 14.79 0 0 1 1.19-2.06 68.66 68.66 0 0 0 .43 3.19zM2085 566.44c0-.4-.2-1.14-.08-1.2a6 6 0 0 1 1.49-.26l-.48 1.17zM2132.7 419c-.32-.17-.5-.68-.73-1a3.8 3.8 0 0 1 1.12 0c.26.1.45.4.7.65-.4.17-.84.5-1.08.35zm-177 219.27a16.23 16.23 0 0 1-2.82-1.61c.4-.73 1-2.14 1.17-2.1a15.59 15.59 0 0 1 3.09 1.49c-.7 1.05-1.3 2.3-1.48 2.24zM400.12 404.7a9.63 9.63 0 0 1-.94-1.76c-.06-.17.5-.56.78-.86l.94 1.75zm469.74 74.87c-.3.23-1.15-.4-1.76-.65.28-.72.4-1.9.85-2.06.6-.2 1.46.36 2.25.6a6.84 6.84 0 0 1-1.34 2.1zm1348.84-60a4.65 4.65 0 0 1-1.23-.86 3.19 3.19 0 0 1 1.06-.5c.32 0 .64.32.95.5-.26.3-.6.94-.78.9zM2025 646.3c-.18-.8-.37-1.57 0 0-.1-1.6 0-.8 0 0zM524 278.72a10 10 0 0 1 1.71-1.15c.24-.1.67.24 1 .4l-1.17 1.7zm141.6 54.7a3.82 3.82 0 0 1-.73-1.06l1.57-.5.06 1.3c-.27.1-.7.38-.87.25zm299.1-119.66c-.2.1-1-.85-1.44-1.32a13.61 13.61 0 0 1 2.27-2.28c.26-.17 1.1.7 2 1.3a22.31 22.31 0 0 1-2.83 2.31zM2134.56 639.1l-2.34 1.67a6.52 6.52 0 0 1-.53-2.36c.08-.52.93-.9 1.47-1.37l1.4 2.06zm-36.2-1.65a4.47 4.47 0 0 1-1.7 1.7c-.35.17-1-.42-1.55-.67l1.7-2.9c.8.97 1.62 1.75 1.54 1.88zM1060.6 668.83l-.33 2.7-3-.6zm1039.86-510l-3.35-2.7 2.17-2.15 1.18 4.82zM824.68 148.26a3.76 3.76 0 0 1 .18 1.24l-1.4-.2.32-1.2c.32.05.8 0 .9.18zm407.8-119.18a6 6 0 0 1 0-1 10.65 10.65 0 0 1 2.1-.24 7.1 7.1 0 0 1 .15 1.07c-.73.1-1.5.1-2.25.17zm-206.78 113.4c-.2-.58.38-2 .82-2.13.67-.15 1.5.53 2.26.85l-1 2.4c-.78-.38-1.9-.6-2.08-1.13zm43.87.17c.08.28-.83.86-1.3 1.3-.25-.33-.76-.7-.72-1a10.51 10.51 0 0 1 .72-2.06 5.5 5.5 0 0 1 1.29 1.76zM1724.67 721c-.26-.27-.3-.77-.43-1.18a5.07 5.07 0 0 1 1.42.16c.12 0 0 .72 0 1.1-.33.01-.8.14-1-.1zm-628.5-575.1c-.22.2-1-.28-1.52-.45.22-.76.25-1.88.73-2.16s1.37.3 2.1.53a8.83 8.83 0 0 1-1.32 2.08zm-142.38.9c-.3-.18-.8-.3-.88-.55s.24-.68.38-1l.92.68zm699.76-96.08a3.5 3.5 0 0 1-.38-1.28h1.58l-.17 1.3c-.35.01-.88.16-1.03-.03zm49.46-1.4l1.63 2.48a6.2 6.2 0 0 1-2.3.54c-.48-.07-.85-.92-1.3-1.46zm267 29.58l-1.47-2.52c.68-.26 1.4-.8 2-.7.46.1.77 1 1.17 1.6zM710.13 93.56a3.85 3.85 0 0 1 0-.68c.8 0 1.6-.06 2.4 0v.76c-.8-.05-1.6-.05-2.4-.08zm-11.86 69.67c-.6.56-1.18 1.6-1.75 1.6a10.79 10.79 0 0 1-3.15-1l2.2-2.92zm-36.3.24a8.33 8.33 0 0 1-1.57 1.19 1.32 1.32 0 0 1-1-.43 6.36 6.36 0 0 1 .47-1.61zm206.16-.17c0-.28.87-.6 1.34-.92.15.4.5.87.4 1.2a13.49 13.49 0 0 1-1 2.22 10.65 10.65 0 0 1-.74-2.5zm28 1c-.58-.1-1.07-.85-1.6-1.3.64-.46 1.32-1.32 1.92-1.26s1 1.1 1.52 1.78c-.63.26-1.28.84-1.83.75zM2306.8 418.8l-1.16-1.25.9-.7.66 1zM920.07 96.87c-.24 0-.57-.52-.86-.8a12.93 12.93 0 0 1 2-.86c.2 0 .53.56.8.87a9.82 9.82 0 0 1-1.94.79zM423.8 404.15l-.2 1.05-1-.7zM1873.86 95.9l-1.46 1.1c-.2-.3-.4-.62-.58-.94l1-.6zM407.24 404c.32.1.74.1.92.33s-.13.62-.2.95l-1-.35zm1732.07-4.66c-.1 0-.16-.46-.24-.7l1.6.42a6.08 6.08 0 0 1-1.36.26zm-74.66 168.36l-.82-1.42c.36-.06.77-.26 1.07-.14s.4.55.6.84zm-180.5-446.9a3.44 3.44 0 0 1 1.1.23l-.3 1-1.14-.4c.1-.3.17-.82.33-.84zm116.2 473.92l-.22.88-.9-.62zM767.9 287.35l1.47-.84c0 .4.22.86.1 1.2s-.55.44-.85.65zm-343.85-.5l.3 1.1-.84-.15zm1809.75 307.9a11.24 11.24 0 0 1-1.83 1c-.18.06-.54-.5-.82-.8l1.84-1.16zM770.15 113.63a6.72 6.72 0 0 1-.74-1.18 2.69 2.69 0 0 1 1-.09c.24.1.38.5.56.75-.26.18-.75.6-.82.52zm-402.8 217.83l1-.46v1zm543.05 147.1c0-.23.47-.57.73-.86a13.21 13.21 0 0 1 .77 2.1c0 .2-.5.53-.78.8a10.76 10.76 0 0 1-.72-2.04zm-29-7.06l1 .43-.9.52zm1415.2-2.14c-.08 0-.17-.46-.26-.7a2.7 2.7 0 0 1 .9-.22c.1 0 .17.43.26.66a3.4 3.4 0 0 1-.93.26zm-1075-439.18l.3.86-.72-.05zM2367.9 520.9l-1.5.32a3.45 3.45 0 0 1 .22-1.19c.12-.2.57-.18.88-.25zm16.92 13.3c0-.1.47-.2.72-.3a4.19 4.19 0 0 1 .23 1.07c0 .1-.46.2-.7.3a4.22 4.22 0 0 1-.25-1.08zm-1906-35.58a3.21 3.21 0 0 1-.5-1.07l1.63-.42-.24 1.24c-.3.1-.7.37-.88.25zm1780.44-75a14.59 14.59 0 0 1-.89-1.46 6.17 6.17 0 0 1 .74-.57l.53 1zM140.88 422.1a10.49 10.49 0 0 1-1.92-1 9 9 0 0 1 2-.82c.23-.05.57.6.86.92-.35.34-.73.95-.94.9zM2101.2 69.87l-.34-.9.77.07zm49.27 351.36c-.23-.2-.26-.65-.37-1 .3-.1.75-.37.88-.26s.26.66.38 1c-.3.1-.75.38-.9.26zm-1756.53-2.56l1.06-1.4c.24.3.66.6.66.92s-.44.6-.7.88zm-36.62.25c-.14 0-.17-.6-.25-.94l1.66.62c-.73.2-1.1.4-1.4.32zM980.5 74.22l.14-.86 1 .58zM292.92 417.88l.9.46-.94.4zm1923.94 126.56c-.25-.33-.74-.7-.7-1a11.69 11.69 0 0 1 .79-2.08l.76 1zM1231 48.55l-.83.33v-.73zm460.16 3.6a11.75 11.75 0 0 1-2.17-.72c.26-.35.57-1 .78-1a12.25 12.25 0 0 1 2.21.75c-.25.36-.56 1-.8.97zm119.52 2.1a14.3 14.3 0 0 1-.81-2.33c0-.24.58-.6.9-.92l1.34 1.72c-.44.53-.92 1.03-1.4 1.53zm451 489.83l-1.4 1.15-.58-.87 1-.67zm27.05 3.07l-1.15-1.33.88-.82.68 1c-.14.4-.25.77-.38 1.15zm5.9-1.65c-.1 0-.16-.56-.23-.87l1.57.57a4.7 4.7 0 0 1-1.31.3zm8.43 0c-.33-.07-.57-.5-.86-.78.36-.17.73-.48 1.07-.45s.52.47.8.74c-.35.18-.7.53-.98.47zm10.77.9l.4-1.15.43 1.17zM1946.07 70.28a6.72 6.72 0 0 1-1-1.26c0-.13.45-.55.7-.83.2.33.4.67.58 1zM399 228.46l-1-.42 1-.47zm156.6 2.64c-.26-.32-.8-.73-.73-.94a13.36 13.36 0 0 1 1-2.11l.73 1a26.32 26.32 0 0 0-1.04 2.05zm-236.9 33.25c-.16-.33-.46-.67-.42-1s.42-.52.66-.78l.5 1zm478.5 417.74a3.61 3.61 0 0 1-1 .23c-.1 0-.2-.52-.28-.8l1-.26c.1.28.18.55.28.83zm1316.75-532.64a3.77 3.77 0 0 1-.45-1.18l1.6-.3c-.06.43-.13.86-.2 1.3-.33.08-.82.32-.95.2zM524.13 261.93a2.65 2.65 0 0 1-1 .28c-.14 0-.23-.53-.35-.82l1-.37c.14.3.22.6.35.9zm514.94-117.54c-.12 0-.66-.67-.66-1s.55-1.07.66-1a13.14 13.14 0 0 1 2 1.05 12.1 12.1 0 0 1-2 .95zm-32.33.7c0 .22-.63.76-.93.73s-.87-.7-.8-.9a11.84 11.84 0 0 1 1.07-2 10.22 10.22 0 0 1 .66 2.17zm-349.23 486a10.59 10.59 0 0 1 2.12-.77c.2 0 .5.68.76 1l-2.25.94zM997 143.17l.27 1.34a2.92 2.92 0 0 1-1-.21c-.16-.1-.16-.5-.23-.75zm-281.13 19.28c.2 0 .53.6.8.93a11 11 0 0 1-2.13.8c-.24 0-.6-.54-.94-.9a14.64 14.64 0 0 1 2.27-.83zM1852.82 664.8l-.2.78-.86-.56zm-973.24-509l.26 1-.66-.08zm146.73 514.35l-.2.9-.95-.63zM932.1 211c-.3.32-.68.95-.9.9a12.26 12.26 0 0 1-2.22-1l.93-1zm-492.9 5.38h1.2v4.07H439zM2124.75 281c-.53-.46-1.44-.87-1.5-1.4-.1-.7.5-1.47.8-2.2l1.7 1.27-.97 2.34zm203.7 334.74c-.46-.05-.83-1.06-1.24-1.65.74-.33 1.5-1 2.2-.9.43 0 .8 1.07 1.23 1.68-.77.32-1.52.93-2.2.85zm-1820.24-338l-.3-1.18.8.1zm1663.3-138.82l-.6-1.15 1 .33zm87.25-6.18c-.14-.37-.43-.76-.4-1.1s.44-.65.68-1l.4 1.16zM2164 595.4l.1-.74.68.48zm-20.77 48.08c-.26 0-.47-.54-.7-.84.3-.24.6-.7.86-.66s.48.54.7.84c-.25.24-.56.7-.82.66zM1967.6 640c0 .3-.55.6-.86.9-.28-.33-.78-.68-.77-1s.56-.6.87-.88c.27.3.78.65.76 1zm115.4.2l-.8-.1.5-.8zm-35.28 8.1c0-.27.47-.5.73-.73.22.3.62.6.6.85s-.47.5-.73.73c-.22-.3-.62-.62-.6-.88zm8.7-.24l-.08.68-.62-.43zM427 606.66l-.85-.1.52-.86zm626.55 61.76l-.9-.1.53-.86zm-124.28-.64l.7.07-.42.67zm1248.47-69.87l-.8-.08.47-.85zm-703.6 114.66l.67.1-.42.64zm-191.6 8.32l-.1.76-.63-.48zm781.88-84.2l-.1.9-.76-.54zM598 594.67l-.1.7-.56-.46zm207.3 86.9l.77.12-.5.73zm1550.8 3l.66.1-.42.7zm-1565.92-2.5l-.7-.07.4-.7zm-18.28-.6l-.1 1-.84-.6zM2098.6 147.12l-1.16-.83c.26-.26.53-.74.8-.74s.5.5.76.77a19.42 19.42 0 0 1-.39.8zm-1239.8 2.5l-.72-.1.45-.68zm1061-28l-.94-.08.55-.93zm-1359 67.82c-.24-.3-.68-.6-.66-.88s.5-.5.77-.77l.7.9zm-94.9-34.6l.62.08-.4.66zm418.45 5.5l.86.1-.5.83zm729.5-108.22c-.3 0-.6-.6-.9-.93.33-.3.66-.86 1-.84s.6.6.9.94c-.36.3-.7.85-1 .83zM1187 11.76l.9.1-.55.87zM708.58 101.5l-.08.83-.7-.5zm15.82.56l-.64-.1.42-.66zm1142.3.38c-.2-.3-.6-.6-.57-.86s.47-.47.73-.7l.63.86zm84.3-33.5c-.2-.28-.6-.6-.57-.85s.47-.46.73-.7l.6.86zm131.9 4.48l-.1.7-.57-.44zm105.4 17.4l-.76-.1.47-.73zM727.08 93.6l-.67-.1.42-.63zm1416.5 356l-.8-.1.5-.76zm-1608.82 7.7l-.1.7-.64-.47zm-26.1-248.84l-.68-.1.44-.7zm265.72 0l-.67-.08.4-.64zm139.08 2.33l.6.1-.4.64zm1197.92 151.4l.65.08-.4.62zM700 300.55l.9.08-.52.95z"/></svg>