<svg xmlns="http://www.w3.org/2000/svg" viewBox="0 0 2211.63 862.47"><path d="M1698.5 146.8c-33-13.33-67.28-3.2-100.9-5.26-18.5-1.14-36.9-3.7-55.33-5.6l-.14.64c1.8-14.9 16.4-12 24.72-17.85l-.06-.13h3.7l-.06.2 25.83-2.94-.06-.2h3.72l-.06.18c24.73 1.57 49.7 1.5 74.1 5.2 22.24 3.38 43.86 10.86 66 19.3q-20.7 3.33-41.43 6.6l.26-4.9h-.3zm-86.93-18.42l-4.38.5 2.83 2.94 1.8-3.8-.18-.63zm-57.47 0l-1-.46-.26 1.63a2.59 2.59 0 0 0 1.11-.23c.16-.1.1-.58.15-.9zm13.74-1.54l.9-.75-.8-.86-1.2 1.22zm62.7 4.37l-.6.92 1 .1zm-29.4.08l-.5.7.8.1zm17.65-11.84l-.47.74.75.1zm-5.2.68l-.7-.86c-.27.24-.75.47-.77.74s.4.56.64.85zm-30.13-.75l-.48.77.78.1zm228.13 23l-40.7-4.1-.27-3.77c9.07-1.7 18.77-2.1 24.34-10.8.53-.84 2.64-1.2 3.9-1 13.37 2.16 27.16-1.92 39.8.3 9.74 1.7 16.9-3.6 25.75-2.77 13.2 1.23 26.6.42 39.88.85 1 0 2 3.08 3 4.68l.82-.56-1.18.54 11.86-4.45 2.76 15.84.15.14v-1.22h-1.22l.2.47c-.35-.7-.7-1.4-1-2.1l-2.43 2 .42-.44c-12.18 2.16-24.3 5.57-36.56 6.2-19.25 1-38.6.07-57.9 0l-.36.1-11.47-.2 1.2-.06-.84-.83c-.08.5-.1.85-.1 1.28zm88.3-11.9l6.33-.7 1.18 1.93-1.53-1.6-5.14-2.64-.6 3.34-1.78.6c.3.06.72.27.85.16a4.71 4.71 0 0 0 .68-1.02zm-121.7 7.1a13.91 13.91 0 0 0-2.52-1c-.25-.06-.66.63-1 1 .62.53 1.2 1.38 1.88 1.47.48.13 1.07-.87 1.64-1.4zm56.38 3.26c-.3-.36-.6-1-1-1s-.7.56-1.06.87c.3.36.6 1 1 1s.7-.5 1.06-.8zm-1745.7 117l.7-.36a5.72 5.72 0 0 0-.89-.14c-11.27.57-22.63.17-33.67 1.88-18.3 2.84-36.37 7-54.54 10.7l-.46-.3c40.82 7.3 81.66 15.6 123.13-5.17l-34.08-7.28c-.05.23-.13.46-.2.7zm459.4-246.72L570.32 4l5 14-15-1.2c-7.72-.84-12.85 2-14.55 8.32l-.16-.43 3.74-.06-.06-.2 54.13-6.8.37.26c-3.58.23-7.28 1.12-10.73.54-4.36-.74-8.52-2.68-12.76-4.1l8.58-7.9c-25.5-9.22-47.33-8.5-67.12 2.2L549 11.22zM681.53 6.7q2.15 4 4.3 8c-8.73.64-8.73.64-7.62-8l.32-.5L660.85 19h49.5L708.2 3.76c-2.3 1.87-4.1 2.6-4.4 3.72-4 14.24-9.1 12.82-15.78 1.6-1-1.62-4.37-1.8-6.65-2.63zm1486.1 474.73c-.06-.23-.13-.46-.2-.67-11.07-4.45-11.85-4.22-16.35 5.7l50.74-3.62-.23-5.5-20.42 1.37 1.9-.28c-.15.1-.33.32-.45.3-.36-.1-.7-.3-1.08-.4l-10.87-8.95-3.3 11.2.25.84zM348.23 59.85l15.34-3.2-.32.4 3.45-2.9.3-.68-.7.3.36 3.32-.4-.47 3.4 3.4-.08-.26a15.63 15.63 0 0 1 2.56-.12l-.1.33q1.7-1.7 3.4-3.37l-.42.5 6.33-6.33-.34.4v-6.3l.38.4-3.36-3.4.46.27-8.3-.15-.4.28c-10 0-17.2 4.63-22 13.23l-.1-.1.22 4.7zm-189.56 478.4c0-.33-.1-.65-.14-1a5.21 5.21 0 0 0 .44.64l-4.1-1.92c-5.63 6.53-1.54 10.3 4.47 10.52 4.3.17 8.76-3.4 13.15-5.3-3.1-2.93-5.8-6.8-9.5-8.42-1.92-.85-5.6 2.24-8.46 3.56zm791.86 282.52c2.37 6.9 2.37 6.9 16.6-5.28l-10.27-13c-2.86 5.32-2.27 10-2.47 14.67 0 1.2-2.56 2.3-3.94 3.47zm1007.73-156c-14.45-1-4.36-7.65-5.4-14.63l-9.42 10.5 2.44.4-.87 1.47-1.24-2.2q1.48 6.8 3 13.58l11-8.8zm-744.4-508l3.26 6.35-.56-.34c10-7.5 8.8-15.94-5.36-23.15l3.2 17.47zM284.92 663.63c-3.73 1.84-6.35 5.9-9.43 9l2.74 2.76 15.84-9.2c-3.15-.97-7.07-3.6-9.15-2.57zm685.93 141.15l7.92 15.66L987 807zm-751.92-106.5c1.2 0 2.4 0 3.58.06l-.4.44v-8.43h-22.56l-.15 2.22 20.08 6.23zm83.26-180.65l-4.3 8.38 14.95 1.37 1.07-3.35-12-6.8zM24.5 764l-4.6 7 1.4 2.54 10.1-4.85-7.2-4.35zm168.55-442.37l-2.53 2.37-.93-2.36.54.3-4.55 6.48 14.78 2 .5-3.6-8.33-4.82zm1191.54-162v6.5l.43-.35 6.13 8.15 4.68-3.9c-6.4-1 1.7-14-10.84-10zm597.6 507.07l-15.72 3.5.3 1.3h16.2zM736.52 13.8L730.35 5c-.06-.08.5-.6.78-.9l.17 1.12-1.93 1.3q2.75 4.32 5.48 8.64zM2089 662.28l-4.26 8.92 3.67 1.6 3.94-8.56zM71.1 698l-13.23 2.92 1.58 3.67 11.26-6.8zm230.33-30.42l10.4 1.9-.23-5.33-9.58 3.3zm1616.5 7.25l8.62-9.08-3-3-9.5 7.75q1.97 2.13 3.9 4.32zM107 133.55q1 5.58 1.94 11.16l4.86-.55q-.54-5.8-1.1-11.58zm41.57 649.77l-11.45 6.14 13.88 3.27-2.75-9.86zm199.9 65.23l7.93 7.4 2.3-2.58-6.73-7.1zm1425.2-720.6h10.2v-3.86l-10.2.47.01 3.4zm-505.28 41.83l6.8-12.75c-12.63 1.1-12.78 5.74-6.47 12.94zM71.86 695.88l3.42-6.55-.44.12-8.63-1-.66 2.33 6.67 4.53zm539.8 160.27l-10-7.4-1.3 9.15.2-.56 11.08-1.48zm657-686.23l-13-6.13v11.8l12.75-5.83zm56.52-76l9-2.2-.75-3.15-9 2.33.75 2.97zm803.68 540.58l-8.62.86.3 3 8.63-.74zM283.08 524l6.7 2.16.92-2.3-5.84-3.1-1.8 3.26zm1476.8-386.93l7.35-1.12-.73-2.84-7.1 2.26.5 1.7zm168.38 525.83l7.68 6.2 2.2-2.5-6.57-7.08zM1753 138l-7.15-.7c0 .45-.1.9-.14 1.35l7 1.34zM266.43 455.14l-6.14 3.53 1.4 2.5 6.62-3.54zm-144 353l-8.37-.55q.48 2.56 1 5.15l7.77-4.86zm139.42-429q-2.22-6.37-4.46-12.76l-3.18 1.5 7.73 11.25zm-63.4 158l1.18 6c1.1-.37 3.16-.83 3.13-1.1a37.8 37.8 0 0 0-1.24-5.69zm1963.16 5.1l-9-.34 1 5.25 7.7-4.6zm-2035.87-409l9.57-2.57-9.82.53zm1116 24.2c-1.15.7-1.67 2.44-2.45 3.74 1.2.38 2.62 1.32 3.6 1s1.76-1.9 2.9-3.3c-1.67-.77-3.35-1.97-4.04-1.55zM153.9 185.43l6.2-2-.36-1.12-6.13 2.17zm1230.67-19.34q0-3.24 0-6.5l.38.42-6.25.38 6.28 5.35zm-1109.8 532.3l3.6.07-.5.22 6.4-3.32-.15.44-11.46-3.27.36-.25q1 3.3 2 6.58zm228-1.58l-5.66-4.24-1.13 2.24 6.87 2.05zm1599.36-225.67h8l-1.75-4.75-5.92 5.07zM179 331.6l-5.87-2.7-.5 1.24 6 2.38c.1-.3.24-.6.37-.9zm404.18 525.83c-.54.68-1.5 1.37-1.5 2.05a9.09 9.09 0 0 0 1.09 3l3.53-2.47zm1379.16-201.48l7.05-1-.37-2.92-7.08.72.4 3.2zM336.46 853.12h-5l4.68 1.52c.13-.5.23-1 .32-1.52zM143.22 246.67c-.77-.22-1.66-.78-2.3-.57s-1.12 1.17-1.66 1.8l2.28 1c.57-.7 1.12-1.47 1.67-2.23zM270.8 447.33c-2-.56-4-1.05-6-1.53l.06 2.56 5.78-1.23zM247.55 362a10.52 10.52 0 0 0-1.1.87 6.61 6.61 0 0 0-.69 1l1.64-.67zm1957.1 136.34l7 .9-.1-1.08-7.1.72zm-923.16 326.9v-3.3l.42.4-3.35-3.36.32.25-2.73 7.2 5.72-1.77zM142.75 163l-3.14-6.2.47.17.06 9.15 2-3.68zm-54 642.8l-4-3-1.14 1.48 3.93 3.16zm1849.86-64.9l11.2 1.3v-1.34h-11.3zm-588-575.85a4.47 4.47 0 0 0 1.51-3.32c0-.5-2.12-1.7-2.55-1.43-1 .63-1.55 2-2.62 3.48 1.58.6 3.1 1.65 3.68 1.27zM218.17 421.22c-.25.53.35 1.47.58 2.24l3.06-1.1-1.5-2.1c-.76.3-1.88.42-2.14.95zM773.1 2.7l.9-.08zM237.07 426l-2.7-8.94-2.5 1.4 5.64 7.87zM770.7 857.16c.06.72.9 1.37 1.42 2l2-2.34-2-1.52c-.52.7-1.47 1.3-1.42 1.86zM59.94 641.85l-6.9 3.28 2.14 2.7 4.42-6.45zM168.42 852.8c-.26.3.44 1.44.7 2.2l3.32-1.58-1.6-1.66c-.85.33-1.92.46-2.43 1.04zM1914.75 704c-.7.5-1.77.88-2 1.56-.2.52.63 1.4 1 2.15l2-1.58zm-1679.6 46.33l1.5 6.75 3.2-2-5-4.43zm1090.9 77.84h-3.34l.5-.47-7.7 4.56c5.8 3.75 9.9 3.8 10.15-4.6zm-145.3-21.7c.13 1 1.56 1.95 2.42 2.92a19 19 0 0 0 2.72-4c.13-.34-1.9-1.5-3.28-2.56-.8 1.4-2 2.6-1.86 3.64zM376.3 850.83c.43 1.15.58 2.68 1.4 3.3.56.43 2.1-.42 3.18-.7l-1.88-3.3zM603.7 17.9l.68-.2c2.58 0 .8 0-1 0zm-233 62.6l-5.7-.75-.22 2.2 5.73.46zm49.9-1l8 2.7.35-1.72-8.27-1.1zm-85.7 1.38zM88.82 713.14l2-.28-2.2-.25zm159.86-238l-4.8-1.6 1 3.5 3.5-2.24s.3.35.3.35zm1673-337.8l5.42 1.34.25-1.17-5.84-.3a1.27 1.27 0 0 0 .19.14zM1898 708.54l.38 1.42c.1 2 0 .2-.07-1.63a2.77 2.77 0 0 0-.31.21zM191 586l1.35-5.75-1.42-.45-2.47 5.34zm1026.12-422.92h-3.25l.35-.12 2.88 6.63 2.17-1-2.7-5.84zm-1057 40.8h3.57l-.57.46 3.4-3.43-.5.57-.16-4.56.63-.13-6 7.62zm38.83 648.24l9.9-.74.28-.5c-1.64.1-3.3.16-4.94.32s-3.4.43-5.1.66zm-51.38-313.38c0-.07-.46-.17-.72-.25v3.42a27.45 27.45 0 0 0 .72-3.17zM745.9 2.2zm14.43.26h2.46c-.24 0-.48-.05-.72-.05h-2c-.22 0 .02.05.26.05zM70.73 697.8c7 0 8.73-2.66 4.1-8.36l.44-.12-3.42 6.55.35-.52L71.1 698zm525.4 161l-5.18-2 2.34 4zm-440-615.76l4.4-1.18-1-2.27-3.4 3.5zM723 857.4a10.17 10.17 0 0 0 2.44-1.77l-4.23-.4c.8.96 1.5 2.25 1.8 2.16zm1014.55-42.57l-.68-1.7-.44 1.12zm141.9-26.7a4.38 4.38 0 0 0-1.33-.29v1.85l1.26-.53c.01-.36.17-.95.03-1.03zm-1770-447.06c.57 1 1.15 2.08.23.42.75 1.78.3.73-.14-.3zM444.12 79.4l1.46-6.14-.8-.06-.83 6.3a1.51 1.51 0 0 0 .18-.09zm651.57-37.3l-1.13-1.94c.3.67.63 1.33 1 2zM88.3 301.56c-.15.4-.53.94-.4 1.16s.78.48 1.2.7v-1.32zm307.2 551.12c-.1.3-.34.8-.26.87.64.46 1.35.84 2 1.25l.4-1.22zM2211 390.22a6.63 6.63 0 0 0-1.76.59 1.23 1.23 0 0 0 0 1.19 7.52 7.52 0 0 0 1.84.83c-.01-1-.08-1.83-.08-2.6zM221.3 411.3c.43.13.92.46 1.25.34s.57-.67.84-1l-1.14-.34c-.32.3-.63.7-.95 1zm1061-250.2l1.85 2.17 1.87-1.7-1.38-1.5zm893.07 273l-1.4 6.37 1.48.24v-6.55zM215.63 852.74l.66.8 1.62-1.35-1.24-.27zm1105.5-692.26a1.77 1.77 0 0 0-1.23.25c-.1.67-.25 1.7.1 2s1.37.08 2.2.08a15 15 0 0 0-1.07-2.33zm832.66 196.8c-.06.18.36.53.57.8a18.62 18.62 0 0 0 1.21-1.87c.05-.1-.5-.5-.85-.8a13.56 13.56 0 0 0-.93 1.87zm-232.25-195l-1 2.3c.73.26 1.6.9 2.15.7s.73-1.26 1.1-2zm8.7.23a8.34 8.34 0 0 0 2.46 1.16l1-2.32-2.66-.93c-.33.7-1 1.86-.8 2.05zM95.8 803l1.37 4.6 3.72-4.16.55-.28-6.26-.27zM657.3 9.87l-.62 1.43 1.13-.32zm-494.95 820.4a5.28 5.28 0 0 0 1.28.56c.12-.38.43-1 .32-1.1a3.89 3.89 0 0 0-1.28-.46c-.1.34-.4.92-.32 1zm-6.22-587.18l-.42 6.53h.94l-.48-6.56zm215.33 615.26a13.9 13.9 0 0 0-2.23.6c.3.3.6.84.86.82a11.68 11.68 0 0 0 2.16-.52c-.25-.35-.58-.93-.8-.9zM1768 125c-.1 0-.56 1-.42 1.2a10.49 10.49 0 0 0 1.53 1.75l.9-2.4a12.76 12.76 0 0 0-2.01-.57zm-518.83-21.65c-.43-.27-1.23 0-1.86.05.42.77.65 1.83 1.3 2.2s1.56-.14 2.37-.26a9.59 9.59 0 0 0-1.81-1.99zM190.94 105.5l.85.12.28-.35zm160.62 587.8l-.7-5.15-1.94.24.7 5.15zM697 850.92c-.14.18.2.74.3 1.13.37-.16 1-.22 1.06-.48a8.42 8.42 0 0 0 .3-2 10.19 10.19 0 0 0-1.67 1.35zm-368.8-155l5.75-6.15-.1-.37-6 6.08zm220.44 2.35h3.38l-.57.45.34-6-1.83-.16q-.4 3.1-.8 6.2zM192.1 572a6.46 6.46 0 0 0-.09 1.85c0 .23.82.55 1.14.44a9.11 9.11 0 0 0 1.92-1.2zm1862.22-370.3c-.07-.16-.65-.08-1-.1 0 .4-.14.86 0 1.16s.67.1 1 .15a3 3 0 0 0 0-1.2zM850.05 16.76l-.08-1.35c.54-1.82 0-.1-.5 1.64zM127.2 264.6c-.7.3-2 .67-2 .93a22.06 22.06 0 0 0 .87 3.7l2.43-1.2-1.3-3.44zM340.86 49.73l-1 .32.6 1.28c.2-.7.3-1.15.4-1.6zm526.6-35.15c-.6-1.25-1.2-2.5 0-.07-2.12-1.87-1.18-1-.24-.22zm-519.76 41v-5.24h-.66l.56 5.08zm1508.16 639.75l-.06 9.2-.65-.12h3.57l-.35.24q-1.43-5-2.86-10zm226.05-71.56l.26-.73-1.3.15zM867.18 14.3l-.67 2.15 1-1.87a3.83 3.83 0 0 0-.33-.28zM233.53 853.07l1.23.52v-1zm1836.58-543l3.2 6.16.32-.34q-1.5-3-3-6.07zM24.5 764a63.28 63.28 0 0 0-1-2.23c.25.83.5 1.65.7 2.5zm1995.13-542.73l3.66-1.37-4 1.1zM536.3 19.9c.12.3.22.86.36.87a3.83 3.83 0 0 0 1.21-.27l-.35-.9zM0 269.6l1.7-1.33-1.08-.38c0 .68-.06 1.36-.13 2-.04.02-.5-.3-.5-.3zm213.23 302.48c.34.22.73.67 1 .62s.52-.6.78-.93l-2.13.45zm12.82 128.17l1.4-1.78-2.17-.26 1.08 1.85a3.21 3.21 0 0 1-.31.19zM324 697c0-1.23.1-2.46.14-3.68l-1.26.14 1.1 3.47zm164.17 3l.2-3.14-.32 3.3zM2161.6 542.17l1.5 1.42v-2l-1.85 1zM705.83 856.66l.26-1.07-1.36.3zM319.6 520.5l-1.16-.52v1zm1749.84 141.86l-.83-.27.22 1.1zM1830 668.52l.86.13-.35-1.06zm264.86-31.63l1.25-.8-.93-.44c-.1.4-.18.82-.3 1.24zm-118.16-1.6l-.34-2.36-1.6 1.06c.77.26 1.54.52 2.3.82-.01.04-.35.48-.35.48zM56.1 690.08l2.74-.6-2.64-2.06c-.2.37-.6.77-.54 1.1s.5.76.78 1.13zm382.6 4l-.27-2.2v2zm-193.17 59.38c.06-.22-.77-.9-.83-.87-.58.4-1.55 1-1.5 1.4.07.66.84 1.25 1.33 1.9a16.21 16.21 0 0 0 1.01-2.42zm4.7 5.32l.6-5.28-2.2.27 1.62 5zm5.73 0l1-5h-2.07l1.15 5zm8.4-8.84l.38 1c-.46 2.6-.17.94.05-.76a4.34 4.34 0 0 0-.43-.24zm37.83-232.3l-2 .6.9 1.8.85-2.8c-.07-.03.24.38.24.38zm1604.74 185.2v-3.3h-.08v3.37zM759.77 9.65c-.28.1-.78.16-.8.28a5.42 5.42 0 0 0 .29 1.48l.5-1.76zM2209.24 476l-1 .28.9.43zm-287 228.18l-.8-.2.23 1.15zM633.9 850.66l-2.18-.06 1 1.94 1.66-2.18zm-524.83-132.1l1.14 2 .85-1.75h-2.37zM565.55 854.3l-.9-.2.28 1.26zM247.1 432.6a7.41 7.41 0 0 0 .34 1.33c.1.23.44.35.68.52l-1.47-2.22zm1537.43-253.36l.52 2a6.17 6.17 0 0 0 1-.32 7.36 7.36 0 0 0-.54-2c-.08-.2-.78-.3-1-.14s-.17.66-.22 1zM181.6 831l3.36-1.66.18.33-2.8-6.86h-.13q-.14 4.22-.26 8.43zm1024.9-22l-1.22 1.6h2.13l-1.2-1.75zM184.86 839.05l.9.1-.4-1.06zm14.2 12.8c0-.36 0-.72.07-1.08l-1.14.7.94.63a2.6 2.6 0 0 0 .13-.24zm169-4.6l-.86.2.3 1 .78-.24c-.06-.3-.14-.63-.2-.96zM1301 167.17l.1-1.74c-.26.14-.74.33-.73.42a5.28 5.28 0 0 0 .47 1.07zm-67.7-5.54l-2.2-.14 1 .73zm-30.8 1.38h-6.32l.35-.56V166l-.34-.4 6.18-3zm98.33 3.9l1.94.65c0-.42 0-.83-.07-1.24l-1.7.83zM181.6 831l.33.2zm1032.27-667.93v-6.34l.55.33-4-.16.4-.4 3.4 6.44zm-920.5 18.54l.33-2.7c-.22.75-.44 1.5-.63 2.28.03.03.3.42.3.42zM1003 810.36l1.54.16a3.69 3.69 0 0 0-.21-1.23c-.1-.16-.62-.1-.94-.12zm866.4-18.7l1.18-.44-1.13-.5zM75.17 217.1l.53-1.67-1.17 1.74zm19.88 601.2l1.25-.4-1.2-.58zm1825.58-681.7l-3.47-.08.42-.44.58 2.4 2.26-2.35zm-1776.1 74.64v-2.28c0 .8 0 1.62-.1 2.5 0 .05.1-.2.1-.2zm158.2 639.4l.3-1-1.3.28zm58.54-4.8l1.43.13a3.35 3.35 0 0 0-.24-1.07c-.08-.15-.53-.08-.8-.1l-.38 1.04zM1837.65 696h3.52l.18-.5-3.88.06zm-887.2 124.66l-.77.2.86-.1zM438.4 693.9l-5.23-.4-.43.35 5.9.2zM169.4 819h-3.2l-.2.42h3.62zm340.12-122.26l2.75-3.54h.12l-3.18 3.5zM1748.6 816.2l6 2.3v.18l-6.22-3zM509.45 696.7c-2.26 0-4.46.06-6.64.1l.1.05 6.3-.18s.3.07.24.03zm1343-1.36h3.4l-.35-.6h-2.65zM1323.23 827.7l-3-2.92-.44.38 3 3zm734.1-158.34l2.07.6.16-1.23-1.78.4zM411.9 846.27l2.24.52-.22-2.1-1.74 1.07zm935.47-7.9l-.6-1-.54 1.68 1-.53zM267.7 673.4l-.16-.82v.9zm91.83 167.53l.24-.9-1.32.73.92.36zm-147.3-4.7l.45-.38zm1845.15-166.9a3.07 3.07 0 0 1 .18.63l.22-.84zM200 838.47l.1-.7-.8.25zm-21.83 2.85l-1.05-1.83.45 1.7zm1295-1.78l-3.4.1-.07.26h3.58zm-1171.1-172.1a10.44 10.44 0 0 0-.83-.66l.2.78.64-.12zm154 172a8.17 8.17 0 0 1 .72.6l-.5-1.07s-.2.5-.17.48zm-96.57 1.45l-6.74-.25s.16.16.18.15l6.4.3a.44.44 0 0 0 .19-.19zm-181.35.4a9 9 0 0 1 .35-.91l-.92.78zm1302.7-2.53l.44.72-.14-1a3 3 0 0 0-.26.29zm153.47-2.53l.05.7.23-1s-.25.3-.24.3zm-16.9.73l-3.53.06.17.48 3.3-.74zm-270.82-3.48l-3.05-2.82-.3.4 3 3zM56.12 690a3 3 0 0 1 .51.44c-.06-.28-.13-.56-.2-.84zm216.94 2.23l-.8.13s.38.2.4.16.4-.25.4-.25zM185 829.37l-.3.82.5-.5a2.32 2.32 0 0 0-.19-.31zm1130.57 2.9l.57-2.13-.56 2.1zM472.14 678.1l.1-3.38.47.27-3.7.08.2-.44 3.38 4.13zm930.07 157.24l.33-.92-.76.36a8.22 8.22 0 0 1 1 .29l-.57.27zm-52.6-1.27h-3.3l.36-.57.64 5 .08-.12 2.1-4.76zm-749.07 23.28l.25.9.42-1.08a16.83 16.83 0 0 0-.85.71c-.02.03.18-.53.18-.53zm332.66-25l.6.8-.4-1s-.23.23-.2.24zm-176.66 21.33l-.36 1.1 1.66-.82-1-.6zm-544.3-17.43c.25.17.5.3.77.46l-.3-.87s-.45.38-.46.4zM334 689.8h3l.1-.37h-3.25zm-233.13 113.7c.1.24.22.44.33.65l.24-1a5.67 5.67 0 0 0-.57.35zM1957.2 748.6l-1.5.6h1.34zM95.8 803l-.84.42 1.07.16c-.26-.22-.52-.44-.82-.67zm-44.5-45.58h3.38l-.3.3-1.4-2.18-1.46 2.13zm94 8.6h3.75l-.27-.6-3.24.06zM633.9 850.7a2.71 2.71 0 0 0 .3.53l.23-.87a5.77 5.77 0 0 0-.53.34zm-19.67.63l.38-.78-.77.4zm539.58-63.12h.02zm.35 6.17a7.72 7.72 0 0 1 .62-.54l-1.07.26zm22.73-3.27l.74.08-.3-.83zm-420.36 62.6c.24.17.5.3.73.46l-.45-.83s-.27.34-.28.37zm-344.34-7.94l.13.9.58-1.07-1 .62c.01.04.3-.46.3-.46zM613.83 851l-2.25 4.86a2.34 2.34 0 0 1 .09.33l2.54-4.8c.01-.05-.38-.38-.38-.38zM119.66 732.3l-.82.5 1.08.1-.8-.7zm207 114a5.14 5.14 0 0 1 .74.51l-.5-1-.28.44zm1422-30a4 4 0 0 0 .57-.13l-.87-.42a3.81 3.81 0 0 0 .28.45zM88.86 713.16a1.35 1.35 0 0 0 .38 0l-.65-.5a4.71 4.71 0 0 0 .27.51zm33.9 94.7a4.93 4.93 0 0 1 0-.66l-.36.92s.38-.26.36-.26zm86.08 43.5c0-.3-.1-.6-.14-.9l-.54 1.06c.3-.2.6-.38.94-.6.02-.05-.26.45-.26.45zM1957.2 748.64a6.66 6.66 0 0 1-.72-.33l.58.94s.16-.64.14-.6zm-1667.6-9.12h3.5s-.07.07-.07.1l-3.34-.24zm452.5 104.87l.6.77-.4-1.06s-.26.27-.2.3zm1153.43-39.55a3.64 3.64 0 0 1 .54.43c-.1-.3-.17-.57-.25-.86zM1207.44 167.3c.18-.14.37-.26.56-.38l-1 .07zm-10.93-1.3l-3.34-.06.34-.37 1.85 2 .8-2zm-892.9-2l.1-.9c.1-.36-.08.37-.3 1.16zM146 162.7l-3.82-.25.56.56 2.9.05zm1676.78-20.37l-.28.2.6-.28s-.35.1-.3.08zM94.23 138.7c-.66.26-1.33.5-2 .82a9.3 9.3 0 0 0 .39 1.08l1.54-1.27zm1447.93-2.17c.26.1.5.22.75.34l-.63-.95s-.14.64-.12.6zm-1448 2.8c-.2-.26-.4-.53-.58-.8v1.12l.6-.92c.04-.03.01.6.01.6zm71.6 57.58a8.93 8.93 0 0 0 .87.6l-.22-.76a6.13 6.13 0 0 0-.61.16zm11.27 24.9a1.91 1.91 0 0 1 .24.42l.08-.8-.28.4zm1837.2-.26h3.4l-.37.44-.86-2.07-1.82 2.06zm-10-2.58l-.6-.76v1.08l.58-.92.05.62zM75.2 217.07a10.7 10.7 0 0 0-.83-.68c0 .26.1.52.16.78a6.06 6.06 0 0 0 .67-.1zm213.45-40.3l.08-.74-.74.3zM1879 185.12a9.82 9.82 0 0 0 .81.77l-.13-.84a5.82 5.82 0 0 0-.68.07zm-117.74-6.55a3.31 3.31 0 0 0-.67-.29l.12.58a3.69 3.69 0 0 0 .55-.29zM375.46 59.94l-3.35-.27-.1.33 3.52.1zm-5.9-.15l-1.43.24-1.44-.3-.47.32h3.42zm-21.32.06a9 9 0 0 0-.22.55l.6-.27a4.33 4.33 0 0 0-.73 0l.36-.28zm18 .2v-3.4l.4.47-3.4-.06.32-.4 3.1 3.07zm733.68-14.8l-4.2-3.16-.17.06 4.16 2.94a1.66 1.66 0 0 1 .19.16zM463.64 66.9a7.7 7.7 0 0 0-.85-.55l.2.7a4.83 4.83 0 0 0 .66-.16zm-40.83.23a4.3 4.3 0 0 1 .43-.62l-.87.34zm126.08-55.9a5.69 5.69 0 0 1 .24-.65l-.87.54zM696.32 6l-.52-.27zm-.5-.25a2.8 2.8 0 0 1-.39.46l.88-.2zm-17.62.94h3.32s-.16-.26-.15-.23c-.94-.08-1.9-.18-2.85-.3zM370.08 42.1a3.46 3.46 0 0 1-.61-.3c.1.18.17.37.26.55zm179.2-17.45l-3.74.06.15.4c1.17-.24 2.35-.44 3.53-.65zm300.8-7.9a5.11 5.11 0 0 0-.38-.6l-.2.92s.57-.3.58-.32zm318 100.87c-.18.32-.36.64-.53 1l1.55-.45-.94-.52zM325.5 90.44l3.32-5.44-.6.13-4.52.92 2.17 4.15a3.82 3.82 0 0 1-.36.24zm2.7-5.24a6.79 6.79 0 0 0 .85.54c-.07-.24-.15-.47-.22-.7a4.25 4.25 0 0 0-.63.17zm1238.66 33.52c1.2 0 2.4.07 3.6.1l.06-.2h-3.7zm-368.94-2.87l.3.9.36-1.13c-.27.24-.54.48-.83.76zm-23.45 0l-6.36 1.75h.07l6.14-1.13zm421.8 0h3.6l.06-.18h-3.72zm-421.83 0a7 7 0 0 1-.73-.35l.6.94s.15-.6.13-.57zM213.4 533.93h2.85l.3-.37-3.45-.1zm1937.94-62.15l-1.56.83 1.44-.18zm-1898.14 1.9l-4.8 1.12a9.33 9.33 0 0 0 .3.35l4.4-1.52zm1898.13-1.87a9.09 9.09 0 0 1-.73-.27l.62.9.1-.63zm53.13 27a5.74 5.74 0 0 1 .66.43l-.46-.95-.2.55zm-130.57 138l-.3-.34zm-116.15 28.3a5.64 5.64 0 0 0 .4.63c0-.32.08-.64.13-1 0 .04-.5.34-.53.37zm-18.25-11.33a6.38 6.38 0 0 1-.71-.43l.47.88zm159.3-61.6l-.16.67s.55-.44.57-.44zm3.07-4.74l-3.05 4.74.4.23 2.48-4.94c-.01-.02.18-.03.18-.03zM141 588.86l-.87.36 1.15-.18a1.92 1.92 0 0 0-.28-.18zm2037-6.8c-.1-.24-.18-.5-.26-.73v1zm-1979.9-2.83a4.86 4.86 0 0 1-.56.71l1-.47zM2080.94 282.6l.12-.8-.9.27zm36.3-10.7l.5.08-.12-.48zm-1896 187.72l3.87.3-.17.42v-3.4l.43-.67-4.43 3.83zm3.67-2.7h3.48l-.42.14-2.63-.8zm21.77-24.7a5.11 5.11 0 0 1-.62.41l1.05-.07s-.47-.37-.45-.34zm-9.18-5.93a4.78 4.78 0 0 1 .54-.65l-1 .35zM275.4 468a3 3 0 0 0 .16.48l.22-.93a4.69 4.69 0 0 0-.38.45zm1847.42-6.4a5.69 5.69 0 0 1-.46.74c.32-.17.63-.35.94-.53zm-1894.9-1.4l-2.84-.27-.17.42h3.43zm-7-.13a5.11 5.11 0 0 1 .4.65l-.1-1.1-.3.44zm1893.84-.76a3.51 3.51 0 0 0 .33.45c0-.32-.05-.63-.08-.95a3.87 3.87 0 0 0-.26.5zm-1886.4-2.37v3.42l-.43-.17c.3-.35.92-.74.87-1a9.57 9.57 0 0 0-.84-2.07zm9.15-98.32a16.72 16.72 0 0 0-.72-1.94 7.72 7.72 0 0 0-1.08.32l1.17 1.56zm-134.86-17.47l-.46 1.05 1.62-.68-1-.48zm0 0h6.84a1 1 0 0 0-.1-.11h-6.63zm143.9 35.06c0 .28.44.6.68.9.3-.26.8-.5.8-.78s-.44-.6-.68-.9c-.3.26-.8.5-.8.78zm-9.68-17.65l.84-.52-1.13-.04.9.66zm41.5 339.9l-3.6-.07zM1791 668.9h-3.25l-.13.38h3.5zM54.7 757.42h0zM284 560.44l2.9-.1.23-.32-3.4.07zm1748.22 61.3l-3 .1-.17.26 3.35.07zm5.85-308.56h2.93l.22-.37h-3.37zM1698.53 147l.26-4.9h-.3v4.75s.02.15.03.15zm-128-28.34h-3.7zm29.43-2.94h0zM545.53 24.7l3.74-.06zm1621.84 455.88l.25.84c-.06-.23-.13-.46-.2-.67zM287.05 563.36l.1-3.35-3.4.07zm8.3-10.7l.5-.85-.85.2a8.58 8.58 0 0 1 .92.42 4.65 4.65 0 0 1-.58.24zm1733.78 63.2v6.24l3.35.07zM1790 667l-2.43 2.22h3.5zm247.85-350.9q1.68-1.65 3.38-3.28h-3.37l-.01 3.28zm-323.43 497c7.76 5.74 23.52 2.64 19.9 21.95l20.23-16.37a1.2 1.2 0 0 1 0-.19c4 8.92 11 7 18 4.9l-.4.22L1776 834a3.62 3.62 0 0 0-.23-1.21c-.08-.15-.62 0-.94 0l1.46.93-6.85 5.5-2.4-12.2c-25.64 15-52.87 4.18-78.94 6.94l.07.07h-3.6l.07-.1-50 2-.3.34c-1.8-.85-3.7-2.57-5.37-2.37-3.92.48-7.72 1.87-11.57 2.9l.06.2-1.77-4.05-1.76 4.1.18.5c-31-2.7-61.78-9.47-93.1-3.37-3.15.6-6.64-.53-10-.85l-.35.34-29.5 4.8-.33.33-7.66.76.1.3h-3.58l.06-.25h-17.28l.1.33-6.16-6-1.22-2.16-.9 1.66 2.4.18q1.32 3.17 2.63 6.34l.1-.32c-6.76-1.7-13.46-4.38-20.32-4.9-8.9-.68-17.93.33-26.9.6l.55-.24-15.92-1.25c-.78-6 3.6-18.3-10.76-16.46-4.36.56-8.07 6.14-12.08 9.43q1.7 1.63 3.37 3.3l5.7-9.15 3.34 1.4-6.06 18.3-16.56-12.4-4.32 5.33.14.47v-14.2l-4.72-.7q-.8 5.94-1.58 11.9l.3-.4-10.9-7.1a7.27 7.27 0 0 1-.69.32h1.08l-7.45 3.73.42.55-2.22-6.07-4.07 3.06.44-.38-29 6.28-9.27-6.4-.4.6 18.22-4.06-.72-2.93-17.47 3.68.42.4-3.35-3.36.32.25c-10-.82-20.08-2.15-30.12-2.28-6.64-.1-11.35-.87-10.75-9l2.57-8-2.7-.32.44 8.63-6-1.46c.37-1.47.74-2.94 1-4.45l-1-.25 1.3.45-14.45 1.86.25 3.77h11.7c-4 14-12.94-.34-20.5 2.52l5.75-13.06-14.26-2 4.44 13.3-.3-.17-13.35 2.25c1.8-3.05 5.25-6.56 4.52-8.14-1.82-4-5.54-7-10.15-12.4l5-3.3-.83-2.46-23.44 7.97-.92-5.3-4.94 6.25c-1.5-15.6-12.18-7.2-19.26-8.1a3.47 3.47 0 0 1-.34.59l.82-.37 10.42 2.45q-.06 3-.1 5.9l.47.3c-23.85.45-47.9 3-71.5.93-56-5-112.08-2.4-168.1-2.94-14.45-.13-29-.4-43.3 1-5.6.53-10.8 5.37-16.17 8.25l-.94 1.77.67-2 17.07 9.13c5.2-12.34 17.47-7.53 28.5-8.35 15.13-1.12 15.4 13.27 23.22 24.28l3.9-17.63 15.53 8.9-9.63 14.5-.23.22c-1.8-4.75-7-6.65-11.07-3.54-20.34 15.6-42 12.74-64.05 4.9a78.23 78.23 0 0 1-1.4-2l-.6 1.62h2.3l-11.86 2.2-.55-2.57 6.37-5.65-1.56-2.65-33.74 15 .06.15-3.54.07.08.17-35.22 6.28.4-.6-2.5-2.16-1 2.17.5.66-26.9 3.43.64-.16-7.22-5.68-.22.27c.75 0 1.5-.08 2.2-.15-.25-.7-.46-1.4-.48-1.47 0 .12.1.87.2 1.63-20.63-4-41.2-7.43-62.5-5.58-5.22.45-10.9-4.33-16.35-6.68a7.24 7.24 0 0 1-.65.48l.85-.24h-15.67c-5.6 2.5-5.6 2.5-12-3.7-5.4-5.18-27.75-2.5-34.1 4.08.16-.23.3-.45.44-.68l-.75.47c-1.22 1.37-2.3 3.8-3.66 4-8.4 1-16.87 1.26-25.26 2.3-2.72.33-5.24 2.26-8.82 3.9-5.32-3.2-13.25-9.9-21 1.73-19.56-8-39 5-58.56.3-8.58-2.05-17.24-3.8-25.84-5.67l5.4.32-.36-2.45-4.76 2.48-4-.4-.24.5c-3.74-1.34-7.4-3.45-11.24-3.86a367.78 367.78 0 0 0-30.07-1.77c-2.06 0-4.07 2.6-6.26 3.66-2.37 1.15-4.92 1.93-7.4 2.87-.34-14-9.77-3.3-14.64-4.93l10 3.13c-18.7 11-29.2-1.5-40.74-9.32l.7.37-.55-.68-14 6.5 10.82 5.16.16.16-20.27-5.9-5.84 10.87-.26.5c2.58-11.35 2.32-11.82-8.32-12l-63.1-1.3c-2.56-.08-5.08-1.9-7.58-2.86h.9c1.22-.53.32-.14-.58.26l-13.06-.24c-14.08 0-28.16 0-42.36 1.55-5.65.2 3.52-15.28-10.15-8.87h-.12L169.4 819l.2.4q-.86-2.7-1.72-5.4l-6.3-5-6.77-1.28c0 .76-.07 1.52-.1 2.28l7-1.13 1 6.32 5.12-1.23-1.9 5.45.2-.42-28.53-8.5c6.5-4 11.3-7.4 16.53-10 9-4.44 7.06-10.76 2.74-16.7-1.15-1.58-5.7-.68-8.7-.92l.34.43.5-4.9 1.62-2.53-2.53 1.62-13.47-2c-4.82-.6-9.66-1-15.3-1.56l-29.66 7.78.33-.62-1.8-3.1-1.67 3.13.4.66c-4.84 0-9.76.57-14.5-.14-10.3-1.53-21.25-2.54-25.37-16.2l-5.6 15.26c-5.63-14.76-3-20.06 10.07-23l-.25-.26h3.37l-.3.3 10.43 6.46c20.9-13.18 41.35-4.5 61.85.7.16.65.3 1.3.42 2v-2.18l18.46.8-.24.56h3.75l-.27-.6 31.63 2.1-1.7-14.9c0-.06-.26-.9-.26-.9l.3 1.3-8-8.6 53.1 4.9-1.06-.26.83.47 11.26 1.14.32-.32-4.56 10.68 19.65-2.2h5.7l19.22-.34-.27-4.33-10.55-4.17.36.18 25-10.74-.1.14 1.8 4.74 3.6.88v-1.3c-1.25.18-2.5.36-3.7.47l1.77-4.77-.07.07 5.4-2.76-.06-.23 3.58.07-.12.3 16-4.3-.2-2.6-48.32 2.48q-48.78 2-97.57 3.73c-14 .5-28 1-41.93.7-3.4-.07-6.77-3-10.16-4.68l-.58-.12 9.76-4.8c-2.42-1.74-4.62-4-7.3-5.1-4-1.66-8.3-2.5-12.47-3.7l-.4.32 12.3-10.3a9.93 9.93 0 0 1 1-.38l-1.34.7c-3.4-2.73-6.44-6.73-10.32-7.9-8.46-2.58-17.36-3.72-25.7-8 11.05-8.35 21.55-6 33.3-3.9 10.3 1.86 21.68-3.4 32.55-3.25 10.65.15 23.94-9.7 31.63 6.23l10.6-6.7 1.5 13.44h25.3l-.56-.52 3.58.06-.4.45 3.93 1.46.32-.18 48.68-1.22-.27-.47 3.6.07-.5.22 6.4-3.32-.15.44a53.1 53.1 0 0 1 6.59-1.69 48.24 48.24 0 0 1 9.95-.58c3.64.3 7.22 1.4 11.1.94L324 697v.08l4.26-1.1-.35-.44 15.9 3.46-6.67-9.62-.1.37c2.74.5 5.83.35 8.14 1.63 2.9 1.6 5.18 4.38 7.73 6.66l3-11.36h54.4l-.06-.22 2 6.08 1.6-5.86 18.95 7.13.38-.3c.2 1.2.37 3.43.62 3.44l50.5 1.62c1.3 0 2.54 1 3.82 1.5l.12-.14c9.58 3.06 19.37 6.84 24.22-6.82h-.1c10.07 0 20.15-.2 30.2.25 1.26 0 2.4 3.38 3.58 5.2l-2.98 1.44 1 .88 1.63-2.5 3.4.43-.52-.5 1.08 2.06 2.3-2.05-.57.45 4.82-1.43c-.4.83-.77 1.63-1.14 2.43l1.9.35-1.1-2.54c1.85-2.6 3.26-6.83 5.65-7.5 9.42-2.6 19.14-4.1 28.76-6l-.44-.46 1.14 4.95 2.16-4.93-.4.43 15.54-3.82-.4-2.47-15.2 3 .47.3-29.52-3.38.18.43h-3.53l.15-.43-2.76-5.3.08-.28.34.6h-29.35c-6.3 2.58-12.72 7.36-21-.86l-4.3-2.24-.62 2.53 5.2-.63c-6.43 10.22-9.85 2.24-14.12-2.82l-18.8 10.06.4-.65-3.4-3.37.47.27-3.7.07.2-.43-47.63-1.2c-14.66-.1-29.36 1.28-44 .48-15.22-.84-30.34-3.58-45.52-5.34-4.8-.56-9.68-.6-14.92-2.8l14.17-3c-31.5-6.9-62.74-14.18-95-2h32.12l.4 2.23-4.8 2.5h-8l.77 3.7 7.53-4.12 3.28 8.4.12-.1c-6.3-.64-12.57-1.7-18.86-1.8-5.47-.07-10.95.95-16.38 1.57.9.52 1.75 1 .4.25 1.57.15.65.06-.27 0l-13.3 1.8c.12-.35.24-.7.37-1v1.38c-13.43-2-26.8-5-40.3-5.58-6.6-.28-13.6 6.17-20 5.52-7.63-.77-14.83-5.9-22.24-9.14l-.37-.17.84.3-24.47-23.36-2.1 2.52 7.77 14-10.07 1.94c0-14.3-8.4-19.76-20.6-16.24-10.72 3.1-19.48.77-28.5-4l.33.44c3.5-1.52 6.87-3.7 10.54-4.46 17.9-3.67 35.85-7.3 53.9-10.18 6.8-1.1 13.9-.18 20.88-.18l.38-5.37c-10-1.5-20-2.68-29.8-4.7-3.08-.62-5.7-3.46-8.54-5.28l1.6-4.8-8.65 4.87-2.5-1.72 6.88-8.8c.55 1 1.1 1.9 1.67 2.85l.9-1.06-2.85-1.5 5.68-2.88a117.71 117.71 0 0 1 3.88 1.31l-.28 1 .44-.75-4.32-1.32 6.48-3.06-.28-.42 7.23-.18-4.1-2.95.48.27L141.3 589l-.26-.2h70.85l-13.32-9.38-.5-.26 15.16-7.13-.34.14c1.78 1.4 3.76 4.2 5.33 4 15-2 29.94-4.52 44.9-6.9a5.8 5.8 0 0 0 .89 1c.13.1.56-.27.85-.42l-2-.2q1.53-3.66 3.07-7.3l21 .75 33.34-4.08 7-.1c0 1.13.1 2.25.14 3.37l2.13-.62-2.38-2.85-6.85.12c-7.85-.4-17.36 3.24-20.46-8.52l-.33-.14 12.1.67a21.48 21.48 0 0 0-12.33-6.47c-6.34-1-12.83-1-19.32-1.27a14.4 14.4 0 0 0-1.34.74 3.77 3.77 0 0 0-.64.95l2.15-1.9 6.74 17.33-2.9.1-10.7-6.53-7.17 8.76-5.82-5.45.56-1-.2 1.34-14.64 2.34-6.2-5.33-.5-.83.9.45 1.37 7.1-.83-.27.53.6 5.12-2.14-18.4 3.44 6.5-2.7q-3.32-2.76-6.63-5.55l-1.5-2 1.75 1.82c0 2.93.1 5.85.17 8.78-4.22-2.5-12-5-12-7.5.06-7.54-18.74-12.75-3-21.74l-.3-.45 3.45.1-.3.37L275 538.7c10.3.6 21 1.37 30.88-.9 8.4-1.93 18.88-6.2 23-12.83 7.64-12.3 19.77-6.9 28.94-11.47a60 60 0 0 0 5.44-3.45l4.87-1.2-1.84-2.9-2.74 4.38-7.6-7 .93.35-.64-.66c-6.35-11.26-17-7.83-26.84-8.34-22-1.14-44-3.2-66-4.92q2.58-5.73 5.18-11.46l-8.18-.62 3.4 12.43-3.2-.86-3-3.52-1.2 2.3 4.6.8c-12.93 2.65-13.38 1.78-7.88-15.1l-.1-.05 22.7-6.1-.37.4c7.5 1 15.9 4.5 22.24 2.2 5-1.8 7.53-10.68 12.75-19v20.12l17.37 1c-1.1-21.22-3.67-22.46-40.6-19.18l6.1 1.16c-8.1 5.67-7.8 5.45-13.87-2.65-1.78-2.37-5.77-3.06-8.75-4.53l.2.27L269 432.6l6 .4.67-5-31.67-4-2.18-13.3 15.65-6.26-.2-.44h3.47l-.27.44 27.95-5c2.46-.43 5-.58 7.44-.86l-.27-.44 1.2 2.1 2.25-2.16-.15.43 3.7.15.36-.44 21.14-3v-2.57L261.94 387v-7.9h-.1q2.28-4.83 4.54-9.7l3-3.8 3.7-.65-1.47-1.8-2 2.72-3 3.9V353.5l-149.45-8.3v-4.77q46 0 92 0a4 4 0 0 1 .69 0l-.86-.38c5.06-6.12-13.17-15.5 6.5-19.6l-4.1-2.8-18.86 4.33.53-.33h-3.46l.54.3-48.2-6.94c-16.55-2.84-33-6.47-49.45-9.76l.82-3.88 90.68-8.88-.28-.25h3.42l-.28.27c13.65.08 27.34-.5 40.92.48 9.87.72 19.6 3.5 29.37 5.35l-.05-.23h3.83l-.06.22 23.93-2.75-.17-2.44L261 291.1l2.58-12.84c-8.32-2.85-12.4-.17-9.53 11.65-8.14-14-16.6-15.7-27.12-9.27-1.07.65-2.43 2.5-2.86 2.27-26.9-14-56.93-11.36-78.68-15.63l42.9-6.35.23-4.88-24.5-6.4 6.6-9.92 19.68-3.28-.36.36 32.9-.1q-1.34 2.1-2.66 4.23l-.78-.05s.6-.35.56-.4c.84-1.37 1.73-2.7 2.6-4l59.33-2.87-104.46-12.18-.34.43-7.76-3.37.22.44H166l.2-.43h-65.83c-.42-9.7 7.74-16.76 15.5-14.53 9.47 2.73 19.1 4.87 28.67 7.27l-.1.26 16-7.13-.36-.5h3.57l-.57.46 3.4-3.43-.5.57h6.06l-.18-.38h3.52l-.17.33c28-13.2 55.8-4.92 83.76.22 9.1 1.68 18.5 1.78 27.77 2.57l.63-.18-.8.63c5-3.1 19.5 4.73 13.1-11.35 2.28.15 4.48.24 6.68.33q1.46 5.25 2.9 10.5l4.9-1.8-4.78-7.88a2.45 2.45 0 0 0 .34.21c-1.27-.23-2.54-.47-3.87-.65-2.06-.17-4-.4-6-.63h-32.7l-.26-4.62 26.5-7.2-.27-.4c4.55 1.7 9 4.13 13.68 4.94 8.1 1.4 16.37 1.8 24.57 2.65l2.2 6.85a4.28 4.28 0 0 1 .38.29l-.73-.6-2.24-6.2c13.4-1 26.86-1.68 40.2-3.3 5.28-.64 10.2-3.8 15.46-5.2a146 146 0 0 1 18.09-3.56c6.25-.85 12.6-1.07 18.9-1.56v-3.88l-120-7.62-.27.3 14.5-5.07-83.15-13.14-1.9 2.26 8.76 7.2.63.72-.45-1q1.93 5.35 3.88 10.7c-27.18 7.8-53.6 11.75-80.6 4.72l.87.63-.6-.65-16.7-8 .28.4-9.24-6.3.47.17 13.32.95c3.07.15 6.16 0 9.24 0l.43-4.62-38.8-7.25c5.3-3.6 10-7.47 15.38-10.2a34.72 34.72 0 0 1 13.59-4.06l87.5-3.7c2.62-.1 5.3 1.55 7.94 2.4l1.2 2.1 1.34-1.44-2-1.34h46.2l1-5.87c-7.92-1.9-15.75-4.72-23.78-5.52-20.24-2-40.58-3.07-60.86-4.77-1.52-.12-2.87-2.3-4.3-3.54l-.27.07v-3.6l.3.08q6.5-6.86 13-13.7l-4.08 14.54 7.1-5.12c-.25.82-.45 1.57-.16.48-.25 1.15-.1.42.06-.3q-1.45-4.78-2.9-9.58c12.78-11.5 27.55-9.46 42.43-6.08 14.7 3.33 29.24 7.83 44.1 9.8 5.73.76 12.2-4 18.32-6.28l.4-.2c8.35.78 16.68 1.88 25.05 2.26 9.42.44 18.94 1 28.27.07 7.46-.75 16.6-.7 18.45-11.36l3.7 1.57c-.67 1.17-1.36 2.3-.4.7v-1.07l19.7-3-.12.13c2.13 7.22 5.6 9.35 12.38 4.25 3-2.27 7.3-2.9 11-4.26l.18-.08c2.34.37 5 1.6 6.95.95 5.67-1.9 11.17-6.8 16.58-6.6 25.07 1 50.1 3.35 75.13 5.22l.4-4.25-64.7-9.48c-5-.64-10.25 1.14-15.4 1.8l.63-.12c-6.52-1.34-13-3.77-19.56-3.73-7.23 0-14.45 2.33-21.68 3.64l.48.3Q411.57 63 400.34 59l1 .66-.75-.63-2.38 3.56-22.78-2.62.06.17c0-1.15-.07-2.3-.1-3.46l-.42.5 6.33-6.33-.34.4 4.9-2-4.84-4.34.38.4-3.38-3.4.46.27c2.72-.87 5.43-2.5 8.15-2.52l142.78-.52c35.25.25 70.5 2.7 105.72 2.35 36-.37 72.08-3 108.12-4.58.43 0 1.17.24 1.27.53a11.54 11.54 0 0 1 .27 2.27 4.75 4.75 0 0 1 .58.42l-.3-.84 3.25 1.76c-.2-.32-.36-.63-.53-.93l1 .4-1 .3c30.35-6.33 60.46-17.7 91.5-2.38 12.4 6.1 25.54 8.92 39.1 3l-.24.5h3.55q40.56-2.27 81.12-4.53 32.74-1.87 65.5-3.88l-.1-.34h3.7l-.1.34 22 4.16c-.7-.28-1.3-.5-1.93-.72.57.23 1.16.45 1.74.67 3-.67 7.5-2.9 8.62-1.75 7.4 7.53 27.53 12.94 37.64 9.25l-.2-.17 5.75 18.53c-23.7 7.6-45.45 10-69.5 2.73-14.5-4.37-31.76.48-47.8 1-7.85.25-20.52-2.94-22.68.57-6.35 10.28-13.36 7.56-21.8 6.72-2.48-.24-5.46 4.52-8.2 7l2.35 5.7c22.86-1.45 46.14-.68 68.5-4.86 32.47-6.07 64-2.45 96.14 1.14 18.14 2 36.7.13 55.07.2l131.34.93c6.13.1 12.17 4.33 18.2 6.58-2.2-.85-4.53-2.5-6.48-2.16-1.65.3-2.9 2.9-4.3 4.5l1.8 2.13 8.88-4.7 10.93 2.34.17 2.5h-38.8a8.24 8.24 0 0 1 .65-.36l-.9.55-43.76 7.46c-1.9.32-4.55.9-5.75 0-10-7.88-18.27 1.42-29.6 1.4l6.68 8.88-8.6 2.08-.17.58c.7-1.2 2.24-2.76 1.9-3.5-1-2.16-2.6-5.6-4.15-5.7-9.64-.67-19.33-.57-29-.72-.07 6.2-1.9 13.12.3 18.37 2 4.7 7.83 9.5 12.88 10.84a53.56 53.56 0 0 1 30.72 21.17l.4-.4L1207 167l.48.34-5.12-4.72.14.4-5.76-6.44c-1.33-.86-2.64-1.74-4-2.52-.1-.06-.64.62-1 1l4 2.8.48 5.2.35-.56-3.35 3.5.34-.37c-2.1-.4-4.44-1.6-6.25-1-3.2 1-6.06 3-11.7 5.94l8.86-13.2-3.83-3.46c-11.53 13.36-24.55 20.72-41.7 11.47a5.21 5.21 0 0 1-.63-.45l.38.92-40.18 10.67c6.5 2.53 8.74 3.9 11.16 4.28l54.56 8.45 2.24 6.15 3-1.76-5.57-4.1c1-.94 2.3-2.87 2.82-2.67 22.8 8.8 45.58 4.1 68.82 1.67 15.23-1.6 31 3.16 46.67 4.26a261.13 261.13 0 0 0 31.15-.17c11.94-.6 23.84-1.9 35.78-2.9.55.6 1.08 1.24 1.62 1.87l.38-1.7-2.35.22c21.17-.84 42.42-3.2 63.5-2.1 20 1.06 39.8 6 59.78 8.6 4 .5 8.44-1.7 12.53-3.08 17.25-5.85 34-3 50.53 2.8l14.28 4.82-2.2 10.8 12.83-6.4c-.3 9.73 1.38 10.5 18.16 6.7l-18.4-6.53-7.1-6 37.9-18.35.27-4c-11.5-.8-23-2.67-34.46-2.2-16.82.7-33.57 4.37-50.35 4.38-26 0-52-1.86-77.9-3.4-2.33-.14-4.46-3.57-6.7-5.48l-1.86-4.42-.55-3.13-1.14.63 2 2.2 1.42 4.85-21.48-3.94 5.44-10.64-.3.6 3.6.07-.1-.1 8.46.5-.15-.35h3.57l-.13.38 98.9-5.5c27.57-.8 55.2-.1 82.8.67l140.25 4.68c28.54.67 57.13-.6 85.68 0 18 .36 35.9 2.8 53.88 3.7 11.5.6 23 .1 34.58.1l.3 5.9-49.23 4.07-54.68 3.18c-13.6.5-27.26-.37-40.86.14-3.76.15-7.42 3-11.13 4.66l.53-.24c-5.08-1.63-10.17-4.7-15.22-4.63-15.52.2-31 1.93-46.54 2.4-9 .27-11 4-8.13 11.46h88.32l4.85-8.6-.26.44c-3.5 20.33 14.64 9.35 19 9.85 14.82 1.7 30.3 2.74 45.62-3.35 9-3.58 20.45-.95 30.8-1.12h-.65l1.74 5.2c-1.48.92-2.9 1.87-4.32 2.82l-1.82.6c.32.05.77.24.9.1a3.62 3.62 0 0 0 .59-1.12l4.47-2.45c11-.46 22.05-1.5 33.06-1.3q60.5 1.18 121 3.25c5 .18 9.9 3.2 19.4 6.5l-13.17 8.36q1.44-2.58 2.9-5.14l-2.1-.73-.4 6.25-26.77 3.26c-17.65 2-35.3 3.88-52.94 8.27h42.73v-.63l-1.22 3.7-27.74 4.37.3 4.12c6 0 12-.26 18 .07 6.5.37 13 1.3 19.46 1.95l2.93-1.83-2.92 2-10.36-10.95 11.93.2-.35-.4 2.26 2 1.14-2.05-.37.44c.78-.22 1.55-.46 2.32-.7l-.38-.3.9 9.1L2072 239h49.45c-5.1 23.38-22.83 15.8-35.66 17.94-6.56 1.1-13.6-1.1-20.35-.63-4.26.3-8.37 2.8-12.54 4.3l.8 6.66 56 2.55c2.55.13 5 1.38 7.56 2.1l.4-.4-54.66 4.28 12 6.3c-10.46 22.62-28.48 14.23-45.52 10.24l.06.15H2026l.08-.1-9.95-9.67c.64-.08 1.3-.2 1.95-.3l-.18 1.2-1.54-1.4-29.36 14.6 67.1 9c5.43.78 10.68 2.78 16 4.22l.5-.25-5.82 3.26-8.9-.1c0 .94 0 1.87.07 2.8l2.8.7 6.13-.64h8.76l-.32.35c21.24.55 42.5.62 63.68 2 4.4.3 8.47 5.57 13.66 9.24l2.77-6.26 17.44 7.83-29.16 3.27-15.34 15.08 15.93 11.1.22-.18-4.5 4.73-.9-2.35-1.14 1.62 2.33.4-6.3 11.12h14.1c.07.05.54.67.54.67l-.7-1c15.9 4.32 31.9 8.32 47.63 13.18 4.26 1.3 7.72 5.23 11.54 8q-5.58 3.55-11.15 7.1l.36-.36-13.84 7.54-.7.64 1-.42 8.55 20.78-13.87 4.18-.1-.06-8.53 12.3-.06-1.4c-.28-1.4 0-.13.23 1.14-14.5 1.54-29.08 2.57-43.43 5-4 .68-7.42 5.38-11.1 8.24a4.53 4.53 0 0 0 1.16 0 7.86 7.86 0 0 0 1.35-.56l-.25.44c-3.26 4.94-18.6-2.35-12.34 12.2l-.3-.35c-1.32 7.57 4.66 11.43 9.44 10.52s8-7.52 12.73-10.4c7.3-4.47 1.65-6.6-1-9.47l-.52-.23c8.74 5.64 26.72 1.3 21.44 19.8l-17.57 6.13c0 1.5.1 3 .13 4.48 3.6 1 7.2 2.85 10.8 2.9 15.73.22 31.48-.2 47.22-.15 12.55 0 17.88 7.43 18.63 19.1l-.78-.7.6.27 7.3 2.5-.26 2.54-13.68.93.5 5.4c-5.2-.82-13.52-3.9-14.82-2-6.53 9.3-12.42 2.85-18.64.9l-6.3.3-1.16 3.1 1.22.2c-.1-1.1-.17-2.2-.2-3.25l6.58-.28c-2.14 11.3-9.32 14-20.4 10 7.23 11.83 4.8 15.62-7.24 17.1-10.24 1.26-20.26 4.33-30.37 6.6l-16.24-1.16.57 5.1 15.6-4.07 33 7.38 8.22 1.75-.26-.38h3.5l-.28.4 27.87 15.95.28-.24-76.4 5.38c-6.18 1.58-12.42 3-18.4 5.13-.44.15 1.1 5.78 1.9 9.82-1.78.3-4.3.1-6.12 1.15-6.28 3.57-12.32 7.57-18.45 11.4 3.68 4.36 7.7 8.48 10.88 13.17 1.5 2.23 1.45 5.54 2.1 8.36l.3.35c-7.4-7.57-14.4-14.44-26.32-6.34-3.68 2.5-10.4.5-15.7.6l.43-.3-43.42.94c-4.1.2-8.1 2.32-12.17 3.56l.34-.44c-1.66-1.24-3.32-3.6-5-3.56l-77 1.87c-.57 0-1.1 1.34-2.64 3.37l36.24 4.4.56.35c-.34.35-1 .7-1 1.05.07 1.72.3 3.43.48 5.14l-9.93-2-.28 2.87 10.18-.77 10.53 6.7.26-.5h-19.08c-2 3.26-4.5 11.32-10 15.34-4.17 3-12.1.94-18.38 1.12l-.06-3.75-6.72 9.43-7.4-10.07c-15.14-1-29.7-2.44-44.3-2.73-12-.24-24.13.88-36.2 1.38q-5-1.37-10-2.7l.4 7.1h3.25l11.86 3.5-5.94-8.37c.45-.17 1.2-.6 1.3-.47 11.1 12.7 28.26 12 40.45 18.22l-5.6 11.7a5.21 5.21 0 0 0-.47-.47c0 .28 0 .56-.07.83l5.15 2.12-.18-.47 3.88-.05-.18.5 11.7-1.2-.4.6c2.8 2.45-9 10.2 3.34 9.2l-.65-.12h3.57l-.35.24q7.93-2.93 15.85-5.87l-4.43 2.74-3.63 3.5 3.58 1.7-.32-5.5 4.47-2.68q5.67-1.65 11.34-3.27l-.47.36.12-.72 13.95-3.4 8 11.34.1-.07-8.94 5.72-23.76 8.88 13.58 7.46-.26.45c9.66 1.87 19.28 4.1 29 5.5 9.45 1.36 19 1.87 31.75 3l-9.76 7-20.8 4.9-1.1 3.12.67-.15-1.12.05 1.27-3.27 12.93 4.16-1 4.25q-9.7-2.2-19.35-4.35a5.15 5.15 0 0 1-.4.5l.68-.3-12.76 5.67.2 4.26 25.93-1.32-13.28 7 21.23 2.78.36 3.13-78.35 12.08c-3.42.54-6.64 2.35-10 3.58h0c-4.4-1.28-9.77-9.3-12.46 1.75l-7.27-.1-7.84-3.42-1.33 4.46 9.64-1.34c2.3.1 4.52.26 6.74.42l13.6 8.54 5.58-1.17c.34-.93.7-1.84 1.1-2.75l-1.3-.1.68 3.18-6.22.82 2.28-7.6-.14-.18c8.58-.6 16-1.42 20.72 9.52 3 6.87 11.44 2.87 17.8.2 3.7-1.56 8.23-1.1 12.38-1.56l-1.9 6.76-.32.47c-2.44-1.4-6.7-4.34-7-3.93-8.2 9.53-18.37 9.24-30 8.88-28.32-.87-56.7.14-85 .4l.07.17-3.66.05.1.2c-11.92-1.3-24.1-1.55-35.7-4.26-9.1-2.12-14.63 1.2-20.1 7l-.34-2.25-3.18 1.38h-25.17l4.7 17.56 5.9-10.57 1 3.86q7.8 0 15.56 0l4.25-1.35 5-1.3-1.13 5.95.68-.76-.1 1.5a4.94 4.94 0 0 1-.68-.78c.37-1.93.66-3.82.9-5.66l-4.3 1.52-4.8.78-.55-9.24h1.4zm391.83-476.95l-.4-.4.72.7-.87.55c.18-.3.36-.6.55-.85zm-1744.2 122.9a5.21 5.21 0 0 0 1.22-.55c.23-.2.27-.64.4-1l-1.84 1.93zM322.4 281l-.7 3.58-2.47-.8-2.12.78 1.1 1.2c.4-.66.8-1.33 1.14-2l2.56-3.26 1.5-2.05-1 2.57zm1715.66 32.17l-2.34.8 2.54 1.7 5.6.32-2.87-2.82zm-2.78 292.23l-2 1.3c.66-.56 1.33-1.1 2-1.73l.2-.72zm4.63 6.27l-5 1.7-5.55 2.78-3.25.13-4.4-5.37-1.68 3.2 6.44 1.8 2.76 5.92 3-.1c8.7 4.68 14.52.4 22.87-5.4l-17-2.83a12.63 12.63 0 0 0 1.41-2.1c.2-.93.38-1.87.52-2.8l-1-.23c.26 1.1.57 2.2.87 3.32zM373.32 500.9h-.9l1.3.1 1.68 3.15 1.46 4.1 2.63-2.5-4.36-1.38c-.58-1.14-1.12-2.32-1.8-3.48zm88.06 74.33l-.86-.62a5.06 5.06 0 0 1 1.11.2l-.35-.4.1.8zM261.2 549.85l-.5-.26a4.51 4.51 0 0 0 .67-.06l-.5-.7zm803-442.73l-.5-.5a2.74 2.74 0 0 1 .82.31l.14-.22zM300 99.8l-1.18.25 1.5-.56v2.9a14.23 14.23 0 0 0-.33-2.58zm172.4 24.82c.3-.34.93-.87.86-1a14.2 14.2 0 0 0-1.34-1.6l-.3-2.33-1.56.93 2.2 1.07.48 3.28-2.45.25.92 1.5zm128.13 1.07l.84-.33-1.28.35.8-.74a2.1 2.1 0 0 0-.33.72zm83.75-1.08l1.17 2.16.94-1.76-2.4-.02-4.8-1.85-3.6 4.56-9.75-.92c-8.8-4.2-17.27-4.77-25.28-.2l.37 4.32 26.18-2.44 8.2-1.08 5.7 4.6.6-.32h-1l-1.45-8.5 5.16 1.43zm11.57.13l2.26 2.1.6-1.16-3.2-.56-.48-1.06.84.67zm390.24-4.7l-.9.62a3.74 3.74 0 0 1 .83-.81l3.25 1.44.22-1.28zm-783.25 6.4l.3 2.52-.6-2.3-.6-.1a4.88 4.88 0 0 1 .91-.14zM565 72.74l-3.6.43.5 1.3 3.24-2.17.86.7-1.5.5c.18-.33.37-.6.5-.75zM886.17 181.9a.78.78 0 0 0 .13-.24l-6.65.13-1.16-1.33 1.2-.3.2 1.8zm88.5 0l.74-.43-1.15.12.53-1.28c-.03.56-.06 1.1-.12 1.6zm838.54 38.54l-.1-.1 5-.44-.37-.8.2 1.12zM216.62 145.4h-2.23l.57 1.73 1.3-2 2-1.27-1.7-.66c.03.8.04 1.47.05 2.2zm826.55-15.08l2.95-2.9 3.32-.12 8.43.07 11.88 3.2.64-2.16-12.2-3.84-3.34.1-5.83 3.07v-5.83l-2.17-.07-.43 5.93-3.26-.07-4.2-1.14 1.22 3.7zm562.2 685L1607 812c-1.33-.3-2.66-.6 0 0-2.53.64-1.15.3.2 0l-2 3.68-.47.32zM593.7 781.54l1.7-1.88-1.57-.76v2.25l-1 .33zm76 20.86l.18-.76.26.7-.65-.3a2 2 0 0 1 .23.34zm5.66-3.9l3.56.58 2.92-.77c2.32 5.35 2.32 5.35 10.13-4.15l-.34-.3 4.47 4.5.8 2.28 2-2.27c5.76.45 11.54 1.54 17.26 1.25 16.62-.86 33.2-2.27 49.88-3.54a5.4 5.4 0 0 0 1.14.65c.14 0 .4-.27.62-.42l-2.17.22c-6.22-2.23-12.28-5.24-18.68-6.52-8.63-1.7-17.53-2.1-26.3-3l.18-4.74h50.1v-5.77c-43.42-4.8-87-.84-130.5 1.17l-1.24-2-2.26 2.07-2.28 1.16 1.38 1.44 1.45-2.05 1.14.35 1.18-.24c4 1.12 7.84 2.84 11.86 3.25 9.77 1 19.6 1.4 29.4 2h31.2l.26 3.72-33.37 3 2.37 7.94c-.72.4-1.44.82-2.2 1.2l-4.47-.43-1-.6.9-.8c.2.26.42.55.66.83zm152.2-20.5l1.5.16a14.91 14.91 0 0 1-1.8.19l.45.47c-.05-.3-.1-.6-.16-.82zm1076.62-110c.15-.26.3-.52.47-.78l-.62.68.42-.88.63 1.3zm-1687.72.36a8.78 8.78 0 0 1-.28.48zM596 698.92l.4-.95c-.13.2-.27.4-.38.55l-.2.9-.57-.76zm1034 117.2l-1.8.65c0-.43-.06-.86-.1-1.3a18.62 18.62 0 0 1 2.19.31l-.55-.48c.13.27.26.54.26.82zm-124.7 4h.52l-.82-.28-1.15-2.08-.38 2.77-1-.47.82-.26-.36 1a24.21 24.21 0 0 0 2.41-.72zM573.43 73.25l-.47 2 .4-1.88h7.07l4.86 3.88 1.27-2.3-6.22-1.68zm508 54.1l1 .64-1.44-.24-.55-1.76c.08.14.5.75.95 1.36zm-946.7 575.87l-.55.6 1-.1-3.07-.27 2.62-.23zM1837.6 495.6l1.53 1.94.46-1.45h-2.5L1836 495c.53.23 1.05.43 1.6.6zM225.52 320.24l.57-.65-1.05.46-1.34-1.23 1.2-.53c.23.7.46 1.33.6 1.95zM713.77 739.8l-3.5 1 1.75 1.54 1.55-2.8h3.22c.92 1.56 1.87 4.48 2.77 4.46 15.47-.22 31-.12 46.4-1.53 12.75-1.16 25.75-6.9 36.18 5.7l.72 2.27 1-1-2.24-.84q-.63-7.2-1.26-14.42H760.9l-3.23.08-41.13 5.58-1.28-2.14zm-558.3-47l-5.7.46.66 2.26 5.28-3.13-.43-.5.2.88zM2039 259l-.7.47 1.14-.57 1.53 1.62A14 14 0 0 0 2039 259zm-237.7 451.53l7.37-3.65-1.8-2.4-5.57 6.14-2.92-6.56-2.73 1.27 5.7 5.23zm-312.16-502.7l-4.6.7.7 1.55q2-1.16 3.9-2.33l1.8 4.06 2.2-1-3.97-2.97zm150.5 619.7l.54-.34c1.07-1.28.15-.18-.74.86l.53.4zm-1257.02 1.9l.5-.48c.9-2 .3-.7-.4.54l-2.58-.08zm34.07-534.1l.76.17-.72.38.43-.48v-5.77l-2.65.34a154.87 154.87 0 0 1 2.18 5.36zm-19.5 98.26l-.33.83.73-.57-.36 3.4 2.46-.16zm536 382.7l5.78.05 9.4-2.27-1.67-3.17q-3.75 2.64-7.54 5.24h-6.18q-.36-4.74-.7-9.5l-3.1.72 3.98 8.93zm-761 27.76l1.8 1.87-2.2-1.5 5.76-4.65-2.72-2.15q-1.33 3.2-2.65 6.44zm1715.44-56.72l4.94 2.47.45-2.5-5.64.4.16.75zm167.2-136.47l.26-3.1-1.25.23 1.35 2.6 1.13 10.1 3.45-1.3-4.94-8.53zM1526.28 819.6h7.93l6.37-.68 20.4.53-.7 12.07 8.75-13 11.74.72.17-2.82-10.87-.8-.4-.33c.14.2.27.43.4.64.1.36.4.8.3 1.08a11.39 11.39 0 0 1-1 1.82l-8.84 1.1-19.53-.54-7.32.76c-2.36 0-4.72-.1-7.1-.18l-7.5-2.18-.06 4.53zm-538.6-40.54l.14-.88.4.67-.7-.13q-1.17-5.22-2.36-10.45l-6 6.54 8.53 4.25zm838-70.24l-10.38-5.78-1.45 4.5 11.48 1.22-.65-3.68-1.3.56zm170.1-103.1l-7.5.83 3.62 4.52 3.47-5 .5.6c-.06-.34-.08-.64-.1-.95zm124.6-239.58l-5.25-6.74-2.68 3.9 8.28 2.5-1.34 10.68 4.4-.15q-1.76-5.1-3.43-10.2zm-1945.15 421l-3.07-.1-4.9 4.36 4.73 3 3.22-7.23zm1877-509.3l.5-.1-.84.48-11.6-1.35-.1 4.16 12.03-3.17zM668.2 703.7l14-7.7h-19.98l-2.4 3 8.3 4.77-3.47-1zm438.5-577.53c2.5-4.2 15.3-4.9 2.5-15.92l-2.27 15.64-.8-.27zm-558 668.47l-.3.77-.24-.8.66.38 27.84 5 .54-5.42c-9.56-.02-19.07-.02-28.53.08zm1457.76-179h-1l1.4-.4c-1.3 14.83 6.07 4.94 11.3 5-3.16-6.67-4.3-15.7-11.74-4.6zM1652.14 183l-16.56-2.5.34 7.15 17.12-3.13-1.4 7.35h11.63q.6-2.64 1.2-5.28zm287.48 54.85l2.65.4-.43-1.44-2.3 1.25c-2.18-2.22-4.35-6.3-6.55-6.3-6.37-.05-12.76 1.53-19.14 2.47v3.7l25.78-.04zm-504.76 581.47c-2.68-1.05-5.63-3.37-8-2.9-5.46 1.08-10.64 3.53-15.94 5.43l11 7.68-1.28-.48 1.2.56 1.8-8.45 11-2.14 7.53-.58-1.06-2.7zm-1010.5-86.4l40.78 3.5v-6.63q-20.2 1.73-40.32 3.5l.08 1.74zM1943.1 248.7h-12.22l.72 4 11.5-4.1c8.7 10.95 22.14 13.58 31.82 7.38l-31.82-7.27zm-147.95 536.62l-.65.33h1c-9.06-2.2-17-12.63-28.64-4.07 8.88 11.28 18.64 7.25 28.3 3.74zm-1159.7-99.8h16.38l-.64 3.2-8.74 5 14.3-1.48c-.56-10.13-5.16-16.28-13.57-15.9-2.62.1-5 5.78-7.45 8.86l-.35-.6zm116.27 16.1l-.85-1.7c0 .33-.22.84-.08.95a4.5 4.5 0 0 0 1.25.51c20.24 8.9 34.43 8.38 39.72-4.2zM392.84 465.72h3.1l14.43-5.42-.47-3.53h-38.4l-.55 3.66zM672.6 68.9l-34.47 1.34.47 6 34-4.8L730.27 76c-3.38-4.27-7-5.74-10.63-5.9L672.6 68.9zm267.75-.15l-20.36.33-3.33-.1-7.86-3.3c2 18.22 3.9 19.44 23.36 17l8-14.22h6.37l-.43-2.68zm-521.3 61.6l3.48-.07c25.44 2.05 26.92 1.7 45.23-12l-74.38 6.94v5.14zM272 634.55l6-3.06c-2.06-2.25-3.84-6.08-6.22-6.5-15.73-2.73-31.77-3.86-47.33-7.27-10-2.18-18.3-3.5-24.5 6.4l49.63 5v-.27l22.54 5.22c.03.14-.02.3-.1.47zm848.62-511.85c3.7 2 7.22 4.47 11.15 5.6 2 .57 4.7-1.4 7.08-2.22h0c9.4 1.56 16.48 16.54 25.82 8.07l-5.76-31.54c-3.84 2.33-11.3 4.46-14.52 9.37-5.2 7.92-9.15 11.44-18.26 5.76-5.43-3.37-8.5-1.3-5.34 5.27l-2.34-.34zM233 802.85c50.2-3 99.7 10.34 148.44-6.27C338 787.6 238.9 791 233 802.85zM839.9 76.6c-20-15.23-41.3-14.72-63.12-5.8zm49.75 734.86l-18.34 12.66c10.9 6.27 28.18 4.38 33.35-4 .92-1.5-.26-4.3-.7-8.92l-7.3 6.94zm-661.5-48.68l-.57-6.34L189 759.7l.7 7.5zM501 118.63l-.14 5.55 36.42-1.73v-3.82zm486 7.2l.13 6.24L1033 130c0-1.4-.08-2.78-.1-4.17zm1018.16 330.65l-.4-2.7h-43.68l.07 2.7zM293.7 233.05l54.3-3.46c-45.37-5.26-51.76-4.5-54.3 3.46zm60.44 238.68l1.3-6.16c-6-1-12.15-2.87-18.07-2.4-2.24.2-4 5.87-7.58 11.5zm1469.92 241.5l-1.66 3.14c3.83 2.14 7.53 5.6 11.53 6 3.1.3 6.76-3 9.73-5.2.76-.57-.13-3.33-.26-5.08-3.2.38-6.4.9-9.63 1.1s-6.47.04-9.7.04zM2105.43 534l-.45 3h35.3l.06-3zm-210.13-34l.6-1.62-33.6-3.13-.32 4.75zm-75.5 225.64l-7-16.64-10.4 16.64zM582.32 792.3l.33 2.46h35.17l-.33-4.83zm1142.27-294l-.5 3.27h34.83l-.06-3.27zM228.5 802l-.54-5.4-26.45 3.32.53 5zm222-407.4c0-.65 0-1.3-.05-2H419.7v2zm115.56-275.2c0 .88.1 1.76.16 2.64h24.23v-2.64zM624 781.14l1.15-2.48h-24.93l.06 2.48zm-414.23-520.8l-5.34-13.4c-8.36 10.33-8.36 10.33 5.34 13.4zM1253 781.23l-.44 4.24 23.53 1.58.14-2.73zm-1061.63 28.5l8.16-9.85-20.06-1.37zm368.2-687.47l.53-3.92-16.46-1.58-.38 4.7zm335-45.47l-.18-2h-23.5v2zm-48.64 101.74v1.53h21.36v-1.53zm834.22 638.3l-5.52-1.43-1.3 10.58 4.35.72zm-721.9-46.2v3h11.1v-3zm446.62 54.48l4.47-3c-2.52-2.25-5-4.53-7.64-6.66-.15-.12-1.3 1-2.6 2zM1259.06 797l-1.3 4.08 7.9 3.35q1-2.46 2-4.93zM307.5 124.76l-.16 4.3h13.1c0-.78 0-1.55.05-2.32zm1378.32 67l-.36-1.84h-15.94c0 .62.08 1.23.13 1.84zm261.6 148.88l.65 4.6 10-2.74-.58-2.7zm-1310.5 450c0 1.3.07 2.62.1 3.93l8.86-.6-.06-3.33zm-473.55-13.08l2.15 5.48 10.14-5-1.4-3.7zM446 428.3v1.14h9.35v-1.14zm491.14-245.45V181l-16-.9-.1 2.72zm924.12 533.2l-.15 4.55h11.08l.07-3.6zM2023.7 453.5l-.8-2.8-14.08 2.15.48 2.93zM685 692.1l-.7-2.45-10.13.73.12 1.72zm1476.4-281.8v2.4l8.7-.74c0-.36 0-.72.07-1.08zM1015.6 104.74c-5.7-2.4-7.22-3.63-8.5-3.42-1.07.17-2.84 2.3-2.6 3.05.43 1.45 2 3.43 3.2 3.57 1.6.17 3.4-1.25 7.92-3.2zm-788.1 555.13l-.27-2.94-11.4.5.35 3.7zm315.25-32.3l1 2.77 6.92-2.8-1-2.48zM1938.1 216.8l-.43 2 8.7-.5-.1-1.48zM535.6 625l-4.37 2.12 5.25 7.3 3-1.8zm1014.6 48.66v-.42h-6.2v.42zm137.4-493.36l-1.77-3.43-7.25 3.9 1.5 3zm-93.9 635.7l-1.14 3.2 5.78 1.38.67-2.15zm-998.16 15.24l.46-2.8-8.22-2.65-.93 3.4zm-121-367.6v1.57h7v-1.57zm401.15 207c-.8-1.63-1.1-3.13-2-3.77s-2.2 0-3.36 0a17 17 0 0 0 1.5 4.47c.26.4 2.23-.33 3.9-.67zM1928 301.56v1.5h10.44l-.06-2zm-831.6-197.3l.07 2.44 8.86-.4c0-.68-.06-1.36-.1-2zM202.52 818c0 1.47 0 2.94.08 4.4l7.93-.83v-2.64zm1467-638.26c-.48.9-1 1.78-1.45 2.67.8 1.12 1.75 3.27 2.34 3.17 2-.34 3.94-1.46 5.9-2.28zM426.07 663.22l.16-2.5H415.7v1.86zM894.65 838.8c4.37-3.46 6.5-4.62 6.35-5.12-.56-1.9-1.84-3.6-2.85-5.4l-3.5 10.5zM206.92 147.17c-4.44-1.64-6.48-2.88-6.9-2.46-1.44 1.42-2.32 3.4-3.4 5.2zM2049 260.7l.23-1.35-1.38-.07a4.59 4.59 0 0 0 .2 1.35c.04.13.6.05.95.07zM377.38 660l1.88 3.17 5.22-4.18-1.2-1.84zm145 41.82l1.1-3h-9.56l-.14 1.93zm6.83-3.47l.65 3 9.43-.76c0-.74-.07-1.48-.1-2.2zm1603.4-223.2l2.38.26c.1-2 .22-3.9.17-5.86 0-.07-1.66-.1-2.55-.14zM847.38 74.82l.06 1.57h8.92c0-.73-.07-1.46-.1-2.2zm-109.8 625.73v-.92h-5.17v.63zm-372.25-40.42l-.45 2.5c2.26.2 4.52.4 6.78.46.05 0 .15-1.62.23-2.48zM1935.9 345.05l3-.87-1.06-3.53c-.64.24-1.74.37-1.82.73a19.12 19.12 0 0 0-.12 3.67zm55-87.18l-.67-2.26a8.43 8.43 0 0 0-1.49 1.28 1.74 1.74 0 0 0 .12 1.14 14.7 14.7 0 0 0 2-.16zM626.28 128l-.93-2.84a11.53 11.53 0 0 0-3.09 1.58c-.3.3.36 1.6.6 2.45zM400.05 659.58l-.83 2.74h7.14c0-.58.05-1.16.07-1.74zm1701.23-310.76a19.72 19.72 0 0 0 1.85 1.34c.08 0 .5-.5.78-.8l-1.88-1.53zm-1958.85 312l2 2.26 3.68-4.2-1.7-1.58zm1707.33 60.45c1.22-2.5 2.36-3.76 2.08-4.5A5.3 5.3 0 0 0 1849 714c-.55-.2-2.6 1.6-2.47 2 .47 1.5 1.6 2.78 3.23 5.3zM1529.83 746l.16 1.94 6.12-.5c0-.66-.1-1.32-.16-2zM849 667.94v-1.05l-3.55.05c-.1 0-.14.65-.2 1zM303.56 380.82l-1.4 1.18 3.45 4.07 1.53-1.32zM842.12 68.2l-.23-2.72-6.13 1 .18 1.73zM276 382.7l3.56 2c.4-.82 1.33-2.14 1.1-2.37a7.94 7.94 0 0 0-3.08-1.86c-.2-.1-.92 1.25-1.6 2.23zM953.22 66.44l.2 2 5.8-.67-.22-1.97zM817.07 741.57v-1.2l-4.34-.24-.06 1.43zm1045.8 63.54l.23 2 5.62-.7-.23-2zM343.5 661v1.83h7.33V661zM186.7 762.28l-2.1-.06v5.68l1.8.06zm162.74-201.1v.57l3.48.24v-.8zm359.05-440.3a3.17 3.17 0 0 0 1.18.05c.15-.05.12-.62.17-1a3.4 3.4 0 0 0-1.19 0c-.14.07-.1.63-.16.95zM473 838.7c-.1-.38-.1-.85-.32-1.1a4.29 4.29 0 0 0-1.21-.67l.2 1.93zm140.1-714.64a22.35 22.35 0 0 0-2-1.15s-.72.85-.62 1.06a17.68 17.68 0 0 0 1.47 2.14zM1988.64 620.4l1.82-.12-.34-6-2 .14.52 5.98zM697.5 698l-.1-2.5-6 1c0 .5.1 1 .14 1.54zm606.1 86.66v1.3h6.2v-1.3zM390.45 228.9a22.25 22.25 0 0 0-2.47-.46c-.18 0-.4.47-.6.73a23.78 23.78 0 0 0 2.47.56c.16.03.4-.5.6-.83zm891.46.18h0zm-537.5 2.33c-.62.74-1.48 1.34-1.63 2.08s.5 1.54.8 2.3a16.27 16.27 0 0 0 2.25-2.61c.17-.2-.83-1.13-1.4-1.78zm339-126.8l-.88 1.88a6.45 6.45 0 0 0 2.36.81c.34 0 .62-1.2.93-1.87l-2.4-.82zm37.4-.5c.87-.3 2.06-.4 2.4-1s-.46-1.55-.75-2.36l-3 1.25 1.35 2.1zm-842.26-3.48l.38-1.84a38.45 38.45 0 0 0-4-.38 11.28 11.28 0 0 0-.35 2zm1444.4 130l-.43 2.48 4.8-1zm227.8 0l-.7 1.92 4.63.43.22-1.67zM162.75 624c1.57 2.22 2.33 3.52 2.48 3.45a29.71 29.71 0 0 0 3.55-2.09zm1371.47 49.58a11.67 11.67 0 0 0-2.13-1.17c-.32-.1-.82.3-1.24.5.36.54.73 1.53 1.1 1.53a6.66 6.66 0 0 0 2.27-.84zm-887.4 25.92l-2.56-1c-.3.82-.93 1.68-.8 2.42.07.42 1.64 1.1 2 .87.66-.42.92-1.46 1.37-2.3zm65.57 1.23l.48-1.4-3.76-.7-.3 2.1zm-85.52 91.7a18.74 18.74 0 0 0-3-2.42c-.25-.13-1.17 1-1.78 1.47a27.27 27.27 0 0 0 2.55 2.81 22.17 22.17 0 0 0 2.23-1.86zm1468.8-310.87l.17-1.33-1.68-.14a4.47 4.47 0 0 0 .53 1.26c.17.2.64.15.98.2zM612.33 71.47l-1.3 3c.8.24 1.9.94 2.33.65a11.27 11.27 0 0 0 2.17-2.67zm95.88 53.9c-2.1-.54-3.43-1.33-4.34-1s-1.06 1.9-1.56 2.9c.75.27 1.67 1 2.24.72 1.08-.4 1.96-1.34 3.66-2.63zm7.83.88c-.1-.52-.18-1-.26-1.58l-4.7 1.1c.17.4.38 1.13.5 1.12 1.5-.15 2.96-.4 4.4-.64zm237.9 646l-.66-.12.22.9zM212.1 257.92a47.12 47.12 0 0 0 .4-1.27l-1.4.87zm1442.1-41.26a7.93 7.93 0 0 0-2.64-1c-.4 0-.84 1.12-1.26 1.74a6.53 6.53 0 0 0 2.43 1c.5-.1.95-1.1 1.47-1.74zm56.13 15a6.29 6.29 0 0 0-2.33-.82c-.5 0-.9 1-1.36 1.46a6 6 0 0 0 2.27.81c.5.01.93-.88 1.42-1.4zm84.77-14.86l-1-.38-.25 1.37a3.46 3.46 0 0 0 1.09-.18c.14-.04.1-.5.16-.77zm-476.23 568l-2.75-.58a10 10 0 0 0 0 2 1.6 1.6 0 0 0 1.29.17 8.89 8.89 0 0 0 1.46-1.56zm9.37-.85l-1.3 1.6a5.9 5.9 0 0 0 2.21.81c.47 0 .9-.92 1.33-1.42zm-1258-12.85c.63-.4 1.6-.65 1.76-1.17a6.21 6.21 0 0 0-.27-2.48c-.83.42-1.92.66-2.4 1.33-.28.4.52 1.5.88 2.35zm932.54 8.9l.07-1-1.25.43zm1054-189.27c.52.57 1 1.54 1.53 1.58a6.82 6.82 0 0 0 2.47-.88c-.48-.57-.93-1.58-1.45-1.6a7 7 0 0 0-2.55.93zM166 694c-.7-.55-1.33-1.43-2-1.46s-1.46.74-2.2 1.16c.68.52 1.32 1.38 2 1.45s1.48-.68 2.2-1.15zm172.6-133.86l-.5.7.7.18zm-67.47-11l.45-1.22c-.37-.12-.93-.45-1.08-.32s-.33.77-.48 1.17zM178.5 696.5a15.16 15.16 0 0 0-2.16-.86c-.16 0-.75.73-.67.85a11 11 0 0 0 1.25 1.49zm182-36.72l-1.5-2c-.48.64-1.37 1.3-1.35 1.92s.84 1.44 1.3 2.16zm1520.88-8.7l-.64-1c-.27.3-.84.72-.78.84a7.58 7.58 0 0 0 1 1.31zm-1364-22.1c.48.55.9 1.47 1.4 1.5a6.3 6.3 0 0 0 2.35-.77c-.44-.55-.85-1.5-1.34-1.53a6.64 6.64 0 0 0-2.42.79zM690 681.76c.08.3.07.75.26.86a3.27 3.27 0 0 0 1.15.23l-.36-1.6zm1358.9-72.67c-.35-.63-.6-1.64-1.06-1.76a6.36 6.36 0 0 0-2.42.43c.4.78.6 1.86 1.23 2.22.43.25 1.44-.54 2.27-.9zm-1040.43 77.25l2.06-1c-.28-.33-.55-.94-.82-.93a11.88 11.88 0 0 0-2.26.44zm19.7-1a11 11 0 0 0-2.12-.93c-.25-.06-.65.53-1 .82.3.32.66.94.9.9a10.87 10.87 0 0 0 2.21-.82zm-429.7 4l-.92-2c-.33.18-.94.35-.95.54a13.67 13.67 0 0 0 .22 2.2zM286.9 384l-.9-2.25c-.65.72-1.6 1.35-1.83 2.2-.14.52.8 1.34 1.26 2 .5-.62 1-1.27 1.48-1.94zm14.34-22.08c-.22-.3-.45-.57-.67-.85l-.92 1.6c.33.1.77.38.94.26s.4-.65.65-1zm-19.67-.6c-.23-.34-.4-.85-.7-1s-.86 0-1.3.08l1 1.7zm5.6 384.83l-1 .54 1.05.5zm522.24 3.05c.3-.35.9-.77.85-1a12 12 0 0 0-1-2.19 13.55 13.55 0 0 0-.82 2.31c-.05.22.62.58.97.88zm1319.2-422.16l-.7-1c-.3.3-.87.76-.8.88a7.27 7.27 0 0 0 1.1 1.33zM195.5 754.56l-.84-1a12.62 12.62 0 0 0-1.14 2.06c-.07.2.52.62.8 1zm1686.33.8c-.82-.35-1.6-.94-2.32-.9-.5 0-1 .95-1.42 1.47a6.28 6.28 0 0 0 2.31.92c.5-.01.94-.95 1.43-1.5zm-1157.5-58.53c-.3 0-.78 0-.92.15a2.6 2.6 0 0 0-.2 1.08l1.44-.2a31.58 31.58 0 0 0-.32-1.04zm-185.17-190.5c-.53-.62-1-1.64-1.54-1.7-.8-.08-1.65.55-2.48.88.5.6.93 1.64 1.48 1.7.78.1 1.64-.54 2.54-.9zm1577.13-12.27l1.24.38-.8-1.34zM676 702.88a11.07 11.07 0 0 0 2 .94c.22.06.6-.53.92-.83l-1.56-1.56zm573.6 15.17l1-.44-1-.34zm609.17 1.05l-2-1.26c-.4.8-1.07 1.58-1.07 2.37 0 .38 1.3.75 2 1.12zM282.07 443.62l-.57 2.44a8.68 8.68 0 0 0 1.9.07 1.46 1.46 0 0 0 .17-1.16 7.74 7.74 0 0 0-1.5-1.35zM167.4 158c-.37.85-1 1.66-1 2.36s1 1.38 1.47 2.06a20 20 0 0 0 1.28-3.31c.1-.2-1.15-.7-1.75-1.1zm1570.17 640.47c-.32-.75-.64-1.5-1-2.26-.36.2-1 .37-1 .6a13.27 13.27 0 0 0 .19 2.43zm-574-642l1-1.08a19.3 19.3 0 0 0-2.27-1.34c-.13-.05-.6.68-.9 1zm521.1 669.38l-1.47-1.8c-.3.35-.92.74-.88 1a12 12 0 0 0 .83 2.33zm-537.8-638.14a17.75 17.75 0 0 0-2.23-.91c-.15 0-.75.72-.68.84.32.56.94 1.5 1.22 1.42.62-.17 1.1-.85 1.7-1.35zm-828.75 5.85l.4-1.14-1.33.73zm213.9-67.7c-.22-.32-.4-.8-.68-.9a3.08 3.08 0 0 0-1.26.11l.9 1.46zm-357 25.75l-1-2.46c-.57.47-1.57.9-1.6 1.4a6.54 6.54 0 0 0 .88 2.46l1.72-1.4zm5.9-4.23l-1.8-1.4c-.32.78-.92 1.6-.84 2.34.06.55 1 1 1.58 1.5l1.03-2.44zm319.65 659.66l2.32-.87c-.2-.3-.34-.85-.57-.9a14 14 0 0 0-2.25-.08l.5 1.84zm311.36-4.58c.53.58 1 1.56 1.54 1.6.8.06 1.62-.57 2.43-.9-.46-.6-.9-1.66-1.4-1.68a7.11 7.11 0 0 0-2.58.99zm885.32-633.3l-.06 1.67h4.7v-1.4zm-704.9-49.5l-2.32-1.14-1.16 2.5a6 6 0 0 0 2.45.45c.44-.12.7-1.17 1.03-1.8zm-787.68 709.7c-.75-.42-1.46-1.12-2.14-1.1-.46 0-.87 1.06-1.3 1.65.7.4 1.42 1.1 2.13 1.1.43 0 .87-1.05 1.32-1.67zm1046.7-30.2c-.63.37-1.73.67-1.77 1.1-.07.7.5 1.5.82 2.25.58-.4 1.52-.73 1.66-1.26s-.43-1.34-.7-2.08zm-110.4-640.37l.07-.75-1 .32zm-20.55-.64a4.12 4.12 0 0 0-1.16-.33c-.12 0-.24.54-.37.84a3.73 3.73 0 0 0 1.14.28c.15.05.27-.5.4-.8zM751.2 181.3l-.78-2.2c-.3.28-.92.6-.9.84a12 12 0 0 0 .71 2.2zm-266.92-58l1 .32.26-.84a2.85 2.85 0 0 0-1-.25c-.1-.04-.17.46-.26.72zm467.94 56.2c-.1-.3-.1-.73-.3-.85a3.7 3.7 0 0 0-1.17-.25l.38 1.58zm-295 620.5a11.26 11.26 0 0 0-2.05-.91c-.26-.06-.66.45-1 .7.46.5.9 1.36 1.38 1.36s1.12-.76 1.67-1.15zm572.66-699.74l1.54-2.6-2.26-1.22.72 3.8zM663.44 791a8.09 8.09 0 0 0-1.11-.59 7.26 7.26 0 0 0-1.09 1.86c0 .13.63.52 1 .8zM320.36 200.6a14.33 14.33 0 0 0-.75 2.34c0 .18.9.74 1 .67.52-.46 1.26-1 1.26-1.58s-.94-.9-1.5-1.43zM1665 814.2v1.35l4.55.2v-1.56zM369 201.54c-.3-.34-.62-.7-.94-1a19.75 19.75 0 0 0-1.34 2.19c-.05.12.65.58 1 .88.4-.7.84-1.38 1.28-2.07zm727-141.4l-1.63-1.24a6.47 6.47 0 0 0-.84 2.32c0 .4 1 .8 1.58 1.18.24-.74.54-1.48.9-2.26zm539.7 156.56v1.15h4.3v-1.15zm165.8 571.2c.07.3.06.77.25.88a3.18 3.18 0 0 0 1.18.21l-.3-1.46zm-188 32.72c-.27-.32-.6-1-.8-.92a15.18 15.18 0 0 0-2.2.86c.3.3.65.88.9.84a11.19 11.19 0 0 0 2.08-.78zm-130.3-2.82c-.25-.23-.48-.6-.76-.64s-.67.2-1 .34c.26.22.5.6.78.64s.62-.22.95-.34zm419.05-603.2a11.64 11.64 0 0 0-1.9-1c-.2-.06-.88.65-.83.75a13.16 13.16 0 0 0 1.16 1.64zM323.73 830.12l.52-.8-.86-.1zm-5.84-1.23l-.47.7.73.1zm536.6-8.2l-.94-1.1c-.35.33-1 .64-1 1s.55.72.87 1.08zM426.88 693.14c-.3.24-.77.45-.8.72s.4.57.63.86c.28-.23.77-.45.8-.7s-.4-.58-.63-.87zm1188.2 133.42l.84.54.1-.9zm-869.58-127c-.3-.26-.6-.75-.9-.75s-.6.5-.9.8l1.3.9zm-412.84 129.3l-.5.73.8.1zm1329.8-8.85l-.47.85 1.75.06c-.14-.3-.2-.68-.43-.85s-.56-.06-.85-.06zm229.82-122.17c.3-.27.85-.53.87-.82s-.48-.62-.75-.94c-.3.28-.84.53-.86.83s.46.6.74.9zm6.58-.7l-.7-.5-.1.78zM136 696.45l-.9-.5c0 .63-.05 1.26-.07 1.9.3-.15.72-.22.9-.47s.07-.6.07-.92zM622 700l-1-1.08c-.36.32-1 .63-1 1s.57.72.9 1.08zm-15.8.9l1.07-.95c-.32-.35-.63-1-1-1s-.7.56-1.06.88zm-233 125.37l.92.65.14-1zm-20.7.15l.68.45.1-.7zm15-130.22l-.5.83 1.77.1c-.13-.3-.2-.68-.4-.86s-.6-.02-.9-.03zm221.82 3.3l-.82-.47c0 .55-.07 1.1-.1 1.65.3-.12.66-.17.85-.38s.04-.5.06-.76zm-20.38.25l-.9-1c-.35.33-1 .66-1 1s.58.7.9 1.07zm-109-26.45l-1-1-1 1 1.45 1c.16-.3.33-.63.5-.96zm-304-5.2l.46-.66-.68-.1zm189.17-1l-.94-.5v2c.32-.16.75-.24.93-.5s-.12-.6-.12-.92zm544.67.46c-.32-.34-.63-.94-1-.95s-.7.55-1 .86c.32.34.63.93 1 1s.55-.47.9-.83zM104 690.77l-1-1-1 1 1.56 1c.13-.35.3-.7.44-1zM281.78 832.9l.92.9.9-.93-1.36-.92zm85.64-142.6a11.58 11.58 0 0 0-.52 1l1.9.08c-.14-.33-.2-.76-.46-1s-.6-.04-.93-.08zm29.45.06l-.5.92 1.9.08c-.15-.32-.2-.73-.46-.93s-.6-.05-.92-.07zm266.35.88c-.33-.36-.64-1-1-1s-.72.58-1.08.9c.33.36.65 1 1 1s.72-.58 1.08-.9zm-538.6 2.42l-1-.93a8.72 8.72 0 0 0-.87 1.83c-.05.22.54.6.84.9.35-.6.68-1.18 1.03-1.8zm20.3.36l-.7-.87c-.28.24-.77.46-.8.72s.4.58.64.87zm537.76 140.9l-.5.75.8.1zm-305.9-.1l-.5.72.76.1zm-6.6.54l.8.5.1-.8zM1860.8 796.6l-.93-.5-.08 1.87c.32-.14.74-.2.94-.45s.03-.6.07-.9zm-806.14-28.93l-.94-1.07c-.35.32-1 .63-1 1s.55.7.87 1.07zm676 30.48c.3-.27.82-.52.84-.8s-.45-.6-.7-.92l-.93 1.23zM928 773.22l-.8-.9-.87.82 1.2.9zm-533.53 28.7c-.36.3-1 .62-1 1s.56.7.87 1.07c.35-.32 1-.62 1-1s-.56-.72-.87-1.07zm-207-46.12l1 .6.08-1zm1674.83-.06l.83.55.1-.86zm-337.77 2.1l-1.06.9c.3.35.6 1 .93 1s.7-.53 1.06-.84zM641.56 801l1.1-1c-.33-.35-.65-1-1-1s-.72.57-1.08.9zm-478.84-1.17c-.32-.3-.66-.86-1-.86s-.67.56-1 .87l1.46 1zm915.4-8.37c-.26-.3-.5-.82-.8-.84s-.6.46-.9.72c.26.3.5.82.8.84s.6-.44.9-.7zm214.84-6.1c-.3-.34-.6-.94-.94-1s-.7.55-1 .86c.3.35.6.94 1 1s.6-.52.97-.84zm5-1l-1 .92.93 1 1-.93zm-527.2 6.13l-.47.88 1.74.07c-.13-.3-.2-.7-.42-.88s-.6-.05-.87-.1zm-102.63 0l-1 .84c.3.3.57.86.88.87s.64-.5 1-.77zm668.1-6.1l-1 .9.9 1c.34-.3.93-.6 1-.9s-.62-.7-.93-1.03zm-570.48 3.32l-.93-.5v1.87c.3-.14.73-.22.92-.47s-.01-.6.01-.9zm-358.63 9.44c-.3-.34-.6-.94-.93-1s-.7.54-1 .85c.3.34.6.94.94 1s.65-.54 1-.85zM851 794.27l-.6-.46-.12.7zm177.06-14.76l-.92-1c-.35.3-.94.6-1 .94s.54.7.84 1zm-395.32 13.77l-.54.93.95.07zm618-69.1l.58-.88-.94-.1zm-924.56 8.14l.72.47.1-.72zm1121.3 84.73l-.48.8 1.7.1c-.12-.3-.18-.66-.4-.83s-.58-.06-.87-.08zM495.44 806c-.3-.35-.6-1-.93-1s-.7.54-1 .85c.3.34.6.94.92 1s.66-.58 1-.85zm-15.62.9l1-.9c-.3-.34-.6-.92-.94-.93s-.68.53-1 .83zm-128.67-1.22l-.86-.95-.93.9 1.32 1c.15-.37.32-.63.47-.97zm487.52-2.07l.55-.8-.9-.1zm-639.1-54.36l-.53.95 2 .08c-.15-.33-.22-.77-.48-1s-.66-.02-1-.06zm481.27.83c-.3-.35-.6-.95-.92-1s-.7.54-1 .85c.3.34.6.94.93 1s.64-.58 1-.88zm567.47 59.62c.27-.3.8-.62.78-.93s-.54-.6-.84-.9l-.93 1.35zM418 734.58l-.57.88 1 .1zm-2 74.3c-.32-.34-.62-.94-1-1s-.7.55-1.05.86c.32.35.63 1 1 1s.64-.55 1-.86zm54.28-73.58l.77.48.08-.8zm203.68 6.6l.6-1-1-.1zm14.2-.83l.8.52.1-.8zM251 808.6c-.27-.3-.53-.8-.8-.8s-.58.47-.87.74l1.24.87zm1604.2-2.85c-.3-.32-.58-.88-.9-.9s-.66.5-1 .8l1.37 1zM622 158.5c-.32-.34-.63-.95-1-1s-.7.55-1.06.86c.32.34.63 1 1 1s.7-.55 1.06-.86zm-283.45-.5l-.53.73.83.12zm-108.18.53l-.73-.9c-.3.25-.8.5-.82.77s.43.6.67.9zm923.94-3.37l-.82-.46c0 .56 0 1.12-.08 1.68.3-.13.66-.2.84-.4s.03-.58.06-.86zm-863.62-2.58l.73.46.1-.73zm1389.84 14.15l-.5.74.8.1zm-518.12-1.64l.53-.84-.86-.1zM1047 134.52l.9.64.14-1zm41.87-5.08l.46-.63-.7-.12zm-951 16.68l-.47.92h1.8c-.14-.3-.2-.7-.45-.9s-.6.02-.9-.01zm1056.65-2.63l.68.52.15-.76zM288.5 215l.56-.85-.94-.1zm1615.58-20.54l.6-.95-1-.1zm-96.8 22.26l-.47.62.72.1zm-6.26 1.08l.55-.77-.86-.12zm-21-.6l.75.53.13-.78zm-198.7-2.86c-.32-.36-.64-1-1-1s-.72.56-1.1.88c.33.35.65 1 1 1s.8-.57 1.14-.88zm-613.1-35.8l-.46.66.75.08zm956.1 11.58a27.77 27.77 0 0 0-.49.94l1.85.06c-.14-.33-.2-.74-.46-.94s-.6-.03-.9-.06zm-293.64-5.77l-.54.74.84.12zM1084.1 61.4l-.8-1-1 .82 1.23 1zM862 75.36a33.8 33.8 0 0 1-.47.81l1.7.08c-.12-.28-.2-.65-.4-.82s-.6-.06-.84-.07zm-270.84-.23l-.53.9 1.9.1c-.14-.32-.2-.74-.45-.93s-.67-.07-.98-.08zm32.77-3l-1.08.92c.3.36.62 1 1 1s.72-.54 1.08-.85zm444.36-3.8c.36-.33 1-.64 1-1s-.56-.74-.88-1.1c-.36.33-1 .64-1 1s.5.8.83 1.12zm-678.74 57.82c-.32-.35-.63-1-1-1s-.72.55-1.1.86c.33.35.64 1 1 1s.73-.55 1.1-.86zm473.5-3l-1-.6-.1 1zm-270.3 5.43c-.28-.3-.56-.86-.86-.87s-.62.5-.93.8l1.3.95zM966 125.35l-.92-.52c0 .63-.07 1.26-.1 1.9.33-.14.75-.2.95-.44s.08-.6.08-.93zm-728-20.6l-.48.83 1.7.1c-.13-.3-.18-.67-.4-.86s-.55-.05-.83-.07zm-7.5.5c-.3-.32-.58-.87-.9-.88s-.63.52-.95.8l1.35 1zm967.25-5l.53-.76-.85-.1zm-19.47-.58c-.33-.36-.64-1-1-1s-.73.58-1.1.9c.33.36.65 1 1 1s.74-.6 1.1-.94zm61-11c.28-.3.8-.63.8-.94s-.52-.64-.82-1l-.94 1.37zM1136.15 108l-.55.78.84.13zM402.5 564.6l1 .6.1-1zM359 561l-.47.74.82.07zm1736.46-66.4l.56-.84-.94-.1zM379 493.94l.77.5.1-.77zM2119.9 488l-1-1-1 1 1.45 1.05zm-1863.06-8.48c-.25-.28-.48-.75-.75-.77s-.56.42-.84.66c.25.28.48.75.75.77s.56-.42.84-.66zm110.65-6.84l-.5.9 1.88.05c-.15-.3-.22-.72-.47-.9s-.6-.03-.92-.05zm80.86-2.23l-.9-1c-.34.3-.94.6-1 .93s.54.7.84 1c.4-.3.73-.62 1.07-.93zm46 37.25l-1.1.9c.32.35.6.95 1 1s.72-.54 1.08-.84zm-84.58.63l-.82-.45-.1 1.65c.3-.13.66-.18.85-.4s.07-.52.08-.8zM547 505.06l-.47.82 1.72.08c-.13-.28-.2-.65-.4-.83s-.54-.05-.84-.07zm-157.85.8l-.86-.58-.1.94zm1804.07-3.1l-.78-.5-.08.87zm-268.4-7c-.35.32-1 .62-1 1s.54.73.85 1.1c.36-.32 1-.62 1-1s-.52-.7-.83-1.07zm-38.4 136.1l-.45.64.7.1zM365 628.35l-1.06.93c.32.35.63 1 1 1s.7-.55 1.06-.86zm-10.83 1c-.32-.34-.62-.94-1-1s-.7.54-1.06.85c.32.34.62.94 1 1s.73-.5 1.1-.8zm-15.55.74l.88-.8-.8-.86-.9 1.2zm-8.34-1.2l-.82-.47-.1 1.73c.3-.13.67-.2.84-.42s.08-.5.1-.8zM283.16 626l-.86-.45-.06 1.7c.3-.13.68-.2.87-.42s.02-.5.05-.83zm-96.84.1l-.8-.9-.9.82 1.24.9.46-.8zm356.2 38.72l-.92-1.1c-.35.32-1 .6-1 1s.54.72.85 1.1zm-362-.1l-1-1.1c-.35.34-1 .66-1 1s.57.73.9 1.1zm411-2.3l.6-.93-1-.1zm-431.74-.7l-.78-.92-.9.8c.4.32.8.64 1.2 1zm1742-3.27l-.84-.46v1.75c.3-.14.67-.2.83-.44s-.02-.53 0-.82zm169.7-62.27l-.5.9 1.82.07c-.14-.32-.2-.72-.45-.92s-.6 0-.9-.03zm-4.5.5l-.87-1-.94.9 1.33 1zm-56.93-2l.58-.9-1-.1zm-7.8-.63l-.94-1.07c-.35.32-1 .62-1 1s.56.7.87 1.07zm73.44-6l-.8-.93-.9.83 1.23 1zm-61.86-.27l-.85-.78-.86.82 1.22.88zM2164.28 576l-1-1-1 1 1.47 1zm-6-.1l-.87-.94-.9.9 1.3.95zm-173.8 32.7c-.27-.3-.53-.8-.8-.8s-.6.46-.9.72l1.24.9zm75.94-1.54l1.06-1-1-1-1.08 1.46zm-40.43-1.2c-.34-.36-.65-1-1-1s-.74.56-1.1.9c.33.36.65 1 1 1s.75-.57 1.1-.9zm-972.8-315.82l-.5.8 1.7.16c-.1-.3-.16-.67-.37-.85s-.55-.07-.83-.1zm-42.62.9l-.94-1.05c-.35.3-1 .6-1 .94a1.31 1.31 0 0 0 .87 1c.36-.01.72-.58 1.07-.9zm25.57-4l-1 .92c.3.34.6.94.93 1s.7-.54 1-.84zm-87.6 1l-.85-1-.94.87 1.3 1zm1123.54-3.66c-.3.27-.62.58-.95.9.3.33.62.9.95.9s.65-.55 1-.86zm-82.6 45.8l1.1-.93c-.32-.35-.62-1-1-1s-.72.55-1.1.86zm154.1-7.15c-.3-.26-.63-.77-.95-.77s-.64.52-1 .8l1.35 1c.22-.27.38-.57.6-.96zm-110.32-8.6l.65.46.1-.72zm20.6-2.95l.64.47.1-.74zm66.14-68.02l-.93-.5-.1 1.85c.33-.14.74-.2 1-.44s-.05-.6.02-.9zm-411.8-11.22c-.32-.35-.62-1-1-1s-.7.54-1.07.85c.32.35.62 1 1 1s.66-.54 1.02-.85zm-27.4-3.9c-.27.23-.6.54-.94.84.32.33.62.9 1 .9s.67-.54 1-.84zM402.7 229l.65.46.12-.68zm-5.95 0l.7.48.1-.7zm1576.07 38.38l-.92-1.05c-.34.3-.93.6-1 .94s.54.7.85 1.05zm-671.93-15.73l-1 .9c.3.34.6.93.9.95s.7-.53 1-.83zm-5.88.4l-.47.68.74.1zm-912.4 219l.5-.8-.8-.1zm-76.4-.3l.46-.64-.7-.1zm61.78-4l-.54.8.9.1zM276.53 355.1l-.53.8.9.1zm-11.67-19.47l.54-.82-.9-.1zm1639-2.86l.62-.9-1-.13zm-1571.65 31l-.47.8 1.72.1c-.13-.3-.2-.66-.4-.83s-.52-.05-.8-.07zm-7.73-2.06c-.25-.28-.47-.76-.74-.8s-.57.4-.87.64c.25.28.47.76.74.8s.6-.4.9-.64zm1779.6-2.7l.55-.73-.84-.14z"/></svg>