<svg xmlns="http://www.w3.org/2000/svg" viewBox="0 0 98.47 89.15"><defs><style>.cls-1{fill:#29abe2;}</style></defs><g id="Layer_2" data-name="Layer 2"><g id="BACKGROUND"><path class="cls-1" d="M98.47,89.15H22.08V12.76H98.47ZM2,12.22a2,2,0,0,0,1.41-.59A2,2,0,0,0,.59,8.8a2,2,0,0,0,0,2.83A2,2,0,0,0,2,12.22m20.62,0h0a2,2,0,0,0,0-4h0a2,2,0,0,0,0,4Zm-10.31,0h0a2,2,0,0,0,0-4h0a2,2,0,0,0,0,4Zm20.63,0a2,2,0,1,0-1.42-.59,2,2,0,0,0,1.42.59m10.31,0a2,2,0,0,0,1.42-.59,2,2,0,0,0,0-2.83,2,2,0,0,0-1.42-.58,2,2,0,0,0,0,4m20.62,0h0a2,2,0,0,0,0-4h0a2,2,0,0,0,0,4Zm-10.31,0h0a2,2,0,0,0,0-4h0a2,2,0,0,0,0,4Zm20.63,0a2,2,0,0,0,1.41-.59,2,2,0,0,0-1.41-3.41,2,2,0,0,0-2,2,2,2,0,0,0,.58,1.41,2,2,0,0,0,1.42.59M2,4a2,2,0,0,0,1.41-.59,2,2,0,0,0,0-2.82A2,2,0,0,0,.59.59a2,2,0,0,0,0,2.82A2,2,0,0,0,2,4M22.62,4h0a2,2,0,0,0,0-4h0a2,2,0,0,0,0,4ZM12.31,4h0a2,2,0,0,0,0-4h0a2,2,0,0,0,0,4ZM32.94,4a2,2,0,0,0,1.41-.59A2,2,0,0,0,34.94,2,2,2,0,0,0,34.35.59,2,2,0,0,0,32.94,0a2,2,0,1,0,0,4M43.25,4a2,2,0,1,0,0-4,2,2,0,0,0-1.41.59,2,2,0,0,0,0,2.82A2,2,0,0,0,43.25,4M63.87,4h0a2,2,0,0,0,0-4h0a2,2,0,0,0,0,4ZM53.56,4h0a2,2,0,0,0,0-4h0a2,2,0,0,0,0,4ZM74.19,4a2,2,0,0,0,1.41-.59,2,2,0,0,0,0-2.82A2,2,0,0,0,74.19,0a2,2,0,1,0,0,4M2,20.43a2,2,0,0,0,1.41-.59,2,2,0,0,0,0-2.82A2,2,0,0,0,.59,17a2,2,0,0,0,0,2.82A2,2,0,0,0,2,20.43m20.62,0h0a2,2,0,1,0,0-4h0a2,2,0,1,0,0,4Zm-10.31,0h0a2,2,0,0,0,0-4h0a2,2,0,0,0,0,4Zm20.63,0a2,2,0,0,0,1.41-.59,2,2,0,0,0,0-2.82,2,2,0,0,0-1.41-.59,2,2,0,1,0,0,4m10.31,0a2,2,0,1,0,0-4,2,2,0,0,0,0,4m20.62,0h0a2,2,0,0,0,0-4h0a2,2,0,0,0,0,4Zm-10.31,0h0a2,2,0,0,0,0-4h0a2,2,0,0,0,0,4Zm20.63,0a2,2,0,0,0,0-4,2,2,0,1,0,0,4M2,28.65a2,2,0,0,0,1.41-.59A2,2,0,0,0,.59,25.23a2,2,0,0,0,0,2.83A2,2,0,0,0,2,28.65m20.62,0h0a2,2,0,1,0,0-4h0a2,2,0,1,0,0,4Zm-10.31,0h0a2,2,0,0,0,0-4h0a2,2,0,0,0,0,4Zm20.63,0a2,2,0,1,0-1.42-.59,2,2,0,0,0,1.42.59m10.31,0a2,2,0,0,0,1.42-.59,2,2,0,0,0,0-2.83,2,2,0,0,0-1.42-.58,2,2,0,0,0,0,4m20.62,0h0a2,2,0,0,0,0-4h0a2,2,0,0,0,0,4Zm-10.31,0h0a2,2,0,0,0,0-4h0a2,2,0,0,0,0,4Zm20.63,0a2,2,0,0,0,1.41-.59,2,2,0,0,0-1.41-3.41,2,2,0,0,0-2,2,2,2,0,0,0,.58,1.41,2,2,0,0,0,1.42.59M2,36.86a2,2,0,0,0,2-2,2,2,0,0,0-.59-1.41,2,2,0,0,0-2.82,0A2,2,0,0,0,0,34.86a2,2,0,0,0,2,2m20.62,0h0a2,2,0,0,0,0-4h0a2,2,0,0,0,0,4Zm-10.31,0h0a2,2,0,0,0,0-4h0a2,2,0,0,0,0,4Zm20.63,0a2,2,0,0,0,1.41-.58,2,2,0,0,0,.59-1.42,2,2,0,0,0-.59-1.41,2,2,0,0,0-1.41-.59,2,2,0,0,0-2,2,2,2,0,0,0,2,2m10.31,0a2,2,0,0,0,2-2,2,2,0,0,0-2-2,2,2,0,0,0-2,2,2,2,0,0,0,2,2m20.62,0h0a2,2,0,0,0,0-4h0a2,2,0,1,0,0,4Zm-10.31,0h0a2,2,0,1,0,0-4h0a2,2,0,0,0,0,4Zm20.63,0a2,2,0,0,0,2-2,2,2,0,0,0-2-2,2,2,0,0,0-2,2,2,2,0,0,0,2,2M2,45.08a2,2,0,0,0,1.41-.59A2,2,0,0,0,.59,41.66a2,2,0,0,0,0,2.83A2,2,0,0,0,2,45.08m20.62,0h0a2,2,0,0,0,0-4h0a2,2,0,0,0,0,4Zm-10.31,0h0a2,2,0,0,0,0-4h0a2,2,0,0,0,0,4Zm20.63,0a2,2,0,1,0-1.42-.59,2,2,0,0,0,1.42.59m10.31,0a2,2,0,0,0,1.42-.59,2,2,0,0,0,0-2.83,2,2,0,0,0-1.42-.58,2,2,0,0,0,0,4m20.62,0h0a2,2,0,0,0,0-4h0a2,2,0,1,0,0,4Zm-10.31,0h0a2,2,0,1,0,0-4h0a2,2,0,0,0,0,4Zm20.63,0a2,2,0,0,0,1.41-.59,2,2,0,0,0-1.41-3.41,2,2,0,0,0-2,2,2,2,0,0,0,.58,1.41,2,2,0,0,0,1.42.59M2,53.29a2,2,0,1,0-1.41-.58A2,2,0,0,0,2,53.29m20.62,0h0a2,2,0,1,0,0-4h0a2,2,0,1,0,0,4Zm-10.31,0h0a2,2,0,0,0,0-4h0a2,2,0,0,0,0,4Zm20.63,0a2,2,0,0,0,1.41-.58,2,2,0,0,0,.59-1.42,2,2,0,0,0-2-2,2,2,0,0,0-1.42.59,2,2,0,0,0-.58,1.41,2,2,0,0,0,2,2m10.31,0a2,2,0,0,0,2-2,2,2,0,0,0-.58-1.41,2,2,0,0,0-1.42-.59,2,2,0,0,0-1.41.59,2,2,0,0,0-.59,1.41,2,2,0,0,0,2,2m20.62,0h0a2,2,0,0,0,0-4h0a2,2,0,0,0,0,4Zm-10.31,0h0a2,2,0,0,0,0-4h0a2,2,0,0,0,0,4Zm20.63,0a2,2,0,0,0,0-4,2,2,0,0,0-1.42.59,2,2,0,0,0-.58,1.41,2,2,0,0,0,2,2M2,61.51a2,2,0,0,0,1.41-.59A2,2,0,0,0,4,59.51a2,2,0,1,0-4,0,2,2,0,0,0,.59,1.41A2,2,0,0,0,2,61.51m20.62,0h0a2,2,0,1,0,0-4h0a2,2,0,1,0,0,4Zm-10.31,0h0a2,2,0,0,0,0-4h0a2,2,0,1,0,0,4Zm20.63,0a2,2,0,0,0,2-2,2,2,0,0,0-.59-1.42,2,2,0,0,0-1.41-.58,2,2,0,0,0-2,2,2,2,0,0,0,.58,1.41,2,2,0,0,0,1.42.59m10.31,0a2,2,0,0,0,1.42-.59,2,2,0,0,0,.58-1.41,2,2,0,0,0-2-2,2,2,0,0,0,0,4m20.62,0h0a2,2,0,0,0,0-4h0a2,2,0,0,0,0,4Zm-10.31,0h0a2,2,0,0,0,0-4h0a2,2,0,0,0,0,4Zm20.63,0a2,2,0,0,0,1.41-.59,2,2,0,0,0,.59-1.41,2,2,0,0,0-2-2,2,2,0,0,0-2,2,2,2,0,0,0,.58,1.41,2,2,0,0,0,1.42.59M2,69.72a2,2,0,1,0-1.41-.58A2,2,0,0,0,2,69.72m20.62,0h0a2,2,0,0,0,0-4h0a2,2,0,0,0,0,4Zm-10.31,0h0a2,2,0,0,0,0-4h0a2,2,0,0,0,0,4Zm20.63,0a2,2,0,0,0,1.41-.58,2,2,0,0,0,.59-1.42,2,2,0,0,0-2-2,2,2,0,0,0-1.42.59,2,2,0,0,0-.58,1.41,2,2,0,0,0,2,2m10.31,0a2,2,0,0,0,2-2,2,2,0,0,0-.58-1.41,2,2,0,0,0-1.42-.59,2,2,0,0,0-1.41.59,2,2,0,0,0-.59,1.41,2,2,0,0,0,2,2m20.62,0h0a2,2,0,0,0,0-4h0a2,2,0,0,0,0,4Zm-10.31,0h0a2,2,0,0,0,0-4h0a2,2,0,0,0,0,4Zm20.63,0a2,2,0,0,0,0-4,2,2,0,0,0-1.42.59,2,2,0,0,0-.58,1.41,2,2,0,0,0,2,2"/></g></g></svg>