<svg xmlns="http://www.w3.org/2000/svg" viewBox="0 0 299.24 329.19"><path d="M37.94 221.88a23.19 23.19 0 0 0 4.61-12.3 3.61 3.61 0 0 1 2.9.61 33.43 33.43 0 0 1 .89-12.36l4.26 1.78a6.89 6.89 0 0 1 0-3.87 3.34 3.34 0 0 0 4.58-2.84l3.64 1.3A89.26 89.26 0 0 1 66 162.86l2.06 3.14c-2.4-4.45 1.6-9.53 5.25-13 .58-.55 1.8-.92 1.93-.14l8.94-20.18a4.27 4.27 0 0 1 2.42 3 18.81 18.81 0 0 1 6.59-13.23 4 4 0 0 1 5-.44 31.37 31.37 0 0 1 7.1-14.26c0-1.06.07-2.12.1-3.18l4.53-.4.83-4.5a28.23 28.23 0 0 0 10.13 3.39q-1.53-7.25-3.07-14.5l3.52.62q-.76-2.33-1.54-4.67l4.6.87A24.45 24.45 0 0 1 126.34 71l5.66 2.12-.9-6.23 4 .64-.93-6.17L140 59.7a9.7 9.7 0 0 1 4.56-8.85c1.78-1.07 3.84-1.52 5.74-2.35a16 16 0 0 0 9.32-12.83l3.93.86c4.67-6 10.88-10.6 17-15.13l29-21.4a198.33 198.33 0 0 0-13.5 27.73l-2.37-2.9a30.69 30.69 0 0 0-7.33 12.37c-.62-2.32-4.17-.13-4.74 2.2s-2.15 5.6-4.25 4.45l.07 4.6a16.31 16.31 0 0 0-11.21 12c-.6-1.53-3.14-.5-3.47 1.1s.46 3.23.37 4.86a4.84 4.84 0 0 1-6.66 3.88l-.35 4.48a6.75 6.75 0 0 0-4.2 1.45 5.28 5.28 0 0 1 .1 4 20.88 20.88 0 0 0-8 3.32c1.54 4.72-2.45 10.35-7.42 10.46l1 6.64-3.9 2.1c1.07 3 .46 8-2.6 7.22q.94 5.47 1.9 10.94a26.27 26.27 0 0 0-10.1-1.9q0 3.42 0 6.85l-4.34-.1.22 5.52a16.28 16.28 0 0 0-5.77 5c-3.87 5.45-4.32 13.18-9.4 17.5-2.4 2-5.54 3-7.95 5s-3.88 5.92-1.77 8.25c-5.58 1.05-6.1 8.8-5.22 14.4L84.3 177a36.65 36.65 0 0 0-2.53 8.46l-3.56-1.54-11.2 24.7a6.89 6.89 0 0 1-1.86 2.74c-1.15.86-2.73.93-3.9 1.74-1.9 1.34-2.07 4-2.57 6.3s-2.37 4.86-4.6 4.16c2.06 1.84.84 5.46-1.38 7.1s-5.1 2.18-7.48 3.58c-6.35 3.75-7.73 12.52-13.14 17.53 2.8-2.6 5.8-25.58 5.86-29.92zm-35-51c-.63 2.53-1.6 4.95-2.24 7.5-.52 2.1.3 7-.7 8.63a132.55 132.55 0 0 0 11.68-26.52c1.08 2.1 4.45.76 5.68-1.26s2-4.7 4.25-5.47l6.24-6.3 2.4-5.85 2.32-.18-1.45-2.4c1.9.17 1.95-2.78 1.22-4.53l4.16.84a19.16 19.16 0 0 1-2.37-7 10.88 10.88 0 0 1 6.33 4 30.22 30.22 0 0 0-1.12-7.91l2.35 2.15a19.37 19.37 0 0 1 1.86-9l3 1a8.29 8.29 0 0 1 2.49-5.6l10.16-11.2c1.15-1.27 2.53-2.63 4.24-2.56 0-1.43.1-2.86.14-4.3 2 1.42 4.65-1.1 5.27-3.5s.66-5.3 2.66-6.77l3.14.5-1.82-4.28a9.73 9.73 0 0 0 4 .15 10.56 10.56 0 0 1-.46-4.5l4-.44-.5-3.65a2 2 0 0 0 2.49-2.56l3.5.7a13.84 13.84 0 0 1-1.95-5.69c.53.93 2.13.44 2.5-.57a4.31 4.31 0 0 0-.49-3.11c.5.8 1.87.15 2.14-.76s0-1.9.2-2.85c.4-1.88 2.7-2.84 4.58-2.47s3.44 1.66 4.9 2.9a42.81 42.81 0 0 0 3-9.64 6.45 6.45 0 0 0 5.51-6.51l3.1.75a12.38 12.38 0 0 1 2.34-7.62 8 8 0 0 0 3.76 3.11l-.76-4 1 2.33a103.81 103.81 0 0 1 20.6-27.86L107 29.93a1.54 1.54 0 0 0-2.47.43c-2.93-1.48-7 1.27-6.7 4.54-1.62-1.23-4.14-.36-5.3 1.3s-1.3 3.84-1.23 5.88a3.5 3.5 0 0 0-3.25.65l.75 4a14.25 14.25 0 0 0-4.8-1.09v3.64a18.85 18.85 0 0 0-5.93.72l1 4.92-3.57.77.28 4.16a5.08 5.08 0 0 0-4.39-.73c-3.58 13.8-19.27 21.18-24.96 34.3L45 91a192.71 192.71 0 0 0-11.19 17.49 57 57 0 0 0-11.21 21.86c-1-1-2.44.4-3 1.62a92.91 92.91 0 0 0-5.72 14.69c-.38-1.52-2.64-1.8-3.88-.85s-1.7 2.6-2.1 4.12c-1.8 6.94-3.23 13.96-4.9 20.9zM41.7 318.9c11.35-2.18 25.56-18 33.8-25.92a6.76 6.76 0 0 0 3.3 2.2l1.14-7.54a8 8 0 0 1 8.17 2l1.76-5.14 4 3.82q1.77-7.7 3.55-15.42l7.84 1.95c-1-4 2-7.76 4.58-11a85.7 85.7 0 0 0 16.53-33.46l8 11q.5-8 1-16.1c.38-5.84 1-12.26 5.2-16.34l5.64 7.76a43.17 43.17 0 0 1 10-22.94c2.57-.67 4.2-3.13 5.56-5.4l8.37-13.86c2.92-4.84 6-10.44 4.35-15.87 7.82 3.85 13.5-14.73 21.35-10.94l1.84-13.82 5.54 2.45q-.48-8.4-1-16.76l7.3 3.12c-.85-4.23 3.58-8.57 7.8-7.63-.68-9.68 7-19.2 16.57-20.63a11.58 11.58 0 0 1 .87-7.85c1.32 1.77 4.43.86 5.42-1.1s.5-4.35-.13-6.46l6.38-.1 1-6.06a3.56 3.56 0 0 0 3.47.34l4.17-17.1A5.73 5.73 0 0 0 259.2 50l5.75.3a24.53 24.53 0 0 1 8.3-18.86l-7.68 5.46a265.21 265.21 0 0 1 17-32.22 97.21 97.21 0 0 0-26.27 25.51 5.82 5.82 0 0 0-2.37-3.55q-1.58 4.85-3.14 9.67l-7.07-6.94a18.8 18.8 0 0 0-1.82 12.41 12 12 0 0 0-6-3.52l.73 7.43a9.49 9.49 0 0 0-6.86 11.49c-3-1.94-7.47 2.22-5.75 5.35l-5.42-1.8a21 21 0 0 0-2.78 13.56l-6.88-2-1.3 7.72-5.3 7.48-.82 5.15c-1.43-1.12-3.7.15-4.23 1.9s.1 3.6.73 5.3l-4.2-.9a92.34 92.34 0 0 1-17.68 30.13 14.13 14.13 0 0 0-8.86 12.47c-3.3-2.18-8-.83-10.78 2s-4.14 6.7-5.4 10.45a7.1 7.1 0 0 0-4.64-1.14l.57 6.34a10.48 10.48 0 0 0-6-1q.87 5.22 1.75 10.44a7.6 7.6 0 0 0-4.62.19 44.64 44.64 0 0 1 3.05 11l-4.63-2.4a58.52 58.52 0 0 0 .43 15.64l-6-5a45 45 0 0 0-9.23 18.64l-3.06-2.58a20.63 20.63 0 0 0-5.42 14.47c-.82-1.92-3.86-1.8-5.27-.27s-1.65 3.8-1.82 5.9l-4.06-1.74-1.82 4.75-4-.48a35.26 35.26 0 0 0-3.65 17.42l-4.5-.76.9 10.7c.47-1.06-1.1-2.08-2.17-1.6a4.42 4.42 0 0 0-2 2.78l-5.8 16-6.28-1.16q-.52 2.78-1.07 5.55a15.49 15.49 0 0 0-8.03-1.66q.42 4.83.86 9.66l-5.38-1.5c5.23 1.48-16.7 33.37-17.52 36.74zm76.56-4.9h5.88a78.74 78.74 0 0 0-7.94 15.16l14.9-15.8c2-2.16 5.1-4.5 7.65-3a9.08 9.08 0 0 1 4.3-5.68l3.22 3.5 3.42-9.74c1.7 1.1 4.1.27 5.4-1.28a12.63 12.63 0 0 0 2.2-5.58l4.6 5.2 3.62-10.5a7.77 7.77 0 0 0 5.69-6.83l5.4 6.06a14.67 14.67 0 0 0 1.74-8.9 18.74 18.74 0 0 0 3.82 5.84q1.47-5.64 2.93-11.3a17.37 17.37 0 0 0 3-16.72 15 15 0 0 1 9 3.69 54.05 54.05 0 0 0 3.49-15.09 10.36 10.36 0 0 0 3.13 4.82 38.23 38.23 0 0 0 6.86-18.85 10.19 10.19 0 0 0 2.37 6.83 28.15 28.15 0 0 1 10.65-17.92 29.29 29.29 0 0 1 2.68 4.2l10.62-19.5 3.16 3.44q1.53-2.53 3.07-5.06c1.4.9 3.2-.22 4.73-.88s4.1-.08 3.78 1.57q3.62-8.17 7.2-16.34c1.4 1.07 3.14-.8 3.9-2.38q5-10.5 10.1-21c1-2.1 2.52-4.5 4.83-4.4a23.74 23.74 0 0 0-1.06-7.2 4.3 4.3 0 0 0 3.34.46l1.06-7a7.52 7.52 0 0 0 2.69-9.13c1.2 1.33 3.5 1 4.84-.18a10.38 10.38 0 0 0 2.53-4.68l8.2-24.56a248.7 248.7 0 0 0-18.18 18.27l-3.94-2.23a5.73 5.73 0 0 0-1.22 3.69l-6.72 1-.43 6-5.15-.78a14.07 14.07 0 0 0-.82 12.34l-5.84-3a19.61 19.61 0 0 0 1 9.36l-3.22-1.3a5.11 5.11 0 0 1-5.28 4.17 62.17 62.17 0 0 0 1.69 14.12 12.46 12.46 0 0 1-5.15-1.57q1.37 6.45 2.75 12.9l-11.76-6.73a18.34 18.34 0 0 0 .17 9.86l-8.6-2a15.92 15.92 0 0 0-.49 8.86l-4.8-2.5a23 23 0 0 0-1.64 7.59 8.88 8.88 0 0 1-6.31-2.3 42.21 42.21 0 0 1-5.65 13.58l-1.07-3.54-8 15.4-2.3-3.18a29.68 29.68 0 0 0-4.73 11l-3.26-3.95a23.33 23.33 0 0 0-4.58 15.43c-.1-.93-1.52-1.1-2.2-.46a5.19 5.19 0 0 0-1.07 2.53c-1.32 4.74-6.08 7.48-9.5 11-4.72 4.83-7.1 11.4-9.35 17.78-.35-2.44-4.32-1.3-5.52.85s-2.3 5.17-4.76 5.1l-1.5 3.25-3.06-2.26c.3 1.68.56 3.62-.54 4.92s-3.94.62-3.6-1.05q-1.1 5.82-2.2 11.65l-2.6-3.9c-7.62 9.25-12.5 21.08-21.53 28.84z"/></svg>