<svg width="81" height="118" viewBox="0 0 81 118" fill="none" xmlns="http://www.w3.org/2000/svg">
<path fill-rule="evenodd" clip-rule="evenodd" d="M0 0.0302028C0 0.06301 0.209701 0.824057 0.465915 1.7211C2.80263 9.9012 6.99177 15.5989 13.3472 19.2412C15.901 20.7048 18.8209 21.8127 25.5468 23.8698C31.0552 25.5545 33.8852 26.6552 36.6672 28.195C40.9864 30.5859 44.5507 34.0027 47.2021 38.294C49.8425 42.5674 51.0719 46.8197 51.3463 52.6291C51.4317 54.4361 51.2778 58.0576 50.9359 62.2861C50.8329 63.5593 50.6775 66.0361 50.5905 67.7901C50.2709 74.2341 50.951 79.758 52.6981 84.9072C56.1649 95.1245 63.9455 105.103 75.1967 113.762C77.1635 115.275 80.3533 117.545 80.7027 117.679C80.9166 117.761 80.9452 44.004 80.7324 40.6571C80.186 32.0602 77.3555 24.2607 72.3165 17.4671C68.2011 11.9186 63.1164 7.64716 56.9511 4.55918C52.4967 2.32816 48.552 1.10424 43.1763 0.285252C41.83 0.080075 39.7159 0.0544113 20.8446 0.0144607C9.38001 -0.00988015 0 -0.00273665 0 0.0302028Z" fill="url(#paint0_linear_2_15)"/>
<defs>
<linearGradient id="paint0_linear_2_15" x1="0" y1="0" x2="109.863" y2="75.5063" gradientUnits="userSpaceOnUse">
<stop stop-color="#EE9AE5"/>
<stop offset="1" stop-color="#5961F9"/>
</linearGradient>
</defs>
</svg>
