<svg width="245" height="273" viewBox="0 0 245 273" fill="none" xmlns="http://www.w3.org/2000/svg">
<path fill-rule="evenodd" clip-rule="evenodd" d="M0.000863038 123.035C0.00146716 206.775 0.0302064 246.401 0.0907053 247.106C0.666525 253.809 3.3838 259.765 8.05465 264.56C12.4384 269.06 18.0618 271.87 24.6397 272.846C25.6283 272.993 30.0751 273 122.293 273C202.029 273 219.068 272.98 219.816 272.886C225.662 272.147 230.516 270.076 234.851 266.471C235.895 265.603 237.671 263.823 238.542 262.772C241.467 259.24 243.592 254.733 244.455 250.226C245.007 247.347 244.962 250.815 244.993 208.501C245.007 187.364 244.999 170.07 244.974 170.07C244.949 170.07 243.871 170.599 242.578 171.247C228.24 178.423 214.722 182.49 200.311 183.963C194.136 184.594 190.384 184.725 175.074 184.841C168.567 184.89 162.972 184.946 162.64 184.966C162.307 184.985 161.162 185.042 160.094 185.092C145.557 185.771 132.211 188.327 117.805 193.189C114.243 194.391 109.835 196.025 107.371 197.056C106.877 197.263 106.379 197.432 106.264 197.432C105.914 197.432 99.5844 195.502 95.8836 194.268C81.8102 189.573 72.464 184.623 64.6847 177.745C63.4517 176.655 60.5973 173.752 59.5143 172.487C53.9859 166.028 49.5243 157.698 47.6556 150.347C46.6364 146.337 46.291 143.166 46.3697 138.535C46.4298 134.99 46.6504 132.57 47.4261 126.952C48.8814 116.411 49.1673 113.337 49.2523 107.319C49.3026 103.762 49.2243 101.194 48.9718 98.1266C47.4357 79.4648 40.515 58.659 29.276 38.9148C22.5612 27.1186 14.2044 15.5447 5.09477 5.42479C3.71771 3.89503 0.614829 0.571834 0.224994 0.209313L0 0L0.000863038 123.035Z" fill="url(#paint0_linear_2_8)"/>
<defs>
<linearGradient id="paint0_linear_2_8" x1="0" y1="0" x2="271.409" y2="243.572" gradientUnits="userSpaceOnUse">
<stop stop-color="#EE9AE5"/>
<stop offset="1" stop-color="#5961F9"/>
</linearGradient>
</defs>
</svg>
