<?xml version="1.0" standalone="no"?>
<!DOCTYPE svg PUBLIC "-//W3C//DTD SVG 20010904//EN"
 "http://www.w3.org/TR/2001/REC-SVG-20010904/DTD/svg10.dtd">
<svg version="1.0" xmlns="http://www.w3.org/2000/svg"
 width="400.000000pt" height="400.000000pt" viewBox="0 0 400.000000 400.000000"
 preserveAspectRatio="xMidYMid meet">
<metadata>
Created by potrace 1.16, written by Peter Selinger 2001-2019
</metadata>
<g transform="translate(0.000000,400.000000) scale(0.100000,-0.100000)"
fill="#000000" stroke="none">
<path d="M70 3856 c0 -30 42 -30 54 0 4 10 -3 14 -24 14 -19 0 -30 -5 -30 -14z"/>
<path d="M1900 3762 c-32 -21 -39 -32 -33 -49 8 -21 30 -15 58 14 38 42 21 66
-25 35z"/>
<path d="M355 3599 c-4 -6 -5 -12 -2 -15 7 -7 37 7 37 17 0 13 -27 11 -35 -2z"/>
<path d="M902 3593 c2 -10 13 -22 25 -28 19 -8 23 -18 25 -75 4 -80 24 -88 50
-20 33 87 18 147 -32 120 -13 -7 -21 -6 -30 5 -17 21 -42 19 -38 -2z"/>
<path d="M2564 3475 c-3 -20 -4 -39 0 -42 12 -12 36 20 36 48 0 43 -28 37 -36
-6z"/>
<path d="M2159 3464 c-12 -14 -11 -16 5 -13 11 2 21 10 24 17 5 17 -13 15 -29
-4z"/>
<path d="M2754 3447 c-10 -26 1 -150 13 -154 18 -6 44 53 50 113 l6 54 -32 0
c-17 0 -34 -6 -37 -13z"/>
<path d="M662 3428 c2 -13 9 -23 17 -23 23 0 24 23 1 35 -19 10 -21 9 -18 -12z"/>
<path d="M1560 3395 c-14 -16 -5 -54 9 -39 14 15 23 54 13 54 -5 0 -15 -7 -22
-15z"/>
<path d="M1390 3385 c0 -8 7 -15 15 -15 8 0 15 7 15 15 0 8 -7 15 -15 15 -8 0
-15 -7 -15 -15z"/>
<path d="M1345 3325 c-31 -30 -32 -69 -3 -89 30 -21 55 -20 68 3 21 41 5 111
-26 111 -8 0 -26 -11 -39 -25z"/>
<path d="M970 3330 c0 -5 5 -10 10 -10 6 0 10 5 10 10 0 6 -4 10 -10 10 -5 0
-10 -4 -10 -10z"/>
<path d="M2460 3296 c0 -21 20 -30 33 -17 9 9 8 14 -3 21 -21 14 -30 12 -30
-4z"/>
<path d="M2101 3286 c-18 -21 -9 -51 14 -51 24 0 32 36 12 53 -11 10 -17 9
-26 -2z"/>
<path d="M2825 3280 c-10 -16 16 -43 28 -31 11 11 2 41 -12 41 -5 0 -13 -5
-16 -10z"/>
<path d="M1512 3248 c-30 -30 -1 -75 43 -64 22 6 26 11 23 39 -2 26 -8 33 -28
35 -14 2 -31 -3 -38 -10z"/>
<path d="M1940 3220 c0 -20 25 -38 36 -27 8 7 -15 47 -26 47 -6 0 -10 -9 -10
-20z"/>
<path d="M52 3218 c-31 -31 -13 -61 85 -153 53 -49 109 -98 125 -107 15 -10
28 -22 28 -28 0 -5 30 -40 66 -77 36 -38 72 -82 79 -99 8 -17 39 -53 70 -80
144 -125 138 -119 130 -144 -12 -38 -172 -188 -214 -200 -78 -25 -121 -46
-127 -62 -8 -25 3 -38 31 -38 13 0 30 -7 39 -15 14 -14 14 -20 -2 -63 l-18
-47 -72 3 c-59 2 -72 -1 -72 -13 0 -12 14 -15 64 -15 65 0 83 -11 70 -43 -2
-7 6 -26 18 -42 13 -16 23 -42 24 -57 1 -15 5 -39 8 -53 6 -23 4 -26 -16 -23
-14 2 -29 18 -42 43 -27 52 -60 55 -64 8 -4 -44 27 -74 100 -97 73 -23 91 -43
82 -91 -5 -30 -10 -36 -26 -32 -27 7 -78 -12 -78 -29 0 -20 60 -18 89 2 17 12
38 15 81 12 l58 -4 99 -101 c87 -89 103 -101 141 -107 23 -4 45 -13 48 -21 3
-8 -8 -34 -25 -57 -17 -23 -31 -47 -31 -54 0 -6 -9 -23 -21 -38 -33 -43 -11
-53 27 -12 18 20 41 36 51 36 10 0 27 7 37 15 21 16 55 20 57 8 0 -5 2 -19 4
-33 3 -14 7 -54 10 -89 6 -73 16 -91 54 -91 15 0 32 -5 37 -10 15 -15 44 -1
44 21 0 11 -7 22 -15 25 -8 4 -15 12 -15 20 0 19 77 66 103 62 19 -3 22 -10
23 -48 2 -47 36 -206 47 -217 17 -17 19 13 5 84 -19 93 -22 223 -7 223 6 0 9
7 5 15 -4 11 2 15 23 15 16 0 32 -6 34 -12 4 -10 6 -10 6 0 1 6 7 12 15 12 20
0 39 -90 31 -140 -4 -26 -3 -40 4 -40 6 0 11 10 11 23 0 12 5 29 10 37 8 12
10 11 10 -7 0 -13 11 -30 25 -39 38 -25 99 -4 113 40 10 31 10 31 11 4 1 -17
-9 -37 -24 -52 -14 -14 -25 -30 -25 -37 0 -7 9 -9 25 -5 l25 6 0 -242 c0 -134
4 -249 9 -257 18 -29 31 2 31 75 0 42 5 83 13 95 10 17 9 22 -5 33 -16 12 -18
33 -18 176 l0 163 23 -21 c13 -12 29 -22 35 -22 15 0 15 -9 -3 -40 -35 -62 -2
-164 75 -229 37 -31 57 -41 84 -41 31 0 38 -5 56 -39 22 -45 64 -78 108 -87
64 -13 152 62 209 178 21 44 33 57 51 57 12 1 22 -3 22 -9 0 -5 -4 -10 -10
-10 -12 0 -13 -40 -1 -58 5 -8 21 -12 37 -10 26 3 29 6 28 40 -2 48 20 51 58
8 l26 -30 7 -335 c7 -308 9 -337 26 -345 27 -15 51 14 44 53 -11 65 -25 327
-25 469 l0 146 29 10 c59 21 69 57 45 167 -5 25 -4 28 7 18 7 -7 32 -13 55
-13 41 0 42 1 46 38 3 25 0 40 -9 45 -11 7 -10 15 9 48 12 21 27 39 34 39 7 0
34 11 60 25 26 14 51 22 55 18 15 -18 18 -110 3 -138 -32 -62 -7 -125 52 -125
47 0 74 29 74 80 0 37 3 41 46 60 59 27 78 21 70 -24 -4 -19 -1 -47 8 -67 7
-19 17 -57 21 -84 3 -28 10 -57 15 -65 17 -27 22 -2 11 52 -13 62 -22 223 -14
255 4 20 12 23 49 23 55 0 68 -21 68 -112 0 -69 9 -81 20 -28 8 44 32 48 70
11 33 -32 76 -42 76 -17 0 13 20 26 41 26 5 0 9 -6 9 -14 0 -26 18 -27 43 -2
14 13 50 39 81 56 31 18 54 36 51 40 -3 5 4 27 16 50 21 40 22 79 3 146 -5 18
0 22 30 28 47 9 83 -1 130 -35 22 -16 50 -29 63 -29 21 0 38 -14 166 -138 l47
-46 0 76 0 77 -70 41 c-39 23 -77 52 -86 64 -8 13 -23 26 -32 28 -30 8 -70 79
-78 137 l-7 54 29 -7 c26 -6 27 -5 11 8 -19 15 -41 118 -31 149 3 9 19 24 36
33 25 13 29 20 23 41 -3 14 -13 32 -20 40 -8 8 -15 25 -15 38 0 27 45 85 66
85 8 0 14 5 14 11 0 7 -11 9 -29 6 -35 -7 -46 4 -55 57 -5 25 -19 50 -38 67
-28 27 -29 31 -23 83 10 74 2 92 -41 101 -31 5 -39 13 -60 61 -33 74 -94 132
-188 178 -57 28 -83 47 -98 72 -18 30 -25 34 -61 34 -32 0 -38 3 -29 12 7 7
12 18 12 25 0 22 -38 14 -59 -13 l-20 -26 -28 31 c-15 17 -43 47 -62 67 -31
32 -35 43 -38 99 -2 35 -8 76 -15 92 l-11 28 -7 -35 c-3 -19 -3 -42 1 -50 4
-8 12 -37 18 -64 11 -45 10 -51 -9 -71 -21 -23 -50 -110 -50 -153 0 -12 -7
-25 -15 -28 -12 -5 -13 -9 -4 -20 9 -11 9 -21 0 -40 -15 -34 -51 -29 -69 9 -8
16 -16 26 -20 23 -3 -3 1 -17 8 -31 16 -29 6 -44 -18 -29 -13 9 -19 7 -27 -10
-9 -18 -21 -21 -87 -23 -70 -2 -79 0 -93 20 -18 25 -19 46 -5 82 l10 26 33
-25 c19 -14 46 -27 62 -28 15 -2 30 -8 32 -15 7 -17 23 -17 23 1 0 7 12 21 26
31 47 30 75 131 47 167 -5 7 -13 21 -16 31 -4 9 -13 17 -20 17 -8 0 -20 7 -27
15 -7 8 -22 14 -34 13 -11 0 -29 3 -38 7 -12 5 -18 3 -18 -7 0 -8 -15 -21 -32
-29 -21 -9 -34 -22 -36 -36 -4 -28 -13 -29 -30 -3 -7 11 -21 20 -32 20 -11 0
-20 5 -20 11 0 6 -7 8 -16 5 -9 -4 -23 -1 -31 5 -10 9 -16 8 -26 -4 -15 -19
-67 -34 -67 -19 0 6 4 13 10 17 5 3 7 12 3 20 -3 8 0 15 7 15 6 0 9 -4 6 -9
-3 -5 1 -14 9 -21 12 -10 15 -9 15 7 0 20 26 47 73 77 28 17 32 36 9 44 -6 2
-21 -13 -33 -32 -11 -20 -26 -36 -33 -36 -11 0 -13 7 -17 65 -1 14 -5 25 -9
25 -9 0 -30 -46 -30 -68 0 -11 -7 -7 -20 14 -11 17 -43 43 -70 58 -34 18 -50
33 -48 44 2 12 -5 18 -24 20 -21 3 -29 10 -34 30 -11 49 -13 54 -33 47 -13 -4
-29 6 -55 35 -20 22 -39 40 -42 40 -3 0 -14 -10 -24 -22 -16 -20 -21 -21 -45
-10 -15 7 -29 21 -32 32 -8 30 -25 24 -21 -7 2 -21 -2 -28 -23 -33 -16 -5 -32
-2 -43 6 -26 18 -66 -9 -66 -44 l0 -26 -20 22 c-34 36 -92 24 -110 -24 -11
-27 -32 -31 -50 -9 -7 8 -28 17 -49 21 -38 7 -61 20 -61 35 0 5 7 9 15 9 8 0
15 5 15 10 0 6 -10 8 -24 4 -33 -8 -80 19 -106 61 -12 19 -26 35 -31 35 -6 0
-36 -12 -67 -26 -53 -24 -57 -25 -69 -8 -7 10 -13 21 -13 26 0 4 -4 8 -10 8
-5 0 -10 -7 -10 -15 0 -42 -74 -72 -100 -40 -7 8 -19 15 -27 15 -12 0 -14 -7
-9 -31 5 -26 1 -35 -24 -56 -17 -13 -30 -34 -30 -45 0 -10 -5 -28 -10 -39 -9
-15 -15 -17 -29 -9 -30 16 -42 -7 -28 -58 9 -35 9 -45 -3 -52 -8 -5 -17 -7
-21 -4 -4 2 -12 -2 -18 -10 -8 -10 -5 -16 16 -25 17 -8 23 -15 16 -19 -12 -7
-8 -30 13 -101 5 -17 4 -22 -4 -17 -7 4 -12 16 -12 27 0 12 -7 19 -18 19 -10
0 -23 5 -30 12 -19 19 -23 4 -10 -33 21 -62 38 -77 80 -71 26 3 38 1 38 -8 0
-7 -7 -10 -15 -6 -10 4 -19 -3 -25 -19 -9 -22 -14 -24 -77 -24 -43 0 -77 6
-92 16 -21 13 -23 20 -17 62 14 94 15 92 -32 110 -43 15 -44 15 -63 -9 -13
-17 -18 -35 -15 -57 4 -27 1 -33 -25 -44 -28 -11 -33 -10 -66 22 -20 19 -43
39 -50 46 -7 6 -13 18 -13 26 0 8 -9 22 -19 31 -11 10 -25 31 -31 47 -8 17
-20 29 -31 29 -32 0 -256 219 -261 255 -2 12 -12 21 -25 23 -13 2 -23 11 -25
25 -2 13 -19 30 -43 44 -47 27 -47 27 -63 11z"/>
<path d="M883 3212 c-26 -4 -30 -29 -10 -56 19 -26 51 -17 55 15 4 30 -14 46
-45 41z"/>
<path d="M1124 3210 c-25 -10 -38 -26 -26 -34 8 -5 82 9 112 20 12 5 11 8 -5
14 -26 11 -55 11 -81 0z"/>
<path d="M2367 3189 c-8 -30 4 -90 17 -86 11 4 17 71 8 95 -6 19 -19 14 -25
-9z"/>
<path d="M1642 3142 c-7 -5 -15 -26 -18 -48 l-5 -39 20 24 c12 13 21 34 21 47
0 27 0 27 -18 16z"/>
<path d="M2260 3120 c-12 -17 -20 -33 -18 -35 2 -3 15 9 27 26 13 17 21 33 18
35 -3 3 -15 -9 -27 -26z"/>
<path d="M952 3129 c2 -7 10 -15 17 -17 8 -3 12 1 9 9 -2 7 -10 15 -17 17 -8
3 -12 -1 -9 -9z"/>
<path d="M627 3014 c-4 -4 -7 -22 -7 -40 0 -26 -4 -33 -22 -36 -32 -4 -36 -43
-8 -58 15 -8 25 -9 32 -2 6 6 17 8 25 5 11 -5 13 7 11 62 -3 63 -13 86 -31 69z"/>
<path d="M2853 2900 c-36 -22 -44 -50 -15 -50 24 0 55 34 50 54 -3 14 -7 13
-35 -4z"/>
<path d="M2790 2879 c0 -5 5 -7 10 -4 6 3 10 8 10 11 0 2 -4 4 -10 4 -5 0 -10
-5 -10 -11z"/>
<path d="M880 2831 c0 -10 30 -24 37 -17 3 3 2 9 -2 15 -8 13 -35 15 -35 2z"/>
<path d="M2890 2600 c0 -11 7 -20 15 -20 8 0 15 9 15 20 0 11 -7 20 -15 20 -8
0 -15 -9 -15 -20z"/>
<path d="M2775 2480 c-3 -5 -1 -10 4 -10 6 0 11 5 11 10 0 6 -2 10 -4 10 -3 0
-8 -4 -11 -10z"/>
<path d="M182 2238 c5 -15 68 -24 68 -10 0 10 -32 22 -58 22 -8 0 -12 -6 -10
-12z"/>
<path d="M161 1961 c-14 -3 -27 -13 -29 -20 -4 -11 6 -13 49 -7 29 4 56 9 58
12 13 13 -45 25 -78 15z"/>
<path d="M508 1514 c-25 -13 -38 -34 -23 -34 14 0 65 32 65 40 0 13 -10 12
-42 -6z"/>
<path d="M423 1451 c-44 -27 -54 -41 -28 -41 16 0 83 56 75 63 -3 2 -24 -8
-47 -22z"/>
<path d="M576 1369 c-36 -28 -33 -42 7 -34 38 8 62 28 53 44 -11 17 -30 13
-60 -10z"/>
<path d="M0 1128 c0 -139 3 -197 11 -193 6 4 23 8 38 9 15 1 48 19 74 41 36
30 51 52 62 89 22 73 19 101 -17 154 -45 65 -75 88 -125 95 l-43 5 0 -200z"/>
<path d="M667 1242 c-24 -26 -21 -62 7 -94 46 -52 106 -42 112 18 5 43 -4 62
-36 79 -38 20 -63 19 -83 -3z"/>
<path d="M1180 1101 c0 -15 -2 -50 -5 -77 -4 -44 -4 -45 4 -14 18 66 23 120
12 120 -6 0 -11 -13 -11 -29z"/>
<path d="M1314 1036 c-8 -21 3 -49 16 -41 5 3 10 15 10 25 0 25 -18 36 -26 16z"/>
<path d="M2985 988 c-2 -7 -6 -42 -9 -78 -4 -49 -3 -58 4 -35 12 38 23 125 15
125 -3 0 -7 -6 -10 -12z"/>
<path d="M1010 970 c0 -10 -5 -31 -12 -45 -13 -29 -5 -43 16 -26 15 13 20 91
5 91 -5 0 -9 -9 -9 -20z"/>
<path d="M1380 924 c0 -8 5 -12 10 -9 6 3 10 10 10 16 0 5 -4 9 -10 9 -5 0
-10 -7 -10 -16z"/>
<path d="M2645 910 c-4 -6 -3 -16 3 -22 6 -6 12 -6 17 2 4 6 3 16 -3 22 -6 6
-12 6 -17 -2z"/>
<path d="M856 878 c-39 -51 -23 -94 18 -49 11 12 16 31 14 53 l-3 33 -29 -37z"/>
<path d="M2807 828 c-3 -18 -8 -44 -12 -57 -7 -21 -6 -22 14 -12 17 9 21 21
21 56 0 52 -15 60 -23 13z"/>
<path d="M1167 842 c-5 -7 -5 -48 -1 -92 4 -56 3 -84 -5 -94 -8 -9 -9 -16 -2
-21 6 -3 13 4 16 17 9 35 1 205 -8 190z"/>
<path d="M3730 838 c0 -20 21 -38 43 -38 32 0 18 44 -15 48 -19 2 -28 -1 -28
-10z"/>
<path d="M1320 793 c0 -28 3 -34 10 -23 13 20 13 60 0 60 -5 0 -10 -17 -10
-37z"/>
<path d="M426 763 c-11 -11 -6 -23 9 -23 8 0 15 4 15 9 0 13 -16 22 -24 14z"/>
<path d="M2192 759 c-24 -9 -22 -29 2 -29 17 0 40 27 29 33 -4 3 -18 1 -31 -4z"/>
<path d="M1307 693 c-18 -35 -32 -163 -19 -163 5 0 14 12 20 28 13 31 27 162
18 162 -3 0 -12 -12 -19 -27z"/>
<path d="M2971 705 c-8 -21 -6 -204 2 -196 4 4 6 52 4 107 -1 54 -4 95 -6 89z"/>
<path d="M3120 676 c-12 -34 -13 -46 -1 -46 11 0 26 59 17 67 -3 3 -10 -6 -16
-21z"/>
<path d="M390 662 c-19 -16 -20 -21 -9 -45 8 -18 20 -27 35 -27 25 0 54 24 54
45 0 17 -27 45 -45 45 -7 0 -23 -8 -35 -18z"/>
<path d="M1690 665 c-19 -23 -8 -50 20 -50 18 0 26 6 28 22 4 29 -30 49 -48
28z"/>
<path d="M1468 656 c-19 -14 -24 -36 -10 -36 10 0 42 33 42 43 0 11 -13 8 -32
-7z"/>
<path d="M1510 620 c0 -5 7 -10 16 -10 8 0 12 5 9 10 -3 6 -10 10 -16 10 -5 0
-9 -4 -9 -10z"/>
<path d="M3102 557 c-13 -37 -28 -167 -19 -167 13 0 37 61 36 92 0 18 3 47 6
64 9 43 -9 51 -23 11z"/>
<path d="M3272 524 c-25 -17 -29 -34 -7 -34 14 0 41 37 33 46 -2 2 -14 -3 -26
-12z"/>
<path d="M1744 447 c-20 -18 -25 -29 -20 -43 8 -18 9 -18 19 4 5 12 16 22 22
22 7 0 23 9 36 20 l24 19 -27 1 c-15 0 -39 -11 -54 -23z"/>
<path d="M1285 389 c-8 -23 -1 -34 14 -24 13 8 15 45 2 45 -5 0 -13 -9 -16
-21z"/>
<path d="M2514 385 c-3 -8 -3 -19 0 -24 10 -16 36 -1 36 20 0 22 -28 26 -36 4z"/>
<path d="M2882 373 c2 -10 10 -18 18 -18 22 0 18 29 -3 33 -14 3 -18 -1 -15
-15z"/>
<path d="M3033 197 c-25 -11 -30 -36 -11 -55 19 -19 37 -14 50 13 16 35 -6 58
-39 42z"/>
</g>
</svg>
