<?xml version="1.0" standalone="no"?>
<!DOCTYPE svg PUBLIC "-//W3C//DTD SVG 20010904//EN"
 "http://www.w3.org/TR/2001/REC-SVG-20010904/DTD/svg10.dtd">
<svg version="1.0" xmlns="http://www.w3.org/2000/svg"
 width="450.000000pt" height="450.000000pt" viewBox="0 0 450.000000 450.000000"
 preserveAspectRatio="xMidYMid meet">
<metadata>
Created by potrace 1.16, written by Peter Selinger 2001-2019
</metadata>
<g transform="translate(0.000000,450.000000) scale(0.100000,-0.100000)"
fill="#000000" stroke="none">
<path d="M2005 4190 c-3 -5 1 -10 9 -10 9 0 16 5 16 10 0 6 -4 10 -9 10 -6 0
-13 -4 -16 -10z"/>
<path d="M1915 4160 c-7 -12 2 -12 30 0 19 8 19 9 -2 9 -12 1 -25 -3 -28 -9z"/>
<path d="M2335 4140 c-11 -4 -30 -6 -43 -3 -27 6 -183 -17 -197 -29 -5 -4 -35
-8 -68 -8 -32 0 -67 -5 -79 -11 -11 -6 -40 -12 -65 -14 -50 -3 -64 -12 -43
-25 16 -10 -14 -14 -72 -10 -14 1 -41 -6 -58 -15 -17 -9 -45 -17 -61 -17 -16
-1 -32 -5 -35 -9 -3 -5 -22 -16 -42 -25 -20 -10 -40 -19 -44 -21 -4 -2 -5 3
-2 11 3 9 10 16 15 16 5 0 9 7 9 15 0 20 -14 19 -35 -1 -12 -13 -19 -14 -30
-4 -8 7 -21 10 -29 7 -8 -3 -16 -1 -18 5 -3 8 -9 8 -24 0 -10 -6 -13 -12 -6
-12 21 0 13 -16 -14 -29 -36 -16 -26 -23 16 -11 52 15 48 3 -6 -21 -141 -63
-179 -88 -312 -208 -75 -68 -169 -148 -209 -177 -74 -55 -103 -89 -81 -96 17
-6 -5 -41 -36 -58 -14 -7 -26 -19 -26 -26 0 -12 -28 -38 -104 -95 -48 -36 -36
-38 16 -3 43 30 59 26 34 -8 -54 -76 -110 -167 -121 -198 -7 -19 -31 -73 -53
-120 -21 -47 -54 -123 -72 -170 -17 -47 -36 -94 -40 -105 -8 -19 -30 -86 -30
-90 0 -1 11 0 25 3 27 5 35 -15 10 -24 -8 -4 -15 -14 -15 -23 0 -9 -9 -27 -20
-41 -31 -40 -23 -48 10 -10 l31 35 -5 -45 c-2 -25 -9 -70 -16 -100 -6 -30 -13
-77 -15 -103 -2 -26 -7 -67 -10 -92 -4 -24 -3 -50 1 -57 8 -11 14 -50 39 -253
4 -27 18 -72 32 -99 14 -27 26 -63 25 -79 0 -17 8 -47 19 -68 10 -21 19 -51
19 -67 0 -20 13 -44 40 -75 22 -25 40 -55 40 -66 0 -12 9 -39 19 -60 18 -35
19 -39 3 -54 -15 -16 -14 -19 16 -50 18 -18 32 -38 32 -44 0 -6 11 -18 24 -27
14 -8 32 -28 41 -44 10 -16 39 -43 65 -61 27 -18 59 -47 72 -63 12 -17 45 -41
73 -56 27 -14 44 -27 38 -29 -24 -8 -13 -33 26 -61 21 -15 46 -40 55 -55 11
-20 21 -27 34 -23 12 4 26 -1 37 -14 10 -11 25 -20 33 -20 11 0 12 -3 3 -14
-9 -10 -9 -16 -1 -21 6 -4 9 -13 6 -20 -3 -8 2 -19 9 -25 18 -15 49 -5 39 11
-4 7 -1 10 7 7 8 -3 15 -14 17 -25 2 -13 16 -26 35 -33 109 -43 284 -139 208
-115 -14 4 -21 2 -21 -7 1 -7 28 -26 61 -43 48 -24 62 -27 68 -16 5 8 16 11
30 6 33 -10 25 12 -9 24 -16 5 -30 15 -30 20 0 6 -8 11 -17 12 -11 0 -13 3 -5
6 7 2 28 -5 48 -16 19 -12 45 -21 58 -21 13 0 41 -12 62 -28 21 -15 55 -36 76
-46 34 -18 38 -18 61 -3 23 15 26 15 45 -4 12 -10 28 -19 37 -19 9 0 29 -7 46
-15 16 -9 34 -13 39 -10 5 3 21 -2 35 -11 18 -12 29 -13 38 -6 7 6 24 9 38 6
21 -4 22 -3 4 5 -11 5 -42 17 -68 26 -28 10 -45 21 -40 26 5 5 26 3 48 -5 62
-21 135 -37 146 -31 18 12 9 23 -23 30 -49 11 -108 36 -108 46 0 5 12 4 26 -2
15 -5 29 -7 32 -4 3 2 10 1 16 -5 7 -5 31 -10 54 -11 50 -3 73 -22 45 -37 -14
-9 -11 -12 22 -21 22 -5 76 -15 120 -20 68 -8 81 -7 88 5 5 8 18 14 30 13 62
-4 87 1 87 20 0 24 19 31 81 31 74 0 51 16 -31 22 -73 6 -91 12 -74 27 5 5 48
3 97 -5 58 -8 97 -10 113 -4 15 6 24 6 24 0 0 -5 -11 -12 -25 -16 -37 -9 -31
-28 6 -20 17 3 45 6 61 6 25 0 28 3 19 14 -13 16 4 26 44 26 14 0 33 9 44 21
11 12 25 18 31 14 13 -8 67 11 92 33 12 10 22 12 30 5 25 -19 63 -12 120 23
56 34 94 69 49 45 -11 -7 -21 -8 -21 -3 0 5 11 14 25 20 27 13 30 14 86 62 20
16 43 30 50 30 26 0 281 233 317 290 9 14 47 66 84 116 37 50 68 99 68 108 0
10 -21 -13 -46 -51 -115 -169 -204 -271 -264 -303 -19 -10 -52 -34 -74 -54
-21 -20 -41 -36 -45 -36 -3 0 -31 -20 -61 -45 -30 -25 -63 -48 -72 -51 -10 -3
-18 -10 -18 -16 0 -5 -7 -7 -16 -4 -9 3 -28 -2 -42 -12 -43 -30 -131 -67 -207
-87 -38 -10 -75 -22 -81 -26 -10 -8 -54 -1 -54 9 0 3 8 14 18 25 16 19 16 20
-5 8 -12 -6 -30 -11 -41 -11 -12 0 -22 -9 -26 -22 -5 -18 -8 -20 -15 -9 -7 10
-21 12 -55 8 -28 -4 -46 -3 -46 3 0 6 6 10 14 10 7 0 30 11 50 25 41 28 66 34
47 11 -21 -25 94 21 129 52 8 7 30 24 49 37 37 27 35 34 -2 11 -38 -24 -67
-29 -67 -13 0 9 6 18 13 20 9 4 8 6 -2 6 -7 1 -29 -13 -48 -29 -36 -32 -83
-40 -83 -15 0 8 -4 15 -10 15 -23 0 -7 18 40 45 28 16 50 33 50 37 0 4 6 8 13
8 8 0 26 13 40 30 15 16 32 30 39 30 17 0 121 52 142 72 11 10 25 18 31 18 6
0 29 18 50 40 23 23 49 40 61 40 13 0 26 5 29 10 4 6 30 25 58 44 29 18 76 54
106 79 30 26 61 47 68 47 7 0 13 9 13 21 0 12 8 23 18 26 25 6 55 59 47 83 -5
15 4 30 36 61 24 23 53 63 65 90 13 27 32 59 43 71 12 12 21 29 21 37 0 10
-20 -5 -50 -36 -28 -29 -59 -57 -70 -63 -35 -19 -23 7 30 62 28 28 50 55 50
59 0 4 9 11 20 14 11 3 20 12 20 19 0 6 5 17 11 23 20 20 51 115 60 183 4 36
11 79 15 95 4 17 3 26 -2 22 -5 -5 -13 7 -20 25 l-11 33 -7 -45 c-10 -68 -26
-110 -41 -110 -9 0 -12 7 -9 18 3 9 10 28 14 42 14 41 22 137 10 120 -16 -24
-13 24 5 67 18 42 18 46 5 38 -14 -9 -12 17 4 56 10 25 14 76 12 197 -2 129 0
155 9 130 6 -18 17 -32 24 -30 7 1 18 -2 25 -7 7 -6 22 -8 34 -4 20 5 22 11
18 44 -2 21 -7 42 -10 48 -4 5 -1 13 5 16 6 4 8 17 5 30 -7 28 17 104 28 87
13 -21 27 -13 20 13 -4 15 -1 32 6 40 10 12 10 18 -1 31 -9 12 -10 17 -1 23
17 10 0 61 -37 117 -17 25 -31 50 -31 57 0 7 -11 28 -24 48 -18 26 -23 46 -21
80 1 24 -4 55 -11 69 -7 14 -20 46 -30 72 -9 26 -25 55 -35 64 -11 9 -19 27
-19 40 0 13 -8 28 -19 33 -10 6 -21 25 -25 43 -5 24 -32 58 -100 125 -62 60
-96 102 -101 121 -4 21 -14 32 -32 37 -15 3 -40 19 -55 34 -16 16 -47 37 -68
47 -21 11 -41 26 -43 35 -3 9 -19 20 -36 24 -17 3 -44 18 -60 32 -26 23 -67
43 -126 60 -11 4 -22 9 -25 13 -9 11 -90 50 -105 50 -8 0 -15 5 -15 10 0 6
-10 10 -23 10 -13 0 -27 4 -33 9 -5 5 -29 13 -54 19 -25 5 -90 22 -145 37 -62
16 -138 28 -199 31 -55 3 -105 8 -110 12 -16 10 -78 11 -101 2z m-177 -92
c-16 -5 -28 -13 -28 -16 0 -9 -107 -9 -115 0 -4 4 3 9 16 12 13 3 33 7 44 9
11 3 40 5 65 5 42 0 43 0 18 -10z m132 -28 c0 -5 -7 -10 -16 -10 -8 0 -12 5
-9 10 3 6 10 10 16 10 5 0 9 -4 9 -10z m278 -10 c18 -7 46 -10 62 -6 16 3 32
2 34 -3 3 -5 32 -12 63 -16 32 -4 64 -8 73 -10 32 -6 186 -78 217 -101 17 -13
41 -24 52 -24 20 0 61 -28 61 -41 0 -3 -20 -3 -45 1 -59 9 -63 -15 -5 -30 22
-6 40 -15 40 -20 0 -16 -113 -11 -134 5 -11 8 -37 15 -58 15 -38 0 -72 15
-113 51 -11 9 -54 33 -95 54 -41 20 -82 40 -90 44 -8 5 -49 16 -90 26 -81 20
-149 46 -150 57 0 18 128 17 178 -2z m-578 -20 c0 -5 -11 -12 -25 -16 -14 -4
-24 -9 -21 -11 3 -3 26 2 53 10 71 22 93 26 93 16 0 -5 -11 -11 -25 -15 -14
-3 -25 -10 -25 -15 0 -5 16 -3 35 6 32 13 37 13 42 -1 3 -9 12 -13 22 -8 9 4
59 8 111 9 102 2 131 -10 78 -32 -17 -7 -28 -16 -25 -20 4 -3 13 0 22 7 12 10
21 10 44 1 15 -7 51 -13 80 -15 28 -1 57 -8 63 -15 11 -11 1 -12 -52 -7 -36 4
-73 7 -82 7 -10 0 -37 0 -60 1 -108 2 -180 -1 -210 -11 -47 -15 -217 -24 -198
-11 12 8 8 10 -15 8 -16 -1 -63 1 -103 5 -43 5 -78 5 -85 -1 -19 -15 -67 -24
-67 -12 0 11 7 14 52 24 15 4 42 19 60 35 18 15 49 31 68 34 39 8 164 34 168
36 1 0 2 -3 2 -9z m-433 -147 c-9 -9 -20 -14 -24 -10 -3 4 2 14 13 21 25 19
33 10 11 -11z m-152 -17 c-16 -23 -45 -42 -45 -29 0 10 42 53 52 53 5 0 1 -11
-7 -24z m228 17 c-22 -8 -14 -21 10 -16 21 6 20 5 -5 -16 -14 -11 -29 -21 -34
-21 -20 0 -113 -56 -117 -70 -4 -17 -67 -35 -67 -19 0 4 21 24 46 45 25 22 56
49 68 62 13 12 35 22 49 22 14 0 29 5 32 10 3 6 12 10 18 9 9 0 9 -2 0 -6z
m-367 -104 c-31 -28 -56 -56 -55 -63 3 -28 -2 -38 -17 -32 -17 7 -18 7 -204
-178 -137 -136 -160 -161 -160 -173 0 -5 -14 -22 -31 -39 -19 -18 -28 -23 -24
-11 4 9 2 24 -5 32 -7 9 -10 19 -6 22 4 4 11 1 15 -6 7 -10 20 -2 55 34 25 25
44 51 41 55 -6 10 285 310 301 310 5 0 36 23 69 50 78 65 92 64 21 -1z m2104
1 c13 -8 13 -10 -2 -10 -9 0 -20 5 -23 10 -8 13 5 13 25 0z m-2057 -122 c-29
-29 -55 -49 -59 -45 -8 8 85 96 101 97 5 0 -14 -23 -42 -52z m2217 -48 c0 -14
-14 -12 -28 2 -19 19 -14 30 8 18 11 -6 20 -15 20 -20z m154 -164 c18 -24 23
-37 14 -42 -12 -8 -58 42 -58 64 0 21 17 13 44 -22z m86 -31 c0 -7 3 -22 7
-32 6 -16 5 -16 -10 -5 -8 8 -13 20 -10 28 3 8 0 14 -6 14 -6 0 -11 4 -11 10
0 5 7 7 15 4 8 -4 15 -12 15 -19z m-167 -37 c12 -7 24 -16 27 -19 3 -3 16 -13
30 -23 l25 -18 -30 6 c-33 8 -77 36 -83 54 -5 15 3 15 31 0z m213 -103 c16
-34 18 -45 8 -45 -8 0 -14 6 -14 14 0 8 -4 16 -8 18 -11 4 -25 58 -15 58 5 -1
17 -21 29 -45z m-3131 -85 c-14 -27 -30 -50 -37 -50 -6 0 -4 8 5 18 10 10 17
22 17 26 0 8 31 56 36 56 3 0 -7 -22 -21 -50z m2937 -74 c40 -55 82 -140 101
-202 8 -28 31 -85 51 -125 30 -63 37 -91 46 -187 6 -62 13 -127 17 -144 5 -26
3 -30 -10 -25 -10 4 -18 -1 -22 -13 -3 -10 -13 -21 -21 -24 -13 -5 -15 -1 -9
21 3 16 12 40 19 54 10 21 10 44 0 120 -7 52 -17 110 -23 129 -21 77 -24 85
-31 95 -4 6 -19 46 -34 90 -38 116 -69 171 -139 250 -59 66 -60 68 -18 36 24
-19 57 -53 73 -75z m38 23 c0 -6 15 -29 34 -52 18 -23 37 -52 40 -64 4 -11 13
-27 21 -33 8 -7 15 -20 15 -30 0 -10 10 -24 22 -32 21 -14 21 -16 7 -47 -15
-31 -16 -31 -33 -12 -10 11 -15 25 -11 31 3 5 -2 25 -13 43 -11 17 -23 43 -27
57 -4 14 -18 40 -32 58 -13 17 -21 32 -18 32 3 0 -1 10 -9 22 -18 25 -21 53
-6 43 6 -3 10 -11 10 -16z m243 -112 c4 3 7 -1 7 -9 0 -9 7 -21 15 -28 16 -14
20 -40 6 -40 -5 0 -11 9 -14 20 -3 11 -11 19 -18 18 -7 -2 -16 12 -20 32 -6
30 -6 32 5 18 7 -10 16 -15 19 -11z m67 -118 c0 -5 -4 -9 -10 -9 -5 0 -10 7
-10 16 0 8 5 12 10 9 6 -3 10 -10 10 -16z m-3450 -64 c-16 -47 -23 -40 -8 8 6
20 13 35 16 33 2 -3 -1 -21 -8 -41z m3397 23 c-3 -8 -6 -5 -6 6 -1 11 2 17 5
13 3 -3 4 -12 1 -19z m-27 -145 c0 -17 -4 -35 -10 -38 -5 -3 -10 -11 -10 -17
0 -7 5 -7 14 1 11 9 17 4 30 -23 9 -19 16 -42 16 -53 0 -15 -3 -15 -21 7 -20
24 -20 24 -14 3 10 -35 -12 -27 -29 10 -15 34 -45 225 -38 246 7 20 62 -101
62 -136z m-70 -363 c0 -16 -58 -76 -65 -68 -4 4 5 23 21 42 30 35 44 44 44 26z
m-2878 -1154 c26 -24 45 -46 42 -49 -6 -6 -12 -2 -65 46 -17 15 -35 27 -41 27
-5 0 -6 5 -3 10 10 16 17 12 67 -34z m942 -141 c17 -8 47 -24 66 -35 19 -11
52 -20 72 -20 21 0 38 -5 38 -11 0 -11 -29 -10 -186 10 -97 12 -130 24 -163
58 l-26 26 84 -7 c46 -4 97 -13 115 -21z m446 -145 c0 -5 -15 -11 -32 -11 -18
-1 -46 -2 -63 -4 -51 -3 -63 10 -15 16 74 10 110 10 110 -1z m645 -70 c-7 -11
-73 -25 -82 -17 -3 3 10 10 28 16 45 12 61 13 54 1z m-85 -51 c0 -6 -7 -9 -15
-5 -8 3 -25 2 -38 -3 -37 -14 -137 -23 -137 -12 0 6 17 13 38 16 20 4 44 8 52
10 38 8 100 4 100 -6z m-66 -104 c17 -25 16 -25 -7 -19 -14 3 -28 1 -31 -5 -9
-14 -96 -15 -96 -1 0 6 3 10 8 11 4 0 16 3 27 5 11 3 31 6 45 8 13 2 26 9 28
15 5 16 8 14 26 -14z m121 -15 c-32 -21 -45 -19 -25 5 7 8 22 15 34 15 19 0
18 -2 -9 -20z m-588 -206 c-3 -3 -12 -4 -19 -1 -8 3 -5 6 6 6 11 1 17 -2 13
-5z m93 -14 c12 -8 11 -10 -7 -10 -12 0 -25 5 -28 10 -8 13 15 13 35 0z m140
-22 c0 -4 -12 -8 -26 -8 -14 0 -23 4 -19 9 6 11 45 10 45 -1z m-211 -9 c-18
-11 -79 -12 -79 -1 0 5 21 9 47 10 31 0 42 -3 32 -9z"/>
<path d="M2050 4130 c0 -13 11 -13 30 0 12 8 11 10 -7 10 -13 0 -23 -4 -23
-10z"/>
<path d="M1900 4120 c-12 -8 -9 -10 12 -10 15 0 30 5 33 10 8 13 -25 13 -45 0z"/>
<path d="M1510 4080 c0 -5 6 -10 14 -10 8 0 18 5 21 10 3 6 -3 10 -14 10 -12
0 -21 -4 -21 -10z"/>
<path d="M1720 4080 c-8 -5 -11 -12 -8 -16 10 -9 38 3 38 16 0 12 -10 13 -30
0z"/>
<path d="M1455 4040 c-3 -5 -1 -10 4 -10 6 0 11 5 11 10 0 6 -2 10 -4 10 -3 0
-8 -4 -11 -10z"/>
<path d="M1338 3933 c7 -3 16 -2 19 1 4 3 -2 6 -13 5 -11 0 -14 -3 -6 -6z"/>
<path d="M3940 3092 c0 -12 5 -24 10 -27 6 -3 10 -16 10 -28 0 -12 7 -30 14
-40 13 -16 14 -15 19 10 5 29 -11 71 -37 92 -14 12 -16 10 -16 -7z"/>
<path d="M4064 2900 c9 -13 16 -34 16 -45 0 -22 16 -52 24 -44 9 8 -20 79 -39
97 -17 16 -17 16 -1 -8z"/>
<path d="M4062 2783 c4 -20 18 -26 37 -14 18 12 5 31 -20 31 -14 0 -19 -6 -17
-17z"/>
<path d="M4040 2771 c0 -5 5 -13 10 -16 6 -3 10 -2 10 4 0 5 -4 13 -10 16 -5
3 -10 2 -10 -4z"/>
<path d="M4110 2510 c-5 -46 3 -167 12 -178 10 -12 8 -87 -7 -277 -18 -208
-66 -452 -109 -548 -56 -123 -65 -145 -85 -197 -24 -64 -24 -60 -11 -60 13 0
56 70 76 122 14 40 71 211 95 285 13 41 45 201 65 323 17 101 14 242 -7 395
-13 93 -26 157 -29 135z"/>
<path d="M3980 2456 c0 -9 5 -16 10 -16 6 0 10 4 10 9 0 6 -4 13 -10 16 -5 3
-10 -1 -10 -9z"/>
<path d="M3941 2244 c0 -11 3 -14 6 -6 3 7 2 16 -1 19 -3 4 -6 -2 -5 -13z"/>
<path d="M3940 2165 c0 -21 -9 -49 -21 -66 -11 -16 -18 -36 -15 -44 3 -8 1
-17 -4 -20 -6 -4 -10 -11 -10 -16 0 -6 5 -7 10 -4 6 3 10 1 10 -5 0 -6 5 -8
11 -5 6 4 8 13 5 20 -2 7 4 29 15 49 20 38 26 111 9 121 -6 4 -10 -9 -10 -30z"/>
<path d="M3206 905 c-3 -8 -2 -15 3 -15 5 0 14 7 21 15 10 12 10 15 -3 15 -8
0 -17 -7 -21 -15z"/>
<path d="M1880 360 c0 -5 5 -10 10 -10 6 0 10 5 10 10 0 6 -4 10 -10 10 -5 0
-10 -4 -10 -10z"/>
<path d="M2170 330 c8 -5 20 -10 25 -10 6 0 3 5 -5 10 -8 5 -19 10 -25 10 -5
0 -3 -5 5 -10z"/>
<path d="M2110 320 c8 -5 22 -10 30 -10 13 0 13 1 0 10 -8 5 -22 10 -30 10
-13 0 -13 -1 0 -10z"/>
<path d="M2280 310 c0 -5 5 -10 11 -10 5 0 7 5 4 10 -3 6 -8 10 -11 10 -2 0
-4 -4 -4 -10z"/>
<path d="M2160 306 c0 -2 7 -6 15 -10 8 -3 15 -1 15 4 0 6 -7 10 -15 10 -8 0
-15 -2 -15 -4z"/>
</g>
</svg>
