<?xml version="1.0" standalone="no"?>
<!DOCTYPE svg PUBLIC "-//W3C//DTD SVG 20010904//EN"
 "http://www.w3.org/TR/2001/REC-SVG-20010904/DTD/svg10.dtd">
<svg version="1.0" xmlns="http://www.w3.org/2000/svg"
 width="400.000000pt" height="400.000000pt" viewBox="0 0 400.000000 400.000000"
 preserveAspectRatio="xMidYMid meet">
<metadata>
Created by potrace 1.16, written by Peter Selinger 2001-2019
</metadata>
<g transform="translate(0.000000,400.000000) scale(0.100000,-0.100000)"
fill="#000000" stroke="none">
<path d="M1976 3711 c-60 -40 -80 -113 -50 -177 52 -109 221 -92 254 25 13 48
-2 100 -40 136 -40 38 -120 46 -164 16z"/>
<path d="M2182 3438 c-28 -28 -2 -88 38 -88 40 0 66 60 38 88 -7 7 -24 12 -38
12 -14 0 -31 -5 -38 -12z"/>
<path d="M905 3179 c-170 -42 -352 -158 -461 -293 -135 -168 -196 -340 -196
-551 1 -217 68 -400 210 -572 95 -115 286 -232 447 -274 109 -29 308 -30 412
-2 l72 19 27 -65 c116 -292 377 -520 683 -597 415 -106 851 58 1089 408 l32
46 49 -19 c216 -81 467 24 570 240 35 74 36 79 36 196 0 114 -2 123 -32 188
-45 95 -127 178 -222 225 -73 36 -78 37 -194 39 l-120 1 -37 80 c-139 295
-404 504 -722 568 -62 13 -116 15 -232 11 -160 -5 -232 -20 -359 -73 -57 -24
-62 -25 -72 -9 -143 237 -326 377 -567 435 -112 27 -301 26 -413 -1z"/>
<path d="M1903 3169 c-117 -58 -115 -222 3 -280 74 -36 145 -16 198 55 29 39
29 133 0 173 -24 33 -97 73 -134 73 -14 0 -44 -9 -67 -21z"/>
<path d="M2721 3094 c-28 -36 -26 -60 8 -95 36 -35 61 -37 97 -6 55 48 25 127
-47 127 -29 0 -42 -6 -58 -26z"/>
<path d="M1042 1247 c-45 -48 -14 -117 51 -117 42 0 70 29 70 72 0 61 -78 91
-121 45z"/>
<path d="M3753 1106 c-37 -17 -63 -61 -63 -107 0 -43 56 -99 99 -99 105 0 156
113 83 183 -35 33 -77 41 -119 23z"/>
<path d="M3262 1084 c-43 -30 -17 -104 36 -104 27 0 62 33 62 58 0 22 -40 62
-61 62 -8 0 -25 -7 -37 -16z"/>
<path d="M945 911 c-74 -32 -90 -135 -29 -192 20 -19 36 -24 76 -24 43 0 53 4
79 33 62 69 24 178 -66 187 -22 3 -49 1 -60 -4z"/>
<path d="M1438 869 c-22 -12 -23 -52 -2 -73 19 -20 24 -20 52 0 28 19 28 49 0
68 -26 19 -27 19 -50 5z"/>
<path d="M3340 815 c-26 -32 13 -81 48 -59 34 22 22 74 -18 74 -10 0 -23 -7
-30 -15z"/>
<path d="M3480 730 c0 -5 5 -10 11 -10 5 0 7 5 4 10 -3 6 -8 10 -11 10 -2 0
-4 -4 -4 -10z"/>
</g>
</svg>
