<?xml version="1.0" standalone="no"?>
<!DOCTYPE svg PUBLIC "-//W3C//DTD SVG 20010904//EN"
 "http://www.w3.org/TR/2001/REC-SVG-20010904/DTD/svg10.dtd">
<svg version="1.0" xmlns="http://www.w3.org/2000/svg"
 width="400.000000pt" height="400.000000pt" viewBox="0 0 400.000000 400.000000"
 preserveAspectRatio="xMidYMid meet">
<metadata>
Created by potrace 1.16, written by Peter Selinger 2001-2019
</metadata>
<g transform="translate(0.000000,400.000000) scale(0.100000,-0.100000)"
fill="#000000" stroke="none">
<path d="M1729 3159 c-9 -6 -2 -7 19 -3 33 7 33 6 21 -15 -16 -24 -29 -27 -48
-8 -10 10 -12 9 -9 -5 2 -10 -11 -28 -32 -44 l-35 -26 54 6 c30 4 59 10 65 13
20 13 64 6 97 -15 19 -12 28 -22 21 -22 -7 0 -10 -4 -7 -10 9 -15 25 -12 25 5
0 21 28 33 83 33 33 1 46 -2 41 -10 -5 -7 2 -9 21 -4 57 14 93 54 65 71 -6 3
-7 -1 -4 -9 5 -13 -1 -15 -40 -10 -25 3 -55 0 -66 -6 -16 -9 -20 -8 -20 5 0 8
8 15 17 15 12 0 14 3 6 11 -10 10 -63 2 -63 -10 0 -4 6 -13 13 -20 10 -11 9
-13 -6 -7 -10 3 -27 6 -38 6 -25 0 -25 20 1 27 24 6 24 10 6 28 -16 16 -164
19 -187 4z m161 -79 c0 -5 -6 -10 -14 -10 -8 0 -18 5 -21 10 -3 6 3 10 14 10
12 0 21 -4 21 -10z"/>
<path d="M1996 3161 c-7 -10 23 -20 42 -14 6 3 12 9 12 14 0 12 -47 12 -54 0z"/>
<path d="M2070 3145 c0 -8 4 -15 9 -15 5 0 11 7 15 15 3 9 0 15 -9 15 -8 0
-15 -7 -15 -15z"/>
<path d="M2134 3131 c21 -23 26 -26 26 -11 0 5 -10 15 -22 21 -23 12 -23 12
-4 -10z"/>
<path d="M1640 3116 c0 -9 5 -16 10 -16 6 0 10 4 10 9 0 6 -4 13 -10 16 -5 3
-10 -1 -10 -9z"/>
<path d="M2146 3091 c-35 -7 -47 -31 -16 -31 13 0 20 -5 18 -12 -3 -7 -9 -13
-14 -13 -18 0 -34 -17 -28 -27 5 -7 1 -9 -9 -5 -8 3 -21 -1 -27 -8 -10 -12 -5
-14 30 -10 23 2 54 6 68 9 15 2 44 7 64 11 29 4 36 9 31 23 -3 10 5 6 19 -10
23 -25 58 -38 58 -22 0 14 -56 55 -90 66 -19 6 -44 16 -55 23 -11 6 -33 9 -49
6z m64 -51 c0 -5 -4 -10 -9 -10 -6 0 -13 5 -16 10 -3 6 1 10 9 10 9 0 16 -4
16 -10z"/>
<path d="M1595 3080 c-3 -5 -1 -10 4 -10 6 0 11 5 11 10 0 6 -2 10 -4 10 -3 0
-8 -4 -11 -10z"/>
<path d="M1406 3027 c5 -15 1 -17 -30 -13 -27 4 -36 2 -36 -10 0 -8 4 -13 9
-10 4 3 17 -4 27 -15 11 -12 28 -25 39 -30 18 -9 18 -9 -3 -5 -17 3 -22 1 -18
-10 5 -14 -9 -21 -16 -6 -1 4 -25 16 -52 27 -50 20 -72 45 -40 45 9 0 15 3 11
6 -3 4 -17 4 -31 0 -22 -5 -24 -9 -16 -30 6 -17 5 -26 -3 -29 -20 -8 18 -40
49 -41 15 -1 29 -7 32 -15 5 -16 -43 -8 -86 15 -15 8 -38 13 -52 13 -17 -1
-19 -3 -7 -6 9 -2 17 -9 17 -14 0 -5 9 -9 21 -9 14 0 19 -5 16 -15 -4 -8 -2
-17 3 -20 5 -3 7 -13 4 -23 -5 -14 -4 -15 5 -2 9 12 12 13 20 1 5 -8 16 -11
30 -6 15 4 21 2 21 -9 0 -9 -13 -18 -35 -22 -19 -3 -35 -10 -35 -15 0 -12 27
-11 35 1 3 6 13 10 21 10 12 0 11 -4 -3 -19 -18 -19 -121 -44 -236 -57 -48 -6
-60 -4 -70 10 -12 16 -14 16 -26 2 -9 -11 -30 -16 -67 -16 -30 0 -54 -4 -54
-9 0 -5 -11 -12 -25 -15 -24 -6 -36 -26 -15 -26 6 0 10 -5 10 -11 0 -5 -6 -7
-12 -3 -7 4 -2 -5 12 -20 l25 -28 -35 4 c-27 2 -36 8 -38 25 l-3 22 -21 -21
c-13 -13 -23 -17 -27 -9 -4 6 -22 8 -44 4 -34 -5 -36 -7 -20 -20 16 -13 14
-14 -18 -8 -47 7 -94 -12 -78 -32 9 -10 8 -13 -1 -13 -9 0 -7 -6 5 -20 10 -11
21 -17 26 -14 12 7 49 -14 49 -28 0 -6 -11 -3 -25 6 -25 17 -26 17 -19 -9 7
-28 -7 -33 -26 -10 -16 19 -26 19 -34 -2 -9 -23 12 -43 24 -23 5 8 12 11 16 7
12 -12 -29 -37 -51 -31 -58 16 -63 16 -94 -14 -17 -16 -31 -32 -31 -36 0 -4
-15 -20 -34 -37 -24 -21 -36 -42 -41 -71 -5 -28 -13 -42 -26 -45 -10 -3 -19
-12 -19 -20 0 -16 56 -74 64 -65 3 3 6 -3 6 -14 1 -18 1 -18 16 1 8 11 21 20
30 20 8 0 19 7 25 15 8 12 9 10 4 -7 -7 -25 26 -53 61 -53 18 0 20 -4 16 -27
-7 -36 -21 -45 -46 -27 -29 20 -37 17 -69 -22 -26 -31 -28 -36 -16 -63 13 -28
14 -28 37 -13 24 16 25 16 13 -6 -6 -12 -16 -22 -21 -22 -17 0 -11 -15 13 -29
21 -13 21 -13 7 4 -14 17 -13 18 7 13 20 -5 22 -3 18 20 -3 15 -2 21 1 14 3
-6 10 -10 15 -6 5 3 9 -10 10 -28 0 -18 3 -26 6 -18 6 15 23 30 35 30 12 0
-14 -75 -34 -97 l-21 -22 24 -20 24 -20 -33 9 c-44 12 -62 4 -62 -30 0 -38 68
-121 92 -114 33 9 57 -7 79 -51 19 -37 20 -49 11 -70 -10 -21 -7 -33 16 -77
22 -43 31 -52 50 -50 14 2 22 -2 22 -12 0 -17 18 -31 28 -21 3 3 0 10 -8 16
-11 7 -7 8 13 3 17 -4 27 -2 27 6 0 6 4 8 10 5 6 -4 5 -14 -3 -28 -16 -28 -15
-53 6 -99 17 -37 37 -58 37 -39 0 20 26 11 51 -16 13 -15 16 -21 7 -14 -27 21
-21 -2 7 -29 14 -13 25 -18 25 -12 0 23 16 12 27 -19 9 -24 9 -31 -2 -35 -8
-3 -19 -3 -25 1 -5 3 -10 -1 -10 -9 0 -8 10 -21 23 -27 12 -6 30 -21 41 -31
14 -15 20 -17 27 -7 5 10 11 10 21 1 19 -15 48 2 31 19 -12 12 -7 39 7 39 5 0
10 -10 12 -22 2 -15 17 -30 42 -42 38 -19 40 -19 50 -2 6 10 21 32 33 50 12
17 32 49 44 71 24 45 40 58 53 45 11 -11 -2 -30 -18 -24 -13 5 -40 -42 -31
-56 3 -5 -4 -12 -16 -15 -13 -4 -18 -12 -15 -21 3 -8 2 -12 -3 -9 -5 3 -13 0
-17 -6 -4 -8 -3 -9 4 -5 7 4 12 3 12 -1 0 -15 38 -12 44 3 3 8 -1 14 -9 14 -8
0 -15 5 -15 11 0 6 7 8 16 5 8 -3 12 -2 9 4 -3 6 -1 10 4 10 6 0 11 7 11 15 0
17 16 20 25 5 4 -6 17 -4 35 5 32 17 55 1 28 -19 -14 -10 -48 -68 -48 -80 0
-10 40 0 53 13 9 10 9 11 -3 8 -8 -2 -12 -2 -7 0 4 3 5 8 2 12 -2 5 7 6 20 3
14 -2 25 -5 25 -7 0 -1 -22 -27 -50 -56 -27 -30 -50 -60 -50 -66 0 -7 -4 -13
-10 -13 -5 0 -10 -6 -10 -14 0 -9 7 -12 21 -9 23 6 91 -27 85 -42 -2 -5 -8 -9
-14 -8 -6 2 -10 -10 -9 -25 2 -16 8 -27 17 -27 8 0 18 -4 21 -9 4 -4 10 -3 13
3 4 6 2 11 -3 11 -6 0 -10 12 -9 26 2 22 4 23 14 9 11 -15 14 -15 29 2 9 10
30 38 47 62 19 27 33 40 39 34 14 -14 -1 -45 -17 -39 -8 3 -14 -1 -14 -9 0
-14 36 -31 58 -27 15 3 15 -3 2 -29 -6 -10 -17 -19 -25 -19 -8 0 -15 -4 -15
-8 0 -10 56 -9 88 2 14 5 22 3 22 -4 0 -7 6 -10 14 -7 7 3 18 1 23 -4 6 -6 26
-4 52 6 24 8 58 15 75 16 17 0 26 3 19 5 -7 3 -10 11 -7 18 3 7 -7 13 -28 14
-32 3 -32 2 -13 -13 19 -16 19 -16 -12 -11 -20 3 -33 1 -37 -7 -3 -8 -5 -7 -5
3 -1 17 31 41 67 52 28 8 86 -7 102 -27 11 -13 10 -14 -2 -10 -9 4 -18 -1 -22
-10 -8 -22 -67 -45 -115 -45 -22 0 -42 -4 -45 -9 -6 -10 26 -21 61 -21 12 0
28 -8 35 -18 16 -22 36 -22 52 1 20 26 29 20 10 -8 -15 -22 -15 -26 0 -40 9
-9 16 -21 16 -26 0 -5 19 -9 43 -9 35 1 39 3 26 13 -19 15 -14 37 9 36 11 0
12 -2 5 -6 -7 -2 -13 -9 -13 -14 0 -14 28 -11 33 4 2 7 8 8 13 3 5 -5 4 -11
-3 -13 -24 -9 -13 -24 15 -21 17 2 27 9 26 18 -1 9 8 17 20 18 17 1 18 -1 6
-8 -13 -8 -13 -10 1 -10 9 0 32 18 52 40 19 22 42 40 51 40 8 0 14 6 12 13 -1
6 -1 9 1 5 8 -14 29 -8 63 17 18 13 36 22 40 20 3 -2 30 -5 58 -6 29 -2 52 -6
52 -11 0 -4 6 -8 14 -8 8 0 17 -7 20 -16 6 -16 8 -16 24 0 15 13 40 16 119 16
96 0 265 28 233 38 -17 6 -45 32 -34 32 4 0 0 8 -8 18 -9 9 -18 34 -22 54 -5
29 -10 36 -24 31 -13 -4 -13 -3 3 10 10 8 25 13 31 10 7 -2 26 9 43 26 18 17
41 31 53 31 20 0 20 1 4 19 -15 16 -15 19 -1 24 8 4 30 4 48 2 17 -3 26 -3 20
1 -23 11 -13 24 17 24 17 0 40 -9 52 -20 19 -17 19 -20 5 -20 -9 0 -17 -4 -17
-10 0 -5 8 -10 18 -10 24 0 24 31 0 48 -10 7 -18 18 -18 23 0 13 33 7 45 -9 6
-7 19 -14 30 -17 11 -2 30 -7 42 -11 17 -5 22 -1 28 24 4 19 19 39 41 54 19
12 33 29 32 37 -2 8 10 27 26 43 21 21 34 27 50 22 11 -4 44 -8 73 -9 49 -2
51 -1 42 17 -7 14 -7 23 1 33 8 10 8 15 -3 22 -19 11 -30 45 -17 53 8 5 6 13
-6 24 -16 17 -15 17 19 12 22 -3 37 -2 37 4 0 6 -4 10 -10 10 -5 0 -10 4 -10
10 0 5 7 7 15 4 10 -4 15 0 15 11 0 9 4 13 10 10 6 -4 7 2 1 17 -11 29 -68 34
-63 6 5 -31 -25 -9 -32 23 -3 16 -12 29 -20 29 -11 0 -14 10 -11 38 1 20 3 38
4 39 1 2 16 -6 34 -16 22 -13 31 -25 30 -40 -2 -15 3 -21 17 -21 11 0 20 -4
20 -10 0 -5 7 -10 15 -10 8 0 15 -5 15 -12 0 -6 3 -9 6 -5 3 3 -1 20 -9 36
-15 30 -15 31 6 26 43 -10 87 -12 87 -4 0 5 5 9 11 9 5 0 7 -4 4 -10 -3 -5 1
-10 9 -10 22 0 30 19 15 36 -10 12 -9 13 5 8 21 -8 45 21 46 54 0 13 6 22 15
22 8 0 15 4 15 10 0 18 44 61 57 56 8 -3 13 2 13 14 0 11 -4 20 -10 20 -5 0
-10 5 -10 11 0 5 4 8 8 5 5 -3 9 13 10 35 1 22 6 48 11 57 5 9 7 28 6 42 -1
14 4 34 11 45 16 22 19 49 5 41 -13 -9 0 36 16 56 10 11 11 18 4 23 -6 3 -11
-1 -11 -10 0 -28 -42 -13 -68 25 l-24 35 5 -29 c4 -22 1 -30 -15 -34 -15 -3
-19 -11 -15 -29 3 -15 1 -21 -5 -15 -4 4 -11 33 -14 63 -6 57 -31 129 -46 129
-4 0 -8 5 -8 11 0 5 5 7 10 4 6 -4 9 9 9 32 -2 33 -3 34 -6 9 -4 -23 -7 -26
-15 -15 -8 11 -9 11 -4 -3 9 -29 -10 -29 -24 0 -15 31 -16 34 -24 129 -8 90
-11 99 -47 113 -16 7 -29 16 -29 20 0 4 -11 11 -25 14 -13 3 -49 26 -80 51
-30 25 -65 45 -77 46 -19 0 -20 2 -6 7 11 5 14 12 9 20 -10 17 -71 11 -104
-11 -35 -23 -87 -32 -87 -14 0 7 -11 19 -25 25 -31 14 -33 0 -2 -22 29 -22 0
-8 -36 17 -26 18 -68 26 -214 41 -26 3 -64 28 -117 77 -36 32 -51 39 -104 45
-34 3 -62 11 -62 15 0 16 -130 10 -146 -6 -22 -22 -37 -19 -58 14 -23 34 -65
61 -97 61 -12 0 -19 3 -16 7 4 3 -7 15 -25 25 -27 17 -36 18 -74 8 -23 -7 -45
-19 -48 -27 -3 -8 -10 -11 -16 -8 -5 3 -10 1 -10 -4 0 -6 -10 -11 -21 -11 -19
0 -20 2 -8 18 7 9 0 4 -15 -11 -16 -16 -25 -34 -22 -43 3 -9 2 -12 -5 -9 -6 4
-13 -2 -16 -14 -12 -47 -50 -13 -45 40 3 26 -1 44 -12 55 -25 25 -14 38 35 45
24 3 38 7 32 7 -7 1 -13 9 -13 17 0 16 -16 20 -24 6 -8 -12 -56 -20 -56 -9 0
5 -5 6 -10 3 -6 -4 -8 -10 -6 -14 3 -4 -15 -11 -40 -17 -50 -12 -55 -5 -20 28
14 13 29 35 35 49 8 23 7 25 -12 24 -11 -1 -23 -8 -25 -16 -3 -8 -11 -22 -20
-32 -8 -9 -12 -20 -9 -23 4 -4 -2 -19 -13 -34 -11 -15 -17 -30 -13 -34 3 -3 1
-6 -5 -6 -7 0 -12 6 -13 13 0 6 -5 1 -12 -12 -9 -20 -8 -26 8 -38 19 -13 19
-14 -7 -11 -15 2 -30 7 -34 11 -13 13 -26 7 -20 -8 8 -23 -120 -9 -157 17 -35
25 -25 42 19 33 24 -4 34 -2 32 6 -2 6 3 14 11 16 9 4 11 0 6 -16 -5 -16 -3
-20 9 -15 17 7 22 44 6 44 -5 0 -10 7 -10 16 0 13 -3 14 -13 5 -19 -15 -29 -2
-12 15 23 23 34 16 46 -28 16 -55 27 -70 53 -66 15 2 21 10 21 30 1 15 -2 25
-7 22 -9 -6 -48 18 -48 28 0 13 38 9 43 -4 4 -9 5 -8 6 2 0 8 -3 23 -7 32 -6
16 -10 16 -35 3 -15 -8 -25 -10 -22 -6 11 18 -43 18 -56 -1 -7 -10 -19 -18
-26 -18 -21 0 -15 28 9 44 l22 16 -25 0 c-14 0 -31 6 -38 13 -10 10 -11 9 -5
-6z m-108 -88 c12 -18 11 -20 -4 -17 -9 1 -18 11 -20 21 -3 23 8 22 24 -4z
m157 1 c3 -5 1 -10 -4 -10 -6 0 -11 5 -11 10 0 6 2 10 4 10 3 0 8 -4 11 -10z
m609 -75 c16 -25 16 -25 -9 -13 -26 11 -30 19 -18 31 9 10 9 10 27 -18z m-764
-21 c0 -8 -4 -12 -10 -9 -5 3 -10 10 -10 16 0 5 5 9 10 9 6 0 10 -7 10 -16z
m146 -29 c24 -18 7 -19 -26 0 -16 9 -19 14 -9 15 8 0 24 -7 35 -15z m374 -14
c0 -5 -7 -11 -15 -15 -15 -5 -20 5 -8 17 9 10 23 9 23 -2z m110 -20 c0 -14
-29 -21 -36 -9 -4 7 -3 8 4 4 7 -4 12 -2 12 3 0 6 5 11 10 11 6 0 10 -4 10 -9z
m-340 -77 c0 -2 -7 -4 -15 -4 -8 0 -15 4 -15 10 0 5 7 7 15 4 8 -4 15 -8 15
-10z m-292 -67 c13 -4 13 -5 2 -6 -25 -1 -44 15 -34 30 7 11 9 11 12 -3 2 -9
11 -19 20 -21z m-418 -3 c0 -2 -7 -4 -15 -4 -8 0 -15 4 -15 10 0 5 7 7 15 4 8
-4 15 -8 15 -10z m-103 -52 l21 -28 -37 -1 c-56 -2 -80 25 -38 45 31 15 31 15
54 -16z m-167 -2 c0 -5 -2 -10 -4 -10 -3 0 -8 5 -11 10 -3 6 -1 10 4 10 6 0
11 -4 11 -10z m830 -50 c0 -5 -2 -10 -4 -10 -3 0 -8 5 -11 10 -3 6 -1 10 4 10
6 0 11 -4 11 -10z m1500 -55 c0 -8 -4 -15 -10 -15 -5 0 -10 7 -10 15 0 8 5 15
10 15 6 0 10 -7 10 -15z m504 -98 c8 -30 7 -97 -1 -97 -17 0 -53 46 -53 67 0
56 41 79 54 30z m-2957 -39 c-3 -8 -6 -5 -6 6 -1 11 2 17 5 13 3 -3 4 -12 1
-19z m-17 -12 c0 -3 -4 -8 -10 -11 -5 -3 -10 -1 -10 4 0 6 5 11 10 11 6 0 10
-2 10 -4z m-44 -32 c-11 -7 -22 -12 -25 -9 -2 3 4 12 15 19 10 8 21 12 24 9 3
-2 -4 -11 -14 -19z m2914 -154 c0 -5 -2 -10 -4 -10 -3 0 -8 5 -11 10 -3 6 -1
10 4 10 6 0 11 -4 11 -10z m130 -40 c0 -5 -4 -10 -10 -10 -5 0 -10 5 -10 10 0
6 5 10 10 10 6 0 10 -4 10 -10z m-3070 -111 c0 -6 -4 -7 -10 -4 -5 3 -10 11
-10 16 0 6 5 7 10 4 6 -3 10 -11 10 -16z m3030 12 c0 -6 -4 -13 -10 -16 -5 -3
-10 1 -10 9 0 9 5 16 10 16 6 0 10 -4 10 -9z m70 -7 c0 -8 -4 -12 -10 -9 -5 3
-10 10 -10 16 0 5 5 9 10 9 6 0 10 -7 10 -16z m-30 -29 c0 -5 -5 -3 -10 5 -5
8 -10 20 -10 25 0 6 5 3 10 -5 5 -8 10 -19 10 -25z m-3045 15 c3 -5 1 -10 -4
-10 -6 0 -11 5 -11 10 0 6 2 10 4 10 3 0 8 -4 11 -10z m3150 -38 c1 -10 -6
-19 -16 -19 -14 -1 -15 2 -5 22 12 26 19 25 21 -3z m-515 -12 c0 -5 -4 -10
-10 -10 -5 0 -10 5 -10 10 0 6 5 10 10 10 6 0 10 -4 10 -10z m456 -52 c-18
-12 -28 7 -20 37 l7 28 12 -29 c8 -21 9 -31 1 -36z m-326 12 c0 -5 -4 -10 -10
-10 -5 0 -10 5 -10 10 0 6 5 10 10 10 6 0 10 -4 10 -10z m436 -5 c-3 -9 1 -18
9 -21 18 -7 20 -30 4 -40 -14 -8 -29 15 -22 34 5 12 2 12 -15 3 -14 -7 -23 -8
-27 -1 -4 6 -11 8 -16 4 -16 -9 2 -26 22 -21 20 5 23 -1 13 -27 -3 -8 -13 -12
-22 -10 -11 4 -9 -2 7 -15 27 -24 38 -99 16 -107 -23 -9 -63 42 -60 76 1 17 5
33 9 37 11 11 7 23 -9 23 -8 0 -15 9 -15 21 0 11 5 17 10 14 6 -3 10 1 10 9 0
12 10 16 40 16 22 0 40 5 40 10 0 6 3 10 6 10 3 0 3 -7 0 -15z m-196 -45 c0
-5 -5 -10 -11 -10 -5 0 -7 5 -4 10 3 6 8 10 11 10 2 0 4 -4 4 -10z m-100 -51
c0 -5 -4 -9 -10 -9 -5 0 -10 7 -10 16 0 8 5 12 10 9 6 -3 10 -10 10 -16z m160
-3 c0 -14 5 -28 10 -31 6 -4 8 -11 5 -16 -8 -11 -65 30 -65 47 0 13 15 22 38
23 6 1 12 -10 12 -23z m-340 -1 c0 -8 -4 -15 -9 -15 -13 0 -22 16 -14 24 11
11 23 6 23 -9z m70 0 c0 -8 -4 -15 -10 -15 -5 0 -10 7 -10 15 0 8 5 15 10 15
6 0 10 -7 10 -15z m220 -25 c0 -5 -4 -10 -10 -10 -5 0 -10 5 -10 10 0 6 5 10
10 10 6 0 10 -4 10 -10z m-2985 -50 c3 -5 2 -10 -4 -10 -5 0 -13 5 -16 10 -3
6 -2 10 4 10 5 0 13 -4 16 -10z m2789 -22 c8 -5 7 -11 -2 -20 -18 -18 -36 4
-26 33 5 17 8 20 12 9 3 -8 10 -18 16 -22z m-2713 -8 c17 -13 19 -19 9 -19
-16 0 -50 22 -50 33 0 12 18 6 41 -14z m3040 -13 c-1 -12 -15 -9 -19 4 -3 6 1
10 8 8 6 -3 11 -8 11 -12z m-211 -38 c0 -11 -4 -17 -10 -14 -5 3 -10 13 -10
21 0 8 5 14 10 14 6 0 10 -9 10 -21z m165 -9 c0 -7 -6 -15 -12 -17 -8 -3 -13
4 -13 17 0 13 5 20 13 18 6 -3 12 -11 12 -18z m35 0 c0 -5 -4 -10 -10 -10 -5
0 -10 5 -10 10 0 6 5 10 10 10 6 0 10 -4 10 -10z m-350 -50 c0 -10 5 -22 11
-26 7 -4 7 -10 1 -16 -7 -7 -21 0 -43 20 l-33 31 24 9 c30 12 40 7 40 -18z
m-160 10 c0 -5 -4 -10 -9 -10 -6 0 -13 5 -16 10 -3 6 1 10 9 10 9 0 16 -4 16
-10z m130 -80 c0 -5 -4 -10 -10 -10 -5 0 -10 5 -10 10 0 6 5 10 10 10 6 0 10
-4 10 -10z m-2533 -32 c-3 -8 -6 -5 -6 6 -1 11 2 17 5 13 3 -3 4 -12 1 -19z
m2318 2 c3 -5 1 -10 -4 -10 -6 0 -11 5 -11 10 0 6 2 10 4 10 3 0 8 -4 11 -10z
m-1901 -16 c3 -8 2 -12 -4 -9 -6 3 -10 10 -10 16 0 14 7 11 14 -7z m-279 -33
c-4 -17 -10 -29 -15 -26 -4 3 -3 18 3 35 14 37 21 31 12 -9z m2578 32 c-7 -2
-19 -2 -25 0 -7 3 -2 5 12 5 14 0 19 -2 13 -5z m-2706 -59 c-9 -9 -28 6 -21
18 4 6 10 6 17 -1 6 -6 8 -13 4 -17z m161 -4 c3 -21 2 -22 -12 -11 -19 16 -21
44 -3 39 6 -3 14 -15 15 -28z m322 -5 c0 -5 -5 -3 -10 5 -5 8 -10 20 -10 25 0
6 5 3 10 -5 5 -8 10 -19 10 -25z m-350 -24 c0 -10 9 -21 19 -24 15 -3 18 -1
14 12 -3 10 0 8 8 -4 7 -11 18 -24 26 -28 7 -5 11 -12 8 -18 -9 -14 -25 -11
-25 6 0 8 -4 15 -10 15 -5 0 -10 -4 -10 -9 0 -10 -40 -22 -41 -13 -7 44 -6 82
2 82 5 0 9 -8 9 -19z m2470 4 c0 -8 -4 -15 -10 -15 -5 0 -10 7 -10 15 0 8 5
15 10 15 6 0 10 -7 10 -15z m-45 -5 c3 -5 2 -10 -4 -10 -5 0 -13 5 -16 10 -3
6 -2 10 4 10 5 0 13 -4 16 -10z m-2128 -22 c-3 -8 -6 -5 -6 6 -1 11 2 17 5 13
3 -3 4 -12 1 -19z m493 12 c0 -5 -7 -10 -15 -10 -8 0 -15 -5 -15 -11 0 -6 -6
-9 -12 -6 -7 2 -21 -3 -31 -11 -16 -14 -17 -14 -12 0 4 9 23 23 43 32 45 18
42 18 42 6z m1705 -10 c3 -5 1 -10 -4 -10 -6 0 -11 5 -11 10 0 6 2 10 4 10 3
0 8 -4 11 -10z m-1555 -11 c12 -8 12 -10 -5 -8 -46 3 -76 -1 -70 -12 4 -5 -1
-19 -11 -30 -16 -18 -16 -19 9 -19 38 0 77 17 77 35 0 8 5 15 10 15 6 0 10 -4
10 -10 0 -5 7 -10 16 -10 21 0 114 -41 114 -50 0 -4 -8 -14 -17 -21 -16 -13
-17 -12 -4 4 7 9 11 17 8 17 -3 0 -13 3 -21 6 -12 5 -15 2 -10 -11 4 -10 1
-21 -7 -26 -11 -6 -8 -9 9 -9 12 0 22 -5 22 -11 0 -6 -8 -9 -17 -6 -64 20 -64
20 -70 -2 -6 -22 -56 -42 -103 -40 -14 1 -1 6 29 12 30 7 56 18 59 25 5 15 -7
15 -92 -3 -66 -14 -101 -14 -57 0 12 3 21 10 21 15 0 4 20 18 45 30 38 18 50
20 77 11 45 -16 56 -14 29 6 -27 18 -181 26 -178 8 1 -5 -8 -11 -21 -13 -12
-2 -20 -7 -17 -12 3 -4 -4 -6 -16 -3 -19 5 -17 10 26 49 73 66 122 86 155 63z
m1447 -45 c-9 -9 -28 6 -21 18 4 6 10 6 17 -1 6 -6 8 -13 4 -17z m-2359 -21
c-5 -25 -28 -28 -28 -4 0 12 6 21 16 21 9 0 14 -7 12 -17z m72 -58 c0 -8 -4
-15 -10 -15 -5 0 -10 7 -10 15 0 8 5 15 10 15 6 0 10 -7 10 -15z m415 -15 c3
-5 1 -10 -4 -10 -6 0 -11 5 -11 10 0 6 2 10 4 10 3 0 8 -4 11 -10z m-110 -40
c3 -5 1 -10 -4 -10 -6 0 -11 5 -11 10 0 6 2 10 4 10 3 0 8 -4 11 -10z m442
-16 c-3 -3 -12 -4 -19 -1 -8 3 -5 6 6 6 11 1 17 -2 13 -5z m-677 -30 c0 -9 -5
-14 -12 -12 -18 6 -21 28 -4 28 9 0 16 -7 16 -16z m70 -4 c0 -5 -7 -10 -15
-10 -8 0 -15 5 -15 10 0 6 7 10 15 10 8 0 15 -4 15 -10z m771 -27 c-12 -8 -25
-13 -28 -10 -9 10 5 23 28 24 l22 2 -22 -16z m-816 -33 c-4 -6 -12 -10 -19
-10 -16 0 -48 34 -40 43 10 9 66 -22 59 -33z m105 36 c0 -3 -4 -8 -10 -11 -5
-3 -10 -1 -10 4 0 6 5 11 10 11 6 0 10 -2 10 -4z m875 -7 c18 -8 17 -9 -4 -5
-13 3 -39 -1 -58 -9 -40 -17 -44 -11 -5 9 31 18 40 18 67 5z m18 -49 c-3 -11
-8 -20 -12 -20 -3 0 -52 -9 -109 -19 -85 -15 -100 -16 -91 -4 7 8 22 19 33 24
21 10 21 10 1 -7 -19 -16 -18 -16 20 -10 85 14 145 30 145 38 0 4 -6 8 -12 8
-9 0 -8 3 2 9 19 13 29 5 23 -19z m-883 10 c0 -5 -4 -10 -10 -10 -5 0 -10 5
-10 10 0 6 5 10 10 10 6 0 10 -4 10 -10z m1567 -66 c-3 -3 -12 -4 -19 -1 -8 3
-5 6 6 6 11 1 17 -2 13 -5z m-1317 -44 c0 -5 -7 -10 -15 -10 -8 0 -15 5 -15
10 0 6 7 10 15 10 8 0 15 -4 15 -10z m279 -65 c-20 -20 -82 -38 -77 -23 3 7
20 17 39 24 47 17 56 17 38 -1z m1068 -57 c-3 -8 -6 -5 -6 6 -1 11 2 17 5 13
3 -3 4 -12 1 -19z m-67 2 c0 -5 -4 -10 -10 -10 -5 0 -10 5 -10 10 0 6 5 10 10
10 6 0 10 -4 10 -10z m-1280 -10 c0 -5 -2 -10 -4 -10 -3 0 -8 5 -11 10 -3 6
-1 10 4 10 6 0 11 -4 11 -10z"/>
<path d="M740 2581 c0 -25 6 -27 13 -6 4 8 2 17 -3 20 -6 4 -10 -3 -10 -14z"/>
<path d="M1810 3000 c-24 -15 -6 -21 36 -11 21 5 31 9 22 10 -9 1 -22 3 -30 6
-7 3 -20 1 -28 -5z"/>
<path d="M1620 2974 c0 -8 5 -12 10 -9 6 3 10 10 10 16 0 5 -4 9 -10 9 -5 0
-10 -7 -10 -16z"/>
<path d="M1860 2925 c-40 -12 -40 -21 -1 -15 13 2 13 0 0 -16 -13 -16 -11 -17
26 -10 22 5 53 9 68 10 15 0 32 8 37 16 15 23 12 33 -7 25 -22 -9 -33 -10 -58
-3 -11 3 -40 0 -65 -7z"/>
<path d="M1184 2881 c9 -10 14 -25 10 -35 -4 -10 -1 -16 9 -16 28 0 28 18 2
44 -30 30 -47 35 -21 7z"/>
<path d="M1540 2856 c0 -2 7 -7 16 -10 8 -3 12 -2 9 4 -6 10 -25 14 -25 6z"/>
<path d="M1170 2810 c0 -5 5 -10 10 -10 6 0 10 5 10 10 0 6 -4 10 -10 10 -5 0
-10 -4 -10 -10z"/>
<path d="M940 2751 c0 -6 5 -13 10 -16 6 -3 10 1 10 9 0 9 -4 16 -10 16 -5 0
-10 -4 -10 -9z"/>
<path d="M1010 2749 c0 -5 5 -7 10 -4 6 3 10 8 10 11 0 2 -4 4 -10 4 -5 0 -10
-5 -10 -11z"/>
<path d="M817 2709 c7 -7 15 -10 18 -7 3 3 -2 9 -12 12 -14 6 -15 5 -6 -5z"/>
<path d="M3061 2624 c0 -11 3 -14 6 -6 3 7 2 16 -1 19 -3 4 -6 -2 -5 -13z"/>
<path d="M490 2460 c0 -5 5 -10 11 -10 5 0 7 5 4 10 -3 6 -8 10 -11 10 -2 0
-4 -4 -4 -10z"/>
<path d="M364 2423 c1 -18 7 -29 19 -31 20 -4 24 27 5 46 -19 19 -25 14 -24
-15z"/>
<path d="M3510 2387 c4 -41 5 -41 8 -8 2 18 0 37 -5 42 -5 5 -6 -11 -3 -34z"/>
<path d="M3521 2314 c0 -11 3 -14 6 -6 3 7 2 16 -1 19 -3 4 -6 -2 -5 -13z"/>
<path d="M3600 2130 c0 -11 6 -20 14 -20 24 0 28 18 6 30 -17 9 -20 8 -20 -10z"/>
<path d="M3717 2096 c-4 -10 -5 -21 -2 -24 9 -9 17 6 13 25 -3 17 -4 17 -11
-1z"/>
<path d="M3680 2060 c0 -5 5 -10 11 -10 5 0 7 5 4 10 -3 6 -8 10 -11 10 -2 0
-4 -4 -4 -10z"/>
<path d="M3759 1886 c-1 -6 -1 -14 0 -18 2 -16 -20 -59 -28 -54 -5 3 -11 -5
-13 -18 -4 -19 -1 -22 14 -18 10 2 18 13 18 23 0 11 7 22 15 25 8 4 15 12 15
20 0 8 5 14 10 14 6 0 10 5 10 11 0 5 -5 7 -12 3 -7 -5 -9 -2 -6 8 4 9 0 15
-8 15 -8 0 -15 -5 -15 -11z"/>
<path d="M435 1859 c-8 -23 -23 -24 -53 -3 -22 15 -47 11 -37 -7 4 -5 1 -9 -4
-9 -17 0 -13 -40 4 -46 23 -9 57 3 98 33 42 32 44 39 17 46 -13 3 -21 -1 -25
-14z m-60 -9 c3 -5 2 -10 -4 -10 -5 0 -13 5 -16 10 -3 6 -2 10 4 10 5 0 13 -4
16 -10z"/>
<path d="M3835 1830 c-3 -5 1 -10 10 -10 9 0 13 5 10 10 -3 6 -8 10 -10 10 -2
0 -7 -4 -10 -10z"/>
<path d="M320 1700 c0 -5 6 -10 14 -10 8 0 18 5 21 10 3 6 -3 10 -14 10 -12 0
-21 -4 -21 -10z"/>
<path d="M3724 1699 c-8 -13 13 -29 39 -29 25 0 21 15 -8 28 -17 8 -26 8 -31
1z"/>
<path d="M3657 1683 c-4 -3 -7 -13 -7 -21 0 -12 3 -12 16 -2 12 11 15 11 12 0
-2 -7 3 -15 10 -17 15 -6 16 19 0 35 -14 14 -22 15 -31 5z"/>
<path d="M3974 1625 c21 -16 32 -13 21 4 -3 6 -14 11 -23 11 -15 -1 -15 -2 2
-15z"/>
<path d="M3566 1574 c-3 -8 -2 -13 2 -11 4 3 17 1 30 -4 30 -11 32 -64 2 -56
-15 4 -20 0 -20 -13 0 -26 21 -36 32 -16 5 9 16 16 24 16 11 0 13 7 8 27 -6
21 -4 25 8 21 8 -4 20 -3 27 2 9 5 4 10 -14 14 -15 4 -29 5 -32 2 -3 -2 -13 4
-24 15 -23 23 -35 24 -43 3z"/>
<path d="M3485 1500 c-3 -5 1 -10 9 -10 9 0 16 5 16 10 0 6 -4 10 -9 10 -6 0
-13 -4 -16 -10z"/>
<path d="M3450 1483 c0 -5 7 -17 15 -27 15 -20 20 -10 9 18 -6 16 -24 22 -24
9z"/>
<path d="M3334 1349 c-9 -14 30 -19 44 -5 12 12 11 14 -13 13 -15 -1 -29 -5
-31 -8z"/>
<path d="M663 1202 c-16 -17 -16 -20 0 -19 31 1 45 -4 51 -18 4 -13 2 -13 -14
-5 -10 5 -26 10 -36 10 -16 0 -16 -1 0 -19 10 -11 24 -17 32 -14 8 3 14 -1 14
-8 0 -11 2 -11 10 1 8 12 11 12 28 -3 22 -20 33 -22 30 -4 -2 6 5 11 15 11 24
-2 21 8 -13 47 -23 27 -37 34 -66 34 -21 0 -44 -6 -51 -13z m77 4 c0 -3 -4 -8
-10 -11 -5 -3 -10 -1 -10 4 0 6 5 11 10 11 6 0 10 -2 10 -4z m34 -51 c3 -9 0
-15 -9 -15 -16 0 -27 14 -18 24 10 10 21 7 27 -9z m-84 -5 c0 -5 -2 -10 -4
-10 -3 0 -8 5 -11 10 -3 6 -1 10 4 10 6 0 11 -4 11 -10z"/>
<path d="M770 1091 c0 -5 5 -13 10 -16 6 -3 10 -2 10 4 0 5 -4 13 -10 16 -5 3
-10 2 -10 -4z"/>
<path d="M814 1035 c3 -9 6 -19 6 -21 0 -2 7 -4 15 -4 21 0 19 13 -6 29 -19
11 -21 11 -15 -4z"/>
<path d="M2890 1040 c0 -5 5 -10 11 -10 5 0 7 5 4 10 -3 6 -8 10 -11 10 -2 0
-4 -4 -4 -10z"/>
<path d="M3040 1021 c0 -5 7 -14 15 -21 16 -14 18 -10 9 14 -6 17 -24 22 -24
7z"/>
<path d="M1199 993 c-13 -16 -12 -17 4 -4 9 7 17 15 17 17 0 8 -8 3 -21 -13z"/>
<path d="M2800 970 c0 -5 10 -10 23 -10 18 0 19 2 7 10 -19 13 -30 13 -30 0z"/>
<path d="M1045 960 c-8 -13 9 -20 24 -11 10 6 9 10 -3 14 -8 3 -18 2 -21 -3z"/>
<path d="M1165 960 c-3 -5 -2 -10 4 -10 5 0 13 5 16 10 3 6 2 10 -4 10 -5 0
-13 -4 -16 -10z"/>
<path d="M2740 920 c0 -5 7 -10 16 -10 8 0 12 5 9 10 -3 6 -10 10 -16 10 -5 0
-9 -4 -9 -10z"/>
<path d="M951 884 c0 -11 3 -14 6 -6 3 7 2 16 -1 19 -3 4 -6 -2 -5 -13z"/>
<path d="M2750 860 c-9 -6 -10 -10 -3 -10 6 0 15 5 18 10 8 12 4 12 -15 0z"/>
<path d="M3130 835 c0 -8 4 -15 10 -15 5 0 7 7 4 15 -4 8 -8 15 -10 15 -2 0
-4 -7 -4 -15z"/>
<path d="M3190 846 c0 -2 7 -7 16 -10 8 -3 12 -2 9 4 -6 10 -25 14 -25 6z"/>
</g>
</svg>
