<?xml version="1.0" standalone="no"?>
<!DOCTYPE svg PUBLIC "-//W3C//DTD SVG 20010904//EN"
 "http://www.w3.org/TR/2001/REC-SVG-20010904/DTD/svg10.dtd">
<svg version="1.0" xmlns="http://www.w3.org/2000/svg"
 width="400.000000pt" height="400.000000pt" viewBox="0 0 400.000000 400.000000"
 preserveAspectRatio="xMidYMid meet">
<metadata>
Created by potrace 1.16, written by Peter Selinger 2001-2019
</metadata>
<g transform="translate(0.000000,400.000000) scale(0.100000,-0.100000)"
fill="#000000" stroke="none">
<path d="M2078 3472 c-30 -4 -33 -9 -18 -32 8 -12 12 -11 31 8 24 27 23 29
-13 24z"/>
<path d="M2085 3398 c-16 -5 -39 -13 -50 -18 -172 -76 -264 -110 -295 -110
-34 0 -132 -27 -139 -38 -11 -18 -70 -42 -86 -36 -9 4 -28 -2 -43 -12 -27 -19
-49 -30 -105 -53 -38 -15 -45 -14 -21 4 17 13 14 13 -24 0 -23 -8 -57 -21 -75
-28 -17 -8 -45 -20 -62 -27 -38 -16 -17 -24 29 -11 53 14 44 -5 -11 -24 -27
-10 -61 -23 -78 -30 -16 -7 -54 -20 -82 -30 -29 -9 -53 -20 -53 -25 0 -8 8 -6
100 24 59 19 180 64 205 76 33 16 108 40 112 37 8 -8 -24 -24 -81 -42 -36 -11
-70 -29 -85 -46 -15 -15 -52 -39 -83 -53 -32 -15 -74 -38 -94 -51 -20 -14 -46
-25 -58 -25 -12 0 -39 -9 -61 -20 -37 -17 -38 -19 -18 -25 28 -9 29 -22 3 -30
-11 -3 -19 -11 -17 -18 1 -6 -24 -25 -56 -41 -57 -29 -64 -39 -48 -64 6 -11
16 -10 48 3 23 9 58 15 79 13 43 -4 40 -6 -60 -37 -38 -12 -92 -32 -120 -45
-28 -13 -59 -26 -68 -29 -10 -4 -18 -11 -18 -17 0 -5 -9 -10 -19 -10 -10 0
-21 -7 -25 -15 -3 -8 -14 -15 -24 -15 -11 0 -25 -7 -32 -15 -7 -8 -19 -15 -27
-15 -8 0 -32 -10 -53 -22 -35 -20 -40 -28 -40 -59 0 -23 7 -42 20 -54 26 -24
25 -32 -6 -39 -47 -12 -135 -76 -105 -76 6 0 11 -8 12 -17 0 -11 3 -13 6 -6 9
23 139 71 152 56 3 -3 0 -8 -7 -10 -7 -3 -41 -19 -75 -36 -46 -24 -63 -38 -65
-56 -4 -28 -3 -28 107 18 90 38 116 35 43 -5 -115 -62 -127 -93 -17 -44 37 17
70 29 72 26 2 -2 -14 -19 -37 -38 -47 -41 -50 -51 -12 -43 26 6 26 6 7 -10
-17 -14 -18 -17 -5 -25 21 -14 -4 -32 -155 -110 -68 -35 -137 -74 -152 -87
l-28 -23 35 7 c19 3 64 19 98 35 35 15 77 28 93 28 16 0 57 14 91 31 42 21 64
27 71 20 12 -12 15 -10 -46 -39 -26 -12 -47 -28 -47 -35 0 -15 -34 -42 -95
-76 -39 -21 -105 -103 -105 -129 0 -6 8 -12 17 -12 25 0 264 121 258 131 -3 4
3 7 12 7 10 -1 30 2 45 5 24 6 28 4 28 -14 0 -13 5 -19 13 -15 57 23 89 29 97
17 5 -9 10 -10 14 -2 9 14 26 14 26 1 0 -6 -8 -13 -17 -16 -49 -15 -99 -40
-110 -54 -14 -18 -7 -31 12 -23 8 3 15 0 15 -7 0 -17 -19 -50 -30 -50 -5 0
-21 -5 -37 -11 -15 -7 -38 -13 -51 -15 -29 -3 -56 -25 -45 -34 4 -4 35 -3 68
2 92 13 100 14 101 3 1 -5 -18 -16 -41 -23 -36 -10 -44 -17 -47 -39 -4 -40
-53 -56 -77 -27 -15 19 -19 20 -56 7 -30 -10 -46 -11 -63 -3 -19 8 -33 6 -68
-12 -48 -23 -51 -29 -30 -47 20 -17 196 -28 196 -12 0 6 12 11 28 11 15 0 61
7 103 15 41 7 84 14 95 13 10 0 41 4 69 10 29 6 54 7 61 1 5 -4 27 -6 47 -2
24 4 37 2 37 -6 0 -6 -10 -12 -22 -13 -13 0 -34 -2 -48 -4 -14 -1 -42 -3 -62
-5 -21 -1 -35 -5 -33 -9 3 -4 37 -6 77 -3 40 2 105 5 143 6 39 2 76 7 83 11 7
4 18 4 25 -1 6 -4 23 -6 37 -5 24 2 24 2 -4 -14 -17 -9 -59 -18 -99 -20 -39
-2 -73 -7 -76 -12 -3 -5 -43 -6 -88 -3 -77 6 -82 5 -85 -14 -2 -14 -11 -20
-29 -20 -15 0 -36 -8 -46 -18 -11 -9 -35 -17 -55 -17 -19 0 -38 -3 -42 -7 -4
-4 -16 -8 -26 -8 -24 0 -31 -17 -10 -22 57 -13 111 -19 115 -13 6 10 55 19 55
10 0 -11 -42 -28 -85 -35 -55 -8 -80 -24 -40 -26 165 -5 287 2 355 21 86 23
141 27 123 9 -17 -17 -94 -43 -188 -63 -44 -10 -89 -22 -100 -26 -19 -8 -19
-9 3 -9 41 -2 22 -17 -40 -34 l-63 -16 85 4 c71 4 82 2 68 -9 -9 -7 -43 -19
-75 -26 -32 -7 -63 -17 -68 -21 -6 -5 -30 -11 -53 -15 -23 -4 -42 -10 -42 -15
0 -5 -9 -9 -20 -9 -11 0 -20 -6 -20 -13 0 -10 16 -11 77 -5 43 5 84 6 92 3 7
-3 20 0 28 6 11 10 18 9 31 -4 15 -15 15 -17 0 -17 -8 0 -21 -6 -27 -14 -7 -8
-26 -18 -42 -21 -16 -4 -29 -11 -29 -16 0 -5 -11 -11 -24 -15 -14 -3 -27 -12
-30 -20 -7 -18 38 -18 186 0 62 8 148 17 191 21 l78 7 -7 -41 c-7 -44 1 -91
16 -91 6 0 6 9 0 26 -6 14 -9 37 -9 52 1 17 3 21 6 9 3 -12 12 -16 27 -13 22
4 23 2 19 -39 -3 -23 0 -51 6 -61 9 -15 9 -13 4 15 -4 25 -3 32 5 27 7 -4 12
-15 13 -24 0 -14 2 -13 8 3 8 18 10 16 19 -15 8 -29 10 -31 11 -11 1 24 1 24
17 5 14 -18 15 -18 8 6 -6 22 -5 23 10 11 9 -7 16 -10 17 -5 0 5 4 0 9 -11 6
-14 9 -15 9 -5 1 18 20 21 111 20 65 0 160 12 234 32 33 8 41 7 48 -6 5 -9 15
-16 23 -16 8 0 20 -9 27 -19 11 -18 13 -16 40 20 15 21 32 39 36 39 5 0 15 12
22 28 7 15 15 22 17 15 5 -14 24 -18 22 -5 -3 19 2 23 16 12 12 -10 15 -10 15
4 0 9 7 16 15 16 8 0 15 5 15 11 0 5 -6 7 -12 4 -7 -4 -4 1 6 9 11 9 36 15 57
14 21 -1 44 4 52 11 8 6 22 9 31 5 9 -4 16 -1 16 6 0 9 18 11 70 6 55 -4 71
-3 77 9 6 9 38 19 88 26 113 15 162 29 144 40 -17 10 -21 49 -4 43 7 -3 15 4
18 15 5 22 10 23 117 26 30 1 82 5 115 9 33 3 54 3 48 0 -18 -8 -16 -27 2 -21
8 4 17 2 20 -3 10 -17 26 -11 23 7 -3 15 14 21 102 39 58 12 142 25 188 29 45
4 85 11 88 16 3 5 29 9 58 9 56 0 114 31 128 70 6 15 17 20 45 20 21 0 49 3
63 7 22 6 24 5 11 -10 -19 -24 6 -23 35 1 47 38 38 59 -53 129 l-28 22 112 0
c80 0 117 -4 126 -13 18 -19 74 -30 82 -17 4 7 -3 11 -17 11 -19 0 -20 2 -8
10 13 9 13 11 0 20 -8 5 -19 12 -25 14 -5 2 0 11 13 21 12 9 19 21 16 27 -4 6
-1 14 6 18 7 4 9 13 5 20 -5 8 -11 8 -23 -3 -10 -7 -33 -14 -52 -16 -19 -1
-64 -13 -99 -27 -97 -39 -164 -51 -196 -34 -34 18 -17 33 22 19 37 -12 78 3
69 27 -4 9 2 14 17 14 12 0 39 12 60 26 37 25 38 27 21 45 -9 10 -32 21 -51
25 -19 4 -40 13 -48 21 -13 12 -24 11 -85 -7 -39 -12 -92 -32 -118 -46 -57
-30 -93 -24 -41 8 19 11 40 29 47 39 7 11 23 19 36 19 13 0 31 9 41 20 10 11
26 20 37 20 10 0 23 10 29 23 6 12 29 33 53 45 77 41 170 140 122 130 -8 -2
-14 2 -13 7 1 6 6 9 11 7 5 -2 22 2 38 9 21 9 26 15 18 24 -14 16 38 31 53 16
17 -17 50 -13 87 12 19 13 48 28 64 34 37 12 43 28 16 43 -16 9 -25 8 -36 -1
-11 -9 -18 -9 -26 -1 -18 18 -42 15 -94 -13 -26 -14 -59 -25 -73 -25 -14 0
-39 -7 -55 -15 -35 -18 -99 -20 -94 -3 3 7 27 21 54 32 27 11 51 22 54 25 3 4
22 15 43 25 46 24 63 49 42 66 -19 16 -124 6 -166 -15 -23 -12 -34 -14 -37 -6
-2 6 -12 11 -22 11 -14 0 -19 11 -24 58 -4 31 -9 64 -12 73 -3 12 4 16 31 17
19 1 35 -3 35 -8 0 -19 52 -10 113 19 34 16 70 32 80 35 9 3 17 12 17 20 0 20
-35 30 -59 17 -14 -8 -22 -7 -30 3 -13 15 -60 7 -111 -19 -14 -7 -47 -15 -73
-17 -43 -5 -50 -3 -64 18 -15 23 -14 26 11 49 15 14 35 25 45 25 10 0 28 11
41 25 13 14 30 25 38 25 31 0 172 99 172 121 0 3 -14 9 -32 13 -23 5 -44 0
-81 -20 -27 -14 -52 -23 -55 -20 -7 7 -9 5 63 49 33 21 66 37 73 37 6 0 12 4
12 8 0 5 -25 15 -55 22 -44 11 -53 16 -44 27 6 7 18 13 25 13 7 0 38 11 68 25
30 14 58 25 63 25 4 0 21 11 37 23 20 16 27 29 23 40 -9 23 -131 24 -176 1
-22 -11 -36 -13 -44 -6 -20 17 -81 24 -110 13 -16 -6 -34 -8 -40 -4 -15 9
-167 4 -187 -7 -23 -11 -100 -21 -100 -13 1 5 21 23 45 41 25 18 45 39 45 46
0 22 -47 28 -80 11 -39 -20 -47 -19 -26 4 10 11 38 28 62 38 24 10 44 20 44
23 0 3 -20 14 -44 25 -34 15 -42 23 -34 32 6 7 20 13 31 13 11 0 42 14 70 31
29 18 69 33 98 36 27 3 49 9 49 12 0 17 -82 34 -160 33 -63 0 -96 4 -129 19
-24 10 -53 19 -65 19 -12 0 -32 8 -46 17 -32 23 -160 28 -160 7 0 -10 -12 -14
-41 -14 -32 0 -40 -3 -35 -15 6 -17 -29 -21 -54 -5 -9 6 -19 5 -29 -3 -11 -9
-15 -9 -18 1 -6 17 -23 15 -68 -8 -48 -24 -78 -27 -49 -5 18 14 17 15 -16 10
-31 -6 -38 -3 -50 19 -7 14 -19 26 -27 26 -7 0 -13 4 -13 8 0 5 -15 14 -34 22
-22 8 -32 18 -29 27 7 18 -1 17 -45 -6 -20 -11 -51 -35 -69 -55 -17 -20 -34
-36 -37 -36 -3 0 -17 11 -31 24 -25 23 -62 26 -49 4 4 -6 0 -14 -7 -19 -21
-13 -50 -11 -48 4 5 41 -22 49 -75 22 -30 -16 -43 -14 -32 4 10 16 98 52 113
47 7 -3 15 0 19 6 5 7 2 8 -6 3 -8 -5 -11 -4 -7 2 4 6 20 16 37 23 38 16 39
32 3 24 -55 -12 -123 -36 -129 -45 -6 -10 -24 -3 -24 10 0 4 19 14 43 21 87
28 111 41 96 51 -16 10 -15 10 -54 -3z m-135 -98 c-39 -21 -50 -24 -50 -12 0
9 47 30 70 31 8 0 -1 -8 -20 -19z m108 -107 c-9 -8 -22 -11 -32 -7 -17 6 -16
8 5 20 29 15 46 7 27 -13z m1517 -353 c-3 -5 -10 -10 -16 -10 -5 0 -9 5 -9 10
0 6 7 10 16 10 8 0 12 -4 9 -10z m-65 -704 c0 -3 -4 -8 -10 -11 -5 -3 -10 -1
-10 4 0 6 5 11 10 11 6 0 10 -2 10 -4z m33 -226 c-49 -37 -65 -27 -17 11 20
16 41 26 46 23 5 -3 -8 -19 -29 -34z m-2703 -290 c0 -5 -4 -10 -10 -10 -5 0
-10 5 -10 10 0 6 5 10 10 10 6 0 10 -4 10 -10z m70 0 c0 -5 -2 -10 -4 -10 -3
0 -8 5 -11 10 -3 6 -1 10 4 10 6 0 11 -4 11 -10z m-135 -10 c3 -5 -3 -10 -15
-10 -12 0 -18 5 -15 10 3 6 10 10 15 10 5 0 12 -4 15 -10z m398 -86 c-18 -7
-39 -11 -48 -8 -27 11 -5 24 38 23 l42 -1 -32 -14z m-163 -24 c0 -5 -5 -10
-11 -10 -5 0 -7 5 -4 10 3 6 8 10 11 10 2 0 4 -4 4 -10z m-150 -114 c0 -11
-19 -15 -25 -6 -3 5 1 10 9 10 9 0 16 -2 16 -4z m-60 -30 c0 -11 -19 -15 -25
-6 -3 5 1 10 9 10 9 0 16 -2 16 -4z m2024 -166 c-14 -14 -130 -34 -151 -26
-22 9 -6 23 32 29 64 9 129 7 119 -3z m-1867 -17 c-11 -10 -58 -13 -52 -2 4 5
18 9 32 9 15 0 23 -3 20 -7z m1523 -89 c0 -8 -5 -12 -10 -9 -6 4 -8 11 -5 16
9 14 15 11 15 -7z m-100 -8 c0 -2 -7 -7 -16 -10 -8 -3 -12 -2 -9 4 6 10 25 14
25 6z m-150 -66 c0 -5 -4 -10 -9 -10 -6 0 -13 5 -16 10 -3 6 1 10 9 10 9 0 16
-4 16 -10z"/>
<path d="M2223 3370 c-15 -23 0 -36 17 -15 7 8 21 15 31 15 11 0 19 5 19 10 0
18 -55 11 -67 -10z"/>
<path d="M2173 3320 c2 -9 -7 -20 -22 -27 l-26 -12 30 6 c39 8 39 8 25 30 -7
11 -10 12 -7 3z"/>
<path d="M995 3030 l-30 -21 30 7 c37 8 45 13 45 25 0 14 -12 11 -45 -11z"/>
<path d="M470 2044 l-35 -24 33 4 c35 4 65 23 56 37 -8 13 -15 11 -54 -17z"/>
<path d="M3935 1470 c-3 -5 -30 -11 -58 -11 l-52 -2 58 -9 c43 -8 61 -7 72 2
8 7 12 16 9 21 -7 12 -21 11 -29 -1z"/>
<path d="M2560 1051 c0 -5 9 -7 20 -4 11 3 20 7 20 9 0 2 -9 4 -20 4 -11 0
-20 -4 -20 -9z"/>
<path d="M508 1013 c7 -3 16 -2 19 1 4 3 -2 6 -13 5 -11 0 -14 -3 -6 -6z"/>
<path d="M2405 1000 c4 -6 11 -8 16 -5 14 9 11 15 -7 15 -8 0 -12 -5 -9 -10z"/>
<path d="M1182 800 c0 -14 2 -19 5 -12 2 6 2 18 0 25 -3 6 -5 1 -5 -13z"/>
<path d="M1550 755 c-6 -16 -16 -25 -23 -22 -21 8 -40 -30 -27 -53 18 -33 75
-1 65 37 -4 17 -1 23 11 23 9 0 14 7 12 17 -5 27 -27 26 -38 -2z"/>
<path d="M1386 691 c-4 -7 -5 -15 -2 -18 9 -9 19 4 14 18 -4 11 -6 11 -12 0z"/>
<path d="M1020 654 c-30 -15 -50 -28 -44 -31 15 -5 124 36 124 48 0 15 -22 10
-80 -17z"/>
<path d="M1195 570 c-3 -5 -1 -10 4 -10 6 0 11 5 11 10 0 6 -2 10 -4 10 -3 0
-8 -4 -11 -10z"/>
<path d="M1421 561 c-14 -9 -12 -44 3 -45 5 -1 14 7 20 16 13 21 -3 41 -23 29z"/>
<path d="M1766 538 c-23 -33 -21 -52 4 -31 11 10 20 23 20 31 0 10 5 10 21 1
17 -9 20 -8 17 3 -8 23 -45 21 -62 -4z"/>
<path d="M1663 509 c-12 -12 5 -59 23 -59 18 0 47 38 41 55 -7 17 -48 20 -64
4z"/>
<path d="M895 430 c-9 -28 6 -43 36 -38 18 2 24 9 24 28 0 34 -50 42 -60 10z"/>
<path d="M1178 429 c-23 -13 -23 -39 0 -39 21 0 42 18 42 37 0 15 -18 16 -42
2z"/>
<path d="M1393 373 c-16 -6 -17 -39 -3 -48 13 -8 40 13 40 30 0 15 -19 24 -37
18z"/>
<path d="M917 244 c-14 -15 -6 -34 14 -34 14 0 19 5 17 17 -3 18 -20 27 -31
17z"/>
</g>
</svg>
