<svg xmlns="http://www.w3.org/2000/svg" width="512" height="512" viewBox="0 0 512 512">
<rect fill="#a0a5ab" width="512" height="512" rx="180" ry="180"/>
<path fill="#fff" d="M365.3,209.972L238.645,125.3c-36.986-24.726-86.494,1.9-86.494,46.52V341.168c0,44.63,49.506,71.257,86.5,46.525L365.3,303.009A56.012,56.012,0,0,0,365.3,209.972Zm-31.489,58.687-111.23,64.25a14.049,14.049,0,0,1-21.075-12.168L201.5,192.26a14.05,14.05,0,0,1,21.073-12.173l111.242,64.23A14.056,14.056,0,0,1,333.815,268.659Z"/>
</svg>