<?xml version="1.0" standalone="no"?>
<!DOCTYPE svg PUBLIC "-//W3C//DTD SVG 20010904//EN"
 "http://www.w3.org/TR/2001/REC-SVG-20010904/DTD/svg10.dtd">
<svg version="1.0" xmlns="http://www.w3.org/2000/svg"
 width="397.000000pt" height="388.000000pt" viewBox="0 0 397.000000 388.000000"
 preserveAspectRatio="xMidYMid meet">
<metadata>
Created by potrace 1.16, written by Peter Selinger 2001-2019
</metadata>
<g transform="translate(0.000000,388.000000) scale(0.100000,-0.100000)"
fill="#000000" stroke="none">
<path d="M502 2970 c-7 -12 -18 -18 -24 -14 -6 4 -8 3 -5 -3 4 -6 0 -14 -9
-17 -10 -4 -13 -13 -9 -28 l6 -23 -13 22 c-11 17 -17 20 -32 11 -14 -8 -17 -7
-12 1 9 14 0 14 -25 0 -12 -6 -18 -17 -15 -26 3 -8 -1 -21 -9 -29 -13 -14 -15
-13 -15 8 0 18 -2 20 -9 8 -6 -8 -7 -18 -5 -22 3 -4 0 -8 -6 -8 -7 0 -10 -7
-6 -15 8 -21 -13 -75 -30 -75 -17 0 -18 22 -2 38 9 9 8 12 -5 12 -13 0 -16 8
-13 45 2 24 0 42 -5 40 -16 -11 -20 16 -6 44 13 26 13 30 0 35 -19 8 -33 -1
-33 -20 0 -8 -5 -12 -10 -9 -6 4 -22 -1 -36 -10 -13 -9 -29 -13 -34 -10 -6 3
-10 -1 -10 -10 0 -12 -5 -15 -18 -11 -14 5 -14 4 2 -9 11 -8 27 -15 35 -15 11
0 12 -3 4 -11 -8 -8 -4 -24 16 -58 15 -25 28 -65 30 -88 3 -47 3 -47 -31 -34
-30 11 -72 -4 -65 -23 3 -8 2 -29 -3 -45 -5 -17 -5 -31 -1 -31 3 0 6 -15 6
-34 -1 -28 3 -36 21 -40 20 -5 22 -11 18 -56 -2 -34 0 -50 8 -50 9 0 9 -3 0
-12 -7 -7 -12 -21 -12 -32 0 -12 3 -16 8 -10 4 6 15 13 25 17 9 3 17 13 17 22
0 8 4 15 8 15 4 0 9 -47 10 -104 2 -85 0 -105 -13 -110 -8 -3 -15 -1 -15 4 0
5 -8 6 -17 3 -13 -5 -15 -2 -10 11 4 10 3 15 -3 11 -6 -3 -10 -24 -10 -46 0
-42 16 -51 43 -24 20 20 27 9 16 -28 -6 -21 -5 -33 1 -35 16 -6 12 -52 -4 -52
-18 0 -30 -31 -15 -40 11 -8 11 -13 -2 -47 -6 -17 -5 -23 5 -23 12 0 12 -5 -1
-31 -17 -34 -8 -48 32 -49 21 0 58 -20 39 -20 -10 0 -30 -72 -25 -92 2 -13
-16 -9 -29 7 -6 8 -9 19 -6 24 4 5 2 12 -4 16 -5 3 -10 1 -10 -6 0 -6 -8 -9
-20 -6 -23 6 -24 3 -10 -24 9 -15 7 -19 -5 -19 -13 0 -15 -10 -11 -62 3 -35
10 -64 16 -66 14 -5 13 -49 -2 -58 -8 -5 -9 -2 -5 9 3 10 2 17 -3 17 -6 0 -10
-32 -10 -71 l0 -71 30 4 c16 3 30 3 30 1 0 -2 -15 -17 -33 -34 -22 -22 -26
-29 -12 -24 11 4 38 9 60 12 l40 4 -31 -25 c-25 -20 -30 -31 -26 -52 4 -20 2
-25 -8 -19 -9 6 -10 2 -4 -16 4 -13 8 -35 9 -49 2 -14 4 -27 5 -30 1 -3 2 -8
1 -12 -2 -14 34 -8 59 9 l25 17 -20 -23 c-11 -13 -31 -27 -44 -32 -19 -8 -21
-12 -11 -24 6 -8 17 -13 23 -12 9 1 11 -26 10 -94 l-2 -97 27 -5 c31 -6 33 -5
36 20 2 14 10 17 32 15 52 -7 63 -21 17 -22 -48 0 -54 -10 -21 -33 l23 -16
-32 0 c-17 -1 -34 -7 -36 -13 -4 -10 -8 -9 -16 2 -14 20 -23 8 -28 -37 -2 -21
-5 -43 -8 -50 -6 -18 23 -43 49 -43 13 0 38 -3 56 -7 24 -4 31 -3 26 5 -4 6
-1 31 5 54 7 24 12 57 11 73 -2 28 -1 29 8 7 8 -19 13 -21 29 -12 13 7 22 7
26 0 3 -5 0 -10 -7 -10 -8 -1 -6 -6 6 -15 10 -8 23 -12 29 -8 6 3 7 1 4 -4 -4
-6 -1 -16 6 -22 11 -8 14 -7 14 7 0 9 -4 22 -9 29 -7 8 -5 17 5 28 8 8 18 20
21 27 3 9 8 8 16 -5 8 -12 18 -16 33 -11 22 6 22 6 2 -10 -11 -8 -14 -16 -7
-16 6 0 12 -4 12 -10 0 -5 -7 -7 -15 -4 -24 10 -17 -20 13 -53 23 -26 31 -29
57 -22 25 7 79 5 129 -4 5 -1 10 4 11 12 0 8 9 17 20 22 19 7 19 8 -2 8 -13 1
-23 7 -23 14 0 15 -32 19 -41 5 -3 -5 -12 -2 -19 7 -10 12 -10 15 1 16 8 0 25
2 37 3 13 2 30 -3 37 -10 9 -10 15 -10 24 -1 14 14 459 18 467 5 3 -5 10 -6
15 -3 5 3 6 -1 3 -9 -3 -9 -1 -16 5 -16 6 0 11 -5 11 -11 0 -8 -4 -8 -14 0
-23 19 -66 24 -66 7 0 -8 -3 -22 -6 -30 -5 -13 -1 -15 17 -13 13 2 25 9 27 15
2 7 8 12 13 12 6 0 7 -5 4 -10 -4 -6 -1 -17 5 -25 7 -8 10 -22 6 -30 -3 -9 -2
-13 4 -10 6 3 10 0 10 -8 0 -14 73 -33 89 -23 4 3 8 40 9 82 2 42 4 80 7 83 2
4 16 6 32 5 42 -2 45 -3 39 -13 -3 -5 5 -8 19 -7 18 1 26 8 30 28 5 19 12 26
26 25 10 -1 18 -6 16 -12 -2 -5 2 -14 9 -20 6 -5 15 -20 19 -32 5 -17 2 -23
-9 -23 -20 0 -20 -17 -1 -36 8 -9 15 -11 15 -5 0 5 9 9 20 8 24 -2 27 -17 3
-17 -15 0 -15 -1 0 -18 10 -10 17 -24 17 -31 0 -7 5 -9 11 -6 12 8 10 71 -4
98 -7 15 -11 16 -23 6 -8 -7 -14 -7 -14 -1 0 17 32 23 120 22 169 -3 215 0
234 15 19 14 19 15 1 35 -16 18 -16 20 -2 20 10 0 17 -5 17 -10 0 -6 6 -9 12
-8 7 2 14 -7 16 -20 3 -20 8 -22 43 -18 21 3 39 1 39 -5 0 -14 68 -11 73 4 4
9 6 9 6 0 1 -15 31 -18 31 -3 0 6 9 10 20 10 11 0 20 5 20 10 0 6 -4 10 -9 10
-5 0 -12 7 -15 16 -3 8 -2 12 4 9 5 -3 6 9 3 30 -5 32 -4 35 20 35 14 0 29 4
32 10 3 6 11 10 18 10 8 0 8 -3 -1 -12 -9 -9 -7 -14 6 -24 16 -12 15 -12 -3
-9 -11 2 -20 4 -20 5 0 1 -8 3 -17 5 -11 2 -18 -3 -18 -11 0 -9 5 -12 11 -9 5
4 19 -3 30 -16 15 -17 19 -19 19 -6 0 10 6 14 14 11 14 -5 15 23 1 65 -4 12
-2 21 4 21 6 0 11 -7 11 -15 0 -17 16 -20 25 -5 3 5 13 10 21 10 8 0 13 -4 10
-9 -4 -5 0 -11 6 -14 10 -3 10 -7 0 -19 -11 -13 -8 -16 15 -20 49 -7 63 1 63
33 0 18 4 28 10 24 6 -3 10 2 10 12 0 31 37 26 50 -8 14 -34 18 -35 36 -11 12
15 15 15 24 2 5 -8 10 -19 10 -25 0 -5 -4 -3 -10 5 -5 8 -12 11 -16 7 -4 -4
-3 -12 3 -18 6 -6 9 -18 6 -25 -3 -9 2 -14 16 -14 17 0 20 -4 15 -29 -5 -24
-2 -29 18 -34 42 -11 65 1 63 33 -1 21 4 30 19 34 11 3 24 0 28 -7 4 -7 8 -7
8 -2 0 6 5 3 10 -5 13 -21 70 -22 70 -1 0 14 -2 14 -10 1 -7 -11 -10 -6 -10
20 1 33 1 34 15 16 12 -16 18 -17 27 -8 19 19 31 14 26 -12 -4 -21 -1 -24 21
-23 18 2 25 -2 23 -13 -3 -12 -1 -12 9 -3 9 9 8 15 -5 28 -20 20 -21 36 -2 29
8 -3 16 4 20 20 12 47 55 21 50 -29 -6 -50 -7 -55 -14 -55 -4 0 -5 -11 -2 -25
3 -19 9 -24 22 -20 22 7 38 -14 20 -25 -9 -6 -7 -13 9 -29 18 -18 24 -19 43
-9 30 17 47 39 41 55 -3 8 2 13 12 13 12 0 16 -6 12 -20 -3 -13 1 -24 14 -30
16 -9 18 -7 15 18 -2 23 1 28 21 30 15 1 23 -4 23 -13 0 -17 16 -20 25 -5 3 6
1 10 -4 10 -24 0 -9 21 19 26 44 9 38 31 -7 25 -7 -1 -13 2 -13 7 0 14 -38 22
-43 8 -3 -8 -8 -7 -20 2 -9 8 -25 11 -36 7 -12 -4 -30 0 -42 8 -18 13 -11 15
72 12 57 -2 95 -8 99 -15 6 -10 8 -10 12 0 3 11 88 18 260 20 46 1 67 5 65 13
-1 7 9 10 29 9 25 -3 37 3 58 28 31 38 33 56 6 65 -11 4 -18 10 -15 15 3 4 2
15 -1 24 -5 14 -9 14 -22 4 -13 -11 -14 -10 -4 9 16 30 15 41 -2 17 -8 -10
-17 -16 -20 -13 -8 8 8 51 18 48 4 -1 23 4 42 11 24 10 36 22 40 39 16 78 16
75 1 62 -20 -16 -33 4 -16 25 10 12 9 13 -5 8 -13 -5 -15 -1 -10 25 6 28 4 31
-12 24 -18 -7 -18 -6 -1 11 10 10 16 25 13 33 -4 8 3 26 14 40 11 14 20 22 20
17 0 -4 6 1 14 11 8 11 12 23 10 27 -3 5 0 8 6 8 8 0 10 9 6 24 -3 14 -2 27 3
30 11 7 -9 66 -23 66 -5 0 -1 7 10 15 11 8 14 14 6 15 -10 0 -10 5 -1 21 8 15
8 19 0 15 -7 -5 -10 2 -9 18 1 13 6 24 11 23 5 -1 12 4 14 11 3 6 -3 12 -12
12 -9 0 -13 5 -10 10 3 6 1 10 -5 10 -8 0 -10 9 -6 24 3 14 2 28 -4 31 -5 3
-10 11 -10 16 0 6 3 8 8 6 4 -3 7 17 7 44 0 27 -4 49 -9 49 -5 0 -4 6 3 13 8
10 7 17 -2 27 -8 9 -9 11 0 6 6 -3 14 -2 18 4 3 6 0 13 -9 16 -9 3 -13 16 -11
32 1 15 3 44 4 65 1 23 5 36 11 32 13 -8 13 -2 -3 27 -7 15 -18 23 -27 20 -11
-4 -10 -1 2 12 11 10 16 28 14 47 -2 16 1 32 6 35 6 4 5 10 -3 16 -10 7 -8 8
7 4 14 -5 21 -2 21 9 0 8 -6 15 -14 15 -7 0 -22 9 -33 20 -12 12 -27 19 -35
18 -7 -2 -13 2 -12 7 1 6 4 9 7 9 48 -12 60 -13 60 -5 0 5 -6 12 -12 14 -10 4
-10 6 0 6 15 1 16 31 1 31 -5 0 -8 -4 -5 -8 3 -5 -9 -9 -27 -9 -18 0 -26 2
-19 5 20 6 14 22 -9 22 -11 0 -17 5 -14 10 4 6 10 8 15 5 4 -3 12 1 18 8 11
13 0 51 -17 62 -16 9 -13 35 3 35 17 0 23 15 22 55 -1 24 -5 29 -21 27 -18 -2
-18 -1 4 18 13 11 21 23 18 27 -4 3 -2 13 3 22 5 10 5 23 0 31 -10 16 9 50 27
50 7 0 13 4 13 9 0 5 6 8 13 7 6 0 14 4 17 9 3 6 -24 11 -70 13 -58 3 -77 7
-87 22 -12 17 -68 36 -58 19 9 -13 -35 -21 -50 -9 -10 8 -19 8 -34 0 -27 -14
-53 -9 -69 13 -12 16 -15 16 -25 3 -7 -8 -24 -20 -39 -25 -22 -8 -26 -7 -22 4
3 7 12 16 20 19 12 4 12 9 2 25 -13 22 -42 16 -33 -7 5 -13 2 -13 -14 2 -18
17 -19 16 -28 -10 -8 -25 -10 -26 -25 -10 -16 15 -18 15 -28 -1 -8 -12 -13
-14 -16 -6 -4 8 -13 9 -30 3 -13 -5 -24 -6 -24 -1 0 5 -18 5 -41 0 -43 -10
-64 -5 -53 13 4 7 2 8 -5 4 -6 -4 -9 -12 -6 -17 4 -5 0 -9 -8 -9 -10 0 -13 7
-10 20 4 14 0 20 -12 20 -11 0 -15 -5 -11 -15 3 -8 2 -15 -2 -16 -61 -7 -64
-4 -65 56 -2 48 -13 44 -38 -15 -12 -27 -24 -50 -28 -50 -15 1 -42 29 -37 38
3 6 -1 12 -9 16 -9 3 -15 0 -15 -8 0 -17 -30 -30 -31 -13 0 7 -4 2 -9 -11 -8
-19 -13 -21 -30 -12 -11 6 -20 15 -20 21 0 6 -5 7 -10 4 -6 -4 -7 -11 -4 -17
4 -7 2 -8 -4 -4 -6 4 -8 14 -5 23 4 11 2 14 -8 11 -8 -3 -24 6 -37 20 -22 23
-28 24 -84 18 -73 -7 -113 0 -98 19 8 10 8 15 -1 21 -8 5 -9 3 -4 -5 5 -9 -1
-11 -21 -8 -117 20 -110 20 -128 -4 -9 -13 -22 -24 -29 -25 -6 0 -31 -2 -55
-2 -24 -1 -41 -6 -37 -11 3 -6 14 -8 25 -6 17 3 18 1 7 -16 -13 -20 -27 -25
-27 -9 0 6 -7 10 -15 10 -8 0 -15 8 -16 18 0 10 -3 12 -6 5 -2 -7 -11 -13 -19
-13 -9 0 -12 5 -9 10 3 6 1 10 -5 10 -7 0 -9 -8 -5 -21 6 -16 4 -20 -6 -13
-17 10 -49 13 -53 5 -2 -3 -6 -19 -10 -34 -6 -24 -5 -27 7 -15 8 7 12 19 10
25 -3 7 2 13 11 13 20 0 21 -14 1 -30 -8 -7 -15 -21 -15 -31 0 -22 -29 -26
-49 -6 -8 7 -11 7 -8 1 8 -14 -30 -26 -39 -13 -3 5 -10 7 -15 3 -6 -3 -7 4 -3
20 3 15 2 26 -4 26 -5 0 -13 -11 -16 -25 -4 -14 -11 -23 -17 -19 -6 3 -8 12
-5 20 3 8 1 14 -4 14 -5 0 -12 -9 -15 -20 -5 -16 -16 -20 -48 -21 -23 -1 -46
0 -52 1 -5 1 -75 3 -155 4 -80 0 -151 5 -157 9 -8 5 -13 4 -13 -2 0 -6 -7 -8
-15 -5 -8 4 -13 9 -10 13 2 4 -2 8 -10 8 -8 0 -15 -6 -15 -14 0 -7 -5 -13 -11
-13 -7 0 -9 10 -5 25 4 14 2 25 -4 25 -5 0 -10 -9 -10 -20 0 -11 -4 -20 -9
-20 -5 0 -8 11 -5 24 2 15 -2 26 -11 30 -8 3 -15 18 -15 33 0 32 -19 70 -21
43 -1 -8 -1 -19 0 -23 1 -4 -8 -3 -19 3 -16 9 -19 8 -13 -6 4 -11 3 -15 -5
-10 -6 3 -13 2 -17 -4 -4 -6 -11 -8 -16 -5 -5 4 -9 1 -9 -4 0 -14 -24 -14 -72
-1 -28 8 -36 15 -32 28 2 9 -1 7 -7 -5 -11 -21 -13 -21 -24 -6 -11 15 -14 15
-27 2 -15 -15 -123 -18 -166 -5 -12 4 -22 3 -22 -2 0 -4 -22 -6 -50 -2 -27 3
-55 3 -62 -1 -7 -4 -16 -5 -22 -2 -5 4 -31 6 -58 6 -28 -1 -48 3 -48 10 0 5
-3 7 -7 4 -3 -4 -12 -2 -20 4 -10 9 -13 8 -13 -5 0 -25 -20 -19 -21 7 0 21 -1
21 -9 2 -6 -14 -9 -16 -10 -5 -2 8 -2 18 -1 23 0 4 -4 7 -9 7 -6 0 -15 11 -20
25 -12 30 -21 31 -38 5z m1821 -35 c-3 -9 -8 -14 -10 -11 -3 3 -2 9 2 15 9 16
15 13 8 -4z m-2118 -15 c-3 -5 -10 -10 -16 -10 -5 0 -9 5 -9 10 0 6 7 10 16
10 8 0 12 -4 9 -10z m355 -24 c0 -3 -4 -8 -10 -11 -5 -3 -10 -1 -10 4 0 6 5
11 10 11 6 0 10 -2 10 -4z m-330 -40 c0 -10 -11 -14 -35 -13 -34 1 -42 7 -28
20 13 13 63 7 63 -7z m227 -12 c12 -11 13 -18 4 -27 -7 -7 -11 -8 -11 0 0 6
-10 13 -22 17 -19 5 -21 8 -8 16 19 13 19 13 37 -6z m-257 -34 c0 -5 -2 -10
-4 -10 -3 0 -8 5 -11 10 -3 6 -1 10 4 10 6 0 11 -4 11 -10z m164 -41 c-3 -5
-10 -7 -15 -3 -5 3 -7 10 -3 15 3 5 10 7 15 3 5 -3 7 -10 3 -15z m3356 5 c0
-2 -7 -4 -15 -4 -8 0 -15 4 -15 10 0 5 7 7 15 4 8 -4 15 -8 15 -10z m-64 -32
c-8 -7 -46 19 -41 28 3 5 14 2 25 -7 11 -9 18 -19 16 -21z m-3349 -22 c2 -11
-1 -20 -5 -20 -4 0 -9 12 -10 27 -2 30 10 24 15 -7z m293 -5 c0 -8 -4 -15 -10
-15 -5 0 -10 7 -10 15 0 8 5 15 10 15 6 0 10 -7 10 -15z m-300 -55 c0 -5 -5
-10 -11 -10 -5 0 -7 5 -4 10 3 6 8 10 11 10 2 0 4 -4 4 -10z m-120 -45 c-9
-11 -16 -13 -23 -6 -7 7 -6 15 3 26 9 11 16 13 23 6 7 -7 6 -15 -3 -26z m30
-19 c0 -8 -4 -18 -10 -21 -5 -3 -10 3 -10 14 0 12 5 21 10 21 6 0 10 -6 10
-14z m-8 -132 c-3 -25 -7 -32 -13 -23 -8 13 -13 5 -10 -13 0 -5 -4 -8 -10 -8
-6 0 -9 6 -6 14 3 7 0 19 -6 26 -9 10 -9 11 2 5 17 -10 35 16 18 27 -9 6 -8
10 3 17 20 13 27 -1 22 -45z m143 27 c3 -5 1 -12 -5 -16 -5 -3 -10 1 -10 9 0
18 6 21 15 7z m-65 -65 c0 -3 -4 -8 -10 -11 -5 -3 -10 -1 -10 4 0 6 5 11 10
11 6 0 10 -2 10 -4z m6 -55 c15 12 17 9 8 -15 -7 -19 -34 -9 -33 13 0 11 2 12
6 3 4 -10 8 -10 19 -1z m-10 -208 c-1 -32 2 -66 6 -75 5 -10 5 -18 0 -18 -5 0
-8 -16 -6 -36 1 -20 -1 -55 -6 -78 l-8 -41 -2 40 c-4 99 -6 241 -2 253 10 30
19 7 18 -45z m-46 -474 c0 -5 -4 -9 -10 -9 -5 0 -10 7 -10 16 0 8 5 12 10 9 6
-3 10 -10 10 -16z m105 -49 c-10 -11 -20 -18 -23 -15 -7 6 18 35 31 35 5 0 2
-9 -8 -20z m-20 -210 c-10 -11 -23 -20 -28 -20 -6 0 -2 9 8 20 10 11 23 20 28
20 6 0 2 -9 -8 -20z m3379 -200 c-6 -6 -10 -2 -11 12 -2 16 1 18 10 9 7 -7 8
-14 1 -21z m-109 -110 c-3 -5 -1 -10 6 -10 8 0 8 -4 -1 -15 -9 -10 -16 -12
-25 -5 -8 6 -15 6 -23 -2 -9 -9 -12 -7 -12 11 0 12 4 19 10 16 5 -3 18 -1 27
4 23 13 26 13 18 1z m-1365 -40 c0 -5 -4 -10 -10 -10 -5 0 -10 5 -10 10 0 6 5
10 10 10 6 0 10 -4 10 -10z m35 -4 c12 -12 12 -15 -1 -20 -23 -9 -24 -8 -24
14 0 24 6 25 25 6z m50 -5 c-3 -6 -11 -8 -17 -5 -6 4 -5 9 3 15 16 10 23 4 14
-10z m113 10 c7 -1 11 -5 8 -9 -3 -5 -15 -8 -28 -7 -17 1 -27 -7 -39 -33 -12
-24 -18 -30 -22 -19 -3 9 1 18 10 21 12 5 13 9 3 21 -17 20 -5 32 27 29 15 -1
34 -2 41 -3z m120 -2 l27 -1 -30 -13 c-45 -21 -64 -19 -58 6 4 12 11 18 20 15
8 -3 27 -6 41 -7z m-208 -33 c0 -3 -4 -8 -10 -11 -5 -3 -10 -1 -10 4 0 6 5 11
10 11 6 0 10 -2 10 -4z m1143 -91 c-3 -9 -8 -14 -10 -11 -3 3 -2 9 2 15 9 16
15 13 8 -4z m-1920 -29 c4 -10 1 -13 -9 -9 -7 3 -14 9 -14 14 0 14 17 10 23
-5z m584 -8 c-3 -8 -6 -5 -6 6 -1 11 2 17 5 13 3 -3 4 -12 1 -19z m883 -8 c0
-5 -5 -10 -11 -10 -5 0 -7 5 -4 10 3 6 8 10 11 10 2 0 4 -4 4 -10z m-1370 -30
c0 -5 -2 -10 -4 -10 -3 0 -8 5 -11 10 -3 6 -1 10 4 10 6 0 11 -4 11 -10z m270
-15 c-7 -8 -17 -12 -22 -9 -6 4 -5 10 3 15 22 14 33 10 19 -6z m1295 5 c3 -5
-1 -10 -9 -10 -9 0 -16 5 -16 10 0 6 4 10 9 10 6 0 13 -4 16 -10z m-2547 -35
c-3 -3 -13 -2 -22 1 -14 5 -15 9 -4 15 13 8 36 -6 26 -16z m-354 -32 c3 -10 9
-24 12 -30 4 -9 -2 -13 -18 -12 -12 0 -17 3 -10 6 6 2 12 10 12 16 0 5 -3 7
-7 4 -7 -8 -33 11 -33 24 0 17 38 9 44 -8z m415 -9 c-14 -18 -24 -11 -15 11 3
9 11 13 16 10 8 -5 7 -11 -1 -21z m2332 9 c13 -16 12 -17 -3 -4 -17 13 -22 21
-14 21 2 0 10 -8 17 -17z"/>
<path d="M140 2951 c0 -6 5 -13 10 -16 6 -3 10 1 10 9 0 9 -4 16 -10 16 -5 0
-10 -4 -10 -9z"/>
<path d="M276 2925 c-3 -8 -1 -15 4 -15 6 0 10 7 10 15 0 8 -2 15 -4 15 -2 0
-6 -7 -10 -15z"/>
<path d="M2670 2912 c0 -5 7 -13 16 -16 10 -4 14 -1 12 6 -5 15 -28 23 -28 10z"/>
<path d="M1380 2876 c0 -8 7 -16 15 -20 17 -6 18 -4 9 18 -8 20 -24 21 -24 2z"/>
<path d="M1517 2884 c-10 -10 -9 -52 1 -58 4 -2 13 4 19 14 9 13 9 22 0 34 -7
10 -16 14 -20 10z"/>
<path d="M1689 2888 c-5 -16 -3 -58 3 -58 4 0 8 9 8 21 0 11 4 17 10 14 6 -3
7 1 4 9 -5 13 -22 22 -25 14z"/>
<path d="M1813 2874 c-3 -9 0 -19 6 -24 7 -4 12 -10 12 -14 -3 -24 0 -29 10
-19 8 8 6 18 -6 37 -21 32 -13 34 15 4 14 -15 20 -18 18 -8 -3 16 -27 39 -41
40 -4 0 -10 -7 -14 -16z"/>
<path d="M1420 2870 c0 -5 5 -10 10 -10 6 0 10 5 10 10 0 6 -4 10 -10 10 -5 0
-10 -4 -10 -10z"/>
<path d="M1457 2845 c-4 -8 -2 -17 3 -20 6 -4 10 3 10 14 0 25 -6 27 -13 6z"/>
<path d="M1710 2819 c0 -5 5 -7 10 -4 6 3 10 8 10 11 0 2 -4 4 -10 4 -5 0 -10
-5 -10 -11z"/>
<path d="M3670 2510 c0 -5 5 -10 11 -10 5 0 7 5 4 10 -3 6 -8 10 -11 10 -2 0
-4 -4 -4 -10z"/>
<path d="M3697 2496 c-3 -8 0 -17 7 -19 10 -4 12 1 9 14 -6 23 -9 24 -16 5z"/>
<path d="M140 2091 c0 -5 9 -11 20 -14 12 -3 20 0 20 7 0 6 -9 12 -20 13 -11
1 -20 -2 -20 -6z"/>
<path d="M3795 1960 c-3 -5 -3 -14 0 -20 3 -5 2 -10 -4 -10 -5 0 -12 6 -14 13
-3 6 -6 2 -6 -10 -1 -27 1 -27 32 -10 12 6 24 13 26 14 2 1 -4 9 -12 18 -10 9
-18 11 -22 5z"/>
<path d="M3756 1438 c-4 -9 -5 -22 -1 -28 4 -6 -3 -9 -16 -7 -12 1 -24 -4 -26
-13 -3 -11 -2 -12 5 -2 5 7 16 10 25 6 19 -7 31 14 24 43 -4 17 -4 17 -11 1z"/>
<path d="M3738 1360 c-10 -9 -18 -21 -18 -25 0 -5 5 -4 11 2 6 6 18 9 25 6 8
-3 14 1 14 10 0 24 -13 26 -32 7z"/>
<path d="M3751 1286 c-8 -10 -8 -21 -1 -41 12 -33 22 -27 25 15 3 35 -8 46
-24 26z"/>
<path d="M3726 1102 c-2 -4 -1 -14 5 -22 7 -12 9 -10 9 8 0 23 -5 28 -14 14z"/>
<path d="M3690 1095 c0 -5 5 -17 10 -25 5 -8 10 -10 10 -5 0 6 -5 17 -10 25
-5 8 -10 11 -10 5z"/>
<path d="M172 1013 c4 -21 43 -24 43 -4 0 8 -10 16 -23 18 -18 2 -23 -1 -20
-14z"/>
<path d="M3715 971 c5 -24 3 -32 -7 -30 -26 3 -48 -1 -48 -10 0 -5 12 -8 28
-6 15 2 32 4 38 4 13 1 6 59 -8 67 -7 4 -8 -5 -3 -25z"/>
<path d="M2340 951 c0 -6 4 -13 10 -16 6 -3 7 1 4 9 -7 18 -14 21 -14 7z"/>
<path d="M2238 899 c-4 -9 -1 -22 5 -28 8 -8 6 -15 -9 -26 -17 -13 -17 -14 -1
-15 9 0 17 5 17 10 0 15 47 12 53 -2 4 -9 6 -8 6 2 1 8 -12 21 -28 28 -17 7
-31 21 -33 30 -3 15 -4 15 -10 1z"/>
<path d="M3295 860 c3 -5 8 -10 11 -10 2 0 4 5 4 10 0 6 -5 10 -11 10 -5 0 -7
-4 -4 -10z"/>
<path d="M3181 806 c-9 -10 -8 -15 2 -19 8 -3 13 3 13 14 0 23 0 23 -15 5z"/>
<path d="M1080 800 c0 -5 5 -10 11 -10 5 0 7 5 4 10 -3 6 -8 10 -11 10 -2 0
-4 -4 -4 -10z"/>
<path d="M2977 794 c3 -7 9 -14 14 -14 14 0 10 17 -5 23 -10 4 -13 1 -9 -9z"/>
<path d="M1695 790 c3 -5 8 -10 11 -10 2 0 4 5 4 10 0 6 -5 10 -11 10 -5 0 -7
-4 -4 -10z"/>
<path d="M3240 789 c0 -5 5 -7 12 -3 8 5 9 2 4 -11 -5 -15 -4 -16 9 -5 13 11
13 15 3 21 -18 12 -28 11 -28 -2z"/>
<path d="M1760 770 c-8 -5 -10 -10 -5 -10 6 0 17 5 25 10 8 5 11 10 5 10 -5 0
-17 -5 -25 -10z"/>
<path d="M3330 770 c0 -5 5 -10 10 -10 6 0 10 5 10 10 0 6 -4 10 -10 10 -5 0
-10 -4 -10 -10z"/>
<path d="M605 740 c-3 -5 1 -10 10 -10 9 0 13 5 10 10 -3 6 -8 10 -10 10 -2 0
-7 -4 -10 -10z"/>
<path d="M1600 720 c0 -5 5 -10 10 -10 6 0 10 5 10 10 0 6 -4 10 -10 10 -5 0
-10 -4 -10 -10z"/>
<path d="M1580 711 c0 -6 4 -13 10 -16 6 -3 7 1 4 9 -7 18 -14 21 -14 7z"/>
<path d="M1625 670 c-3 -5 -1 -10 4 -10 6 0 11 5 11 10 0 6 -2 10 -4 10 -3 0
-8 -4 -11 -10z"/>
<path d="M1625 640 c-3 -5 1 -10 10 -10 9 0 13 5 10 10 -3 6 -8 10 -10 10 -2
0 -7 -4 -10 -10z"/>
</g>
</svg>
