<?xml version="1.0" standalone="no"?>
<!DOCTYPE svg PUBLIC "-//W3C//DTD SVG 20010904//EN"
 "http://www.w3.org/TR/2001/REC-SVG-20010904/DTD/svg10.dtd">
<svg version="1.0" xmlns="http://www.w3.org/2000/svg"
 width="500.000000pt" height="500.000000pt" viewBox="0 0 500.000000 500.000000"
 preserveAspectRatio="xMidYMid meet">
<metadata>
Created by potrace 1.16, written by Peter Selinger 2001-2019
</metadata>
<g transform="translate(0.000000,500.000000) scale(0.100000,-0.100000)"
fill="#000000" stroke="none">
<path d="M2609 3865 c-5 -5 -23 -11 -39 -11 -56 -3 -60 -4 -60 -22 0 -11 -8
-18 -21 -19 -14 -1 -19 3 -15 13 3 8 -1 14 -9 14 -8 0 -14 -6 -12 -12 1 -9
-10 -12 -37 -10 -31 3 -37 0 -33 -12 3 -8 2 -18 -4 -21 -5 -4 -12 1 -15 9 -3
9 -10 16 -15 16 -4 0 -23 14 -40 31 -26 25 -37 30 -63 25 -17 -3 -76 -10 -131
-16 -127 -14 -257 -38 -315 -57 -66 -22 -216 -91 -274 -126 -28 -16 -67 -39
-86 -49 -67 -38 -190 -131 -190 -145 0 -7 -9 -13 -19 -13 -23 0 -254 -228
-314 -310 -22 -30 -55 -72 -74 -93 -18 -20 -33 -43 -33 -51 0 -7 -7 -19 -16
-26 -19 -17 -44 -75 -44 -105 0 -13 -4 -25 -9 -27 -13 -5 -51 -116 -45 -133 4
-8 2 -15 -4 -15 -20 0 -49 -64 -41 -93 7 -26 -11 -79 -31 -92 -4 -3 -5 -17 -1
-33 6 -20 14 -26 29 -25 23 3 28 -12 12 -37 -9 -13 -12 -13 -21 3 -10 17 -39
24 -39 10 1 -12 24 -37 45 -49 29 -16 33 -38 6 -31 -18 4 -21 2 -16 -11 24
-57 11 -87 -13 -32 -8 18 -18 27 -25 23 -8 -5 -7 -8 2 -11 9 -3 8 -9 -5 -23
-16 -17 -16 -24 -5 -56 12 -33 12 -38 -5 -50 -15 -11 -16 -16 -6 -22 7 -4 14
-22 14 -40 1 -38 18 -54 18 -17 0 14 5 26 11 26 5 0 7 -5 4 -10 -4 -6 -1 -17
5 -25 7 -9 10 -28 7 -44 -5 -25 -4 -28 15 -23 18 4 19 2 13 -19 -14 -48 -55
-64 -55 -21 0 10 -3 12 -9 7 -15 -16 -25 -125 -12 -125 6 0 11 5 11 10 0 6 5
10 12 10 9 0 9 -3 0 -12 -17 -17 -15 -38 3 -38 9 0 15 9 15 21 0 31 23 18 32
-19 10 -36 13 -38 35 -17 14 14 14 18 -2 35 -16 18 -14 40 5 40 5 0 18 -9 29
-21 11 -12 24 -18 30 -15 17 11 22 -11 15 -63 -4 -34 -10 -48 -19 -45 -7 3
-16 -4 -20 -15 -11 -37 -35 -17 -35 30 0 10 -4 19 -10 19 -17 0 -10 -63 12
-110 12 -25 22 -56 22 -69 1 -18 8 -27 26 -31 18 -4 29 -18 41 -50 17 -44 23
-43 31 5 3 17 7 14 22 -15 11 -19 30 -46 44 -60 26 -27 45 -67 37 -79 -2 -5
11 -26 30 -49 36 -41 47 -64 20 -42 -22 18 -18 -3 5 -33 11 -14 19 -36 18 -48
-2 -18 2 -24 19 -25 13 -1 29 -6 36 -13 23 -18 39 9 21 33 -18 25 -18 46 0 46
17 0 40 -26 28 -34 -19 -12 0 -68 29 -85 27 -15 34 -28 30 -58 -1 -6 3 -14 9
-18 5 -3 10 -1 10 4 0 6 7 11 15 11 8 0 15 -4 15 -10 0 -5 7 -10 15 -10 21 0
37 -34 22 -49 -9 -10 -6 -11 18 -6 17 4 35 13 40 20 8 9 16 10 28 4 21 -12 22
-29 2 -29 -8 0 -15 -7 -15 -15 0 -17 26 -20 36 -4 8 14 50 3 85 -22 17 -12 30
-15 34 -9 11 17 23 11 42 -20 14 -24 23 -30 41 -25 12 3 36 -2 52 -10 17 -9
30 -13 30 -10 0 4 10 -1 22 -9 25 -18 58 -21 58 -6 0 11 30 13 54 4 22 -8 20
-24 -3 -24 -17 0 -37 -27 -28 -37 11 -10 113 -7 122 4 7 9 24 10 60 5 47 -7
50 -10 48 -35 -2 -24 1 -27 33 -27 33 0 47 14 22 22 -6 2 -8 9 -4 16 4 7 23 9
49 6 23 -3 76 -7 117 -10 41 -2 86 -6 98 -9 29 -7 52 10 52 37 0 11 5 18 13
15 6 -2 12 -15 12 -28 0 -22 4 -23 43 -20 57 4 54 -16 -4 -25 -43 -6 -44 -7
-27 -24 20 -18 78 -20 123 -5 14 5 33 8 43 6 10 -1 17 4 17 13 0 19 31 21 49
4 11 -11 14 -10 18 0 7 19 62 44 83 37 32 -10 61 12 54 40 -5 21 -3 25 17 25
13 1 35 7 49 15 32 18 40 18 40 0 0 -8 -4 -15 -10 -15 -5 0 -10 -4 -10 -10 0
-19 25 -10 35 12 7 16 22 25 50 30 22 4 66 21 98 37 32 17 60 31 63 31 2 0 4
-9 4 -20 0 -16 6 -19 30 -17 36 4 76 37 59 48 -6 4 -8 12 -4 19 9 14 165 90
186 90 8 1 32 19 54 40 22 22 45 40 51 40 6 0 18 7 25 16 7 9 36 29 64 45 27
16 68 45 90 64 23 21 47 34 57 32 11 -3 33 17 69 63 31 39 59 66 66 63 7 -3
13 1 13 10 0 8 18 26 39 40 22 15 55 49 73 77 33 51 54 66 43 30 -3 -11 -3
-20 1 -20 11 0 33 34 34 52 0 9 9 23 19 30 13 9 21 32 26 70 5 37 15 66 29 81
11 12 21 34 21 47 0 14 10 40 22 59 13 19 23 38 23 42 0 5 7 9 15 9 9 0 15 -9
15 -25 0 -14 3 -25 6 -25 9 0 43 44 44 57 0 6 5 13 12 15 8 3 7 11 -5 29 l-17
24 -6 -22 c-4 -13 -14 -23 -23 -23 -14 0 -14 2 -1 10 12 8 11 13 -8 39 -28 39
-28 49 3 61 15 6 23 15 19 24 -3 8 -1 17 5 20 6 4 4 16 -5 34 -16 32 -18 58
-4 67 10 6 12 0 14 -40 1 -11 11 -24 24 -30 28 -12 37 -38 22 -65 -7 -14 -8
-26 -1 -38 10 -16 10 -16 11 1 0 20 16 23 23 5 2 -7 3 50 1 127 -1 77 -4 142
-5 145 -3 7 -6 31 -8 63 0 15 -10 36 -20 46 -21 21 -30 59 -19 77 4 6 10 30
14 52 5 34 3 43 -10 48 -13 5 -15 14 -11 35 5 22 3 29 -9 29 -20 0 -20 20 -1
46 21 28 18 35 -10 28 -26 -6 -36 10 -12 20 8 3 6 9 -7 20 -11 9 -25 30 -32
48 -7 18 -20 53 -29 78 -9 25 -23 52 -31 61 -8 8 -14 23 -14 32 0 19 -19 66
-36 87 -6 8 -14 30 -18 49 -4 24 -22 49 -57 81 -29 26 -49 54 -47 61 3 8 -4
18 -15 24 -11 5 -25 19 -31 30 -6 11 -15 23 -20 26 -4 4 -2 10 5 15 7 4 14 3
17 -4 2 -7 8 -12 14 -12 5 0 -1 14 -13 31 -16 23 -19 33 -9 39 9 6 9 9 0 15
-7 4 -16 2 -20 -5 -6 -9 -9 -10 -15 0 -4 7 -1 16 6 21 8 5 10 9 4 9 -5 0 -32
20 -60 45 -27 25 -58 45 -68 45 -11 0 -37 14 -59 31 -21 17 -41 29 -44 26 -6
-6 -64 51 -64 64 0 5 7 9 15 9 8 0 15 -4 15 -10 0 -5 7 -10 15 -10 8 0 15 -7
15 -15 0 -8 6 -15 14 -15 7 0 25 -9 39 -20 14 -11 28 -20 31 -20 4 0 2 9 -4
20 -6 11 -16 20 -22 20 -26 0 -91 90 -82 114 8 20 -32 26 -74 11 -20 -7 -31
-14 -24 -14 6 -1 12 -6 12 -11 0 -18 -38 8 -45 30 -9 28 -25 25 -25 -6 0 -27
-26 -61 -38 -49 -4 4 -1 10 6 12 18 7 15 37 -6 56 -10 9 -33 20 -51 23 -30 6
-33 5 -27 -14 6 -17 3 -20 -16 -15 -13 3 -29 11 -37 17 -7 6 -26 9 -42 8 -16
-2 -34 0 -41 4 -7 5 -84 9 -170 11 -131 2 -158 0 -158 -12 0 -12 -4 -12 -27 0
-16 8 -37 17 -48 21 -30 12 -205 10 -216 -1z m40 -38 c-17 -13 -75 -35 -82
-30 -15 9 14 32 46 35 31 3 45 1 36 -5z m766 -17 c3 -5 1 -10 -4 -10 -6 0 -11
5 -11 10 0 6 2 10 4 10 3 0 8 -4 11 -10z m143 -66 c27 -18 29 -34 4 -34 -11 0
-24 11 -30 25 -13 29 -6 32 26 9z m-58 -21 c0 -13 -3 -13 -15 -3 -8 7 -12 16
-9 21 8 13 24 1 24 -18z m385 -283 c3 -5 1 -10 -4 -10 -6 0 -11 5 -11 10 0 6
2 10 4 10 3 0 8 -4 11 -10z m-2940 -469 c3 -5 1 -12 -5 -16 -5 -3 -10 1 -10 9
0 18 6 21 15 7z m16 -47 c-11 -15 -21 -23 -21 -18 0 14 31 56 37 50 3 -3 -4
-17 -16 -32z m-31 -59 c0 -3 -9 -15 -20 -27 -22 -24 -26 -18 -8 12 12 19 28
27 28 15z m-65 -65 c-3 -5 -10 -10 -16 -10 -5 0 -9 5 -9 10 0 6 7 10 16 10 8
0 12 -4 9 -10z m-35 -144 c0 -8 -4 -18 -10 -21 -15 -10 -12 -23 8 -28 14 -3
12 -6 -8 -14 -21 -9 -26 -8 -28 6 -4 23 15 71 28 71 5 0 10 -6 10 -14z m-120
-63 c0 -20 -19 -25 -35 -10 -17 17 -13 23 15 23 11 0 20 -6 20 -13z m88 -40
c-4 -22 -48 -31 -48 -10 0 19 10 27 32 27 13 0 18 -6 16 -17z m-42 -165 c-12
-21 -24 -38 -28 -38 -11 0 -10 18 2 25 21 13 10 32 -15 27 -39 -7 -31 28 13
59 l37 25 6 -30 c3 -21 -2 -43 -15 -68z m-16 -85 c0 -22 -17 -49 -25 -41 -8 8
5 58 16 58 5 0 9 -8 9 -17z m-10 -93 c0 -16 5 -30 10 -30 6 0 10 -4 10 -10 0
-17 -25 -11 -37 9 -12 20 -7 61 8 61 5 0 9 -13 9 -30z m-90 6 c0 -8 -4 -18
-10 -21 -5 -3 -10 3 -10 14 0 12 5 21 10 21 6 0 10 -6 10 -14z m3650 -2 c0 -8
-4 -12 -10 -9 -5 3 -10 10 -10 16 0 5 5 9 10 9 6 0 10 -7 10 -16z m-3562 -121
c-2 -35 -8 -58 -16 -61 -9 -3 -11 3 -7 21 4 14 2 28 -5 32 -7 4 -14 -1 -17
-14 -4 -17 -8 -19 -19 -10 -15 12 -6 37 24 72 30 34 43 21 40 -40z m-17 -106
c-1 -12 -15 -9 -19 4 -3 6 1 10 8 8 6 -3 11 -8 11 -12z m69 -34 c-1 -5 -7 -19
-14 -32 l-13 -23 -6 23 c-3 12 -4 26 -1 31 6 10 34 11 34 1z m1940 -236 c0 -7
-16 -21 -35 -30 -42 -20 -45 -11 -7 20 31 26 42 28 42 10z m-1990 -7 c0 -5 -5
-10 -11 -10 -5 0 -7 5 -4 10 3 6 8 10 11 10 2 0 4 -4 4 -10z m87 -115 c8 -22
-6 -33 -17 -15 -13 20 -12 30 0 30 6 0 13 -7 17 -15z m213 -325 c0 -5 -2 -10
-4 -10 -3 0 -8 5 -11 10 -3 6 -1 10 4 10 6 0 11 -4 11 -10z m110 -71 c0 -6 -4
-7 -10 -4 -5 3 -10 11 -10 16 0 6 5 7 10 4 6 -3 10 -11 10 -16z m700 -349 c0
-5 -7 -10 -15 -10 -8 0 -15 5 -15 10 0 6 7 10 15 10 8 0 15 -4 15 -10z m890
-15 c0 -10 -10 -15 -30 -15 -49 0 -34 24 18 29 6 0 12 -6 12 -14z m-490 -9 c0
-16 -37 -28 -46 -15 -4 7 19 22 44 28 1 1 2 -5 2 -13z m414 -17 c-3 -5 -16 -9
-29 -9 -13 0 -35 -4 -49 -10 -29 -11 -45 4 -20 18 21 12 106 13 98 1z m-134
-19 c0 -12 -28 -25 -36 -17 -9 9 6 27 22 27 8 0 14 -5 14 -10z"/>
<path d="M3547 3853 c-4 -3 -7 -11 -7 -17 0 -6 5 -5 12 2 6 6 9 14 7 17 -3 3
-9 2 -12 -2z"/>
<path d="M3655 3830 c-3 -5 1 -13 10 -16 22 -9 29 1 11 15 -10 8 -16 9 -21 1z"/>
<path d="M3652 3778 c3 -7 15 -15 29 -17 28 -4 39 -17 39 -48 0 -13 5 -23 11
-23 8 0 10 12 6 34 -3 21 -1 36 5 38 7 3 8 10 4 17 -7 11 -10 11 -17 0 -6 -10
-13 -10 -34 -1 -33 15 -48 15 -43 0z"/>
<path d="M3760 3751 c0 -13 29 -35 37 -28 7 8 -15 37 -28 37 -5 0 -9 -4 -9 -9z"/>
<path d="M3906 3721 c-4 -7 -5 -15 -2 -18 9 -9 19 4 14 18 -4 11 -6 11 -12 0z"/>
<path d="M3806 3689 c-12 -11 -15 -19 -7 -19 13 0 41 24 41 34 0 11 -15 5 -34
-15z"/>
<path d="M3856 3681 c-4 -7 -5 -15 -2 -18 9 -9 19 4 14 18 -4 11 -6 11 -12 0z"/>
<path d="M3960 3661 c0 -6 5 -13 10 -16 6 -3 10 1 10 9 0 9 -4 16 -10 16 -5 0
-10 -4 -10 -9z"/>
<path d="M3865 3610 c-3 -5 -1 -10 4 -10 6 0 11 5 11 10 0 6 -2 10 -4 10 -3 0
-8 -4 -11 -10z"/>
<path d="M4027 3493 c-4 -3 -7 -11 -7 -17 0 -6 5 -5 12 2 6 6 9 14 7 17 -3 3
-9 2 -12 -2z"/>
<path d="M3982 3408 c3 -7 12 -14 21 -16 12 -2 15 1 11 12 -7 19 -38 22 -32 4z"/>
<path d="M4085 3350 c3 -5 8 -10 11 -10 2 0 4 5 4 10 0 6 -5 10 -11 10 -5 0
-7 -4 -4 -10z"/>
<path d="M4105 3260 c3 -5 8 -10 11 -10 2 0 4 5 4 10 0 6 -5 10 -11 10 -5 0
-7 -4 -4 -10z"/>
<path d="M4220 2888 c0 -9 5 -20 11 -23 17 -11 20 0 4 21 -13 17 -14 17 -15 2z"/>
<path d="M4311 1976 c-12 -21 -11 -28 7 -51 18 -23 21 -24 25 -8 8 29 3 76 -9
80 -6 2 -16 -8 -23 -21z"/>
<path d="M4260 1868 c0 -6 3 -8 7 -5 3 4 12 2 20 -4 10 -9 13 -8 13 5 0 9 -8
16 -20 16 -11 0 -20 -5 -20 -12z"/>
<path d="M710 1791 c0 -6 5 -13 10 -16 6 -3 10 1 10 9 0 9 -4 16 -10 16 -5 0
-10 -4 -10 -9z"/>
<path d="M4145 1750 c3 -5 8 -10 11 -10 2 0 4 5 4 10 0 6 -5 10 -11 10 -5 0
-7 -4 -4 -10z"/>
<path d="M816 1481 c-4 -5 -2 -12 3 -15 5 -4 12 -2 15 3 4 5 2 12 -3 15 -5 4
-12 2 -15 -3z"/>
<path d="M860 1420 c0 -5 5 -10 10 -10 6 0 10 5 10 10 0 6 -4 10 -10 10 -5 0
-10 -4 -10 -10z"/>
<path d="M1060 1139 c0 -5 5 -7 10 -4 6 3 10 8 10 11 0 2 -4 4 -10 4 -5 0 -10
-5 -10 -11z"/>
<path d="M1436 922 c-3 -6 -1 -14 5 -17 15 -10 25 3 12 16 -7 7 -13 7 -17 1z"/>
<path d="M3056 898 c-18 -25 -16 -31 7 -23 16 7 31 45 17 45 -5 0 -16 -10 -24
-22z"/>
<path d="M2925 871 c-3 -5 -1 -12 5 -16 5 -3 10 1 10 9 0 18 -6 21 -15 7z"/>
<path d="M2796 824 c-7 -18 0 -34 15 -34 6 0 7 5 4 11 -4 6 1 17 11 24 18 14
18 14 -2 15 -12 0 -25 -7 -28 -16z"/>
<path d="M1907 793 c-6 -11 10 -53 20 -53 4 0 9 14 10 30 1 20 -2 30 -12 30
-8 0 -16 -3 -18 -7z"/>
<path d="M2060 762 c0 -5 16 -14 35 -22 19 -8 35 -21 35 -29 0 -13 2 -13 14
-1 8 8 17 24 20 35 5 19 1 21 -49 23 -30 1 -55 -1 -55 -6z"/>
<path d="M2198 764 c-16 -16 7 -24 67 -24 35 0 67 5 70 10 4 6 -9 10 -33 10
-22 0 -52 3 -68 6 -16 3 -32 2 -36 -2z"/>
</g>
</svg>
